<svg width="47" height="56" viewBox="0 0 47 56" fill="none" xmlns="http://www.w3.org/2000/svg">
<path d="M23.5861 19.6054C31.7214 19.6054 38.3162 25.9169 38.3162 33.7024C38.3162 41.4873 31.7214 47.7997 23.5861 47.7997C15.4501 47.7997 8.85425 41.4873 8.85425 33.7024C8.85425 25.9169 15.4501 19.6054 23.5861 19.6054Z" stroke="#231F20" stroke-width="1.33341" stroke-miterlimit="22.9256"/>
<path d="M23.5855 13.0649C35.4953 13.0649 45.1511 22.3045 45.1511 33.7023C45.1511 45.0993 35.4953 54.3387 23.5855 54.3387C11.6751 54.3387 2.02026 45.0993 2.02026 33.7023C2.02026 22.3045 11.6751 13.0649 23.5855 13.0649Z" stroke="#231F20" stroke-width="2.66684" stroke-miterlimit="22.9256"/>
<path fill-rule="evenodd" clip-rule="evenodd" d="M20.5708 0.328392H24.5855V35.7024H20.5708V0.328392Z" fill="#F47216"/>
<path d="M20.5708 0.328392H24.5855V35.7024H20.5708V0.328392Z" stroke="#F47216" stroke-width="0.666707" stroke-miterlimit="22.9256"/>
</svg>
