<svg width="201" height="156" viewBox="0 0 201 156" fill="none" xmlns="http://www.w3.org/2000/svg">
<path d="M79.0766 151.788C38.3934 151.788 5.27515 118.668 5.27515 77.9843C5.27515 37.301 38.3934 4.18023 79.0766 4.18023C119.762 4.18023 152.881 37.301 152.881 77.9843C152.881 118.668 119.762 151.788 79.0766 151.788ZM79.0766 5.27158C38.9763 5.27158 6.3665 37.8839 6.3665 77.9843C6.3665 118.085 38.9763 150.697 79.0766 150.697C119.18 150.697 151.789 118.085 151.789 77.9843C151.789 37.8839 119.18 5.27158 79.0766 5.27158Z" fill="#0A0203"/>
<path d="M79.0791 5.59214C39.1611 5.59214 6.68743 38.0658 6.68743 77.9838C6.68743 117.902 39.1611 150.376 79.0791 150.376C118.997 150.376 151.471 117.902 151.471 77.9838C151.471 38.0658 118.997 5.59214 79.0791 5.59214ZM79.0791 151.018C38.8067 151.018 6.04546 118.256 6.04546 77.9838C6.04546 37.714 38.8067 4.95016 79.0791 4.95016C119.352 4.95016 152.113 37.714 152.113 77.9838C152.113 118.256 119.352 151.018 79.0791 151.018ZM79.0791 4.50078C38.5602 4.50078 5.59608 37.4675 5.59608 77.9838C5.59608 118.503 38.5602 151.467 79.0791 151.467C119.598 151.467 152.562 118.503 152.562 77.9838C152.562 37.4675 119.598 4.50078 79.0791 4.50078ZM79.0791 152.109C38.2059 152.109 4.9541 118.857 4.9541 77.9838C4.9541 37.1106 38.2059 3.85881 79.0791 3.85881C119.952 3.85881 153.204 37.1106 153.204 77.9838C153.204 118.857 119.952 152.109 79.0791 152.109Z" fill="#0A0203"/>
<path d="M180.672 35.3212C180.466 35.2519 180.338 34.9566 180.176 34.7691C180.161 34.7563 180.168 34.7281 180.171 34.7101C179.955 33.005 180.461 31.9676 181.773 31.4103C183.286 30.7709 184.906 31.1356 185.874 32.3528C186.611 33.29 187.235 34.2761 187.389 35.5909C185.086 35.9016 182.857 36.0711 180.672 35.3212ZM100.943 91.9152C102.684 89.6092 104.099 88.1224 105.219 87.1004C107.314 85.1693 109.166 83.87 111.711 82.5116C113.827 81.3817 116.045 80.6961 118.264 79.7922C121.05 78.652 123.867 77.5504 126.74 76.6696C130.474 75.5192 134.37 75.0724 138.245 74.5999C144.087 73.8834 149.939 73.2414 155.737 72.1218C161.304 71.0536 166.497 69.0301 171.258 65.9974C174.357 64.0201 176.969 61.3495 179.583 58.7867C182.6 55.8516 185.001 52.3413 186.639 48.4689C188.08 45.0741 189.125 41.6383 189.279 37.9431C189.282 37.789 189.459 37.5502 189.605 37.5065C192.212 36.672 194.03 34.8693 195.535 32.6891C196.238 31.68 196.59 30.4576 196.539 29.2328C196.523 28.75 196.341 28.6293 195.984 28.9426C195.447 29.4151 194.841 29.9004 194.51 30.5116C193.565 32.2886 192.106 33.5083 190.494 34.5997C190.085 34.8796 189.613 35.0645 189.176 35.2956C188.871 34.4815 188.691 33.742 188.337 33.0923C186.665 30.0083 185.463 29.2713 182.544 29.5358C180.299 29.7361 178.823 30.9815 178.494 33.231C178.407 33.8473 178.407 34.4918 178.414 35.1132C178.425 36.0634 178.915 36.7387 179.778 37.07C180.99 37.5373 182.223 37.9431 183.56 37.8917C184.898 37.8404 186.231 37.8506 187.659 37.8352C187.646 38.2846 187.669 38.716 187.631 39.1423C187.256 43.8801 185.417 48.1094 182.898 52.0434C179.719 57.0123 175.007 60.4661 170.462 64.0278C168.251 65.7611 165.518 66.6933 162.912 67.7667C159.212 69.2817 155.316 70.0213 151.405 70.6016C146.639 71.313 141.837 71.8034 137.071 72.4634C132.796 73.0411 128.502 73.5855 124.411 75.021C121.641 75.9942 118.934 77.1395 116.24 78.2951C114.415 79.086 112.627 79.9771 110.886 80.9246C108.198 82.3986 105.666 84.3861 101.947 88.5564C100.902 89.7299 101.75 88.7593 100.946 89.9944C101.19 90.0715 101.385 90.2795 101.388 90.6313C101.393 90.9394 100.907 91.3015 100.946 91.6096" fill="#0A0203"/>
<path d="M180.777 35.0177C182.862 35.7316 185.001 35.5775 187.025 35.3156C186.814 34.196 186.231 33.3255 185.623 32.5525C184.75 31.4509 183.286 31.1145 181.899 31.7051C180.736 32.1982 180.299 33.1046 180.487 34.6428C180.523 34.6916 180.556 34.7404 180.59 34.7892C180.641 34.8662 180.733 34.9972 180.777 35.0177ZM184.154 36.1784C182.97 36.1784 181.771 36.0372 180.569 35.6237C180.325 35.5441 180.186 35.3361 180.061 35.1512C180.017 35.0896 179.976 35.028 179.932 34.9792L179.837 34.8662L179.847 34.7198C179.629 32.9018 180.217 31.7205 181.647 31.1119C183.309 30.4083 185.068 30.8218 186.126 32.1545C186.847 33.0738 187.541 34.1215 187.708 35.5544L187.746 35.8677L187.433 35.9113C186.37 36.0526 185.271 36.1784 184.154 36.1784ZM101.398 89.8861C101.549 90.0222 101.655 90.2122 101.693 90.4356C102.823 89.0361 103.912 87.86 105.003 86.8611C107.106 84.9274 108.942 83.6281 111.559 82.2286C113.038 81.4377 114.592 80.8548 116.094 80.2872C116.775 80.0305 117.46 79.7737 118.146 79.4938C120.655 78.4666 123.628 77.2879 126.648 76.3635C130.269 75.249 134.077 74.7842 137.765 74.3374L140.571 73.9933C145.538 73.3924 150.673 72.771 155.678 71.8055C161.253 70.7347 166.438 68.6906 171.086 65.7272C173.877 63.9451 176.309 61.557 178.658 59.2459L179.357 58.5577C182.364 55.638 184.714 52.1995 186.344 48.3426C187.998 44.4548 188.827 41.1473 188.958 37.9323C188.963 37.6447 189.23 37.2852 189.508 37.1979C191.719 36.4917 193.55 35.0023 195.273 32.5063C195.933 31.5562 196.269 30.4006 196.22 29.2451C196.22 29.2168 196.218 29.1886 196.215 29.1655C196.21 29.1706 196.202 29.1783 196.195 29.1834L195.984 29.3683C195.524 29.7689 195.052 30.1824 194.793 30.6651C193.76 32.6116 192.132 33.8801 190.676 34.8636C190.386 35.0639 190.073 35.2154 189.77 35.3592C189.621 35.4311 189.474 35.503 189.328 35.5801L189.005 35.7521L188.876 35.408C188.776 35.141 188.691 34.8791 188.606 34.63C188.44 34.1318 188.283 33.6593 188.06 33.2459C186.442 30.2697 185.379 29.6149 182.572 29.8562C180.41 30.0463 179.113 31.2301 178.813 33.2767C178.728 33.8699 178.728 34.5067 178.735 35.1102C178.743 35.9088 179.144 36.4814 179.894 36.7716C180.97 37.185 182.248 37.6241 183.548 37.5728C184.493 37.5343 185.435 37.5317 186.411 37.524L187.99 37.5111L187.98 37.845C187.975 38.0068 187.975 38.1685 187.975 38.3252C187.975 38.6102 187.975 38.8901 187.952 39.17C187.613 43.4481 186.049 47.716 183.17 52.215C180.225 56.8192 175.939 60.1626 171.794 63.3956L170.665 64.2815C168.764 65.7658 166.489 66.6774 164.286 67.5582C163.87 67.7251 163.451 67.892 163.038 68.064C159.214 69.6305 155.208 70.3623 151.452 70.917C148.753 71.3201 146.002 71.6591 143.342 71.9852C141.262 72.2394 139.185 72.4937 137.115 72.7813L136.591 72.8506C132.572 73.395 128.412 73.9574 124.517 75.3261C121.738 76.3019 118.97 77.4728 116.371 78.5899C114.661 79.332 112.869 80.2128 111.04 81.2066C108.108 82.8141 105.543 85.0071 102.189 88.7716L102.019 88.9591C101.763 89.2441 101.678 89.3365 101.647 89.3853C101.634 89.4547 101.593 89.5625 101.398 89.8861ZM101.203 92.1073L100.692 91.7221C100.71 91.6939 100.733 91.6656 100.753 91.6374L100.63 91.6553C100.592 91.3703 100.759 91.1289 100.905 90.9158C100.964 90.8285 101.064 90.6847 101.069 90.6308C101.067 90.4561 100.995 90.3432 100.851 90.2995L100.45 90.1711L100.682 89.8193C100.828 89.5882 101.013 89.2903 101.038 89.1902C101.077 89.0515 101.077 89.0515 101.542 88.5302L101.706 88.3453C105.116 84.5217 107.733 82.2902 110.732 80.6442C112.576 79.6376 114.386 78.7491 116.115 78.0018C118.726 76.8796 121.507 75.701 124.306 74.7175C128.261 73.3282 132.454 72.7633 136.506 72.2163L137.028 72.1444C139.102 71.8594 141.18 71.6026 143.262 71.3458C145.92 71.0223 148.668 70.6859 151.357 70.2827C155.075 69.7332 159.032 69.009 162.791 67.4683C163.207 67.2988 163.629 67.1293 164.047 66.9598C166.209 66.097 168.441 65.2034 170.267 63.7756L171.402 62.8897C175.5 59.6901 179.745 56.3801 182.628 51.8683C185.448 47.4618 186.981 43.2889 187.31 39.1161C187.335 38.8542 187.333 38.5922 187.333 38.3252V38.1583L186.416 38.166C185.448 38.1737 184.511 38.1762 183.573 38.2148C182.153 38.2738 180.8 37.8065 179.662 37.3699C178.664 36.9847 178.106 36.1835 178.094 35.1179C178.086 34.4887 178.086 33.8236 178.176 33.1868C178.52 30.8449 180.061 29.4351 182.515 29.2168C185.576 28.9421 186.886 29.7407 188.624 32.9403C188.874 33.4025 189.04 33.9007 189.215 34.4271C189.261 34.5632 189.308 34.7019 189.359 34.8457C189.4 34.8251 189.446 34.8046 189.492 34.7815C189.788 34.6402 190.062 34.5067 190.317 34.3347C191.706 33.3922 193.257 32.1853 194.225 30.3621C194.541 29.7741 195.06 29.3247 195.56 28.8856L195.771 28.7032C196.038 28.467 196.277 28.3925 196.503 28.4875C196.839 28.6339 196.857 29.0756 196.862 29.222C196.916 30.5136 196.541 31.8104 195.799 32.8735C193.991 35.4876 192.058 37.0592 189.703 37.8116C189.675 37.827 189.605 37.9194 189.6 37.9605C189.464 41.2526 188.619 44.6345 186.935 48.5942C185.271 52.5308 182.872 56.0386 179.806 59.0173L179.108 59.7055C176.735 62.0372 174.283 64.4484 171.43 66.2691C166.713 69.2761 161.456 71.351 155.796 72.4346C150.774 73.4078 145.628 74.0293 140.648 74.6327L137.842 74.9743C134.182 75.4185 130.402 75.8782 126.838 76.9772C123.841 77.8965 120.886 79.0649 118.39 80.0895C117.699 80.3694 117.006 80.6313 116.318 80.8881C114.769 81.4736 113.305 82.0257 111.86 82.7961C109.297 84.1674 107.497 85.4385 105.437 87.3361C104.058 88.5995 102.672 90.1608 101.203 92.1073Z" fill="#0A0203"/>
<path d="M98.1403 19.1427C87.0342 33.8259 75.8073 48.2986 67.1894 64.6125C62.8933 72.7862 59.1185 81.2422 56.0499 89.9782C54.4937 94.3745 53.0916 98.7964 51.8667 103.283C50.7394 107.407 49.6455 111.505 47.3113 115.133C46.5769 116.266 44.7742 115.038 44.3454 114.237C40.9532 107.653 41.4924 99.4872 41.3589 92.3048C41.2202 84.049 41.3666 75.8111 41.7287 67.581C42.1036 59.1018 42.8252 50.6175 43.6649 42.187C44.1065 37.8498 44.5431 33.5409 45.0746 29.2191C45.5009 25.5085 46.1378 21.6772 45.5882 17.9563C39.4946 20.7091 35.4373 28.6105 32.7179 34.2548C29.4541 41.034 27.5307 48.2653 26.5498 55.6942C26.5498 55.8842 26.2031 55.6968 26.1929 55.5709C26.5704 47.6258 28.6504 39.8528 32.1376 32.7038C33.9479 29.0137 36.1589 25.5522 38.6266 22.2601C40.6091 19.5792 42.4348 17.2476 45.6627 16.0792C46.2379 15.8635 46.8927 16.449 47.0571 16.9497C49.399 24.3298 47.2728 32.8835 46.6205 40.4332C45.8938 48.7557 45.3571 57.0834 45.0027 65.442C44.6227 73.952 44.3993 82.4594 44.4943 90.9592C44.5867 97.1247 44.0526 104.348 45.8502 110.496C47.4654 107.024 48.3102 103.259 49.363 99.5668C50.5494 95.4838 51.8847 91.4291 53.428 87.472C56.6816 78.9542 60.6721 70.6984 65.2121 62.7534C74.2126 46.9479 84.8746 31.7459 97.7526 18.8551C97.8707 18.7164 98.261 19.0066 98.1403 19.1427Z" fill="#0A0203"/>
<path d="M45.8456 17.4895L45.9098 17.9106C46.3848 21.141 45.9791 24.4562 45.5888 27.6609C45.5194 28.195 45.4552 28.7266 45.3962 29.2556C44.8595 33.6082 44.4152 37.9865 43.9864 42.2209C42.9695 52.4104 42.3738 60.2373 42.0502 67.5944C41.6727 76.0967 41.5495 84.4064 41.6779 92.3001C41.6984 93.3581 41.7035 94.4418 41.7087 95.5357C41.7421 101.932 41.7703 108.547 44.6309 114.091C44.8723 114.543 45.7326 115.242 46.4233 115.27C46.6699 115.265 46.8958 115.183 47.0422 114.959C49.2968 111.457 50.3548 107.589 51.4795 103.491L51.5617 103.198C52.7558 98.8226 54.1245 94.4623 55.7474 89.8709C58.6876 81.5047 62.4419 72.9561 66.9101 64.4615C74.963 49.2056 85.4914 35.3081 95.6731 21.8677L97.1599 19.9059C85.6943 31.5539 75.3328 45.6311 65.4926 62.9131C60.8062 71.1149 56.849 79.417 53.729 87.5855C52.2833 91.2987 50.9197 95.3585 49.6743 99.6546C49.4509 100.438 49.2352 101.226 49.0195 102.015C48.2337 104.893 47.4248 107.872 46.1409 110.63L45.7814 111.403L45.54 110.586C44.1071 105.681 44.1405 100.23 44.1764 94.9579C44.1841 93.5918 44.1944 92.2539 44.1739 90.9648C44.0891 83.3407 44.2535 74.9873 44.6823 65.427C45.0367 57.066 45.5811 48.6484 46.3001 40.4054C46.4593 38.6079 46.6904 36.8001 46.9369 34.887C47.7124 28.8524 48.5136 22.6099 46.752 17.0478C46.6853 16.8398 46.4644 16.5548 46.1794 16.4187C46.0279 16.3468 45.8944 16.3313 45.7788 16.3801C42.7281 17.4818 40.9974 19.5926 38.884 22.4506C36.2313 25.9892 34.1205 29.3891 32.4283 32.8455C29.4238 39.0085 27.539 45.4308 26.802 51.9866C27.9601 45.4719 29.8475 39.4835 32.4309 34.1166C34.7034 29.3968 38.9328 20.6146 45.4578 17.6641L45.8456 17.4895ZM46.467 115.912C46.4439 115.912 46.4182 115.912 46.3951 115.909C45.4321 115.871 44.387 114.998 44.0609 114.389C41.1309 108.704 41.1001 102.012 41.0667 95.5383C41.0616 94.4469 41.0564 93.3684 41.0359 92.3104C40.9075 84.4038 41.0308 76.0813 41.4082 67.5687C41.7344 60.1962 42.3301 52.359 43.3496 42.1567C43.7784 37.9171 44.2201 33.5363 44.7593 29.1811C44.8184 28.6521 44.8826 28.118 44.9494 27.5813C45.3191 24.564 45.7018 21.4466 45.332 18.4345C39.2358 21.4594 35.199 29.8462 33.0061 34.394C29.9734 40.7007 27.9062 47.8831 26.8713 55.7358C26.8713 55.9232 26.7044 56.0902 26.4836 56.0953H26.4733C26.2165 56.0953 25.893 55.8667 25.875 55.5894C26.2499 47.6649 28.2606 39.9278 31.8505 32.563C33.5607 29.0681 35.6947 25.6374 38.3704 22.068C40.548 19.1175 42.3404 16.9399 45.5554 15.7767C45.8379 15.6714 46.1537 15.6919 46.4567 15.8409C46.8625 16.0335 47.2271 16.4418 47.3632 16.8501C49.171 22.5508 48.3595 28.8627 47.5712 34.9666C47.3298 36.8771 47.0961 38.6772 46.9421 40.4593C46.223 48.6946 45.6787 57.1019 45.3243 65.4553C44.8954 75.0053 44.7311 83.3459 44.8158 90.9546C44.8364 92.2488 44.8261 93.5918 44.8184 94.963C44.785 99.878 44.7542 104.952 45.9226 109.541C46.978 107.063 47.6996 104.415 48.4006 101.845C48.6163 101.057 48.832 100.266 49.0554 99.4774C50.3086 95.1608 51.6773 91.0829 53.1281 87.3544C56.2584 79.1576 60.231 70.8248 64.9353 62.5946C75.0426 44.8453 85.702 30.4625 97.522 18.627C97.6119 18.5243 97.7608 18.473 97.9406 18.5064C98.1332 18.5449 98.3797 18.7092 98.4593 18.9378C98.5081 19.0816 98.4824 19.2305 98.39 19.3435L96.1841 22.2555C86.0178 35.6753 75.5048 49.5523 67.475 64.762C63.0248 73.2258 59.2834 81.7461 56.3534 90.084C54.7331 94.66 53.3695 99.0049 52.178 103.368L52.0984 103.663C51.0122 107.625 49.89 111.724 47.5815 115.306C47.3247 115.704 46.9395 115.912 46.467 115.912Z" fill="#0A0203"/>
<path d="M102.115 88.6627C102.048 88.6447 102.002 88.596 101.948 88.5574C101.868 88.6447 101.799 88.7398 101.722 88.8245C100.995 89.6154 100.263 90.432 99.4621 91.1639C98.9845 91.6697 98.4273 92.1191 97.8212 92.5197C97.1253 92.8946 95.8773 92.9434 95.4279 91.7365C94.9503 91.1716 95.6282 88.4881 95.7618 87.8153C95.9775 86.7779 96.3113 85.7738 96.6451 84.7723C97.9625 80.8203 99.5238 76.912 101.27 73.1526C102.949 69.5062 105.237 66.1063 105.052 61.9642C105.034 61.0501 103.368 59.5761 102.325 60.4646C99.7086 62.6935 96.2651 67.7908 93.6741 71.8763C93.0732 72.8008 87.8809 81.5548 85.4645 83.8787C86.0371 82.0735 86.4942 80.2297 87.1876 78.4604C87.9528 76.4523 88.9568 74.5162 89.5526 72.4233C90.1073 70.5796 90.6594 67.1129 88.207 66.2141C87.4418 65.9522 87.2209 66.1448 86.4839 66.4427C82.7297 67.8114 76.4948 77.5514 75.65 78.2062C76.862 73.3144 78.6364 68.6922 81.6075 64.4269C82.4755 63.1609 79.7047 61.0321 78.9086 62.2852C75.3598 67.837 72.6738 73.9718 71.9779 80.6072C71.8366 81.8295 73.5648 83.3215 74.6562 82.3842C76.69 80.692 77.8789 77.7055 79.3067 75.5433C80.8936 73.1654 84.0855 69.0285 85.8676 68.1709C86.6996 67.7728 87.2697 67.3902 87.4803 68.5252C87.5753 69.0722 86.8691 70.4486 86.7048 70.8877C86.1501 72.4079 85.5364 73.9101 84.9252 75.4124C83.6593 78.4399 82.3984 81.3365 83.0275 84.6388C83.102 85.1473 83.5 85.6583 84.0162 85.779C85.9344 86.195 87.0309 84.7056 87.9374 83.1957C89.4473 80.7613 91.0368 78.6094 92.5442 76.1776C95.1121 72.051 98.7585 66.8202 101.871 63.7002C101.352 65.7519 100.307 67.6111 99.344 69.5267C97.9804 72.2307 96.7633 74.9784 95.6308 77.7851C94.0053 81.904 90.8956 88.3648 93.0013 92.7919C95.4562 97.8969 99.7651 93.9141 103.345 88.8733C102.931 88.8194 102.515 88.7731 102.115 88.6627Z" fill="#0A0203"/>
<path d="M102.468 62.6464L102.183 63.7789C101.734 65.561 100.884 67.2198 100.062 68.8248L99.6308 69.6696C98.3751 72.1579 97.1656 74.8517 95.9279 77.9049C95.7533 78.3466 95.5632 78.8165 95.3578 79.3095C93.7195 83.3283 91.4726 88.8313 93.2958 92.6549C93.9506 94.021 94.7723 94.7529 95.7379 94.8376C97.52 94.9763 99.9415 93.0144 102.774 89.1215C102.527 89.083 102.281 89.0393 102.034 88.9725C102.029 88.9725 102.027 88.97 102.022 88.9674C102.001 88.9931 101.983 89.0188 101.96 89.0393L101.785 89.2319C101.12 89.9612 100.427 90.7187 99.677 91.4018C99.2276 91.8794 98.6601 92.3519 98.0002 92.7884C97.5354 93.0375 96.8395 93.1967 96.1821 92.9554C95.707 92.7756 95.3501 92.4084 95.1447 91.8948C94.7621 91.3504 94.9495 90.0279 95.3758 88.0892L95.4503 87.7528C95.6685 86.6974 96.0075 85.6728 96.3362 84.6816C97.6381 80.7758 99.1994 76.8546 100.979 73.0182C101.323 72.2709 101.693 71.5314 102.065 70.7944C103.508 67.9106 104.874 65.1886 104.733 61.9762C104.726 61.5859 104.23 60.9208 103.596 60.6357C103.311 60.5048 102.884 60.4098 102.533 60.7076C100.483 62.4564 97.6741 66.167 93.9455 72.0501C93.8505 72.1964 93.6399 72.538 93.3446 73.0156C91.6703 75.7427 87.7517 82.1265 85.6871 84.1089L84.7729 84.9846L85.1581 83.7802C85.3481 83.1845 85.5227 82.5836 85.7025 81.9827C86.0543 80.7809 86.4215 79.5406 86.8914 78.3414C87.1688 77.6121 87.4795 76.888 87.7902 76.1638C88.3218 74.9287 88.8713 73.6499 89.2462 72.3351C89.5877 71.1924 90.5173 67.4022 88.0958 66.5137C87.5668 66.3365 87.3999 66.4033 86.9017 66.6164L86.6038 66.7396C83.9306 67.7155 79.7989 73.2852 77.5802 76.2743C76.5864 77.6147 76.096 78.267 75.8469 78.4596L75.1176 79.0245L75.341 78.1283C76.7174 72.5636 78.6254 68.1494 81.3422 64.2436C81.4937 64.0228 81.4886 63.748 81.3319 63.4245C81.0315 62.8185 80.2663 62.2587 79.6859 62.2253C79.4882 62.2099 79.2879 62.2869 79.18 62.459C75.1741 68.7221 72.9246 74.6693 72.2981 80.6397C72.239 81.179 72.6755 81.8749 73.279 82.1958C73.5358 82.3319 74.0263 82.504 74.45 82.1419C75.8109 81.0069 76.7893 79.2582 77.7394 77.5659C78.176 76.7827 78.5894 76.0432 79.0388 75.3652C80.7285 72.8384 83.905 68.7606 85.7256 67.8798L85.9156 67.7899C86.4215 67.5408 86.8581 67.3328 87.2561 67.5306C87.6182 67.7129 87.7388 68.152 87.7953 68.4653C87.8801 68.9506 87.5488 69.7544 87.1739 70.6043C87.102 70.7687 87.0404 70.9074 87.007 70.9998C86.4729 72.4635 85.9054 73.8604 85.2197 75.5347L85.1376 75.7376C83.905 78.6727 82.7468 81.4435 83.3452 84.5789C83.4068 84.9974 83.7329 85.3826 84.0899 85.4674C85.6563 85.7986 86.609 84.7817 87.6618 83.0278C88.4245 81.803 89.2128 80.6346 89.9755 79.5047C90.7356 78.3825 91.5214 77.2193 92.2712 76.0072C93.4884 74.053 97.7614 67.3714 101.644 63.4733L102.468 62.6464ZM95.9279 95.4873C95.8457 95.4873 95.7661 95.4822 95.6839 95.477C94.477 95.3743 93.4755 94.5166 92.7154 92.9322C90.769 88.8493 93.0801 83.1948 94.7646 79.0656C94.9649 78.5777 95.1549 78.1077 95.3321 77.6661C96.575 74.5923 97.7948 71.8857 99.0582 69.382L99.4921 68.532C100.116 67.3072 100.717 66.1362 101.161 64.9113C97.5996 68.8171 93.9275 74.564 92.8182 76.3462C92.0581 77.5685 91.2723 78.7369 90.5096 79.8668C89.7495 80.9889 88.9612 82.1522 88.2113 83.3642C87.536 84.489 86.2649 86.5998 83.9486 86.0914C83.3272 85.945 82.811 85.3544 82.7109 84.6867C82.0818 81.3741 83.2758 78.516 84.5444 75.4885L84.6291 75.2882C85.307 73.6242 85.872 72.2324 86.4035 70.7764C86.4446 70.6711 86.5088 70.5222 86.5859 70.345C86.7939 69.8776 87.2227 68.9095 87.1636 68.5808C87.0917 68.1828 86.989 68.1135 86.9685 68.1032C86.8504 68.0493 86.4883 68.2239 86.1955 68.3677L86.0055 68.4601C84.3133 69.2767 81.1599 73.3469 79.5729 75.7196C79.1389 76.3796 78.7306 77.1063 78.2992 77.8792C77.3209 79.6202 76.3117 81.4229 74.8634 82.6324C74.3472 83.0715 73.6642 83.1254 72.9785 82.7608C72.1363 82.314 71.5688 81.3716 71.6612 80.5704C72.2955 74.5024 74.5784 68.4627 78.6382 62.1123C78.8745 61.7476 79.2263 61.5756 79.7244 61.5859C80.5282 61.6295 81.5065 62.328 81.9071 63.142C82.1691 63.6736 82.1562 64.1949 81.8712 64.6083C79.4291 68.116 77.6547 72.0449 76.3271 76.8777C76.5556 76.5773 76.8073 76.2383 77.0641 75.8917C79.483 72.633 83.5301 67.1788 86.3727 66.1413L86.6501 66.0258C87.1842 65.7972 87.5411 65.6457 88.3089 65.9102C91.2671 66.9913 90.2426 71.2412 89.8625 72.5174C89.4747 73.8656 88.9201 75.1624 88.3808 76.4181C88.0727 77.1345 87.7645 77.8484 87.4898 78.5751C87.0275 79.7486 86.668 80.9761 86.3162 82.165C86.2751 82.3063 86.2341 82.4449 86.193 82.5862C88.3295 79.9566 91.4931 74.8054 92.7976 72.6792C93.0981 72.1939 93.3086 71.8498 93.4062 71.7008C97.1656 65.769 100.016 62.0121 102.117 60.2197C102.592 59.8192 103.208 59.7575 103.863 60.0528C104.682 60.4226 105.362 61.2777 105.375 61.9556C105.522 65.3273 104.055 68.2547 102.635 71.082C102.271 71.8138 101.903 72.5457 101.559 73.2878C99.7926 77.1037 98.2416 80.9992 96.9499 84.8742C96.6238 85.8577 96.29 86.8643 96.0768 87.8812L96.0024 88.2253C95.4682 90.6494 95.5299 91.3607 95.6737 91.5302L95.7302 91.6252C95.8663 91.9898 96.0948 92.2338 96.4107 92.3519C96.8575 92.5265 97.3736 92.3981 97.6689 92.2389C98.2621 91.846 98.7937 91.4043 99.2276 90.9447C99.9723 90.2642 100.653 89.5195 101.313 88.7979L101.893 88.1328L102.127 88.292L102.05 88.6336L102.217 88.3614H102.222L102.201 88.3537C102.525 88.4436 102.864 88.4872 103.223 88.5334L103.914 88.6259L103.606 89.0598C100.578 93.3251 97.9976 95.4873 95.9279 95.4873Z" fill="#0A0203"/>
</svg>
