<svg width="500" height="387" viewBox="0 0 500 387" fill="none" xmlns="http://www.w3.org/2000/svg">
<path d="M193.116 385.408C87.1222 385.408 0.837891 299.117 0.837891 193.123C0.837891 87.1293 87.1222 0.838292 193.116 0.838292C299.116 0.838292 385.401 87.1293 385.401 193.123C385.401 299.117 299.116 385.408 193.116 385.408ZM193.116 3.68165C88.6409 3.68165 3.68125 88.6479 3.68125 193.123C3.68125 297.598 88.6409 382.564 193.116 382.564C297.598 382.564 382.557 297.598 382.557 193.123C382.557 88.6479 297.598 3.68165 193.116 3.68165Z" fill="#0A0203"/>
<path d="M193.121 4.51575C89.1209 4.51575 4.51592 89.1208 4.51592 193.121C4.51592 297.121 89.1209 381.726 193.121 381.726C297.121 381.726 381.726 297.121 381.726 193.121C381.726 89.1208 297.121 4.51575 193.121 4.51575ZM193.121 383.399C88.1977 383.399 2.84336 298.044 2.84336 193.121C2.84336 88.2042 88.1977 2.84319 193.121 2.84319C298.044 2.84319 383.399 88.2042 383.399 193.121C383.399 298.044 298.044 383.399 193.121 383.399ZM193.121 1.6724C87.5554 1.6724 1.67256 87.5619 1.67256 193.121C1.67256 298.686 87.5554 384.569 193.121 384.569C298.687 384.569 384.569 298.686 384.569 193.121C384.569 87.5619 298.687 1.6724 193.121 1.6724ZM193.121 386.242C86.6322 386.242 0 299.61 0 193.121C0 86.632 86.6322 -0.000166214 193.121 -0.000166214C299.61 -0.000166214 386.242 86.632 386.242 193.121C386.242 299.61 299.61 386.242 193.121 386.242Z" fill="#0A0203"/>
<path d="M457.804 81.9702C457.269 81.7896 456.935 81.0202 456.513 80.5318C456.473 80.4984 456.493 80.4248 456.5 80.3779C455.938 75.9356 457.256 73.2328 460.675 71.781C464.615 70.1151 468.837 71.0651 471.359 74.2363C473.279 76.6782 474.905 79.2473 475.306 82.6727C469.305 83.4822 463.498 83.9238 457.804 81.9702ZM250.085 229.417C254.621 223.409 258.308 219.535 261.224 216.873C266.684 211.842 271.507 208.456 278.137 204.917C283.65 201.973 289.431 200.187 295.211 197.832C302.47 194.862 309.809 191.992 317.296 189.697C327.023 186.7 337.172 185.535 347.268 184.304C362.488 182.438 377.735 180.765 392.842 177.848C407.346 175.065 420.874 169.793 433.278 161.892C441.353 156.741 448.157 149.783 454.968 143.106C462.829 135.459 469.084 126.313 473.353 116.224C477.106 107.38 479.829 98.4283 480.23 88.801C480.237 88.3996 480.698 87.7774 481.08 87.6636C487.87 85.4893 492.607 80.7928 496.528 75.1127C498.361 72.4834 499.277 69.2989 499.144 66.1076C499.103 64.8499 498.628 64.5354 497.698 65.3516C496.3 66.5826 494.721 67.8471 493.858 69.4394C491.396 74.069 487.596 77.2469 483.395 80.0903C482.331 80.8195 481.1 81.3012 479.963 81.9033C479.166 79.7825 478.698 77.8557 477.775 76.1631C473.419 68.1281 470.288 66.208 462.682 66.8971C456.834 67.4189 452.987 70.6637 452.131 76.5244C451.904 78.13 451.904 79.8093 451.924 81.4283C451.95 83.9037 453.228 85.6633 455.476 86.5263C458.634 87.7439 461.845 88.801 465.331 88.6672C468.817 88.5334 472.289 88.5601 476.009 88.52C475.975 89.6908 476.035 90.8148 475.935 91.9253C474.958 104.269 470.168 115.288 463.605 125.537C455.322 138.483 443.046 147.481 431.204 156.761C425.444 161.277 418.325 163.705 411.535 166.502C401.894 170.449 391.745 172.376 381.556 173.888C369.138 175.741 356.628 177.019 344.21 178.738C333.071 180.243 321.885 181.662 311.227 185.402C304.009 187.937 296.957 190.921 289.939 193.932C285.182 195.992 280.526 198.314 275.99 200.783C268.985 204.623 262.389 209.801 252.701 220.666C249.978 223.723 252.186 221.195 250.092 224.413C250.727 224.613 251.236 225.155 251.243 226.072C251.256 226.875 249.992 227.818 250.092 228.621" fill="#0A0203"/>
<path d="M458.079 81.1798C463.511 83.0397 469.084 82.6383 474.356 81.9559C473.808 79.0389 472.289 76.7709 470.703 74.7572C468.429 71.887 464.615 71.0106 461.003 72.5494C457.972 73.8339 456.835 76.1956 457.323 80.203C457.417 80.3301 457.504 80.4572 457.591 80.5844C457.724 80.7851 457.965 81.1263 458.079 81.1798ZM466.877 84.2038C463.792 84.2038 460.668 83.8358 457.537 82.7587C456.901 82.5513 456.54 82.0094 456.212 81.5277C456.099 81.3671 455.992 81.2066 455.878 81.0795L455.63 80.7851L455.657 80.4037C455.088 75.667 456.62 72.5895 460.347 71.0039C464.676 69.1708 469.258 70.2479 472.015 73.7202C473.895 76.1153 475.701 78.8449 476.136 82.5781L476.236 83.3943L475.42 83.508C472.65 83.876 469.787 84.2038 466.877 84.2038ZM251.27 224.131C251.664 224.485 251.939 224.98 252.039 225.562C254.983 221.916 257.819 218.852 260.663 216.249C266.142 211.212 270.926 207.826 277.743 204.18C281.597 202.12 285.644 200.601 289.558 199.122C291.331 198.453 293.117 197.784 294.903 197.055C301.44 194.379 309.187 191.308 317.055 188.9C326.488 185.996 336.41 184.785 346.017 183.621L353.33 182.725C366.268 181.159 379.649 179.54 392.688 177.024C407.213 174.235 420.721 168.909 432.83 161.189C440.102 156.546 446.438 150.324 452.559 144.302L454.379 142.509C462.213 134.903 468.335 125.944 472.583 115.896C476.892 105.767 479.053 97.1495 479.394 88.7732C479.407 88.0239 480.103 87.0873 480.826 86.8598C486.586 85.02 491.356 81.1397 495.845 74.6367C497.565 72.1613 498.441 69.1507 498.314 66.1401C498.314 66.0665 498.307 65.9929 498.301 65.9327C498.287 65.9461 498.267 65.9662 498.247 65.9795L497.699 66.4612C496.501 67.5049 495.27 68.582 494.594 69.8398C491.905 74.911 487.663 78.216 483.87 80.7784C483.114 81.3002 482.298 81.6949 481.508 82.0696C481.12 82.2569 480.739 82.4443 480.357 82.645L479.515 83.0932L479.18 82.1967C478.919 81.5009 478.698 80.8185 478.478 80.1696C478.043 78.8717 477.635 77.6407 477.052 76.5635C472.838 68.8095 470.068 67.1035 462.755 67.7324C457.122 68.2275 453.744 71.3117 452.961 76.6438C452.74 78.1893 452.74 79.8484 452.76 81.4206C452.78 83.5013 453.824 84.9933 455.777 85.7493C458.581 86.8264 461.912 87.9704 465.298 87.8366C467.76 87.7363 470.215 87.7296 472.757 87.7095L476.872 87.676L476.845 88.5458C476.832 88.9673 476.832 89.3888 476.832 89.7969C476.832 90.5395 476.832 91.2687 476.771 91.998C475.888 103.144 471.814 114.263 464.314 125.984C456.641 137.98 445.474 146.691 434.676 155.114L431.733 157.422C426.782 161.289 420.854 163.664 415.114 165.959C414.03 166.394 412.94 166.829 411.863 167.277C401.901 171.358 391.464 173.265 381.676 174.71C374.645 175.76 367.479 176.643 360.548 177.493C355.129 178.155 349.717 178.817 344.324 179.567L342.96 179.747C332.489 181.166 321.651 182.631 311.502 186.197C304.263 188.739 297.051 191.79 290.281 194.7C285.825 196.634 281.155 198.928 276.392 201.518C268.751 205.706 262.068 211.419 253.33 221.227L252.889 221.715C252.22 222.458 251.999 222.699 251.919 222.826C251.885 223.007 251.778 223.288 251.27 224.131ZM250.761 229.918L249.43 228.914C249.477 228.841 249.537 228.767 249.59 228.693L249.269 228.74C249.169 227.998 249.604 227.369 249.985 226.813C250.139 226.586 250.4 226.211 250.413 226.071C250.407 225.616 250.219 225.321 249.845 225.208L248.801 224.873L249.403 223.957C249.784 223.355 250.266 222.578 250.333 222.318C250.433 221.956 250.433 221.956 251.644 220.598L252.072 220.116C260.957 210.155 267.774 204.341 275.589 200.052C280.392 197.43 285.109 195.115 289.611 193.168C296.415 190.244 303.661 187.174 310.953 184.611C321.256 180.992 332.182 179.52 342.739 178.095L344.097 177.908C349.503 177.165 354.915 176.496 360.341 175.827C367.265 174.984 374.424 174.108 381.429 173.057C391.116 171.625 401.426 169.739 411.22 165.725C412.304 165.283 413.401 164.842 414.492 164.4C420.125 162.152 425.939 159.824 430.696 156.104L433.653 153.796C444.33 145.46 455.389 136.836 462.903 125.081C470.248 113.601 474.243 102.729 475.099 91.8575C475.166 91.1751 475.159 90.4926 475.159 89.7969V89.362L472.771 89.3821C470.248 89.4021 467.807 89.4088 465.365 89.5092C461.665 89.6631 458.139 88.4454 455.175 87.3081C452.573 86.3045 451.121 84.2172 451.088 81.4407C451.068 79.8016 451.068 78.0688 451.302 76.4097C452.198 70.3081 456.212 66.6352 462.608 66.0665C470.583 65.3506 473.995 67.4313 478.524 75.7674C479.173 76.9716 479.608 78.2695 480.063 79.641C480.184 79.9956 480.304 80.3569 480.438 80.7316C480.545 80.678 480.665 80.6245 480.786 80.5643C481.555 80.1963 482.271 79.8484 482.933 79.4002C486.553 76.9449 490.594 73.8004 493.116 69.0504C493.939 67.5183 495.29 66.3475 496.595 65.2035L497.143 64.7285C497.839 64.113 498.461 63.9189 499.05 64.1665C499.926 64.5478 499.973 65.6985 499.987 66.0799C500.127 69.4451 499.15 72.8237 497.217 75.5934C492.507 82.4041 487.469 86.4986 481.334 88.4588C481.261 88.4989 481.08 88.7398 481.067 88.8468C480.712 97.4238 478.511 106.235 474.122 116.551C469.787 126.807 463.538 135.946 455.55 143.707L453.73 145.5C447.548 151.575 441.159 157.857 433.726 162.6C421.436 170.435 407.741 175.84 392.996 178.664C379.91 181.199 366.503 182.818 353.53 184.39L346.218 185.28C336.684 186.438 326.836 187.635 317.55 190.499C309.742 192.894 302.042 195.938 295.539 198.607C293.739 199.336 291.933 200.019 290.14 200.688C286.106 202.213 282.292 203.652 278.526 205.659C271.849 209.231 267.159 212.543 261.793 217.487C258.201 220.779 254.588 224.846 250.761 229.918Z" fill="#0A0203"/>
<path d="M242.782 39.8202C213.847 78.0751 184.597 115.781 162.145 158.285C150.952 179.58 141.117 201.611 133.122 224.371C129.068 235.825 125.415 247.345 122.224 259.033C119.287 269.778 116.437 280.455 110.355 289.909C108.442 292.859 103.745 289.661 102.628 287.574C93.7902 270.42 95.1952 249.145 94.8473 230.432C94.486 208.923 94.8673 187.461 95.8107 166.019C96.7874 143.927 98.6674 121.823 100.855 99.8586C102.006 88.5587 103.143 77.3325 104.528 66.0727C105.639 56.4053 107.298 46.4234 105.866 36.7293C89.9901 43.9012 79.4195 64.4872 72.3345 79.1923C63.8312 96.8546 58.8202 115.694 56.2645 135.049C56.2645 135.544 55.3614 135.056 55.3346 134.728C56.3181 114.029 61.7372 93.7771 70.8226 75.1514C75.5392 65.5375 81.2995 56.5191 87.7288 47.9421C92.8937 40.9575 97.6505 34.8828 106.06 31.8387C107.559 31.2767 109.265 32.8021 109.693 34.1067C115.794 53.3345 110.255 75.6198 108.556 95.2891C106.662 116.972 105.264 138.669 104.341 160.446C103.351 182.617 102.769 204.782 103.016 226.927C103.257 242.99 101.865 261.81 106.549 277.826C110.757 268.781 112.958 258.973 115.701 249.352C118.792 238.715 122.271 228.151 126.291 217.841C134.768 195.65 145.165 174.141 156.993 153.441C180.442 112.262 208.22 72.656 241.772 39.0709C242.08 38.7096 243.097 39.4656 242.782 39.8202Z" fill="#0A0203"/>
<path d="M106.537 35.5136L106.704 36.6108C107.942 45.0271 106.885 53.6643 105.868 62.0137C105.687 63.4053 105.52 64.7902 105.366 66.1684C103.968 77.5084 102.81 88.9152 101.693 99.9475C99.0436 126.494 97.4915 146.886 96.6485 166.054C95.6651 188.205 95.3439 209.855 95.6784 230.421C95.732 233.177 95.7453 236.001 95.7587 238.851C95.8457 255.516 95.9193 272.75 103.372 287.194C104.001 288.372 106.242 290.192 108.042 290.265C108.684 290.252 109.273 290.038 109.654 289.456C115.528 280.33 118.285 270.255 121.215 259.577L121.429 258.814C124.54 247.414 128.106 236.054 132.334 224.092C139.995 202.295 149.776 180.023 161.417 157.892C182.398 118.145 209.828 81.9373 236.355 46.9205L240.228 41.8091C210.356 72.1562 183.361 108.832 157.724 153.858C145.514 175.226 135.204 196.856 127.076 218.138C123.309 227.812 119.757 238.389 116.512 249.582C115.93 251.622 115.368 253.676 114.806 255.73C112.759 263.23 110.651 270.991 107.306 278.176L106.369 280.19L105.741 278.062C102.007 265.284 102.094 251.08 102.188 237.345C102.208 233.786 102.235 230.301 102.181 226.942C101.961 207.079 102.389 185.315 103.506 160.407C104.429 138.624 105.848 116.693 107.721 95.2175C108.136 90.5343 108.738 85.8244 109.38 80.8401C111.401 65.118 113.488 48.854 108.898 34.3629C108.724 33.821 108.149 33.0784 107.406 32.7238C107.012 32.5364 106.664 32.4963 106.363 32.6234C98.4148 35.4935 93.9055 40.9929 88.3994 48.4392C81.4884 57.6584 75.989 66.5163 71.5801 75.5213C63.7525 91.578 58.8419 108.31 56.9218 125.391C59.9391 108.417 64.8564 92.8157 71.5868 78.833C77.5077 66.5363 88.5266 43.6557 105.527 35.9686L106.537 35.5136ZM108.156 291.938C108.096 291.938 108.029 291.938 107.968 291.931C105.46 291.831 102.737 289.556 101.887 287.971C94.2534 273.158 94.1731 255.723 94.0862 238.857C94.0728 236.014 94.0594 233.204 94.0059 230.448C93.6714 209.848 93.9925 188.165 94.976 165.987C95.8256 146.779 97.3778 126.361 100.034 99.7802C101.151 88.7346 102.302 77.321 103.707 65.9743C103.861 64.5961 104.028 63.2046 104.202 61.8063C105.165 53.9453 106.162 45.8233 105.199 37.9756C89.316 45.8567 78.7989 67.7071 73.0854 79.5556C65.1842 95.9869 59.7986 114.7 57.1024 135.158C57.1024 135.647 56.6675 136.082 56.0922 136.095H56.0654C55.3964 136.095 54.5534 135.5 54.5066 134.777C55.4834 114.131 60.7218 93.9731 70.0748 74.7854C74.5305 65.68 80.0901 56.7418 87.0614 47.4423C92.7347 39.7552 97.4045 34.0819 105.781 31.0512C106.517 30.7769 107.34 30.8304 108.129 31.2184C109.186 31.7202 110.136 32.784 110.491 33.8477C115.201 48.7001 113.087 65.1448 111.033 81.0475C110.404 86.0251 109.795 90.7149 109.393 95.358C107.52 116.814 106.102 138.718 105.179 160.481C104.061 185.362 103.633 207.092 103.854 226.915C103.907 230.287 103.881 233.786 103.861 237.359C103.774 250.164 103.693 263.384 106.737 275.339C109.487 268.883 111.367 261.986 113.194 255.289C113.756 253.235 114.318 251.174 114.9 249.12C118.164 237.874 121.73 227.25 125.51 217.535C133.666 196.18 144.016 174.47 156.272 153.028C182.605 106.785 210.376 69.3128 241.172 38.4774C241.406 38.2098 241.794 38.076 242.262 38.1629C242.764 38.2633 243.406 38.6915 243.613 39.2869C243.741 39.6616 243.674 40.0496 243.433 40.344L237.686 47.9307C211.199 82.894 183.809 119.048 162.889 158.675C151.295 180.726 141.547 202.924 133.913 224.647C129.692 236.569 126.139 247.889 123.035 259.256L122.828 260.025C119.998 270.348 117.074 281.026 111.059 290.359C110.39 291.396 109.387 291.938 108.156 291.938Z" fill="#0A0203"/>
<path d="M253.138 220.943C252.964 220.897 252.843 220.769 252.703 220.669C252.495 220.897 252.315 221.144 252.114 221.365C250.221 223.426 248.314 225.553 246.227 227.46C244.982 228.778 243.53 229.949 241.952 230.992C240.139 231.969 236.887 232.096 235.716 228.952C234.472 227.48 236.238 220.489 236.586 218.736C237.148 216.033 238.018 213.417 238.887 210.808C242.32 200.511 246.387 190.329 250.937 180.534C255.312 171.034 261.273 162.176 260.791 151.385C260.745 149.003 256.403 145.163 253.686 147.478C246.869 153.285 237.897 166.565 231.147 177.209C229.581 179.618 216.054 202.425 209.758 208.479C211.25 203.776 212.441 198.973 214.247 194.363C216.241 189.131 218.857 184.087 220.409 178.634C221.854 173.831 223.292 164.799 216.903 162.457C214.91 161.775 214.334 162.277 212.414 163.053C202.633 166.619 186.389 191.995 184.188 193.701C187.346 180.956 191.969 168.913 199.709 157.801C201.971 154.502 194.752 148.956 192.678 152.221C183.432 166.685 176.434 182.668 174.621 199.956C174.253 203.141 178.755 207.028 181.599 204.586C186.897 200.177 189.995 192.396 193.715 186.763C197.849 180.568 206.165 169.79 210.808 167.555C212.976 166.518 214.461 165.521 215.01 168.478C215.257 169.903 213.418 173.489 212.989 174.633C211.544 178.594 209.945 182.508 208.353 186.422C205.055 194.31 201.77 201.856 203.409 210.46C203.603 211.784 204.64 213.116 205.985 213.43C210.982 214.514 213.839 210.634 216.201 206.7C220.135 200.358 224.276 194.751 228.203 188.415C234.893 177.664 244.394 164.036 252.502 155.907C251.151 161.253 248.428 166.097 245.919 171.088C242.366 178.132 239.195 185.291 236.245 192.604C232.01 203.335 223.908 220.167 229.394 231.701C235.79 245.002 247.016 234.625 256.342 221.492C255.265 221.352 254.181 221.231 253.138 220.943Z" fill="#0A0203"/>
<path d="M254.058 153.163L253.315 156.113C252.145 160.756 249.93 165.078 247.789 169.26L246.665 171.461C243.394 177.944 240.243 184.962 237.018 192.916C236.563 194.067 236.068 195.292 235.533 196.576C231.264 207.046 225.41 221.384 230.16 231.345C231.866 234.905 234.007 236.811 236.523 237.032C241.166 237.393 247.475 232.282 254.854 222.14C254.212 222.039 253.57 221.925 252.927 221.751C252.914 221.751 252.907 221.745 252.894 221.738C252.84 221.805 252.794 221.872 252.733 221.925L252.278 222.427C250.546 224.327 248.739 226.301 246.786 228.08C245.615 229.325 244.136 230.556 242.417 231.693C241.206 232.342 239.393 232.757 237.68 232.128C236.443 231.66 235.513 230.703 234.977 229.365C233.981 227.947 234.469 224.501 235.579 219.45L235.774 218.574C236.342 215.824 237.225 213.155 238.082 210.572C241.474 200.396 245.541 190.18 250.178 180.185C251.074 178.238 252.038 176.311 253.008 174.391C256.768 166.878 260.327 159.786 259.959 151.417C259.939 150.4 258.648 148.667 256.995 147.924C256.252 147.583 255.142 147.336 254.225 148.112C248.886 152.668 241.567 162.335 231.853 177.663C231.605 178.044 231.057 178.934 230.287 180.178C225.925 187.283 215.716 203.915 210.337 209.08L207.955 211.362L208.959 208.224C209.454 206.672 209.909 205.106 210.377 203.541C211.294 200.41 212.251 197.178 213.475 194.054C214.197 192.154 215.007 190.267 215.816 188.38C217.201 185.162 218.633 181.831 219.61 178.405C220.5 175.428 222.922 165.553 216.613 163.238C215.234 162.777 214.8 162.951 213.502 163.506L212.726 163.827C205.761 166.37 194.996 180.881 189.216 188.668C186.627 192.16 185.349 193.86 184.7 194.362L182.8 195.833L183.382 193.499C186.968 179.001 191.939 167.5 199.017 157.324C199.412 156.749 199.399 156.033 198.99 155.19C198.208 153.611 196.214 152.153 194.702 152.066C194.187 152.026 193.665 152.226 193.384 152.675C182.947 168.992 177.087 184.487 175.454 200.042C175.3 201.447 176.438 203.26 178.01 204.096C178.679 204.45 179.957 204.899 181.061 203.955C184.606 200.998 187.155 196.442 189.631 192.033C190.768 189.993 191.845 188.066 193.016 186.3C197.418 179.717 205.694 169.092 210.437 166.798L210.933 166.564C212.251 165.915 213.388 165.373 214.425 165.888C215.368 166.363 215.683 167.507 215.83 168.323C216.051 169.588 215.188 171.682 214.211 173.896C214.023 174.324 213.863 174.686 213.776 174.926C212.384 178.74 210.906 182.379 209.12 186.741L208.905 187.27C205.694 194.917 202.677 202.136 204.236 210.304C204.396 211.395 205.246 212.399 206.176 212.619C210.257 213.482 212.739 210.833 215.482 206.264C217.469 203.072 219.523 200.028 221.51 197.084C223.49 194.161 225.537 191.13 227.491 187.972C230.662 182.881 241.795 165.473 251.91 155.317L254.058 153.163ZM237.018 238.725C236.804 238.725 236.596 238.711 236.382 238.698C233.238 238.43 230.629 236.196 228.648 232.068C223.577 221.43 229.598 206.698 233.987 195.94C234.509 194.669 235.004 193.445 235.466 192.294C238.704 184.286 241.882 177.234 245.173 170.711L246.304 168.497C247.93 165.306 249.495 162.255 250.653 159.064C241.373 169.24 231.806 184.212 228.916 188.855C226.936 192.04 224.888 195.084 222.901 198.028C220.921 200.951 218.867 203.982 216.914 207.14C215.154 210.07 211.842 215.57 205.808 214.245C204.189 213.864 202.844 212.325 202.583 210.585C200.944 201.955 204.055 194.509 207.36 186.621L207.581 186.099C209.347 181.764 210.819 178.138 212.204 174.344C212.311 174.07 212.478 173.682 212.679 173.22C213.221 172.003 214.338 169.48 214.184 168.624C213.997 167.587 213.729 167.407 213.676 167.38C213.368 167.239 212.425 167.694 211.662 168.069L211.167 168.31C206.758 170.437 198.542 181.041 194.408 187.223C193.277 188.942 192.213 190.836 191.089 192.85C188.54 197.386 185.911 202.082 182.138 205.233C180.793 206.377 179.013 206.518 177.227 205.568C175.033 204.404 173.554 201.948 173.795 199.861C175.447 184.052 181.395 168.316 191.972 151.771C192.588 150.821 193.504 150.373 194.802 150.4C196.896 150.514 199.445 152.333 200.489 154.454C201.171 155.839 201.138 157.197 200.395 158.274C194.033 167.413 189.41 177.649 185.951 190.24C186.547 189.458 187.202 188.574 187.871 187.671C194.173 179.181 204.717 164.971 212.123 162.268L212.846 161.967C214.238 161.372 215.168 160.977 217.168 161.666C224.875 164.483 222.206 175.555 221.216 178.88C220.205 182.393 218.76 185.771 217.355 189.043C216.552 190.909 215.75 192.769 215.034 194.663C213.829 197.72 212.893 200.918 211.976 204.016C211.869 204.384 211.762 204.745 211.655 205.113C217.221 198.262 225.464 184.841 228.862 179.302C229.645 178.037 230.194 177.141 230.448 176.753C240.243 161.298 247.669 151.51 253.141 146.841C254.379 145.797 255.985 145.636 257.691 146.406C259.825 147.369 261.598 149.597 261.631 151.363C262.013 160.148 258.193 167.774 254.493 175.14C253.543 177.047 252.586 178.954 251.69 180.887C247.087 190.829 243.046 200.978 239.681 211.074C238.831 213.636 237.961 216.259 237.406 218.908L237.212 219.805C235.82 226.12 235.981 227.973 236.356 228.415L236.503 228.663C236.857 229.613 237.453 230.248 238.276 230.556C239.44 231.011 240.785 230.676 241.554 230.261C243.099 229.238 244.484 228.087 245.615 226.89C247.555 225.117 249.328 223.177 251.047 221.297L252.559 219.564L253.168 219.979L252.967 220.868L253.402 220.159H253.416L253.362 220.139C254.205 220.373 255.088 220.487 256.025 220.607L257.825 220.848L257.022 221.979C249.134 233.091 242.41 238.725 237.018 238.725Z" fill="#0A0203"/>
</svg>
