<svg width="200" height="35" viewBox="0 0 200 35" fill="none" xmlns="http://www.w3.org/2000/svg">
<g clip-path="url(#clip0_171_42)">
<path d="M0 17.5797H198.334" stroke="white" stroke-width="0.666707" stroke-miterlimit="22.9256"/>
<path d="M19.7331 10.6385C23.7884 10.6385 27.0759 13.7463 27.0759 17.5799C27.0759 21.4132 23.7884 24.5215 19.7331 24.5215C15.6774 24.5215 12.3894 21.4132 12.3894 17.5799C12.3894 13.7463 15.6774 10.6385 19.7331 10.6385Z" stroke="white" stroke-width="1.33341" stroke-miterlimit="22.9256"/>
<path d="M19.7329 7.41796C25.6698 7.41796 30.4831 11.9676 30.4831 17.5799C30.4831 23.1918 25.6698 27.7413 19.7329 27.7413C13.7957 27.7413 8.98291 23.1918 8.98291 17.5799C8.98291 11.9676 13.7957 7.41796 19.7329 7.41796Z" stroke="white" stroke-width="2.66684" stroke-miterlimit="22.9256"/>
<path fill-rule="evenodd" clip-rule="evenodd" d="M17.7317 0.161695H19.733V17.58H17.7317V0.161695Z" fill="#F47216"/>
<path d="M17.7317 0.161695H19.733V17.58H17.7317V0.161695Z" stroke="#F47216" stroke-width="0.666707" stroke-miterlimit="22.9256"/>
<path d="M19.7329 17.58V35" stroke="white" stroke-width="0.666707" stroke-miterlimit="22.9256"/>
<path d="M86.281 15.2374L87.815 15.2308L89.3058 15.2374C90.1074 15.2374 90.8472 15.1579 91.5244 14.9989C92.201 14.8381 92.8085 14.5294 93.3462 14.0731C93.8819 13.6169 94.2874 13.0545 94.5632 12.3828C94.8371 11.7109 94.974 11.0143 94.974 10.2904C94.974 9.68458 94.8849 9.11707 94.7074 8.59283C94.5273 8.06661 94.2249 7.59647 93.8002 7.18357C93.3728 6.76812 92.885 6.49375 92.3406 6.36244C91.793 6.22831 91.0685 6.16239 90.1632 6.16239L88.2351 6.16929L86.6798 6.16239C86.6798 6.4642 86.6778 6.70942 86.6725 6.89995L86.4851 12.0786L86.281 15.2374ZM86.8865 14.8177L87.2507 6.57555L88.6073 6.56886H90.2829C90.7607 6.57325 91.1788 6.59833 91.5337 6.64121C91.9279 6.68684 92.2562 6.76175 92.5181 6.86377C92.782 6.96816 93.0345 7.12488 93.2738 7.329C93.5171 7.53548 93.7284 7.78732 93.9105 8.0848C94.076 8.34538 94.1963 8.62697 94.2781 8.92878C94.3904 9.34404 94.4462 9.77972 94.4462 10.2313C94.4462 10.701 94.3884 11.1644 94.2701 11.625C94.1531 12.083 93.973 12.5008 93.7324 12.877C93.4905 13.254 93.1807 13.5946 92.8032 13.9008C92.427 14.2073 92.0402 14.4158 91.6467 14.5317C91.2526 14.6476 90.8066 14.7269 90.3075 14.7702C89.8076 14.8154 89.3205 14.8381 88.8472 14.8381C88.37 14.8381 87.7167 14.8315 86.8865 14.8177ZM96.4721 15.2374C96.5944 15.2331 96.6881 15.2308 96.7526 15.2308C96.8177 15.2308 96.9141 15.2331 97.0337 15.2374C97.0337 14.7679 97.043 14.0437 97.0623 13.0635C97.0743 12.3371 97.1082 11.6904 97.1587 11.1233C97.1899 10.7579 97.2544 10.4517 97.3481 10.1975C97.4225 9.9795 97.5355 9.77512 97.6871 9.5823C97.8353 9.38967 97.9895 9.23735 98.1477 9.126C98.3039 9.01728 98.474 8.93114 98.6541 8.87442C98.8343 8.81776 99.0383 8.78828 99.2643 8.78828C99.4943 8.78828 99.7661 8.82446 100.08 8.8993C100.061 8.74928 100.051 8.59749 100.051 8.44767C99.8545 8.40486 99.6598 8.38202 99.4683 8.38202C99.2038 8.38202 98.9519 8.40919 98.712 8.46592C98.4694 8.52054 98.258 8.60005 98.0779 8.70418C97.8978 8.80824 97.7396 8.93777 97.6027 9.09475C97.4657 9.24884 97.3195 9.47817 97.1587 9.77972L97.2231 8.52284C97.1348 8.52717 97.0483 8.52921 96.9619 8.52921C96.8822 8.52921 96.7958 8.52717 96.7027 8.52284L96.7094 9.12167C96.7094 9.73665 96.6835 10.6763 96.6329 11.9404C96.5824 13.204 96.5273 14.3024 96.4721 15.2374ZM101.436 9.22836C101.751 9.10808 102.01 9.01958 102.217 8.96522C102.423 8.90856 102.675 8.86056 102.976 8.81776C103.275 8.77443 103.597 8.75414 103.941 8.75414C104.236 8.75414 104.517 8.77929 104.783 8.82675C105.052 8.87672 105.275 8.96292 105.455 9.08753C105.636 9.21037 105.761 9.34168 105.832 9.4825C105.902 9.62333 105.938 9.76842 105.938 9.91825C105.938 10.127 105.861 10.3311 105.712 10.533C105.561 10.7353 105.352 10.8918 105.079 11.0053C104.807 11.1187 104.519 11.2118 104.214 11.289C103.539 11.4521 103.153 11.5478 103.055 11.575C102.697 11.6724 102.366 11.7791 102.056 11.8927C101.789 11.9901 101.545 12.1102 101.323 12.2533C101.137 12.3667 100.987 12.4918 100.875 12.6254C100.738 12.7842 100.637 12.9522 100.572 13.1271C100.508 13.302 100.474 13.4833 100.474 13.6692C100.474 13.9124 100.526 14.146 100.635 14.3686C100.742 14.5886 100.911 14.7835 101.134 14.9515C101.36 15.1218 101.638 15.2351 101.972 15.2921C102.306 15.3488 102.668 15.3783 103.062 15.3783C103.273 15.3783 103.496 15.369 103.734 15.3488C103.969 15.3282 104.279 15.2831 104.659 15.2126C104.687 15.0446 104.721 14.8743 104.764 14.7066C104.459 14.7997 104.226 14.863 104.065 14.8972C103.902 14.9287 103.729 14.9561 103.547 14.9767C103.365 14.9972 103.174 15.0061 102.978 15.0061C102.584 15.0061 102.248 14.9631 101.969 14.8766C101.691 14.7905 101.458 14.6407 101.276 14.4273C101.093 14.2139 101.002 13.9642 101.002 13.6759C101.002 13.4856 101.041 13.3063 101.115 13.136C101.179 12.9955 101.283 12.8591 101.424 12.7321C101.583 12.5846 101.783 12.4531 102.023 12.3328C102.243 12.2215 102.556 12.1035 102.958 11.9789C103.137 11.9266 103.432 11.8471 103.846 11.7407C104.262 11.634 104.524 11.5634 104.632 11.5316C104.74 11.4977 104.858 11.457 104.987 11.4116C105.117 11.3639 105.224 11.3182 105.316 11.2752C105.41 11.23 105.494 11.18 105.57 11.1254C105.647 11.0687 105.761 10.9849 105.904 10.8694C105.876 11.2913 105.854 11.743 105.836 12.2281C105.82 12.7139 105.798 13.1678 105.775 13.5874C105.749 14.01 105.703 14.5588 105.636 15.2374C105.753 15.2331 105.852 15.2308 105.931 15.2308C106.005 15.2308 106.106 15.2331 106.226 15.2374V14.6791C106.226 14.4229 106.238 14.0008 106.262 13.42C106.286 12.8365 106.31 12.3487 106.339 11.9584C106.367 11.5678 106.389 11.2049 106.406 10.8646C106.423 10.5263 106.43 10.2449 106.43 10.0249C106.43 9.8069 106.394 9.59378 106.322 9.38507C106.247 9.17833 106.099 8.9924 105.87 8.83109C105.642 8.668 105.35 8.55409 104.992 8.48384C104.632 8.41615 104.245 8.38202 103.828 8.38202C103.468 8.38202 103.11 8.40486 102.759 8.45233C102.406 8.4977 101.991 8.5839 101.513 8.70877C101.494 8.90396 101.47 9.0763 101.436 9.22836ZM108.183 15.2374C108.346 15.2331 108.478 15.2308 108.576 15.2308C108.67 15.2308 108.799 15.2331 108.962 15.2374C108.972 15.1308 108.979 15.0174 108.985 14.8949C108.989 14.7745 108.996 14.6476 109.006 14.5137C108.841 14.5178 108.711 14.5204 108.612 14.5204C108.518 14.5204 108.387 14.5178 108.218 14.5137C108.214 14.6022 108.209 14.6997 108.206 14.8064C108.204 14.913 108.197 15.0562 108.183 15.2374ZM117.598 15.2374C117.762 15.2331 117.896 15.2308 117.999 15.2308C118.097 15.2308 118.229 15.2331 118.392 15.2374C118.782 14.4386 119.25 13.5379 119.799 12.5326L121.643 9.13552C122.322 7.87143 122.872 6.87966 123.295 6.16239C123.177 6.16725 123.066 6.16929 122.963 6.16929C122.863 6.16929 122.752 6.16725 122.635 6.16239C122.467 6.51653 122.327 6.79812 122.219 7.00664L121.854 7.726L118.035 14.8335L115.243 7.39235L114.834 6.16239C114.717 6.16725 114.611 6.16929 114.518 6.16929C114.429 6.16929 114.324 6.16725 114.201 6.16239L116.803 12.9637C116.995 13.4741 117.13 13.8328 117.204 14.0414C117.254 14.187 117.305 14.3363 117.351 14.4866L117.598 15.2374ZM124.094 6.8207C124.212 6.81145 124.33 6.80711 124.452 6.80711C124.574 6.80711 124.694 6.81145 124.811 6.8207L124.833 6.16239C124.716 6.16725 124.596 6.16929 124.473 6.16929C124.351 6.16929 124.231 6.16725 124.116 6.16239L124.094 6.8207ZM123.84 15.2374C123.962 15.2331 124.055 15.2308 124.12 15.2308C124.185 15.2308 124.278 15.2331 124.401 15.2374C124.401 14.5114 124.433 13.42 124.498 11.9674C124.56 10.5129 124.627 9.36452 124.692 8.52284C124.57 8.52717 124.473 8.52921 124.404 8.52921C124.339 8.52921 124.246 8.52717 124.123 8.52284C124.123 9.02857 124.089 10.1065 124.02 11.7609C123.953 13.413 123.892 14.5727 123.84 15.2374ZM126.428 15.2374C126.55 15.2331 126.644 15.2308 126.708 15.2308C126.773 15.2308 126.869 15.2331 126.99 15.2374C126.99 14.7679 126.999 14.0437 127.018 13.0635C127.03 12.3371 127.064 11.6904 127.114 11.1233C127.145 10.7579 127.21 10.4517 127.304 10.1975C127.378 9.9795 127.491 9.77512 127.642 9.5823C127.791 9.38967 127.945 9.23735 128.103 9.126C128.26 9.01728 128.43 8.93114 128.61 8.87442C128.79 8.81776 128.993 8.78828 129.219 8.78828C129.45 8.78828 129.721 8.82446 130.036 8.8993C130.016 8.74928 130.007 8.59749 130.007 8.44767C129.81 8.40486 129.616 8.38202 129.423 8.38202C129.16 8.38202 128.907 8.40919 128.668 8.46592C128.425 8.52054 128.213 8.60005 128.034 8.70418C127.854 8.80824 127.695 8.93777 127.558 9.09475C127.422 9.24884 127.275 9.47817 127.114 9.77972L127.179 8.52284C127.09 8.52717 127.003 8.52921 126.917 8.52921C126.838 8.52921 126.752 8.52717 126.658 8.52284L126.665 9.12167C126.665 9.73665 126.639 10.6763 126.588 11.9404C126.538 13.204 126.483 14.3024 126.428 15.2374ZM131.373 17.6656C131.397 17.8339 131.414 18.0082 131.423 18.1896C131.901 18.2968 132.321 18.3691 132.681 18.405C133.041 18.4434 133.414 18.4622 133.793 18.4622C134.309 18.4622 134.772 18.4148 135.185 18.3165C135.564 18.2263 135.877 18.1083 136.126 17.9562C136.374 17.8061 136.58 17.6225 136.745 17.4045C136.909 17.1868 137.031 16.9416 137.111 16.6673C137.185 16.4107 137.233 16.1156 137.25 15.7822L137.331 12.9955L137.487 9.95002C137.502 9.71616 137.516 9.52583 137.531 9.38015L137.603 8.61568C136.688 8.45922 135.91 8.38202 135.27 8.38202C134.635 8.38202 134.047 8.45922 133.502 8.61568C132.96 8.76983 132.48 9.02654 132.064 9.38251C131.651 9.73895 131.33 10.1929 131.106 10.742C130.88 11.2913 130.768 11.8655 130.768 12.4641C130.768 12.9024 130.842 13.3202 130.993 13.7169C131.143 14.1142 131.366 14.4386 131.659 14.6907C131.951 14.9448 132.283 15.1241 132.658 15.2308C133.029 15.3372 133.433 15.3896 133.869 15.3896C134.14 15.3896 134.405 15.3644 134.657 15.317C134.911 15.2669 135.142 15.2013 135.351 15.1128C135.56 15.0266 135.744 14.9287 135.906 14.8202C136.069 14.713 136.21 14.591 136.33 14.4547C136.453 14.3206 136.549 14.1914 136.616 14.069C136.683 13.9485 136.765 13.7805 136.858 13.5674C136.844 14.2596 136.82 14.881 136.786 15.4303C136.772 15.7709 136.734 16.0909 136.671 16.388C136.606 16.6852 136.513 16.9327 136.385 17.1325C136.277 17.3002 136.126 17.4546 135.93 17.5907C135.708 17.7428 135.442 17.8587 135.128 17.9447C134.784 18.0421 134.414 18.0896 134.016 18.0896C133.68 18.0896 133.308 18.0608 132.904 18.0036C132.503 17.9467 131.992 17.8339 131.373 17.6656ZM137.039 8.92878L136.955 11.2072C136.923 11.8109 136.866 12.3056 136.786 12.6893C136.727 12.966 136.626 13.2338 136.489 13.4971C136.35 13.7625 136.188 13.9919 136.006 14.187C135.824 14.3819 135.634 14.5384 135.435 14.654C135.236 14.7722 135.022 14.8587 134.799 14.9105C134.505 14.981 134.194 15.0174 133.855 15.0174C133.359 15.0174 132.904 14.913 132.494 14.7022C132.085 14.4909 131.783 14.1778 131.589 13.7602C131.394 13.3448 131.296 12.8796 131.296 12.3646C131.296 11.8291 131.401 11.3095 131.613 10.8079C131.824 10.3083 132.119 9.89796 132.501 9.57763C132.883 9.26013 133.304 9.04216 133.764 8.92622C134.222 8.81087 134.721 8.75414 135.262 8.75414C135.466 8.75414 135.704 8.76314 135.97 8.78132C136.239 8.79957 136.594 8.84724 137.039 8.92878ZM139.391 15.2374C139.514 15.2331 139.607 15.2308 139.672 15.2308C139.737 15.2308 139.831 15.2331 139.953 15.2374C139.953 14.5114 139.984 13.42 140.049 11.9674C140.112 10.5129 140.178 9.36452 140.243 8.52284C140.12 8.52717 140.025 8.52921 139.955 8.52921C139.891 8.52921 139.797 8.52717 139.674 8.52284C139.674 9.02857 139.641 10.1065 139.571 11.7609C139.504 13.413 139.444 14.5727 139.391 15.2374ZM139.552 7.67834C139.591 7.66934 139.636 7.66495 139.694 7.66495C139.754 7.66495 139.801 7.66934 139.84 7.67834C139.962 7.46516 140.157 7.1451 140.423 6.71861C140.693 6.28957 140.882 5.99235 140.995 5.82434C140.877 5.829 140.74 5.8313 140.587 5.8313C140.433 5.8313 140.296 5.829 140.178 5.82434C139.991 6.38726 139.857 6.78197 139.778 7.00664C139.698 7.2336 139.621 7.45623 139.552 7.67834ZM141.979 15.2374C142.102 15.2331 142.195 15.2308 142.26 15.2308C142.325 15.2308 142.418 15.2331 142.541 15.2374C142.541 14.6517 142.56 13.9372 142.594 13.0929C142.629 12.249 142.675 11.6406 142.73 11.2685C142.79 10.8374 142.879 10.5037 142.997 10.2632C143.153 9.93617 143.353 9.66436 143.594 9.44863C143.84 9.23499 144.123 9.0719 144.447 8.96062C144.79 8.84494 145.184 8.78828 145.628 8.78828C145.947 8.78828 146.257 8.82209 146.558 8.89011C146.857 8.96062 147.116 9.06961 147.335 9.22376C147.553 9.37581 147.707 9.56871 147.796 9.79797C147.885 10.0295 147.93 10.2904 147.93 10.583C147.93 10.8623 147.911 11.3159 147.872 11.9471L147.774 13.6492C147.745 14.1529 147.709 14.6838 147.661 15.2374C147.751 15.2331 147.84 15.2308 147.927 15.2308C148.016 15.2308 148.108 15.2331 148.202 15.2374L148.23 14.1529L148.379 11.1277C148.394 10.8579 148.401 10.6538 148.401 10.5173C148.401 10.2109 148.355 9.9231 148.264 9.65511C148.173 9.38737 148.005 9.14911 147.76 8.94473C147.515 8.73825 147.208 8.59283 146.838 8.50899C146.468 8.42489 146.084 8.38202 145.69 8.38202C145.456 8.38202 145.22 8.3979 144.98 8.43178C144.74 8.46592 144.507 8.51825 144.279 8.59079C144.05 8.66544 143.856 8.75644 143.696 8.86293C143.532 8.97218 143.393 9.09009 143.275 9.21273C143.158 9.33734 143.067 9.45302 142.997 9.56201C142.93 9.67073 142.843 9.82974 142.74 10.0385L142.836 8.52284C142.714 8.52717 142.625 8.52921 142.57 8.52921C142.509 8.52921 142.418 8.52717 142.296 8.52284C142.296 8.67693 142.291 8.92622 142.281 9.26709L142.219 11.1754L141.979 15.2374ZM150.539 6.8207C150.658 6.81145 150.775 6.80711 150.898 6.80711C151.02 6.80711 151.14 6.81145 151.257 6.8207L151.279 6.16239C151.162 6.16725 151.042 6.16929 150.919 6.16929C150.797 6.16929 150.676 6.16725 150.561 6.16239L150.539 6.8207ZM150.285 15.2374C150.408 15.2331 150.502 15.2308 150.566 15.2308C150.631 15.2308 150.724 15.2331 150.847 15.2374C150.847 14.5114 150.878 13.42 150.944 11.9674C151.005 10.5129 151.072 9.36452 151.138 8.52284C151.015 8.52717 150.919 8.52921 150.85 8.52921C150.785 8.52921 150.691 8.52717 150.569 8.52284C150.569 9.02857 150.535 10.1065 150.466 11.7609C150.398 13.413 150.338 14.5727 150.285 15.2374ZM153.308 9.22836C153.622 9.10808 153.881 9.01958 154.088 8.96522C154.295 8.90856 154.546 8.86056 154.847 8.81776C155.147 8.77443 155.468 8.75414 155.812 8.75414C156.107 8.75414 156.388 8.77929 156.654 8.82675C156.923 8.87672 157.147 8.96292 157.326 9.08753C157.507 9.21037 157.631 9.34168 157.703 9.4825C157.773 9.62333 157.809 9.76842 157.809 9.91825C157.809 10.127 157.732 10.3311 157.583 10.533C157.432 10.7353 157.223 10.8918 156.95 11.0053C156.678 11.1187 156.39 11.2118 156.085 11.289C155.411 11.4521 155.024 11.5478 154.926 11.575C154.568 11.6724 154.237 11.7791 153.927 11.8927C153.661 11.9901 153.416 12.1102 153.195 12.2533C153.008 12.3667 152.858 12.4918 152.745 12.6254C152.609 12.7842 152.508 12.9522 152.443 13.1271C152.379 13.302 152.345 13.4833 152.345 13.6692C152.345 13.9124 152.398 14.146 152.506 14.3686C152.614 14.5886 152.782 14.7835 153.005 14.9515C153.231 15.1218 153.51 15.2351 153.843 15.2921C154.177 15.3488 154.539 15.3783 154.933 15.3783C155.144 15.3783 155.367 15.369 155.605 15.3488C155.841 15.3282 156.15 15.2831 156.529 15.2126C156.559 15.0446 156.592 14.8743 156.635 14.7066C156.33 14.7997 156.097 14.863 155.936 14.8972C155.773 14.9287 155.6 14.9561 155.418 14.9767C155.236 14.9972 155.046 15.0061 154.849 15.0061C154.456 15.0061 154.119 14.9631 153.841 14.8766C153.562 14.7905 153.329 14.6407 153.147 14.4273C152.965 14.2139 152.874 13.9642 152.874 13.6759C152.874 13.4856 152.912 13.3063 152.986 13.136C153.05 12.9955 153.154 12.8591 153.296 12.7321C153.454 12.5846 153.653 12.4531 153.893 12.3328C154.115 12.2215 154.427 12.1035 154.83 11.9789C155.008 11.9266 155.303 11.8471 155.718 11.7407C156.133 11.634 156.395 11.5634 156.503 11.5316C156.611 11.4977 156.729 11.457 156.858 11.4116C156.988 11.3639 157.096 11.3182 157.187 11.2752C157.281 11.23 157.365 11.18 157.442 11.1254C157.518 11.0687 157.631 10.9849 157.775 10.8694C157.747 11.2913 157.725 11.743 157.708 12.2281C157.692 12.7139 157.67 13.1678 157.646 13.5874C157.619 14.01 157.573 14.5588 157.507 15.2374C157.624 15.2331 157.722 15.2308 157.802 15.2308C157.876 15.2308 157.978 15.2331 158.097 15.2374V14.6791C158.097 14.4229 158.109 14.0008 158.133 13.42C158.157 12.8365 158.181 12.3487 158.209 11.9584C158.239 11.5678 158.26 11.2049 158.277 10.8646C158.294 10.5263 158.301 10.2449 158.301 10.0249C158.301 9.8069 158.265 9.59378 158.194 9.38507C158.118 9.17833 157.97 8.9924 157.742 8.83109C157.514 8.668 157.22 8.55409 156.863 8.48384C156.503 8.41615 156.117 8.38202 155.699 8.38202C155.339 8.38202 154.981 8.40486 154.63 8.45233C154.277 8.4977 153.862 8.5839 153.384 8.70877C153.366 8.90396 153.342 9.0763 153.308 9.22836ZM163.662 15.2374C163.779 15.2331 163.882 15.2308 163.971 15.2308C164.06 15.2308 164.166 15.2331 164.288 15.2374C164.294 14.8245 164.3 14.5137 164.31 14.3024C164.32 14.0936 164.329 13.8828 164.344 13.6741L164.718 8.78132C164.768 8.1215 164.795 7.68293 164.817 7.46516L164.855 7.07616L165.112 7.22001L168.177 15.2374C168.29 15.2331 168.413 15.2308 168.55 15.2308C168.686 15.2308 168.809 15.2331 168.922 15.2374L171.778 9.11937L172.83 6.7494L172.974 7.51749C173.072 8.04784 172.967 8.68212 172.953 9.38507L172.832 15.2374C172.95 15.2331 173.06 15.2308 173.163 15.2308C173.26 15.2308 173.37 15.2331 173.492 15.2374C173.466 14.4319 173.452 13.3335 173.452 11.9471C173.452 11.5249 173.457 10.8802 173.469 10.0113L173.536 6.16239C173.377 6.16725 173.224 6.16929 173.08 6.16929C172.933 6.16929 172.782 6.16725 172.621 6.16239C172.477 6.5076 172.362 6.77534 172.277 6.96127L168.564 14.7246L168.058 13.4356L166.209 8.55002C165.926 7.80118 165.741 7.30385 165.652 7.05896L165.343 6.16239C165.18 6.16725 165.028 6.16929 164.886 6.16929C164.752 6.16929 164.6 6.16725 164.437 6.16239L164.219 9.12856L163.811 14.0075L163.662 15.2374ZM181.751 15.2374C181.751 14.9448 181.755 14.593 181.765 14.1801L181.795 13.177L182.053 8.52284C181.932 8.52717 181.84 8.52921 181.779 8.52921C181.717 8.52921 181.624 8.52717 181.499 8.52284C181.494 9.22376 181.475 9.99309 181.441 10.8374C181.4 11.7132 181.357 12.3192 181.304 12.6549C181.254 12.9885 181.173 13.2699 181.067 13.4971C180.944 13.7533 180.796 13.9803 180.622 14.1754C180.473 14.3434 180.298 14.4843 180.102 14.5999C179.905 14.7156 179.658 14.813 179.359 14.8902C179.062 14.9677 178.753 15.0061 178.428 15.0061C178.118 15.0061 177.819 14.9741 177.526 14.913C177.232 14.8515 176.971 14.7427 176.738 14.591C176.505 14.4363 176.344 14.2434 176.249 14.0075C176.155 13.7738 176.109 13.4879 176.109 13.1496C176.109 12.848 176.146 12.0968 176.22 10.8964C176.292 9.69561 176.347 8.90396 176.386 8.52284C176.263 8.52717 176.172 8.52921 176.112 8.52921C176.049 8.52921 175.958 8.52717 175.839 8.52284C175.839 9.19658 175.804 10.0657 175.742 11.1323C175.677 12.1992 175.646 12.8662 175.646 13.136C175.646 13.4879 175.696 13.801 175.795 14.078C175.893 14.3547 176.075 14.5973 176.347 14.8064C176.616 15.0151 176.925 15.1602 177.274 15.2444C177.624 15.3282 178.001 15.3711 178.404 15.3711C178.638 15.3711 178.87 15.3554 179.103 15.3239C179.335 15.2942 179.561 15.2421 179.782 15.1718C180.003 15.1013 180.193 15.0151 180.356 14.9151C180.517 14.8154 180.651 14.7112 180.76 14.5999C180.867 14.4886 180.956 14.3842 181.023 14.2845C181.091 14.1844 181.18 14.0208 181.287 13.7944L181.23 15.2374C181.324 15.2331 181.41 15.2308 181.492 15.2308C181.571 15.2308 181.658 15.2331 181.751 15.2374ZM179.506 7.07945C179.619 7.07511 179.74 7.07255 179.866 7.07255C179.987 7.07255 180.106 7.07511 180.223 7.07945L180.245 6.4214C180.128 6.42573 180.008 6.42809 179.885 6.42809C179.763 6.42809 179.645 6.42573 179.527 6.4214L179.506 7.07945ZM177.734 7.07945C177.847 7.07511 177.968 7.07255 178.095 7.07255C178.215 7.07255 178.334 7.07511 178.452 7.07945L178.473 6.4214C178.356 6.42573 178.236 6.42809 178.113 6.42809C177.991 6.42809 177.874 6.42573 177.756 6.4214L177.734 7.07945ZM183.789 15.2374C183.912 15.2331 184.008 15.2308 184.077 15.2308C184.147 15.2308 184.243 15.2331 184.365 15.2374L184.566 9.40096L184.744 6.16239C184.621 6.16725 184.526 6.16929 184.456 6.16929C184.387 6.16929 184.29 6.16725 184.168 6.16239C184.13 8.51588 184.005 11.5409 183.789 15.2374ZM186.482 15.2374C186.605 15.2331 186.7 15.2308 186.771 15.2308C186.84 15.2308 186.936 15.2331 187.058 15.2374L187.26 9.40096L187.438 6.16239C187.315 6.16725 187.219 6.16929 187.15 6.16929C187.081 6.16929 186.984 6.16725 186.862 6.16239C186.823 8.51588 186.698 11.5409 186.482 15.2374ZM194.486 14.593C193.718 14.8676 193.019 15.0061 192.39 15.0061C191.978 15.0061 191.586 14.9425 191.216 14.813C190.844 14.6838 190.527 14.4866 190.264 14.2211C189.996 13.9552 189.8 13.6241 189.668 13.2291C189.536 12.8365 189.471 12.4279 189.471 12.0061C189.471 11.8609 189.483 11.6429 189.507 11.3547L195.07 11.348C195.079 11.2503 195.084 11.1482 195.084 11.0415C195.084 10.4696 194.967 9.9749 194.729 9.55997C194.491 9.14215 194.16 8.84264 193.732 8.65901C193.308 8.47485 192.83 8.38202 192.307 8.38202C191.541 8.38202 190.9 8.55902 190.386 8.91315C189.869 9.26939 189.497 9.71616 189.274 10.2542C189.049 10.792 188.936 11.3708 188.936 11.9856C188.936 12.4551 189 12.9001 189.133 13.3176C189.265 13.7331 189.486 14.1098 189.796 14.4432C190.103 14.7792 190.475 15.0174 190.909 15.1626C191.344 15.3054 191.841 15.3783 192.404 15.3783C192.729 15.3783 193.043 15.3577 193.353 15.3147C193.663 15.2736 194.013 15.199 194.402 15.092C194.422 14.9243 194.448 14.7563 194.486 14.593ZM189.57 10.9892C189.634 10.7238 189.697 10.5129 189.757 10.3609C189.814 10.2086 189.899 10.0475 190.009 9.87721C190.119 9.70947 190.261 9.55275 190.432 9.41015C190.603 9.26453 190.787 9.14655 190.984 9.05372C191.181 8.96062 191.399 8.88827 191.637 8.83338C191.877 8.78132 192.119 8.75414 192.369 8.75414C192.595 8.75414 192.811 8.77699 193.017 8.81979C193.221 8.86523 193.408 8.93114 193.574 9.01728C193.742 9.10368 193.886 9.21037 194.011 9.33734C194.136 9.46222 194.242 9.61177 194.33 9.78438C194.422 9.95928 194.481 10.127 194.515 10.2904C194.546 10.454 194.565 10.6899 194.57 10.9961L189.57 10.9892ZM196.386 15.2374C196.507 15.2331 196.602 15.2308 196.666 15.2308C196.731 15.2308 196.827 15.2331 196.947 15.2374C196.947 14.7679 196.957 14.0437 196.975 13.0635C196.988 12.3371 197.022 11.6904 197.072 11.1233C197.103 10.7579 197.167 10.4517 197.261 10.1975C197.335 9.9795 197.448 9.77512 197.6 9.5823C197.748 9.38967 197.902 9.23735 198.061 9.126C198.217 9.01728 198.387 8.93114 198.567 8.87442C198.747 8.81776 198.951 8.78828 199.177 8.78828C199.408 8.78828 199.679 8.82446 199.993 8.8993C199.974 8.74928 199.964 8.59749 199.964 8.44767C199.768 8.40486 199.573 8.38202 199.381 8.38202C199.117 8.38202 198.865 8.40919 198.625 8.46592C198.383 8.52054 198.171 8.60005 197.991 8.70418C197.811 8.80824 197.653 8.93777 197.516 9.09475C197.379 9.24884 197.232 9.47817 197.072 9.77972L197.137 8.52284C197.048 8.52717 196.961 8.52921 196.875 8.52921C196.796 8.52921 196.709 8.52717 196.616 8.52284L196.623 9.12167C196.623 9.73665 196.596 10.6763 196.546 11.9404C196.496 13.204 196.441 14.3024 196.386 15.2374Z" fill="white"/>
<path d="M86.281 15.2374L87.815 15.2308L89.3058 15.2374C90.1074 15.2374 90.8472 15.1579 91.5244 14.9989C92.201 14.8381 92.8085 14.5294 93.3462 14.0731C93.8819 13.6169 94.2874 13.0545 94.5632 12.3828C94.8371 11.7109 94.974 11.0143 94.974 10.2904C94.974 9.68458 94.8849 9.11707 94.7074 8.59283C94.5273 8.06661 94.2249 7.59647 93.8002 7.18357C93.3728 6.76812 92.885 6.49375 92.3406 6.36244C91.793 6.22831 91.0685 6.16239 90.1632 6.16239L88.2351 6.16929L86.6798 6.16239C86.6798 6.4642 86.6778 6.70942 86.6725 6.89995L86.4851 12.0786L86.281 15.2374ZM86.8865 14.8177L87.2507 6.57555L88.6073 6.56886H90.2829C90.7607 6.57326 91.1788 6.59833 91.5337 6.64121C91.9279 6.68684 92.2562 6.76175 92.5181 6.86377C92.782 6.96816 93.0345 7.12488 93.2738 7.329C93.5171 7.53548 93.7284 7.78732 93.9105 8.0848C94.076 8.34538 94.1963 8.62697 94.2781 8.92878C94.3904 9.34404 94.4462 9.77972 94.4462 10.2313C94.4462 10.701 94.3884 11.1644 94.2701 11.625C94.1531 12.083 93.973 12.5008 93.7324 12.877C93.4905 13.254 93.1807 13.5946 92.8032 13.9008C92.427 14.2073 92.0402 14.4158 91.6467 14.5317C91.2526 14.6476 90.8066 14.7269 90.3075 14.7702C89.8076 14.8154 89.3205 14.8381 88.8472 14.8381C88.37 14.8381 87.7167 14.8315 86.8865 14.8177ZM96.4721 15.2374C96.5944 15.2331 96.6881 15.2308 96.7526 15.2308C96.8177 15.2308 96.9141 15.2331 97.0337 15.2374C97.0337 14.7679 97.043 14.0437 97.0623 13.0635C97.0743 12.3371 97.1082 11.6904 97.1587 11.1233C97.1899 10.7579 97.2544 10.4517 97.3481 10.1975C97.4225 9.9795 97.5355 9.77512 97.6871 9.5823C97.8353 9.38967 97.9895 9.23735 98.1477 9.126C98.3039 9.01728 98.474 8.93114 98.6541 8.87442C98.8343 8.81776 99.0383 8.78828 99.2643 8.78828C99.4943 8.78828 99.7661 8.82446 100.08 8.8993C100.061 8.74928 100.051 8.59749 100.051 8.44767C99.8545 8.40486 99.6598 8.38202 99.4683 8.38202C99.2038 8.38202 98.9519 8.4092 98.712 8.46592C98.4694 8.52054 98.258 8.60005 98.0779 8.70418C97.8978 8.80824 97.7396 8.93777 97.6027 9.09475C97.4657 9.24884 97.3195 9.47817 97.1587 9.77972L97.2231 8.52284C97.1348 8.52718 97.0483 8.52921 96.9619 8.52921C96.8822 8.52921 96.7958 8.52718 96.7027 8.52284L96.7094 9.12167C96.7094 9.73665 96.6835 10.6763 96.6329 11.9404C96.5824 13.204 96.5273 14.3024 96.4721 15.2374ZM101.436 9.22836C101.751 9.10808 102.01 9.01958 102.217 8.96522C102.423 8.90856 102.675 8.86056 102.976 8.81776C103.275 8.77443 103.597 8.75414 103.941 8.75414C104.236 8.75414 104.517 8.77929 104.783 8.82675C105.052 8.87672 105.275 8.96292 105.455 9.08753C105.636 9.21037 105.761 9.34168 105.832 9.4825C105.902 9.62333 105.938 9.76842 105.938 9.91825C105.938 10.127 105.861 10.3311 105.712 10.533C105.561 10.7353 105.352 10.8918 105.079 11.0053C104.807 11.1187 104.519 11.2118 104.214 11.289C103.539 11.4521 103.153 11.5478 103.055 11.575C102.697 11.6724 102.366 11.7791 102.056 11.8927C101.789 11.9901 101.545 12.1102 101.323 12.2533C101.137 12.3667 100.987 12.4918 100.875 12.6254C100.738 12.7842 100.637 12.9522 100.572 13.1271C100.508 13.302 100.474 13.4833 100.474 13.6692C100.474 13.9124 100.526 14.146 100.635 14.3686C100.742 14.5886 100.911 14.7835 101.134 14.9515C101.36 15.1218 101.638 15.2351 101.972 15.2921C102.306 15.3488 102.668 15.3783 103.062 15.3783C103.273 15.3783 103.496 15.369 103.734 15.3488C103.969 15.3282 104.279 15.2831 104.659 15.2126C104.687 15.0446 104.721 14.8743 104.764 14.7066C104.459 14.7997 104.226 14.863 104.065 14.8972C103.902 14.9287 103.729 14.9561 103.547 14.9767C103.365 14.9972 103.174 15.0061 102.978 15.0061C102.584 15.0061 102.248 14.9631 101.969 14.8766C101.691 14.7905 101.458 14.6407 101.276 14.4273C101.093 14.2139 101.002 13.9642 101.002 13.6759C101.002 13.4856 101.041 13.3063 101.115 13.136C101.179 12.9955 101.283 12.8591 101.424 12.7321C101.583 12.5846 101.783 12.4531 102.023 12.3328C102.243 12.2215 102.556 12.1035 102.958 11.9789C103.137 11.9266 103.432 11.8471 103.846 11.7407C104.262 11.634 104.524 11.5634 104.632 11.5316C104.74 11.4977 104.858 11.457 104.987 11.4116C105.117 11.3639 105.224 11.3182 105.316 11.2752C105.41 11.23 105.494 11.18 105.57 11.1254C105.647 11.0687 105.761 10.9849 105.904 10.8694C105.876 11.2913 105.854 11.743 105.836 12.2281C105.82 12.7139 105.798 13.1678 105.775 13.5874C105.749 14.01 105.703 14.5588 105.636 15.2374C105.753 15.2331 105.852 15.2308 105.931 15.2308C106.005 15.2308 106.106 15.2331 106.226 15.2374V14.6791C106.226 14.4229 106.238 14.0008 106.262 13.42C106.286 12.8365 106.31 12.3487 106.339 11.9584C106.367 11.5678 106.389 11.2049 106.406 10.8646C106.423 10.5263 106.43 10.2449 106.43 10.0249C106.43 9.8069 106.394 9.59379 106.322 9.38507C106.247 9.17833 106.099 8.9924 105.87 8.83109C105.642 8.668 105.35 8.55409 104.992 8.48384C104.632 8.41615 104.245 8.38202 103.828 8.38202C103.468 8.38202 103.11 8.40486 102.759 8.45233C102.406 8.4977 101.991 8.5839 101.513 8.70877C101.494 8.90396 101.47 9.0763 101.436 9.22836ZM108.183 15.2374C108.346 15.2331 108.478 15.2308 108.576 15.2308C108.67 15.2308 108.799 15.2331 108.962 15.2374C108.972 15.1308 108.979 15.0174 108.985 14.8949C108.989 14.7745 108.996 14.6476 109.006 14.5137C108.841 14.5178 108.711 14.5204 108.612 14.5204C108.518 14.5204 108.387 14.5178 108.218 14.5137C108.214 14.6022 108.209 14.6997 108.206 14.8064C108.204 14.913 108.197 15.0562 108.183 15.2374ZM117.598 15.2374C117.762 15.2331 117.896 15.2308 117.999 15.2308C118.097 15.2308 118.229 15.2331 118.392 15.2374C118.782 14.4386 119.25 13.5379 119.799 12.5326L121.643 9.13552C122.322 7.87143 122.872 6.87966 123.295 6.16239C123.177 6.16725 123.066 6.16929 122.963 6.16929C122.863 6.16929 122.752 6.16725 122.635 6.16239C122.467 6.51653 122.327 6.79812 122.219 7.00664L121.854 7.726L118.035 14.8335L115.243 7.39235L114.834 6.16239C114.717 6.16725 114.611 6.16929 114.518 6.16929C114.429 6.16929 114.324 6.16725 114.201 6.16239L116.803 12.9637C116.995 13.4741 117.13 13.8328 117.204 14.0414C117.254 14.187 117.305 14.3363 117.351 14.4866L117.598 15.2374ZM124.094 6.8207C124.212 6.81145 124.33 6.80711 124.452 6.80711C124.574 6.80711 124.694 6.81145 124.811 6.8207L124.833 6.16239C124.716 6.16725 124.596 6.16929 124.473 6.16929C124.351 6.16929 124.231 6.16725 124.116 6.16239L124.094 6.8207ZM123.84 15.2374C123.962 15.2331 124.055 15.2308 124.12 15.2308C124.185 15.2308 124.278 15.2331 124.401 15.2374C124.401 14.5114 124.433 13.42 124.498 11.9674C124.56 10.5129 124.627 9.36452 124.692 8.52284C124.57 8.52718 124.473 8.52921 124.404 8.52921C124.339 8.52921 124.246 8.52718 124.123 8.52284C124.123 9.02857 124.089 10.1065 124.02 11.7609C123.953 13.413 123.892 14.5727 123.84 15.2374ZM126.428 15.2374C126.55 15.2331 126.644 15.2308 126.708 15.2308C126.773 15.2308 126.869 15.2331 126.99 15.2374C126.99 14.7679 126.999 14.0437 127.018 13.0635C127.03 12.3371 127.064 11.6904 127.114 11.1233C127.145 10.7579 127.21 10.4517 127.304 10.1975C127.378 9.9795 127.491 9.77512 127.642 9.5823C127.791 9.38967 127.945 9.23735 128.103 9.126C128.26 9.01728 128.43 8.93114 128.61 8.87442C128.79 8.81776 128.993 8.78828 129.219 8.78828C129.45 8.78828 129.721 8.82446 130.036 8.8993C130.016 8.74928 130.007 8.59749 130.007 8.44767C129.81 8.40486 129.616 8.38202 129.423 8.38202C129.16 8.38202 128.907 8.4092 128.668 8.46592C128.425 8.52054 128.213 8.60005 128.034 8.70418C127.854 8.80824 127.695 8.93777 127.558 9.09475C127.422 9.24884 127.275 9.47817 127.114 9.77972L127.179 8.52284C127.09 8.52718 127.003 8.52921 126.917 8.52921C126.838 8.52921 126.752 8.52718 126.658 8.52284L126.665 9.12167C126.665 9.73665 126.639 10.6763 126.588 11.9404C126.538 13.204 126.483 14.3024 126.428 15.2374ZM131.373 17.6656C131.397 17.8339 131.414 18.0082 131.423 18.1896C131.901 18.2968 132.321 18.3691 132.681 18.405C133.041 18.4434 133.414 18.4622 133.793 18.4622C134.309 18.4622 134.772 18.4148 135.185 18.3165C135.564 18.2263 135.877 18.1083 136.126 17.9562C136.374 17.8061 136.58 17.6225 136.745 17.4045C136.909 17.1868 137.031 16.9416 137.111 16.6673C137.185 16.4107 137.233 16.1156 137.25 15.7822L137.331 12.9955L137.487 9.95002C137.502 9.71616 137.516 9.52583 137.531 9.38015L137.603 8.61568C136.688 8.45922 135.91 8.38202 135.27 8.38202C134.635 8.38202 134.047 8.45922 133.502 8.61568C132.96 8.76983 132.48 9.02654 132.064 9.38251C131.651 9.73895 131.33 10.1929 131.106 10.742C130.88 11.2913 130.768 11.8655 130.768 12.4641C130.768 12.9024 130.842 13.3202 130.993 13.7169C131.143 14.1142 131.366 14.4386 131.659 14.6907C131.951 14.9448 132.283 15.1241 132.658 15.2308C133.029 15.3372 133.433 15.3896 133.869 15.3896C134.14 15.3896 134.405 15.3644 134.657 15.317C134.911 15.2669 135.142 15.2013 135.351 15.1128C135.56 15.0266 135.744 14.9287 135.906 14.8202C136.069 14.713 136.21 14.591 136.33 14.4547C136.453 14.3206 136.549 14.1914 136.616 14.069C136.683 13.9485 136.765 13.7805 136.858 13.5674C136.844 14.2596 136.82 14.881 136.786 15.4303C136.772 15.7709 136.734 16.0909 136.671 16.388C136.606 16.6852 136.513 16.9327 136.385 17.1325C136.277 17.3002 136.126 17.4546 135.93 17.5907C135.708 17.7428 135.442 17.8587 135.128 17.9447C134.784 18.0421 134.414 18.0896 134.016 18.0896C133.68 18.0896 133.308 18.0608 132.904 18.0036C132.503 17.9467 131.992 17.8339 131.373 17.6656ZM137.039 8.92878L136.955 11.2072C136.923 11.8109 136.866 12.3056 136.786 12.6893C136.727 12.966 136.626 13.2338 136.489 13.4971C136.35 13.7625 136.188 13.9919 136.006 14.187C135.824 14.3819 135.634 14.5384 135.435 14.654C135.236 14.7722 135.022 14.8587 134.799 14.9105C134.505 14.981 134.194 15.0174 133.855 15.0174C133.359 15.0174 132.904 14.913 132.494 14.7022C132.085 14.4909 131.783 14.1778 131.589 13.7602C131.394 13.3448 131.296 12.8796 131.296 12.3646C131.296 11.8291 131.401 11.3095 131.613 10.8079C131.824 10.3083 132.119 9.89796 132.501 9.57764C132.883 9.26013 133.304 9.04216 133.764 8.92622C134.222 8.81087 134.721 8.75414 135.262 8.75414C135.466 8.75414 135.704 8.76314 135.97 8.78132C136.239 8.79957 136.594 8.84724 137.039 8.92878ZM139.391 15.2374C139.514 15.2331 139.607 15.2308 139.672 15.2308C139.737 15.2308 139.831 15.2331 139.953 15.2374C139.953 14.5114 139.984 13.42 140.049 11.9674C140.112 10.5129 140.178 9.36452 140.243 8.52284C140.12 8.52718 140.025 8.52921 139.955 8.52921C139.891 8.52921 139.797 8.52718 139.674 8.52284C139.674 9.02857 139.641 10.1065 139.571 11.7609C139.504 13.413 139.444 14.5727 139.391 15.2374ZM139.552 7.67834C139.591 7.66934 139.636 7.66495 139.694 7.66495C139.754 7.66495 139.801 7.66934 139.84 7.67834C139.962 7.46516 140.157 7.1451 140.423 6.71861C140.693 6.28957 140.882 5.99235 140.995 5.82434C140.877 5.829 140.74 5.8313 140.587 5.8313C140.433 5.8313 140.296 5.829 140.178 5.82434C139.991 6.38726 139.857 6.78197 139.778 7.00664C139.698 7.2336 139.621 7.45623 139.552 7.67834ZM141.979 15.2374C142.102 15.2331 142.195 15.2308 142.26 15.2308C142.325 15.2308 142.418 15.2331 142.541 15.2374C142.541 14.6517 142.56 13.9372 142.594 13.0929C142.629 12.249 142.675 11.6406 142.73 11.2685C142.79 10.8374 142.879 10.5037 142.997 10.2632C143.153 9.93617 143.353 9.66436 143.594 9.44863C143.84 9.23499 144.123 9.0719 144.447 8.96062C144.79 8.84494 145.184 8.78828 145.628 8.78828C145.947 8.78828 146.257 8.82209 146.558 8.89011C146.857 8.96062 147.116 9.06961 147.335 9.22376C147.553 9.37581 147.707 9.56871 147.796 9.79797C147.885 10.0295 147.93 10.2904 147.93 10.583C147.93 10.8623 147.911 11.3159 147.872 11.9471L147.774 13.6492C147.745 14.1529 147.709 14.6838 147.661 15.2374C147.751 15.2331 147.84 15.2308 147.927 15.2308C148.016 15.2308 148.108 15.2331 148.202 15.2374L148.23 14.1529L148.379 11.1277C148.394 10.8579 148.401 10.6538 148.401 10.5173C148.401 10.2109 148.355 9.9231 148.264 9.65511C148.173 9.38737 148.005 9.14911 147.76 8.94473C147.515 8.73825 147.208 8.59283 146.838 8.50899C146.468 8.42489 146.084 8.38202 145.69 8.38202C145.456 8.38202 145.22 8.3979 144.98 8.43178C144.74 8.46592 144.507 8.51825 144.279 8.59079C144.05 8.66544 143.856 8.75644 143.696 8.86293C143.532 8.97218 143.393 9.09009 143.275 9.21273C143.158 9.33734 143.067 9.45302 142.997 9.56201C142.93 9.67073 142.843 9.82974 142.74 10.0385L142.836 8.52284C142.714 8.52718 142.625 8.52921 142.57 8.52921C142.509 8.52921 142.418 8.52718 142.296 8.52284C142.296 8.67693 142.291 8.92622 142.281 9.26709L142.219 11.1754L141.979 15.2374ZM150.539 6.8207C150.658 6.81145 150.775 6.80711 150.898 6.80711C151.02 6.80711 151.14 6.81145 151.257 6.8207L151.279 6.16239C151.162 6.16725 151.042 6.16929 150.919 6.16929C150.797 6.16929 150.676 6.16725 150.561 6.16239L150.539 6.8207ZM150.285 15.2374C150.408 15.2331 150.502 15.2308 150.566 15.2308C150.631 15.2308 150.724 15.2331 150.847 15.2374C150.847 14.5114 150.878 13.42 150.944 11.9674C151.005 10.5129 151.072 9.36452 151.138 8.52284C151.015 8.52718 150.919 8.52921 150.85 8.52921C150.785 8.52921 150.691 8.52718 150.569 8.52284C150.569 9.02857 150.535 10.1065 150.466 11.7609C150.398 13.413 150.338 14.5727 150.285 15.2374ZM153.308 9.22836C153.622 9.10808 153.881 9.01958 154.088 8.96522C154.295 8.90856 154.546 8.86056 154.847 8.81776C155.147 8.77443 155.468 8.75414 155.812 8.75414C156.107 8.75414 156.388 8.77929 156.654 8.82675C156.923 8.87672 157.147 8.96292 157.326 9.08753C157.507 9.21037 157.631 9.34168 157.703 9.4825C157.773 9.62333 157.809 9.76842 157.809 9.91825C157.809 10.127 157.732 10.3311 157.583 10.533C157.432 10.7353 157.223 10.8918 156.95 11.0053C156.678 11.1187 156.39 11.2118 156.085 11.289C155.411 11.4521 155.024 11.5478 154.926 11.575C154.568 11.6724 154.237 11.7791 153.927 11.8927C153.661 11.9901 153.416 12.1102 153.195 12.2533C153.008 12.3667 152.858 12.4918 152.745 12.6254C152.609 12.7842 152.508 12.9522 152.443 13.1271C152.379 13.302 152.345 13.4833 152.345 13.6692C152.345 13.9124 152.398 14.146 152.506 14.3686C152.614 14.5886 152.782 14.7835 153.005 14.9515C153.231 15.1218 153.51 15.2351 153.843 15.2921C154.177 15.3488 154.539 15.3783 154.933 15.3783C155.144 15.3783 155.367 15.369 155.605 15.3488C155.841 15.3282 156.15 15.2831 156.529 15.2126C156.559 15.0446 156.592 14.8743 156.635 14.7066C156.33 14.7997 156.097 14.863 155.936 14.8972C155.773 14.9287 155.6 14.9561 155.418 14.9767C155.236 14.9972 155.046 15.0061 154.849 15.0061C154.456 15.0061 154.119 14.9631 153.841 14.8766C153.562 14.7905 153.329 14.6407 153.147 14.4273C152.965 14.2139 152.874 13.9642 152.874 13.6759C152.874 13.4856 152.912 13.3063 152.986 13.136C153.05 12.9955 153.154 12.8591 153.296 12.7321C153.454 12.5846 153.653 12.4531 153.893 12.3328C154.115 12.2215 154.427 12.1035 154.83 11.9789C155.008 11.9266 155.303 11.8471 155.718 11.7407C156.133 11.634 156.395 11.5634 156.503 11.5316C156.611 11.4977 156.729 11.457 156.858 11.4116C156.988 11.3639 157.096 11.3182 157.187 11.2752C157.281 11.23 157.365 11.18 157.442 11.1254C157.518 11.0687 157.631 10.9849 157.775 10.8694C157.747 11.2913 157.725 11.743 157.708 12.2281C157.692 12.7139 157.67 13.1678 157.646 13.5874C157.619 14.01 157.573 14.5588 157.507 15.2374C157.624 15.2331 157.722 15.2308 157.802 15.2308C157.876 15.2308 157.978 15.2331 158.097 15.2374V14.6791C158.097 14.4229 158.109 14.0008 158.133 13.42C158.157 12.8365 158.181 12.3487 158.209 11.9584C158.239 11.5678 158.26 11.2049 158.277 10.8646C158.294 10.5263 158.301 10.2449 158.301 10.0249C158.301 9.8069 158.265 9.59379 158.194 9.38507C158.118 9.17833 157.97 8.9924 157.742 8.83109C157.514 8.668 157.22 8.55409 156.863 8.48384C156.503 8.41615 156.117 8.38202 155.699 8.38202C155.339 8.38202 154.981 8.40486 154.63 8.45233C154.277 8.4977 153.862 8.5839 153.384 8.70877C153.366 8.90396 153.342 9.0763 153.308 9.22836ZM163.662 15.2374C163.779 15.2331 163.882 15.2308 163.971 15.2308C164.06 15.2308 164.166 15.2331 164.288 15.2374C164.294 14.8245 164.3 14.5137 164.31 14.3024C164.32 14.0936 164.329 13.8828 164.344 13.6741L164.718 8.78132C164.768 8.1215 164.795 7.68293 164.817 7.46516L164.855 7.07616L165.112 7.22001L168.177 15.2374C168.29 15.2331 168.413 15.2308 168.55 15.2308C168.686 15.2308 168.809 15.2331 168.922 15.2374L171.778 9.11937L172.83 6.7494L172.974 7.51749C173.072 8.04784 172.967 8.68212 172.953 9.38507L172.832 15.2374C172.95 15.2331 173.06 15.2308 173.163 15.2308C173.26 15.2308 173.37 15.2331 173.492 15.2374C173.466 14.4319 173.452 13.3335 173.452 11.9471C173.452 11.5249 173.457 10.8802 173.469 10.0113L173.536 6.16239C173.377 6.16725 173.224 6.16929 173.08 6.16929C172.934 6.16929 172.782 6.16725 172.621 6.16239C172.477 6.5076 172.362 6.77534 172.277 6.96127L168.564 14.7246L168.058 13.4356L166.209 8.55002C165.926 7.80118 165.741 7.30385 165.652 7.05896L165.343 6.16239C165.18 6.16725 165.028 6.16929 164.886 6.16929C164.752 6.16929 164.6 6.16725 164.437 6.16239L164.219 9.12856L163.811 14.0075L163.662 15.2374ZM181.751 15.2374C181.751 14.9448 181.755 14.593 181.765 14.1801L181.795 13.177L182.053 8.52284C181.932 8.52718 181.84 8.52921 181.779 8.52921C181.717 8.52921 181.624 8.52718 181.499 8.52284C181.494 9.22376 181.475 9.99309 181.441 10.8374C181.4 11.7132 181.357 12.3192 181.304 12.6549C181.254 12.9885 181.173 13.2699 181.067 13.4971C180.944 13.7533 180.796 13.9803 180.622 14.1754C180.473 14.3434 180.298 14.4843 180.102 14.5999C179.905 14.7156 179.658 14.813 179.359 14.8902C179.062 14.9677 178.753 15.0061 178.428 15.0061C178.118 15.0061 177.819 14.9741 177.526 14.913C177.232 14.8515 176.971 14.7427 176.738 14.591C176.505 14.4363 176.344 14.2434 176.249 14.0075C176.155 13.7738 176.109 13.4879 176.109 13.1496C176.109 12.848 176.146 12.0968 176.22 10.8964C176.292 9.69561 176.347 8.90396 176.386 8.52284C176.263 8.52718 176.172 8.52921 176.112 8.52921C176.049 8.52921 175.958 8.52718 175.839 8.52284C175.839 9.19658 175.804 10.0657 175.742 11.1323C175.677 12.1992 175.646 12.8662 175.646 13.136C175.646 13.4879 175.696 13.801 175.795 14.078C175.893 14.3547 176.075 14.5973 176.347 14.8064C176.616 15.0151 176.925 15.1602 177.274 15.2444C177.624 15.3282 178.001 15.3711 178.404 15.3711C178.638 15.3711 178.87 15.3554 179.103 15.3239C179.335 15.2942 179.561 15.2421 179.782 15.1718C180.003 15.1013 180.193 15.0151 180.356 14.9151C180.517 14.8154 180.651 14.7112 180.76 14.5999C180.867 14.4886 180.957 14.3842 181.023 14.2845C181.091 14.1844 181.18 14.0208 181.287 13.7944L181.23 15.2374C181.324 15.2331 181.41 15.2308 181.492 15.2308C181.571 15.2308 181.658 15.2331 181.751 15.2374ZM179.506 7.07945C179.619 7.07511 179.74 7.07255 179.866 7.07255C179.987 7.07255 180.106 7.07511 180.223 7.07945L180.245 6.4214C180.128 6.42573 180.008 6.42809 179.885 6.42809C179.763 6.42809 179.645 6.42573 179.528 6.4214L179.506 7.07945ZM177.734 7.07945C177.847 7.07511 177.968 7.07255 178.095 7.07255C178.215 7.07255 178.334 7.07511 178.452 7.07945L178.473 6.4214C178.356 6.42573 178.236 6.42809 178.113 6.42809C177.991 6.42809 177.874 6.42573 177.756 6.4214L177.734 7.07945ZM183.789 15.2374C183.912 15.2331 184.008 15.2308 184.077 15.2308C184.147 15.2308 184.243 15.2331 184.365 15.2374L184.566 9.40096L184.744 6.16239C184.621 6.16725 184.526 6.16929 184.456 6.16929C184.387 6.16929 184.29 6.16725 184.168 6.16239C184.13 8.51588 184.005 11.5409 183.789 15.2374ZM186.482 15.2374C186.605 15.2331 186.7 15.2308 186.771 15.2308C186.84 15.2308 186.936 15.2331 187.058 15.2374L187.26 9.40096L187.438 6.16239C187.315 6.16725 187.219 6.16929 187.15 6.16929C187.081 6.16929 186.984 6.16725 186.862 6.16239C186.823 8.51588 186.698 11.5409 186.482 15.2374ZM194.486 14.593C193.718 14.8676 193.019 15.0061 192.39 15.0061C191.978 15.0061 191.586 14.9425 191.216 14.813C190.844 14.6838 190.527 14.4866 190.264 14.2211C189.996 13.9552 189.8 13.6241 189.668 13.2291C189.536 12.8365 189.471 12.4279 189.471 12.0061C189.471 11.8609 189.483 11.6429 189.507 11.3547L195.07 11.348C195.079 11.2503 195.084 11.1482 195.084 11.0415C195.084 10.4696 194.967 9.97491 194.729 9.55997C194.491 9.14215 194.16 8.84264 193.732 8.65901C193.308 8.47485 192.83 8.38202 192.307 8.38202C191.541 8.38202 190.9 8.55902 190.386 8.91315C189.869 9.26939 189.497 9.71616 189.274 10.2542C189.049 10.792 188.936 11.3708 188.936 11.9856C188.936 12.4551 189 12.9001 189.133 13.3176C189.265 13.7331 189.486 14.1098 189.796 14.4432C190.103 14.7792 190.475 15.0174 190.909 15.1626C191.344 15.3054 191.841 15.3783 192.404 15.3783C192.729 15.3783 193.043 15.3577 193.353 15.3147C193.663 15.2736 194.013 15.199 194.402 15.092C194.422 14.9243 194.448 14.7563 194.486 14.593ZM189.57 10.9892C189.634 10.7238 189.697 10.5129 189.757 10.3609C189.814 10.2086 189.899 10.0475 190.009 9.87721C190.119 9.70947 190.261 9.55275 190.432 9.41015C190.603 9.26453 190.787 9.14655 190.984 9.05372C191.181 8.96062 191.399 8.88827 191.637 8.83338C191.877 8.78132 192.119 8.75414 192.369 8.75414C192.595 8.75414 192.811 8.77699 193.017 8.81979C193.221 8.86523 193.408 8.93114 193.574 9.01728C193.742 9.10368 193.886 9.21037 194.011 9.33734C194.136 9.46222 194.242 9.61177 194.33 9.78438C194.422 9.95928 194.481 10.127 194.515 10.2904C194.546 10.454 194.565 10.6899 194.57 10.9961L189.57 10.9892ZM196.386 15.2374C196.507 15.2331 196.602 15.2308 196.666 15.2308C196.731 15.2308 196.827 15.2331 196.947 15.2374C196.947 14.7679 196.957 14.0437 196.975 13.0635C196.988 12.3371 197.022 11.6904 197.072 11.1233C197.103 10.7579 197.167 10.4517 197.261 10.1975C197.335 9.9795 197.448 9.77512 197.6 9.5823C197.748 9.38967 197.902 9.23735 198.061 9.126C198.217 9.01728 198.387 8.93114 198.567 8.87442C198.747 8.81776 198.951 8.78828 199.177 8.78828C199.408 8.78828 199.679 8.82446 199.993 8.8993C199.974 8.74928 199.964 8.59749 199.964 8.44767C199.768 8.40486 199.573 8.38202 199.381 8.38202C199.117 8.38202 198.865 8.4092 198.625 8.46592C198.383 8.52054 198.171 8.60005 197.991 8.70418C197.811 8.80824 197.653 8.93777 197.516 9.09475C197.379 9.24884 197.232 9.47817 197.072 9.77972L197.137 8.52284C197.048 8.52718 196.961 8.52921 196.875 8.52921C196.796 8.52921 196.709 8.52718 196.616 8.52284L196.623 9.12167C196.623 9.73665 196.596 10.6763 196.546 11.9404C196.496 13.204 196.441 14.3024 196.386 15.2374Z" stroke="white" stroke-width="0.0266667" stroke-miterlimit="22.9256"/>
</g>
<defs>
<clipPath id="clip0_171_42">
<rect width="200" height="35" fill="white"/>
</clipPath>
</defs>
</svg>
