<svg width="199" height="31" viewBox="0 0 199 31" fill="none" xmlns="http://www.w3.org/2000/svg">
<mask id="mask0_195_127" style="mask-type:luminance" maskUnits="userSpaceOnUse" x="0" y="0" width="199" height="31">
<path d="M0 0H198.5V31H0V0Z" fill="white"/>
</mask>
<g mask="url(#mask0_195_127)">
<path d="M4.36885 2.96929C4.19285 3.02129 4.05552 3.13863 3.95685 3.31996C3.85819 3.49996 3.80885 3.67996 3.80885 3.85463C3.80885 3.99063 3.83552 4.12529 3.88752 4.25996L7.13552 12.2173L10.4609 4.18129C10.5129 4.05729 10.5395 3.93996 10.5395 3.82529C10.5395 3.59729 10.4529 3.40796 10.2835 3.25729C10.1115 3.10796 9.92219 3.01063 9.71552 2.96929H11.9222C11.5902 3.07329 11.3235 3.22529 11.1209 3.42796C10.9195 3.62929 10.7569 3.88529 10.6315 4.19729L6.66885 13.848L2.73685 4.24396C2.63285 3.99596 2.50885 3.74929 2.36352 3.50529C2.21952 3.26263 2.01152 3.08396 1.74219 2.96929H4.36885Z" fill="#0A0203"/>
<path d="M10.3975 3.13595C10.5695 3.29062 10.6709 3.47862 10.6989 3.69729C10.7895 3.55195 10.8909 3.42262 11.0055 3.30929C11.0669 3.24795 11.1349 3.18929 11.2082 3.13595H10.3975ZM2.28687 3.13595C2.37087 3.21995 2.4442 3.31462 2.5082 3.41995C2.65354 3.66662 2.78287 3.92262 2.89087 4.17995L6.66954 13.4093L7.05754 12.4653L6.9802 12.2786L3.7322 4.32262C3.67354 4.16929 3.6442 4.01195 3.6442 3.85462C3.6442 3.65062 3.7002 3.44262 3.8122 3.23995C3.83087 3.20262 3.85354 3.16795 3.87487 3.13595H2.28687ZM6.66954 14.2866L2.5842 4.30795C2.48154 4.06529 2.3602 3.82395 2.22154 3.59062C2.09354 3.37729 1.9162 3.22395 1.67754 3.12262L0.925537 2.80262H5.51887L4.4162 3.12929C4.2842 3.16795 4.18154 3.25729 4.10287 3.39862C4.0202 3.55329 3.97754 3.70662 3.97754 3.85462C3.97754 3.97195 3.99887 4.08795 4.04154 4.19995L7.13754 11.7773L10.3082 4.11729C10.3522 4.01195 10.3722 3.91729 10.3722 3.82529C10.3722 3.64662 10.3082 3.50129 10.1722 3.38262C10.0255 3.25195 9.8602 3.16795 9.68287 3.13195L9.71487 2.80262H13.0055L11.9722 3.12795C11.6682 3.22395 11.4215 3.36529 11.2415 3.54662C11.0549 3.72929 10.9029 3.96929 10.7882 4.25862L6.66954 14.2866Z" fill="#0A0203"/>
<path d="M20.3924 2.96929C20.091 3.06263 19.8924 3.22396 19.7937 3.45063C19.6964 3.67996 19.6457 3.93329 19.6457 4.21329V12.5733C19.6457 12.8533 19.6977 13.1133 19.8017 13.3506C19.9057 13.5906 20.1017 13.756 20.3924 13.848H17.843C18.143 13.756 18.343 13.5906 18.4417 13.3506C18.539 13.1133 18.5884 12.8533 18.5884 12.5733V4.21329C18.5884 3.93329 18.539 3.67996 18.4417 3.45063C18.343 3.22396 18.143 3.06263 17.843 2.96929H20.3924Z" fill="#0A0203"/>
<path d="M18.43 13.6816H19.8167C19.7474 13.6029 19.6914 13.5149 19.6487 13.4176C19.5367 13.1602 19.4794 12.8762 19.4794 12.5736V4.21223C19.4794 3.91223 19.534 3.63489 19.6407 3.38423C19.6807 3.29223 19.7354 3.20956 19.8007 3.13623H18.4354C18.5007 3.20956 18.554 3.29223 18.594 3.38423C18.702 3.63489 18.7567 3.91223 18.7567 4.21223V12.5736C18.7567 12.8762 18.702 13.1576 18.5954 13.4149C18.5554 13.5149 18.4994 13.6029 18.43 13.6816ZM21.4647 14.0149H16.738L17.794 13.6896C18.0474 13.6109 18.2087 13.4802 18.2887 13.2869C18.378 13.0709 18.4234 12.8309 18.4234 12.5736V4.21223C18.4234 3.95489 18.3794 3.72689 18.2887 3.51756C18.2087 3.33489 18.0474 3.20823 17.794 3.12823L16.754 2.80289H21.4874L20.442 3.12823C20.1874 3.20823 20.026 3.33489 19.9487 3.51756C19.8567 3.72689 19.8127 3.95489 19.8127 4.21223V12.5736C19.8127 12.8296 19.8607 13.0696 19.9554 13.2829C20.0394 13.4802 20.198 13.6109 20.4434 13.6896L21.4647 14.0149Z" fill="#0A0203"/>
<path d="M28.8155 9.40427H30.6328C31.1101 9.40427 31.5395 9.32827 31.9235 9.17893C32.3061 9.02827 32.6355 8.81893 32.9101 8.54827C33.1848 8.27893 33.3955 7.9536 33.5395 7.57093C33.6835 7.18693 33.7568 6.7576 33.7568 6.28027C33.7568 5.30693 33.4795 4.54293 32.9261 3.98827C32.3715 3.4336 31.6075 3.15493 30.6328 3.15493H28.8155V9.40427ZM27.0115 13.8483C27.3128 13.7563 27.5115 13.5909 27.6115 13.3509C27.7088 13.1136 27.7581 12.8536 27.7581 12.5736V4.21227C27.7581 3.94427 27.7061 3.69093 27.6035 3.45093C27.4995 3.21227 27.3021 3.05227 27.0115 2.9696H30.6955C31.2248 2.9696 31.7381 3.0296 32.2421 3.14827C32.7435 3.26693 33.1928 3.45893 33.5861 3.72293C33.9795 3.98827 34.2955 4.3296 34.5341 4.7496C34.7728 5.16827 34.8915 5.67893 34.8915 6.28027C34.8915 6.71493 34.8195 7.11093 34.6741 7.4696C34.5288 7.82693 34.3301 8.14027 34.0755 8.4096C33.8221 8.67893 33.5181 8.90693 33.1675 9.0936C32.8141 9.27893 32.4368 9.41493 32.0315 9.49627L34.2381 12.9469C34.3741 13.1549 34.5421 13.3336 34.7435 13.4843C34.9461 13.6349 35.1621 13.7563 35.3888 13.8483H33.6488L30.9128 9.57493H28.8155V12.6043C28.8155 12.8763 28.8701 13.1256 28.9781 13.3589C29.0875 13.5923 29.2821 13.7563 29.5621 13.8483H27.0115Z" fill="#0A0203"/>
<path d="M28.9821 9.23756H30.6341C31.0861 9.23756 31.5007 9.16556 31.8621 9.02423C32.2247 8.88023 32.5367 8.68156 32.7927 8.43089C33.0501 8.17889 33.2487 7.87089 33.3847 7.51089C33.5221 7.14823 33.5914 6.73356 33.5914 6.28023C33.5914 5.35756 33.3287 4.62556 32.8074 4.10556C32.2874 3.58556 31.5567 3.32156 30.6341 3.32156H28.9821V9.23756ZM32.2807 3.32823C32.5661 3.46689 32.8207 3.64823 33.0434 3.86956C33.6274 4.45356 33.9247 5.26556 33.9247 6.28023C33.9247 6.77356 33.8474 7.22689 33.6967 7.62956C33.5434 8.03489 33.3181 8.38289 33.0274 8.66689C32.7381 8.95089 32.3887 9.17489 31.9847 9.33356C31.9807 9.33489 31.9754 9.33756 31.9714 9.33889L32.0007 9.33356C32.3834 9.25623 32.7487 9.12556 33.0887 8.94556C33.4234 8.76823 33.7154 8.54956 33.9541 8.29489C34.1927 8.04289 34.3834 7.74289 34.5194 7.40689C34.6567 7.06956 34.7261 6.69089 34.7261 6.28023C34.7261 5.71089 34.6127 5.22423 34.3901 4.83089C34.1647 4.43489 33.8621 4.10823 33.4941 3.86156C33.1394 3.62289 32.7314 3.44423 32.2807 3.32823ZM27.5994 13.6816H28.9927C28.9261 13.6069 28.8714 13.5229 28.8274 13.4296C28.7087 13.1736 28.6487 12.8962 28.6487 12.6042V3.13623H27.6007C27.6647 3.20956 27.7167 3.29223 27.7567 3.38423C27.8674 3.64556 27.9247 3.92423 27.9247 4.21223V12.5736C27.9247 12.8776 27.8714 13.1602 27.7647 13.4149C27.7247 13.5149 27.6687 13.6029 27.5994 13.6816ZM33.7394 13.6816H34.7341C34.7047 13.6602 34.6754 13.6389 34.6447 13.6162C34.4274 13.4562 34.2434 13.2629 34.0994 13.0376L31.7781 9.40689C31.5621 9.47489 31.3341 9.52156 31.0927 9.54689L33.7394 13.6816ZM36.2434 14.0149H33.5581L30.8221 9.74156H28.9821V12.6042C28.9821 12.8509 29.0301 13.0749 29.1287 13.2882C29.2194 13.4816 29.3781 13.6122 29.6141 13.6896L30.5981 14.0149H25.9021L26.9621 13.6896C27.2167 13.6109 27.3781 13.4802 27.4567 13.2869C27.5461 13.0736 27.5914 12.8336 27.5914 12.5736V4.21223C27.5914 3.96956 27.5434 3.73489 27.4501 3.51623C27.3674 3.32556 27.2101 3.20023 26.9661 3.12956L25.8274 2.80289H30.6954C31.2327 2.80289 31.7661 2.86423 32.2807 2.98556C32.8021 3.10956 33.2727 3.31223 33.6781 3.58556C34.0914 3.86156 34.4287 4.22556 34.6781 4.66689C34.9314 5.10956 35.0594 5.65356 35.0594 6.28023C35.0594 6.73356 34.9821 7.15489 34.8301 7.53223C34.6767 7.90689 34.4634 8.24023 34.1967 8.52423C33.9327 8.80556 33.6127 9.04556 33.2447 9.24023C32.9474 9.39756 32.6301 9.52023 32.3007 9.60556L34.3807 12.8576C34.5034 13.0469 34.6581 13.2122 34.8434 13.3496C35.0327 13.4909 35.2367 13.6056 35.4527 13.6936L36.2434 14.0149Z" fill="#0A0203"/>
<path d="M41.0928 8.40942C41.0928 7.63209 41.2368 6.90942 41.5274 6.24142C41.8181 5.57342 42.2114 4.99209 42.7088 4.50009C43.2061 4.00809 43.7914 3.62142 44.4648 3.34276C45.1381 3.06276 45.8581 2.92276 46.6248 2.92276C46.9154 2.92276 47.2221 2.94142 47.5421 2.97742C47.8634 3.01476 48.1808 3.07342 48.4981 3.15609C48.8141 3.24009 49.1181 3.34809 49.4074 3.48276C49.6968 3.61742 49.9554 3.77742 50.1834 3.96409V5.51876C49.9661 5.20809 49.7181 4.90809 49.4394 4.61609C49.1594 4.32676 48.8528 4.07076 48.5208 3.84809C48.1888 3.62542 47.8381 3.44942 47.4634 3.32009C47.0914 3.19076 46.7088 3.12409 46.3141 3.12409C45.6728 3.12409 45.1021 3.28009 44.6048 3.59209C44.1074 3.90142 43.6874 4.30409 43.3461 4.79609C43.0048 5.28809 42.7448 5.83209 42.5688 6.42809C42.3928 7.02409 42.3048 7.60542 42.3048 8.17609C42.3048 8.79742 42.4101 9.43609 42.6221 10.0881C42.8354 10.7401 43.1354 11.3334 43.5248 11.8668C43.9128 12.4014 44.3848 12.8361 44.9394 13.1721C45.4941 13.5094 46.1181 13.6774 46.8114 13.6774C47.0914 13.6774 47.3981 13.6308 47.7288 13.5388C48.0608 13.4441 48.3714 13.3081 48.6621 13.1254C48.9514 12.9441 49.1914 12.7241 49.3848 12.4654C49.5754 12.2081 49.6728 11.9174 49.6728 11.5961C49.6728 11.4814 49.6741 11.3628 49.6794 11.2374C49.6834 11.1134 49.6861 10.9948 49.6861 10.8814C49.6861 10.7348 49.6794 10.5881 49.6648 10.4374C49.6488 10.2868 49.6154 10.1481 49.5634 10.0174C49.5101 9.88809 49.4394 9.77076 49.3448 9.66809C49.2514 9.56409 49.1221 9.48809 48.9568 9.43609H51.3648C51.1168 9.51742 50.9354 9.67076 50.8221 9.89342C50.7074 10.1161 50.6501 10.3468 50.6501 10.5854V13.9268C50.5994 13.8441 50.5394 13.7508 50.4714 13.6468C50.4034 13.5441 50.3301 13.4441 50.2461 13.3508C50.1634 13.2588 50.0754 13.1801 49.9821 13.1174C49.8901 13.0561 49.7861 13.0254 49.6728 13.0254C49.6208 13.0254 49.5674 13.0361 49.5154 13.0561C49.4634 13.0774 49.4114 13.0988 49.3608 13.1174C48.9141 13.3348 48.4741 13.5201 48.0394 13.6694C47.6048 13.8214 47.1328 13.8948 46.6248 13.8948C45.8581 13.8948 45.1381 13.7534 44.4648 13.4681C43.7914 13.1828 43.2061 12.7948 42.7088 12.3028C42.2114 11.8108 41.8181 11.2294 41.5274 10.5614C41.2368 9.89342 41.0928 9.17609 41.0928 8.40942Z" fill="#0A0203"/>
<path d="M47.4327 3.13345C47.4607 3.14278 47.49 3.15211 47.5194 3.16145C47.9074 3.29745 48.2754 3.48278 48.614 3.71078C48.954 3.93744 49.2714 4.20411 49.5594 4.50011C49.7234 4.67078 49.8767 4.84545 50.018 5.02145V4.04545C49.818 3.88811 49.5887 3.75078 49.338 3.63345C49.0634 3.50678 48.766 3.40011 48.4567 3.31744C48.1567 3.23878 47.842 3.18011 47.5234 3.14278C47.4927 3.14011 47.462 3.13611 47.4327 3.13345ZM49.6727 12.8588C49.818 12.8588 49.954 12.8988 50.074 12.9788C50.1807 13.0494 50.2794 13.1374 50.3714 13.2388C50.41 13.2841 50.4487 13.3294 50.4847 13.3774V10.5854C50.4847 10.3201 50.5487 10.0614 50.674 9.81745C50.714 9.73878 50.762 9.66545 50.8167 9.60278H49.5087C49.594 9.70678 49.6647 9.82545 49.718 9.95478C49.7754 10.1001 49.8127 10.2561 49.83 10.4201C49.8474 10.5761 49.854 10.7294 49.854 10.8814C49.854 10.9974 49.8514 11.1188 49.8474 11.2441C49.842 11.3668 49.8394 11.4841 49.8394 11.5961C49.8394 11.9521 49.7314 12.2774 49.518 12.5641C49.3647 12.7721 49.1794 12.9588 48.9634 13.1201C49.0714 13.0721 49.1794 13.0214 49.2887 12.9681L49.4194 12.9161C49.5247 12.8734 49.5994 12.8588 49.6727 12.8588ZM44.2887 3.60411C43.738 3.86278 43.246 4.20278 42.8274 4.61878C42.3474 5.09611 41.9607 5.66278 41.682 6.30811C41.402 6.95211 41.2594 7.66011 41.2594 8.40945C41.2594 9.14945 41.402 9.85078 41.682 10.4948C41.9607 11.1401 42.3474 11.7081 42.8274 12.1841C43.3047 12.6588 43.878 13.0388 44.53 13.3148C44.8247 13.4388 45.13 13.5361 45.4474 13.6054C45.2394 13.5268 45.042 13.4308 44.8527 13.3148C44.2807 12.9668 43.7887 12.5121 43.39 11.9641C42.994 11.4201 42.682 10.8054 42.4647 10.1401C42.2487 9.47211 42.138 8.81211 42.138 8.17611C42.138 7.59611 42.23 6.99211 42.4087 6.38145C42.59 5.77078 42.858 5.20545 43.21 4.70145C43.51 4.26945 43.8714 3.90011 44.2887 3.60411ZM50.818 14.4988L50.3327 13.7361C50.27 13.6414 50.1994 13.5494 50.1234 13.4601C50.05 13.3801 49.97 13.3108 49.89 13.2561C49.7994 13.1961 49.6954 13.1654 49.578 13.2121L49.4194 13.2734C48.978 13.4908 48.526 13.6788 48.094 13.8281C47.646 13.9828 47.1514 14.0614 46.626 14.0614C45.8407 14.0614 45.0914 13.9134 44.4007 13.6214C43.7087 13.3281 43.1007 12.9254 42.5927 12.4214C42.0807 11.9148 41.6727 11.3121 41.3767 10.6281C41.0767 9.94011 40.926 9.19478 40.926 8.40945C40.926 7.61345 41.0767 6.86278 41.3767 6.17478C41.6727 5.49211 42.0807 4.88811 42.5927 4.38278C43.1034 3.87611 43.7114 3.47478 44.402 3.18945C45.094 2.90145 45.8434 2.75611 46.626 2.75611C46.9127 2.75611 47.2194 2.77345 47.562 2.81211C47.8967 2.85078 48.226 2.91211 48.5407 2.99478C48.87 3.08278 49.1847 3.19611 49.478 3.33078C49.782 3.47211 50.0554 3.64278 50.2914 3.83478L50.3514 3.88411V6.04945L50.0487 5.61345C49.8407 5.31611 49.5954 5.01878 49.3194 4.73211C49.0474 4.45211 48.7474 4.20145 48.4287 3.98678C48.114 3.77345 47.77 3.60411 47.41 3.47745C47.0527 3.35345 46.6834 3.29078 46.3154 3.29078C45.7087 3.29078 45.1634 3.43878 44.694 3.73345C44.218 4.02945 43.81 4.42011 43.4834 4.89078C43.1527 5.36678 42.8994 5.89878 42.73 6.47478C42.5594 7.05345 42.4714 7.62678 42.4714 8.17611C42.4714 8.77611 42.5754 9.40278 42.7834 10.0361C42.9887 10.6694 43.2847 11.2521 43.6594 11.7694C44.0314 12.2801 44.4914 12.7054 45.0247 13.0308C45.5514 13.3494 46.1514 13.5108 46.8127 13.5108C47.074 13.5108 47.3674 13.4668 47.6847 13.3788C48.002 13.2881 48.2994 13.1561 48.5727 12.9854C48.8447 12.8161 49.0714 12.6068 49.25 12.3668C49.4194 12.1388 49.506 11.8801 49.506 11.5961C49.506 11.4788 49.5087 11.3588 49.514 11.2308C49.518 11.1081 49.5207 10.9934 49.5207 10.8814C49.5207 10.7401 49.514 10.6001 49.4994 10.4534C49.4847 10.3214 49.4554 10.1948 49.4074 10.0801C49.362 9.96678 49.2994 9.86678 49.222 9.78011C49.1487 9.69878 49.046 9.63878 48.9074 9.59478L47.874 9.26945H52.4047L51.418 9.59478C51.2114 9.66145 51.0647 9.78545 50.97 9.96945C50.8687 10.1654 50.818 10.3734 50.818 10.5854V14.4988Z" fill="#0A0203"/>
<path d="M59.8518 2.96929C59.5505 3.06263 59.3505 3.22396 59.2532 3.45063C59.1545 3.67996 59.1052 3.93329 59.1052 4.21329V12.5733C59.1052 12.8533 59.1572 13.1133 59.2612 13.3506C59.3652 13.5906 59.5612 13.756 59.8518 13.848H57.3025C57.6025 13.756 57.8025 13.5906 57.9012 13.3506C57.9985 13.1133 58.0478 12.8533 58.0478 12.5733V4.21329C58.0478 3.93329 57.9985 3.67996 57.9012 3.45063C57.8025 3.22396 57.6025 3.06263 57.3025 2.96929H59.8518Z" fill="#0A0203"/>
<path d="M57.8896 13.6816H59.2749C59.2056 13.6029 59.1496 13.5162 59.1083 13.4176C58.9963 13.1589 58.9389 12.8762 58.9389 12.5736V4.21223C58.9389 3.91356 58.9923 3.63623 59.0989 3.38556C59.1389 3.29356 59.1936 3.20956 59.2603 3.13623H57.8936C57.9603 3.20956 58.0136 3.29223 58.0536 3.38423C58.1629 3.63623 58.2149 3.90689 58.2149 4.21223V12.5736C58.2149 12.8776 58.1616 13.1602 58.0549 13.4149C58.0149 13.5149 57.9589 13.6029 57.8896 13.6816ZM60.9243 14.0149H56.1936L57.2523 13.6896C57.5069 13.6109 57.6683 13.4802 57.7483 13.2869C57.8363 13.0736 57.8816 12.8336 57.8816 12.5736V4.21223C57.8816 3.95223 57.8376 3.72423 57.7483 3.51756C57.6683 3.33489 57.5069 3.20823 57.2523 3.12823L56.2069 2.80289H60.9469L59.9016 3.12823C59.6469 3.20823 59.4856 3.33489 59.4056 3.51756C59.3163 3.72689 59.2723 3.95489 59.2723 4.21223V12.5736C59.2723 12.8296 59.3189 13.0682 59.4136 13.2842C59.4976 13.4802 59.6576 13.6109 59.9029 13.6896L60.9243 14.0149Z" fill="#0A0203"/>
<path d="M66.4717 13.8483C66.8037 13.7456 67.0677 13.5803 67.265 13.3509C67.461 13.1243 67.5597 12.8336 67.5597 12.4816V4.38293C67.5597 4.0216 67.4637 3.72293 67.273 3.4896C67.081 3.2576 66.8197 3.08427 66.4877 2.9696H68.445L74.693 11.7349V4.3376C74.693 3.9856 74.5943 3.69627 74.397 3.46693C74.201 3.24027 73.937 3.0736 73.6063 2.9696H75.937C75.605 3.0736 75.3463 3.24027 75.1597 3.46693C74.973 3.69627 74.8797 3.9856 74.8797 4.3376V13.8483L67.7157 3.7936V12.4816C67.7157 12.8443 67.8197 13.1376 68.0263 13.3589C68.233 13.5829 68.5023 13.7456 68.833 13.8483H66.4717Z" fill="#0A0203"/>
<path d="M74.2908 3.13599C74.3762 3.20266 74.4549 3.27599 74.5255 3.35732C74.6429 3.49599 74.7295 3.65199 74.7855 3.82666C74.8388 3.65199 74.9215 3.49732 75.0322 3.36132C75.0989 3.27866 75.1748 3.20399 75.2602 3.13599H74.2908ZM67.5482 3.27332L74.7135 13.328V12.0507L74.5589 11.8307L68.3602 3.13599H67.1482C67.2428 3.21066 67.3268 3.29332 67.4015 3.38532C67.4575 3.45199 67.5068 3.52666 67.5482 3.60532V3.27332ZM67.1588 13.6813H68.1362C68.0522 13.6173 67.9748 13.548 67.9042 13.472C67.7868 13.3453 67.6975 13.2 67.6388 13.0347C67.5828 13.192 67.4988 13.3347 67.3908 13.46C67.3202 13.5413 67.2442 13.6147 67.1588 13.6813ZM75.0468 14.3693L67.8815 4.31466V12.4813C67.8815 12.804 67.9695 13.052 68.1482 13.2453C68.3335 13.4453 68.5815 13.596 68.8842 13.6893L69.9362 14.0147H65.3708L66.4228 13.6893C66.7228 13.596 66.9642 13.4453 67.1388 13.2427C67.3108 13.044 67.3935 12.7947 67.3935 12.4813V4.38399C67.3935 4.06266 67.3095 3.79732 67.1442 3.59599C66.9735 3.38799 66.7348 3.23066 66.4322 3.12666L65.4935 2.80266H68.5322L68.5815 2.87332L74.5282 11.2147V4.33732C74.5282 4.02532 74.4442 3.77466 74.2722 3.57466C74.0962 3.37332 73.8562 3.22132 73.5562 3.12799L72.5175 2.80266H77.0202L75.9855 3.12799C75.6895 3.22132 75.4549 3.37199 75.2895 3.57199C75.1269 3.77199 75.0468 4.02132 75.0468 4.33732V14.3693Z" fill="#0A0203"/>
<path d="M84.3285 2.96929C84.0272 3.06263 83.8285 3.22396 83.7312 3.45063C83.6325 3.67996 83.5819 3.93329 83.5819 4.21329V12.5733C83.5819 12.8533 83.6339 13.1133 83.7392 13.3506C83.8419 13.5906 84.0379 13.756 84.3285 13.848H81.7805C82.0792 13.756 82.2805 13.5906 82.3779 13.3506C82.4765 13.1133 82.5259 12.8533 82.5259 12.5733V4.21329C82.5259 3.93329 82.4765 3.67996 82.3779 3.45063C82.2805 3.22396 82.0792 3.06263 81.7805 2.96929H84.3285Z" fill="#0A0203"/>
<path d="M82.3676 13.6816H83.753C83.6836 13.6029 83.6276 13.5149 83.585 13.4176C83.4743 13.1629 83.417 12.8776 83.417 12.5736V4.21223C83.417 3.90689 83.469 3.63623 83.577 3.38423C83.617 3.29223 83.6716 3.20956 83.737 3.13623H82.3716C82.4383 3.20956 82.4916 3.29356 82.5316 3.38423C82.6383 3.63489 82.693 3.91223 82.693 4.21223V12.5736C82.693 12.8762 82.6383 13.1576 82.5316 13.4149C82.4916 13.5149 82.437 13.6029 82.3676 13.6816ZM85.4023 14.0149H80.6716L81.7303 13.6896C81.985 13.6109 82.145 13.4802 82.2236 13.2882C82.3143 13.0709 82.3596 12.8309 82.3596 12.5736V4.21223C82.3596 3.95489 82.3156 3.72689 82.225 3.51756C82.1463 3.33489 81.985 3.20823 81.7303 3.12823L80.685 2.80289H85.425L84.3796 3.12823C84.1236 3.20823 83.9623 3.33489 83.885 3.51756C83.7943 3.72423 83.7503 3.95223 83.7503 4.21223V12.5736C83.7503 12.8322 83.797 13.0709 83.8916 13.2829C83.9756 13.4789 84.1343 13.6109 84.381 13.6896L85.4023 14.0149Z" fill="#0A0203"/>
<path d="M97.2126 9.40427L95.3953 4.55493L93.5446 9.40427H97.2126ZM90.95 13.8483C91.1873 13.7656 91.4153 13.6056 91.6326 13.3669C91.8513 13.1296 92.006 12.8963 92.0993 12.6669L95.8606 2.8296L99.574 12.6363C99.6686 12.8843 99.7993 13.1296 99.9713 13.3669C100.142 13.6056 100.362 13.7656 100.631 13.8483H97.8966C98.0726 13.7869 98.2206 13.6669 98.3393 13.4909C98.4593 13.3163 98.518 13.1336 98.518 12.9469C98.518 12.8336 98.466 12.6203 98.362 12.3109C98.2593 11.9989 98.1366 11.6643 97.998 11.3083C97.8566 10.9496 97.7233 10.6083 97.5926 10.2816C97.4633 9.95627 97.3673 9.72027 97.3046 9.57493H93.498L92.4873 12.2016C92.4473 12.3056 92.4126 12.4109 92.3873 12.5203C92.3606 12.6283 92.3486 12.7403 92.3486 12.8536C92.3486 13.1243 92.434 13.3349 92.6046 13.4909C92.7753 13.6469 92.9793 13.7656 93.218 13.8483H90.95Z" fill="#0A0203"/>
<path d="M93.7869 9.23756H96.9723L95.3936 5.02689L93.7869 9.23756ZM91.5496 13.6816H92.5709C92.5443 13.6602 92.5189 13.6389 92.4923 13.6149C92.2936 13.4322 92.1896 13.1869 92.1816 12.8856C92.0816 13.0829 91.9376 13.2802 91.7563 13.4802C91.6896 13.5536 91.6203 13.6202 91.5496 13.6816ZM98.4056 13.6816H100.024C99.9563 13.6162 99.8936 13.5429 99.8363 13.4629C99.6576 13.2162 99.5176 12.9576 99.4189 12.6949L95.8603 3.29889L95.4776 4.30023L97.3923 9.40823H97.4163L97.4603 9.50956C97.5229 9.65489 97.6176 9.89223 97.7496 10.2189L97.8416 10.4522C97.9416 10.7096 98.0456 10.9736 98.1523 11.2482C98.3003 11.6216 98.4203 11.9522 98.5216 12.2589C98.6323 12.5882 98.6856 12.8136 98.6856 12.9469C98.6856 13.1656 98.6163 13.3802 98.4789 13.5856C98.4549 13.6189 98.4309 13.6522 98.4056 13.6816ZM101.752 14.0149H96.9043L97.8416 13.6909C97.9829 13.6416 98.1016 13.5456 98.2029 13.3976C98.3016 13.2509 98.3523 13.0989 98.3523 12.9469C98.3523 12.8936 98.3323 12.7456 98.2043 12.3642C98.1043 12.0629 97.9869 11.7376 97.8429 11.3696C97.7363 11.0949 97.6323 10.8296 97.5309 10.5762L97.4389 10.3429C97.3363 10.0869 97.2563 9.88556 97.1963 9.74156H93.6136L92.6443 12.2616C92.6043 12.3602 92.5736 12.4576 92.5496 12.5589C92.5269 12.6549 92.5149 12.7536 92.5149 12.8536C92.5149 13.0749 92.5816 13.2442 92.7163 13.3696C92.8723 13.5082 93.0603 13.6162 93.2736 13.6909L94.2149 14.0149H89.9536L90.8949 13.6909C91.1056 13.6176 91.3136 13.4709 91.5096 13.2549C91.7149 13.0309 91.8616 12.8136 91.9443 12.6042L95.8629 2.36156L99.7309 12.5776C99.8189 12.8136 99.9456 13.0442 100.107 13.2682C100.258 13.4802 100.444 13.6162 100.68 13.6896L101.752 14.0149Z" fill="#0A0203"/>
<path d="M117.198 2.96929L121.767 12.3106L125.73 2.96929H127.441C127.139 3.06263 126.941 3.22396 126.841 3.45063C126.743 3.67996 126.694 3.93329 126.694 4.21329V12.5893C126.694 12.8693 126.743 13.1253 126.841 13.3586C126.941 13.592 127.139 13.756 127.441 13.848H124.891C125.191 13.756 125.393 13.596 125.498 13.3666C125.602 13.14 125.653 12.8813 125.653 12.5893V3.63729L121.317 13.832L116.39 3.69996V12.4653C116.39 12.8373 116.497 13.1333 116.709 13.3506C116.921 13.5693 117.193 13.7346 117.525 13.848H115.101C115.431 13.7346 115.701 13.5666 115.907 13.3426C116.115 13.1213 116.219 12.8293 116.219 12.4653V4.27463C116.219 3.93329 116.109 3.65329 115.885 3.43596C115.662 3.21863 115.401 3.06263 115.101 2.96929H117.198Z" fill="#0A0203"/>
<path d="M115.792 3.13601C115.865 3.19068 115.935 3.25068 116.001 3.31601C116.092 3.40401 116.165 3.50001 116.224 3.60535V3.13601H115.792ZM116.303 3.13601L121.307 13.4307L121.689 12.5307L117.096 3.13601H116.303ZM115.781 13.6813H116.836C116.748 13.616 116.664 13.544 116.591 13.4667C116.461 13.3347 116.367 13.1787 116.305 12.9973C116.245 13.1707 116.153 13.3253 116.031 13.456C115.956 13.5387 115.873 13.6133 115.781 13.6813ZM125.487 13.6813H126.852C126.783 13.6067 126.729 13.5187 126.689 13.4227C126.583 13.1707 126.528 12.8893 126.528 12.5893V4.21335C126.528 3.91201 126.583 3.63468 126.689 3.38535C126.729 3.29201 126.783 3.21068 126.849 3.13601H125.841L125.82 3.18401V12.5893C125.82 12.904 125.764 13.188 125.649 13.436C125.608 13.5267 125.553 13.608 125.487 13.6813ZM121.327 14.2347L116.557 4.42401V12.4653C116.557 12.796 116.647 13.0493 116.828 13.2333C117.02 13.4333 117.272 13.5867 117.579 13.6907L118.531 14.0147H114.099L115.047 13.6907C115.352 13.5867 115.6 13.432 115.787 13.2293C115.967 13.0373 116.053 12.788 116.053 12.4653V4.27468C116.053 3.97735 115.961 3.74135 115.769 3.55468C115.567 3.35735 115.325 3.21468 115.051 3.12801L114.005 2.80268H117.304L117.349 2.89601L121.757 11.9093L125.62 2.80268H128.536L127.489 3.12801C127.236 3.20801 127.075 3.33468 126.996 3.51735C126.905 3.72668 126.861 3.95468 126.861 4.21335V12.5893C126.861 12.8453 126.907 13.0827 126.996 13.2933C127.075 13.4827 127.236 13.6107 127.489 13.6893L128.549 14.0147H123.787L124.843 13.6893C125.097 13.6093 125.263 13.4827 125.345 13.2973C125.44 13.0933 125.487 12.8547 125.487 12.5893V4.45468L121.327 14.2347Z" fill="#0A0203"/>
<path d="M136.253 2.96934C135.962 3.052 135.766 3.21334 135.662 3.45067C135.558 3.69067 135.506 3.944 135.506 4.21334V10.0093C135.506 10.4867 135.566 10.9413 135.685 11.3773C135.805 11.8133 135.989 12.1933 136.237 12.52C136.486 12.8453 136.801 13.1067 137.185 13.2973C137.568 13.4893 138.024 13.584 138.553 13.584C139.102 13.584 139.57 13.4987 139.96 13.328C140.348 13.1573 140.668 12.9213 140.916 12.62C141.165 12.3213 141.348 11.9547 141.466 11.5253C141.585 11.096 141.646 10.6267 141.646 10.1187V4.33734C141.646 3.97467 141.545 3.68267 141.342 3.45867C141.141 3.236 140.874 3.07334 140.542 2.96934H142.92C142.588 3.07334 142.322 3.24 142.12 3.46667C141.917 3.696 141.817 3.99067 141.817 4.35334V10.1347C141.817 10.716 141.749 11.24 141.614 11.712C141.48 12.184 141.27 12.5853 140.985 12.916C140.7 13.248 140.337 13.504 139.897 13.6853C139.456 13.8667 138.93 13.9573 138.32 13.9573C137.065 13.9573 136.108 13.6267 135.445 12.9627C134.781 12.3 134.449 11.3413 134.449 10.088V4.21334C134.449 3.944 134.397 3.69067 134.294 3.45067C134.19 3.21334 133.994 3.052 133.704 2.96934H136.253Z" fill="#0A0203"/>
<path d="M141.236 3.13596C141.32 3.19996 141.397 3.27063 141.467 3.34663C141.587 3.4813 141.676 3.63463 141.733 3.81063C141.791 3.63996 141.879 3.48796 141.995 3.35596C142.067 3.27463 142.147 3.20263 142.232 3.13596H141.236ZM134.292 3.13596C134.355 3.2093 134.407 3.29196 134.447 3.3853C134.559 3.64263 134.616 3.9213 134.616 4.2133V10.088C134.616 11.2893 134.933 12.2173 135.563 12.844C136.191 13.4733 137.117 13.7906 138.32 13.7906C138.703 13.7906 139.051 13.7546 139.364 13.68C139.113 13.7266 138.844 13.7506 138.553 13.7506C137.999 13.7506 137.515 13.648 137.112 13.4453C136.708 13.2453 136.371 12.968 136.104 12.6213C135.844 12.2773 135.649 11.8746 135.525 11.4213C135.403 10.9733 135.34 10.4986 135.34 10.0093V4.2133C135.34 3.92263 135.397 3.64396 135.511 3.3853C135.549 3.29196 135.601 3.2093 135.665 3.13596H134.292ZM138.32 14.124C137.027 14.124 136.019 13.7733 135.325 13.0813C134.635 12.388 134.283 11.3813 134.283 10.088V4.2133C134.283 3.96663 134.236 3.73196 134.143 3.5173C134.057 3.32663 133.9 3.19863 133.657 3.1293L132.513 2.80263H137.437L136.299 3.1293C136.056 3.19863 135.899 3.32663 135.817 3.5173C135.721 3.73463 135.673 3.9693 135.673 4.2133V10.0093C135.673 10.4693 135.732 10.9146 135.847 11.332C135.959 11.7453 136.136 12.1093 136.371 12.4186C136.603 12.724 136.903 12.9706 137.261 13.148C137.616 13.328 138.051 13.4173 138.553 13.4173C139.079 13.4173 139.529 13.3346 139.892 13.1746C140.256 13.0146 140.556 12.7933 140.787 12.5133C141.02 12.2346 141.195 11.8866 141.307 11.4813C141.421 11.0666 141.48 10.6093 141.48 10.1186V4.3373C141.48 4.01596 141.395 3.7653 141.219 3.57063C141.04 3.37196 140.795 3.22263 140.492 3.12796L139.453 2.80263H144.003L142.969 3.12796C142.669 3.22263 142.427 3.37463 142.245 3.57729C142.069 3.77463 141.984 4.0293 141.984 4.3533V10.1346C141.984 10.7306 141.913 11.276 141.775 11.7573C141.636 12.2493 141.412 12.6746 141.111 13.0253C140.812 13.3746 140.425 13.6493 139.961 13.8386C139.501 14.028 138.949 14.124 138.32 14.124Z" fill="#0A0203"/>
<path d="M151.623 2.96929C151.321 3.06263 151.123 3.22396 151.024 3.45063C150.927 3.67996 150.876 3.93329 150.876 4.21329V13.6773H153.675C154.296 13.6773 154.817 13.5173 155.236 13.196C155.656 12.876 156.016 12.4546 156.317 11.9373L155.881 13.848H149.075C149.375 13.756 149.573 13.5906 149.672 13.3506C149.771 13.1133 149.82 12.8533 149.82 12.5733V4.21329C149.82 3.93329 149.771 3.67996 149.672 3.45063C149.573 3.22396 149.375 3.06263 149.075 2.96929H151.623Z" fill="#0A0203"/>
<path d="M149.662 13.6816L150.71 13.6776V4.21223C150.71 3.91223 150.764 3.63489 150.871 3.38423C150.911 3.29223 150.966 3.20956 151.031 3.13623H149.666C149.732 3.20956 149.786 3.29356 149.826 3.38423C149.932 3.63489 149.987 3.91223 149.987 4.21223V12.5736C149.987 12.8762 149.932 13.1576 149.826 13.4149C149.786 13.5149 149.731 13.6029 149.662 13.6816ZM154.684 13.6816H155.748L155.967 12.7269C155.772 12.9562 155.563 13.1562 155.339 13.3282C155.142 13.4789 154.923 13.5976 154.684 13.6816ZM156.015 14.0149H147.966L149.024 13.6896C149.279 13.6109 149.439 13.4802 149.518 13.2882C149.608 13.0709 149.654 12.8309 149.654 12.5736V4.21223C149.654 3.95489 149.61 3.72689 149.519 3.51756C149.44 3.33489 149.279 3.20823 149.024 3.12823L147.979 2.80289H152.719L151.674 3.12823C151.418 3.20823 151.256 3.33489 151.179 3.51756C151.087 3.72689 151.043 3.95489 151.043 4.21223V13.5109H153.675C154.264 13.5109 154.743 13.3656 155.135 13.0629C155.534 12.7602 155.883 12.3522 156.172 11.8536L156.722 10.9069L156.015 14.0149Z" fill="#0A0203"/>
<path d="M164.429 2.96929C164.128 3.06263 163.929 3.22396 163.83 3.45063C163.732 3.67996 163.682 3.93329 163.682 4.21329V13.6773H166.48C167.102 13.6773 167.624 13.5173 168.042 13.196C168.461 12.876 168.822 12.4546 169.124 11.9373L168.686 13.848H161.881C162.18 13.756 162.38 13.5906 162.478 13.3506C162.576 13.1133 162.626 12.8533 162.626 12.5733V4.21329C162.626 3.93329 162.576 3.67996 162.478 3.45063C162.38 3.22396 162.18 3.06263 161.881 2.96929H164.429Z" fill="#0A0203"/>
<path d="M162.468 13.6816L163.516 13.6776V4.21223C163.516 3.91356 163.569 3.63623 163.676 3.38556C163.717 3.29356 163.772 3.20956 163.837 3.13623H162.472C162.538 3.20956 162.592 3.29356 162.632 3.38423C162.738 3.63489 162.793 3.91223 162.793 4.21223V12.5736C162.793 12.8762 162.738 13.1576 162.632 13.4149C162.592 13.5149 162.537 13.6029 162.468 13.6816ZM167.49 13.6816H168.554L168.773 12.7269C168.578 12.9562 168.369 13.1562 168.145 13.3282C167.948 13.4789 167.729 13.5976 167.49 13.6816ZM168.821 14.0149H160.772L161.83 13.6896C162.085 13.6109 162.245 13.4802 162.324 13.2882C162.414 13.0709 162.46 12.8309 162.46 12.5736V4.21223C162.46 3.95489 162.416 3.72689 162.325 3.51756C162.246 3.33489 162.085 3.20823 161.83 3.12823L160.785 2.80289H165.518L164.478 3.12823C164.224 3.20823 164.062 3.33489 163.982 3.51756C163.893 3.72689 163.849 3.95489 163.849 4.21223V13.5109H166.481C167.061 13.5109 167.553 13.3602 167.941 13.0629C168.34 12.7602 168.689 12.3522 168.978 11.8536L169.528 10.9069L168.821 14.0149Z" fill="#0A0203"/>
<path d="M175.433 12.5736V4.21227C175.433 3.9336 175.383 3.68027 175.285 3.45093C175.186 3.22427 174.987 3.06293 174.686 2.9696H181.462L181.882 4.82027C181.293 3.71093 180.385 3.15627 179.162 3.15627H176.489V8.22293H178.323C178.654 8.22293 178.955 8.15627 179.225 8.0216C179.494 7.8856 179.685 7.64827 179.799 7.30693V9.31093C179.685 8.9696 179.494 8.7336 179.225 8.60293C178.955 8.47493 178.654 8.4096 178.323 8.4096H176.489V13.6616H179.146C179.757 13.6616 180.313 13.5229 180.81 13.2429C181.307 12.9629 181.701 12.5483 181.991 11.9989L181.541 13.8483H174.686C174.987 13.7563 175.186 13.5909 175.285 13.3509C175.383 13.1136 175.433 12.8536 175.433 12.5736Z" fill="#0A0203"/>
<path d="M180.194 3.13598C180.713 3.29598 181.158 3.58665 181.526 4.00531L181.33 3.13598H180.194ZM178.914 8.31465C179.048 8.34931 179.174 8.39465 179.296 8.45331C179.424 8.51465 179.536 8.59598 179.633 8.69731V7.92265C179.537 8.02398 179.425 8.10798 179.298 8.16931C179.177 8.23065 179.049 8.27865 178.914 8.31465ZM175.274 13.6813L176.324 13.6626V3.13598H175.277C175.344 3.21065 175.397 3.29331 175.438 3.38531C175.545 3.63465 175.6 3.91198 175.6 4.21331V12.5733C175.6 12.876 175.545 13.1586 175.438 13.4146C175.397 13.5146 175.342 13.604 175.274 13.6813ZM180.197 13.6813H181.409L181.621 12.812C181.408 13.0426 181.164 13.2346 180.892 13.388C180.672 13.512 180.441 13.6093 180.197 13.6813ZM181.672 14.0146H173.577L174.637 13.6893C174.89 13.6106 175.052 13.48 175.129 13.288C175.221 13.0706 175.266 12.8306 175.266 12.5733V4.21331C175.266 3.95465 175.222 3.72665 175.13 3.51731C175.053 3.33465 174.89 3.20798 174.637 3.12798L173.592 2.80265H181.596L182.32 5.99731L181.734 4.89731C181.17 3.83731 180.33 3.32265 179.164 3.32265H176.657V8.05598H178.324C178.626 8.05598 178.904 7.99465 179.15 7.87198C179.38 7.75731 179.541 7.55331 179.642 7.25331L179.966 6.28665V10.3306L179.642 9.36398C179.541 9.06265 179.381 8.86398 179.152 8.75331C178.905 8.63598 178.626 8.57598 178.324 8.57598H176.657V13.496H179.148C179.726 13.496 180.26 13.3613 180.728 13.0973C181.194 12.8346 181.57 12.44 181.844 11.9213L182.47 10.7346L181.672 14.0146Z" fill="#0A0203"/>
<path d="M189.808 9.40427H191.625C192.104 9.40427 192.533 9.32827 192.916 9.17893C193.3 9.02827 193.628 8.81893 193.902 8.54827C194.177 8.27893 194.388 7.9536 194.533 7.57093C194.677 7.18693 194.75 6.7576 194.75 6.28027C194.75 5.30693 194.473 4.54293 193.918 3.98827C193.364 3.4336 192.601 3.15493 191.625 3.15493H189.808V9.40427ZM188.005 13.8483C188.305 13.7563 188.504 13.5909 188.604 13.3509C188.702 13.1136 188.75 12.8536 188.75 12.5736V4.21227C188.75 3.94427 188.698 3.69093 188.596 3.45093C188.492 3.21227 188.294 3.05227 188.005 2.9696H191.688C192.217 2.9696 192.732 3.0296 193.234 3.14827C193.737 3.26693 194.185 3.45893 194.578 3.72293C194.972 3.98827 195.288 4.3296 195.528 4.7496C195.765 5.16827 195.885 5.67893 195.885 6.28027C195.885 6.71493 195.812 7.11093 195.668 7.4696C195.521 7.82693 195.322 8.14027 195.068 8.4096C194.814 8.67893 194.51 8.90693 194.16 9.0936C193.806 9.27893 193.429 9.41493 193.025 9.49627L195.232 12.9469C195.366 13.1549 195.536 13.3336 195.737 13.4843C195.94 13.6349 196.154 13.7563 196.382 13.8483H194.641L191.905 9.57493H189.808V12.6043C189.808 12.8763 189.862 13.1256 189.97 13.3589C190.08 13.5923 190.274 13.7563 190.554 13.8483H188.005Z" fill="#0A0203"/>
<path d="M189.974 9.23756H191.626C192.078 9.23756 192.493 9.16556 192.857 9.02423C193.216 8.88156 193.529 8.68156 193.788 8.42956C194.042 8.17889 194.241 7.86956 194.377 7.51089C194.514 7.14823 194.584 6.73356 194.584 6.28023C194.584 5.35756 194.321 4.62556 193.801 4.10423C193.28 3.58556 192.549 3.32156 191.626 3.32156H189.974V9.23756ZM193.276 3.32823C193.56 3.46823 193.816 3.64823 194.037 3.86956C194.621 4.45489 194.917 5.26556 194.917 6.28023C194.917 6.77356 194.84 7.22689 194.689 7.62956C194.536 8.03356 194.31 8.38156 194.021 8.66689C193.729 8.95089 193.38 9.17623 192.978 9.33356L192.966 9.33756L192.993 9.33356C193.376 9.25623 193.742 9.12556 194.082 8.94556C194.414 8.76956 194.706 8.55089 194.948 8.29489C195.188 8.04023 195.373 7.74956 195.512 7.40689C195.649 7.07223 195.718 6.69356 195.718 6.28023C195.718 5.70956 195.605 5.22289 195.384 4.83089C195.157 4.43489 194.854 4.10823 194.488 3.86156C194.132 3.62423 193.725 3.44423 193.276 3.32823ZM188.593 13.6816H189.985C189.918 13.6069 189.864 13.5229 189.82 13.4296C189.701 13.1736 189.641 12.8962 189.641 12.6042V3.13623H188.593C188.657 3.20956 188.709 3.29223 188.749 3.38423C188.86 3.64289 188.917 3.92156 188.917 4.21223V12.5736C188.917 12.8776 188.864 13.1602 188.757 13.4149C188.717 13.5149 188.662 13.6029 188.593 13.6816ZM194.732 13.6816H195.726C195.697 13.6602 195.668 13.6389 195.637 13.6162C195.418 13.4549 195.234 13.2602 195.092 13.0376L192.77 9.40689C192.556 9.47489 192.326 9.52023 192.086 9.54556L194.732 13.6816ZM197.236 14.0149H194.55L191.816 9.74156H189.974V12.6042C189.974 12.8509 190.022 13.0749 190.121 13.2882C190.212 13.4816 190.37 13.6122 190.606 13.6896L191.59 14.0149H186.896L187.956 13.6896C188.21 13.6109 188.37 13.4802 188.448 13.2882C188.538 13.0736 188.584 12.8336 188.584 12.5736V4.21223C188.584 3.96689 188.537 3.73223 188.444 3.51756C188.36 3.32556 188.202 3.19889 187.96 3.12956L186.821 2.80289H191.689C192.225 2.80289 192.758 2.86423 193.273 2.98556C193.793 3.10956 194.265 3.31089 194.672 3.58556C195.084 3.86156 195.42 4.22423 195.672 4.66556C195.924 5.10823 196.052 5.65223 196.052 6.28023C196.052 6.73623 195.974 7.15756 195.822 7.53223C195.669 7.90823 195.456 8.24289 195.19 8.52423C194.924 8.80689 194.604 9.04689 194.238 9.24023C193.941 9.39756 193.622 9.52023 193.293 9.60556L195.373 12.8576C195.494 13.0442 195.65 13.2109 195.836 13.3496C196.025 13.4909 196.229 13.6056 196.445 13.6936L197.236 14.0149Z" fill="#0A0203"/>
<path d="M2.52246 27.1699C2.57713 27.3272 2.65046 27.4819 2.74113 27.6325C2.83313 27.7819 2.94113 27.9152 3.06646 28.0312C3.19179 28.1472 3.33179 28.2419 3.48913 28.3125C3.64379 28.3832 3.81179 28.4192 3.99179 28.4192C4.12379 28.4192 4.25846 28.4045 4.39313 28.3739C4.52913 28.3459 4.65313 28.2992 4.76246 28.2352C4.87313 28.1699 4.96246 28.0845 5.03446 27.9752C5.10513 27.8659 5.14113 27.7365 5.14113 27.5832C5.14113 27.3899 5.07846 27.2312 4.95579 27.1032C4.83313 26.9765 4.67713 26.8632 4.49179 26.7592C4.30379 26.6579 4.10246 26.5605 3.88779 26.4672C3.67313 26.3725 3.47313 26.2659 3.28513 26.1445C3.09846 26.0245 2.94113 25.8832 2.81979 25.7192C2.69713 25.5579 2.63579 25.3539 2.63579 25.1085C2.63579 24.9205 2.67046 24.7565 2.74113 24.6179C2.81313 24.4779 2.90779 24.3619 3.02913 24.2672C3.15046 24.1752 3.28913 24.1032 3.44646 24.0552C3.60513 24.0085 3.77046 23.9832 3.94113 23.9832C4.06113 23.9832 4.17713 24.0019 4.28779 24.0365C4.39713 24.0725 4.49979 24.1099 4.59713 24.1485C4.69313 24.1899 4.77579 24.2259 4.84913 24.2619C4.92246 24.2979 4.97979 24.3139 5.02113 24.3139C5.09713 24.3139 5.15846 24.2885 5.20646 24.2379C5.25446 24.1845 5.28779 24.1259 5.30913 24.0579C5.30513 24.2339 5.29846 24.4059 5.29046 24.5752C5.28113 24.7432 5.27446 24.9152 5.27179 25.0885C5.22913 24.9392 5.16379 24.8032 5.07446 24.6765C4.98513 24.5525 4.88113 24.4432 4.76246 24.3485C4.64379 24.2552 4.51179 24.1832 4.36646 24.1312C4.21979 24.0792 4.07046 24.0525 3.91579 24.0525C3.79446 24.0525 3.67446 24.0685 3.55579 24.0992C3.43846 24.1312 3.33179 24.1792 3.23846 24.2472C3.14513 24.3125 3.06779 24.3965 3.01046 24.4965C2.95179 24.5952 2.92379 24.7139 2.92379 24.8525C2.92379 24.9979 2.95846 25.1245 3.03179 25.2339C3.10513 25.3419 3.19979 25.4405 3.31713 25.5312C3.43313 25.6192 3.56646 25.7005 3.71713 25.7765C3.86646 25.8525 4.01979 25.9272 4.17846 26.0045C4.33579 26.0819 4.49179 26.1632 4.64113 26.2485C4.79046 26.3339 4.92379 26.4299 5.04113 26.5379C5.15713 26.6459 5.25179 26.7725 5.32513 26.9139C5.39713 27.0552 5.43446 27.2192 5.43446 27.4072C5.43446 27.5939 5.38913 27.7565 5.30246 27.8979C5.21579 28.0365 5.10379 28.1512 4.96513 28.2419C4.82779 28.3299 4.67446 28.3965 4.50513 28.4405C4.33713 28.4832 4.17179 28.5059 4.00913 28.5059C3.90513 28.5059 3.80379 28.4925 3.70379 28.4659C3.60379 28.4379 3.50379 28.4072 3.40646 28.3712C3.30913 28.3365 3.21446 28.3059 3.11979 28.2779C3.02646 28.2512 2.93179 28.2379 2.83446 28.2379C2.76913 28.2379 2.70913 28.2539 2.65446 28.2885C2.60113 28.3205 2.55579 28.3645 2.52246 28.4192V27.1699Z" fill="#0A0203"/>
<path d="M5.12542 24.4694L5.12809 24.4734L5.12942 24.468L5.12542 24.4694ZM2.80276 25.1414C2.80809 25.3334 2.85876 25.4947 2.95342 25.6174C3.06409 25.7667 3.20276 25.892 3.37609 26.004C3.55342 26.12 3.74942 26.224 3.95476 26.3147C4.17076 26.408 4.37742 26.508 4.57076 26.612C4.77209 26.724 4.94142 26.8494 5.07609 26.988C5.16142 27.0774 5.22276 27.1774 5.26276 27.2907C5.25076 27.1787 5.22142 27.0787 5.17609 26.9894C5.11076 26.864 5.02809 26.7534 4.92809 26.6614C4.82276 26.564 4.70009 26.4734 4.55742 26.392C4.41209 26.3107 4.26142 26.2294 4.10542 26.1547C3.94276 26.0747 3.78942 26 3.64142 25.9254C3.48142 25.844 3.33742 25.756 3.21476 25.664C3.08676 25.564 2.97876 25.4507 2.89476 25.328C2.85609 25.2694 2.82542 25.2067 2.80276 25.1414ZM2.69076 27.8547V28.0907C2.74676 28.0747 2.80809 28.072 2.87076 28.0707C2.80542 28.0027 2.74542 27.932 2.69076 27.8547ZM2.35742 29.012V26.1587L2.68142 27.116C2.73076 27.264 2.80009 27.4067 2.88409 27.5454C2.96809 27.68 3.06676 27.804 3.18142 27.9107C3.29209 28.012 3.41876 28.0987 3.55742 28.1627C3.79476 28.2707 4.08409 28.2734 4.35876 28.212C4.47742 28.1867 4.58542 28.1467 4.68009 28.0907C4.76676 28.0387 4.84009 27.9694 4.89476 27.8854C4.94809 27.8027 4.97476 27.704 4.97476 27.5827C4.97476 27.436 4.92942 27.316 4.83609 27.22C4.72542 27.1067 4.58409 27 4.41076 26.9054C4.22809 26.8067 4.02942 26.7107 3.82142 26.6187C3.59876 26.5227 3.38809 26.4094 3.19609 26.2854C2.98942 26.1534 2.82009 25.996 2.68676 25.82C2.54276 25.6307 2.46942 25.3907 2.46942 25.108C2.46942 24.8934 2.51076 24.704 2.59476 24.5414C2.67609 24.3814 2.78809 24.244 2.92809 24.136C3.06676 24.0294 3.22542 23.948 3.40009 23.896C3.70676 23.804 4.03876 23.7827 4.33876 23.8787C4.45342 23.9147 4.56142 23.9534 4.66009 23.996C4.76142 24.0374 4.84942 24.0747 4.92542 24.1134C4.99342 24.1467 5.02276 24.148 5.02276 24.148C5.05476 24.148 5.07076 24.1374 5.08542 24.1227C5.11476 24.0907 5.13609 24.0534 5.15076 24.008L5.50142 22.8627L5.47609 24.0614C5.47209 24.2387 5.46542 24.412 5.45742 24.5827C5.44809 24.7507 5.44276 24.92 5.43876 25.0934L5.41476 26.2187L5.11209 25.1334C5.07609 25.004 5.02009 24.8854 4.93876 24.772C4.86009 24.664 4.76542 24.5627 4.65876 24.4787C4.55209 24.396 4.43742 24.3334 4.31076 24.288C4.08142 24.2054 3.83476 24.1987 3.60009 24.2614C3.49876 24.2867 3.41209 24.328 3.33609 24.3827C3.26142 24.436 3.20276 24.5 3.15476 24.5814C3.11076 24.6547 3.09076 24.7427 3.09076 24.852C3.09076 24.964 3.11609 25.0587 3.17209 25.1414C3.23476 25.236 3.31742 25.32 3.41876 25.3974C3.52409 25.4787 3.64942 25.556 3.79209 25.628C3.93876 25.7027 4.09209 25.776 4.24676 25.852C4.41209 25.9334 4.57076 26.016 4.72276 26.104C4.88676 26.1974 5.03342 26.3027 5.15342 26.416C5.28142 26.5347 5.38809 26.6747 5.47342 26.836C5.55742 27.0014 5.60009 27.1934 5.60009 27.4067C5.60009 27.6254 5.54676 27.8214 5.44276 27.9867C5.34676 28.144 5.21476 28.276 5.05609 28.3814C4.90542 28.4787 4.73476 28.5534 4.54942 28.6027C4.23742 28.6827 3.93076 28.7014 3.66009 28.6254C3.55609 28.5987 3.45342 28.5654 3.35209 28.528C3.25742 28.4947 3.16409 28.464 3.07342 28.4387C2.96276 28.4054 2.83076 28.372 2.74542 28.4294C2.70942 28.4494 2.68542 28.4747 2.66542 28.5054L2.35742 29.012Z" fill="#0A0203"/>
<path d="M12.8611 26.6633L12.1304 24.714L11.3878 26.6633H12.8611ZM10.3438 28.45C10.4397 28.4167 10.5317 28.3527 10.6184 28.2567C10.7064 28.1607 10.7691 28.0673 10.8064 27.9753L12.3184 24.022L13.8104 27.9633C13.8477 28.062 13.9011 28.1607 13.9691 28.2567C14.0384 28.3527 14.1264 28.4167 14.2344 28.45H13.1358C13.2064 28.4247 13.2664 28.3767 13.3144 28.306C13.3624 28.2353 13.3864 28.162 13.3864 28.0873C13.3864 28.042 13.3651 27.9567 13.3238 27.8313C13.2811 27.706 13.2318 27.5727 13.1758 27.4287C13.1198 27.286 13.0664 27.1473 13.0144 27.0167C12.9624 26.886 12.9238 26.7913 12.8984 26.7327H11.3678L10.9624 27.7887C10.9451 27.8287 10.9317 27.8727 10.9211 27.9153C10.9104 27.9607 10.9051 28.0047 10.9051 28.05C10.9051 28.158 10.9411 28.2447 11.0091 28.306C11.0771 28.3687 11.1598 28.4167 11.2558 28.45H10.3438Z" fill="#0A0203"/>
<path d="M11.6292 26.4966H12.6199L12.1292 25.186L11.6292 26.4966ZM13.5145 28.2833H13.7865C13.7319 28.1966 13.6879 28.1086 13.6559 28.0206L12.3172 24.49L12.2692 24.6126L12.2865 24.6553L13.0519 26.6673C13.0772 26.7273 13.1159 26.822 13.1692 26.954L13.3319 27.366C13.3892 27.5153 13.4385 27.6513 13.4812 27.7793C13.5452 27.9686 13.5519 28.0433 13.5519 28.0873C13.5519 28.154 13.5399 28.2193 13.5145 28.2833ZM11.4839 26.8993L11.1172 27.8486C11.1025 27.8846 11.0932 27.9206 11.0839 27.9553C11.0772 27.986 11.0732 28.018 11.0732 28.05C11.0732 28.1313 11.1012 28.1646 11.1212 28.1833C11.1732 28.2313 11.2372 28.2673 11.3092 28.2926L12.2092 28.5993L13.0825 28.2926C13.1172 28.2806 13.1492 28.254 13.1759 28.2126C13.2052 28.17 13.2185 28.13 13.2185 28.0873C13.2185 28.0833 13.2159 28.038 13.1652 27.8833C13.1239 27.7606 13.0772 27.63 13.0225 27.49L12.8599 27.078C12.8319 27.0086 12.8079 26.9486 12.7879 26.8993H11.4839ZM15.3679 28.6166H9.34253L10.2905 28.2926C10.3585 28.2686 10.4279 28.2193 10.4959 28.1433C10.5692 28.0633 10.6225 27.9846 10.6532 27.9126L12.3199 23.5526L13.9679 27.9046C13.9985 27.99 14.0452 28.0766 14.1052 28.1593C14.1545 28.226 14.2119 28.2686 14.2839 28.29L15.3679 28.6166Z" fill="#0A0203"/>
<path d="M21.0004 23.1529H21.3617L20.9377 23.6956H20.8244L21.0004 23.1529ZM20.0764 24.0769C19.959 24.1116 19.879 24.1756 19.8377 24.2716C19.7964 24.3663 19.775 24.4676 19.775 24.5769V26.9063C19.775 27.0983 19.8004 27.2823 19.8484 27.4569C19.895 27.6316 19.9697 27.7849 20.0697 27.9156C20.1697 28.0476 20.2964 28.1516 20.4497 28.2289C20.6044 28.3049 20.787 28.3449 21.0004 28.3449C21.2204 28.3449 21.4097 28.3089 21.5657 28.2409C21.7217 28.1729 21.8497 28.0769 21.9497 27.9569C22.0497 27.8356 22.123 27.6889 22.171 27.5156C22.219 27.3436 22.243 27.1543 22.243 26.9516V24.6263C22.243 24.4809 22.2017 24.3636 22.1217 24.2743C22.039 24.1836 21.9324 24.1196 21.8004 24.0769H22.755C22.6217 24.1196 22.515 24.1849 22.4324 24.2783C22.3524 24.3689 22.311 24.4876 22.311 24.6329V26.9583C22.311 27.1903 22.2844 27.4023 22.231 27.5916C22.1764 27.7809 22.091 27.9423 21.9764 28.0743C21.8617 28.2089 21.7177 28.3116 21.5404 28.3849C21.363 28.4583 21.151 28.4943 20.907 28.4943C20.403 28.4943 20.0177 28.3609 19.751 28.0929C19.483 27.8276 19.351 27.4423 19.351 26.9383V24.5769C19.351 24.4676 19.3297 24.3663 19.2884 24.2716C19.247 24.1756 19.167 24.1116 19.051 24.0769H20.0764Z" fill="#0A0203"/>
<path d="M21.0185 23.8626H20.5972L20.8798 22.9866H21.7052L21.0185 23.8626ZM19.4572 24.244C19.4972 24.3506 19.5172 24.4613 19.5172 24.5773V26.9386C19.5172 27.3933 19.6358 27.7426 19.8692 27.9746C19.9038 28.0093 19.9412 28.044 19.9825 28.0733C19.9665 28.056 19.9505 28.036 19.9358 28.0173C19.8238 27.868 19.7412 27.7 19.6878 27.5013C19.6358 27.3146 19.6092 27.1133 19.6092 26.9066V24.5773C19.6092 24.46 19.6305 24.348 19.6692 24.244H19.4572ZM20.9718 23.9933L20.1225 24.2373C20.0345 24.2626 20.0065 24.3026 19.9905 24.3373C19.9585 24.4133 19.9425 24.492 19.9425 24.5773V26.9066C19.9425 27.084 19.9652 27.2546 20.0078 27.412C20.0505 27.5693 20.1145 27.7013 20.2025 27.8146C20.2878 27.928 20.3932 28.0133 20.5252 28.0786C20.7905 28.2146 21.2305 28.204 21.4985 28.0893C21.6305 28.0306 21.7358 27.952 21.8212 27.8493C21.9078 27.7453 21.9692 27.6213 22.0092 27.4733C22.0545 27.312 22.0772 27.1373 22.0772 26.9506V24.6266C22.0772 24.524 22.0505 24.4453 21.9972 24.3866C21.9372 24.32 21.8545 24.2693 21.7505 24.236L20.9718 23.9933ZM20.9065 28.6613C20.3572 28.6613 19.9292 28.5093 19.6332 28.2106C19.3345 27.9133 19.1838 27.4853 19.1838 26.9386V24.5773C19.1838 24.492 19.1678 24.412 19.1358 24.336C19.1212 24.3026 19.0932 24.2626 19.0038 24.2373L17.8745 23.9106H23.8438L22.8052 24.236C22.7012 24.2693 22.6185 24.32 22.5585 24.388C22.5052 24.448 22.4798 24.5293 22.4798 24.6333V26.9573C22.4798 27.2053 22.4492 27.4346 22.3905 27.6373C22.3292 27.8506 22.2318 28.0346 22.1038 28.184C21.9745 28.336 21.8052 28.456 21.6038 28.5386C21.4078 28.6186 21.1732 28.6613 20.9065 28.6613Z" fill="#0A0203"/>
<path d="M28.2648 28.369H28.7768C29.0981 28.369 29.3874 28.3184 29.6448 28.2197C29.9034 28.1197 30.1248 27.977 30.3074 27.793C30.4901 27.6117 30.6314 27.3904 30.7328 27.1317C30.8328 26.8744 30.8821 26.5837 30.8821 26.2637C30.8821 25.9437 30.8328 25.653 30.7354 25.393C30.6368 25.1317 30.4968 24.909 30.3128 24.7277C30.1301 24.5437 29.9074 24.401 29.6474 24.3024C29.3888 24.2024 29.0981 24.153 28.7768 24.153H28.2648V28.369ZM29.1514 24.077C29.4514 24.077 29.7368 24.1344 30.0048 24.249C30.2728 24.3637 30.5074 24.5197 30.7074 24.7184C30.9061 24.9157 31.0674 25.1477 31.1848 25.4144C31.3034 25.681 31.3621 25.9637 31.3621 26.2637C31.3621 26.5637 31.3088 26.845 31.2008 27.1104C31.0928 27.3744 30.9421 27.6077 30.7501 27.8064C30.5594 28.0064 30.3341 28.1637 30.0728 28.2784C29.8128 28.393 29.5301 28.4504 29.2274 28.4504H27.5408C27.6608 28.417 27.7408 28.3504 27.7808 28.253C27.8208 28.1557 27.8408 28.053 27.8408 27.945V24.5837C27.8408 24.4744 27.8194 24.3717 27.7781 24.2744C27.7368 24.1757 27.6568 24.1117 27.5408 24.077H29.1514Z" fill="#0A0203"/>
<path d="M30.7178 24.9745C30.7858 25.0852 30.8431 25.2052 30.8925 25.3345C30.9965 25.6118 31.0485 25.9238 31.0485 26.2638C31.0485 26.6052 30.9938 26.9172 30.8871 27.1918C30.8045 27.4038 30.6965 27.5932 30.5658 27.7572L30.6325 27.6905C30.8058 27.5078 30.9471 27.2918 31.0471 27.0478C31.1458 26.8025 31.1965 26.5398 31.1965 26.2638C31.1965 25.9905 31.1418 25.7265 31.0325 25.4825C30.9498 25.2945 30.8445 25.1252 30.7178 24.9745ZM28.4311 28.2025H28.7778C29.0738 28.2025 29.3458 28.1558 29.5845 28.0638C29.8231 27.9718 30.0218 27.8438 30.1898 27.6745C30.3551 27.5118 30.4845 27.3092 30.5778 27.0718C30.6685 26.8358 30.7151 26.5625 30.7151 26.2638C30.7151 25.9638 30.6698 25.6905 30.5791 25.4505C30.4898 25.2132 30.3605 25.0092 30.1951 24.8452C30.0285 24.6772 29.8258 24.5478 29.5898 24.4585C29.3511 24.3665 29.0778 24.3198 28.7778 24.3198H28.4311V28.2025ZM27.9471 28.2825H28.0978V24.2438H27.9458C27.9858 24.3518 28.0071 24.4652 28.0071 24.5838V27.9452C28.0071 28.0625 27.9871 28.1758 27.9471 28.2825ZM29.2271 28.6158H26.2925L27.4965 28.2878C27.5871 28.2652 27.6138 28.2225 27.6258 28.1905C27.6578 28.1132 27.6738 28.0318 27.6738 27.9452V24.5838C27.6738 24.4972 27.6578 24.4172 27.6245 24.3385C27.6098 24.3052 27.5818 24.2638 27.4938 24.2372L26.3751 23.9105H29.1525C29.4725 23.9105 29.7818 23.9732 30.0698 24.0958C30.3565 24.2185 30.6111 24.3878 30.8245 24.5998C31.0378 24.8105 31.2111 25.0612 31.3378 25.3465C31.4658 25.6345 31.5298 25.9438 31.5298 26.2638C31.5298 26.5825 31.4711 26.8892 31.3551 27.1718C31.2391 27.4572 31.0765 27.7092 30.8711 27.9225C30.6631 28.1372 30.4165 28.3092 30.1405 28.4305C29.8591 28.5545 29.5525 28.6158 29.2271 28.6158Z" fill="#0A0203"/>
<path d="M36.5045 27.9381V24.5768C36.5045 24.4661 36.4831 24.3621 36.4445 24.2715C36.4058 24.1795 36.3245 24.1155 36.2031 24.0768H38.9271L39.0951 24.8208C38.8591 24.3755 38.4938 24.1528 38.0031 24.1528H36.9285V26.1888H37.6658C37.7991 26.1888 37.9205 26.1621 38.0285 26.1075C38.1365 26.0541 38.2125 25.9581 38.2591 25.8208V26.6261C38.2125 26.4888 38.1365 26.3941 38.0285 26.3421C37.9205 26.2901 37.7991 26.2635 37.6658 26.2635H36.9285V28.3741H37.9965C38.2431 28.3741 38.4658 28.3181 38.6645 28.2061C38.8658 28.0928 39.0231 27.9275 39.1405 27.7061L38.9591 28.4501H36.2031C36.3245 28.4115 36.4058 28.3461 36.4445 28.2501C36.4831 28.1541 36.5045 28.0501 36.5045 27.9381Z" fill="#0A0203"/>
<path d="M36.6109 28.2832H36.7616V24.2445H36.6136C36.6509 24.3432 36.6709 24.4565 36.6709 24.5778V27.9378C36.6709 28.0605 36.6496 28.1765 36.6109 28.2832ZM39.0896 28.6165H35.1216L36.1549 28.2912C36.2496 28.2605 36.2776 28.2165 36.2909 28.1872C36.3216 28.1112 36.3376 28.0298 36.3376 27.9378V24.5778C36.3376 24.4872 36.3216 24.4072 36.2922 24.3392C36.2842 24.3192 36.2629 24.2698 36.1549 24.2365L35.1216 23.9112H39.0602L39.5336 25.9912L38.9496 24.8992C38.7416 24.5098 38.4309 24.3192 38.0029 24.3192H37.0949V26.0232H37.6656C37.7722 26.0232 37.8682 26.0005 37.9522 25.9592C38.0216 25.9245 38.0696 25.8632 38.1016 25.7685L38.4256 24.7938V27.6525L38.1016 26.6778C38.0709 26.5858 38.0229 26.5245 37.9562 26.4925C37.8696 26.4512 37.7722 26.4298 37.6656 26.4298H37.0949V28.2072H37.9976C38.2122 28.2072 38.4109 28.1578 38.5842 28.0605C38.7576 27.9618 38.8922 27.8205 38.9922 27.6298L39.6242 26.4218L39.0896 28.6165Z" fill="#0A0203"/>
<path d="M50.2829 27.9381V24.5768C50.2829 24.4661 50.2629 24.3621 50.2242 24.2715C50.1842 24.1795 50.1042 24.1155 49.9829 24.0768H52.7069L52.8749 24.8208C52.6389 24.3755 52.2736 24.1528 51.7829 24.1528H50.7082V26.1888H51.4456C51.5789 26.1888 51.6989 26.1621 51.8082 26.1075C51.9162 26.0541 51.9922 25.9581 52.0376 25.8208V26.6261C51.9922 26.4888 51.9162 26.3941 51.8082 26.3421C51.6989 26.2901 51.5789 26.2635 51.4456 26.2635H50.7082V28.3741H51.7762C52.0216 28.3741 52.2456 28.3181 52.4442 28.2061C52.6442 28.0928 52.8029 27.9275 52.9202 27.7061L52.7389 28.4501H49.9829C50.1042 28.4115 50.1842 28.3461 50.2242 28.2501C50.2629 28.1541 50.2829 28.0501 50.2829 27.9381Z" fill="#0A0203"/>
<path d="M50.391 28.2832H50.5416V24.2445H50.3923C50.431 24.3472 50.451 24.4592 50.451 24.5778V27.9378C50.451 28.0578 50.4296 28.1738 50.391 28.2832ZM52.8696 28.6165H48.8896L49.9336 28.2912C50.0296 28.2605 50.0576 28.2165 50.071 28.1872C50.1016 28.1098 50.1176 28.0258 50.1176 27.9378V24.5778C50.1176 24.4898 50.1016 24.4098 50.071 24.3365C50.059 24.3085 50.031 24.2672 49.9336 24.2365L48.8896 23.9112H52.8403L53.3136 25.9912L52.7296 24.8992C52.5216 24.5098 52.211 24.3192 51.783 24.3192H50.875V26.0232H51.4456C51.5523 26.0232 51.6483 26.0005 51.7323 25.9592C51.8016 25.9245 51.8496 25.8632 51.8816 25.7658L52.2056 24.8205V27.6258L51.8816 26.6805C51.8496 26.5858 51.8016 26.5245 51.735 26.4912C51.6496 26.4512 51.5523 26.4298 51.4456 26.4298H50.875V28.2072H51.7763C51.9923 28.2072 52.1896 28.1578 52.363 28.0605C52.535 27.9632 52.6696 27.8218 52.7723 27.6285L53.3976 26.4472L52.8696 28.6165Z" fill="#0A0203"/>
<path d="M63.9249 24.0775H67.0863L67.2489 24.7895C67.1489 24.6028 67.0116 24.4508 66.8396 24.3361C66.6676 24.2215 66.4716 24.1641 66.2556 24.1641H65.7129V27.9388C65.7129 28.0468 65.7316 28.1495 65.7756 28.2468C65.8156 28.3455 65.8956 28.4121 66.0116 28.4495H64.9876C65.1089 28.4121 65.1876 28.3455 65.2289 28.2508C65.2676 28.1548 65.2863 28.0495 65.2863 27.9388L65.2929 24.1641H64.7623C64.5383 24.1641 64.3409 24.2215 64.1743 24.3361C64.0076 24.4508 63.8729 24.6041 63.7703 24.7961L63.9249 24.0775Z" fill="#0A0203"/>
<path d="M65.3948 28.2832H65.6094C65.5681 28.1738 65.5454 28.0578 65.5454 27.9378V24.2445H65.4601L65.4548 27.9378C65.4548 28.0578 65.4334 28.1738 65.3948 28.2832ZM67.0614 28.6165H63.8934L64.9374 28.2912C65.0334 28.2605 65.0614 28.2165 65.0748 28.1872C65.1054 28.1098 65.1214 28.0258 65.1214 27.9378L65.1268 24.3312H64.7628C64.5708 24.3312 64.4108 24.3778 64.2708 24.4738C64.1241 24.5752 64.0081 24.7058 63.9174 24.8752L63.3574 25.9112L63.7921 23.9112H67.2188L67.6894 25.9658L67.1014 24.8672C67.0134 24.7032 66.8974 24.5752 66.7481 24.4765C66.6014 24.3778 66.4401 24.3312 66.2561 24.3312H65.8788V27.9378C65.8788 28.0245 65.8948 28.1032 65.9281 28.1818C65.9428 28.2165 65.9721 28.2605 66.0641 28.2912L67.0614 28.6165Z" fill="#0A0203"/>
<path d="M72.4588 27.9381V24.5768C72.4588 24.4661 72.4375 24.3621 72.3988 24.2715C72.3601 24.1795 72.2788 24.1155 72.1575 24.0768H74.8815L75.0495 24.8208C74.8135 24.3755 74.4481 24.1528 73.9575 24.1528H72.8828V26.1888H73.6201C73.7535 26.1888 73.8748 26.1621 73.9828 26.1075C74.0908 26.0541 74.1668 25.9581 74.2135 25.8208V26.6261C74.1668 26.4888 74.0908 26.3941 73.9828 26.3421C73.8748 26.2901 73.7535 26.2635 73.6201 26.2635H72.8828V28.3741H73.9508C74.1975 28.3741 74.4201 28.3181 74.6188 28.2061C74.8201 28.0928 74.9775 27.9275 75.0948 27.7061L74.9135 28.4501H72.1575C72.2788 28.4115 72.3601 28.3461 72.3988 28.2501C72.4375 28.1541 72.4588 28.0501 72.4588 27.9381Z" fill="#0A0203"/>
<path d="M72.5655 28.2832H72.7162V24.2445H72.5682C72.6055 24.3432 72.6255 24.4565 72.6255 24.5778V27.9378C72.6255 28.0605 72.6042 28.1765 72.5655 28.2832ZM75.0442 28.6165H71.0762L72.1095 28.2912C72.2042 28.2605 72.2322 28.2165 72.2455 28.1872C72.2762 28.1112 72.2922 28.0298 72.2922 27.9378V24.5778C72.2922 24.4872 72.2762 24.4072 72.2468 24.3392C72.2388 24.3192 72.2175 24.2698 72.1095 24.2365L71.0762 23.9112H75.0148L75.4908 26.0018L74.9042 24.8992C74.6975 24.5098 74.3868 24.3192 73.9575 24.3192H73.0495V26.0232H73.6202C73.7268 26.0232 73.8228 26.0005 73.9068 25.9592C73.9762 25.9245 74.0242 25.8632 74.0562 25.7685L74.3802 24.7938V27.6525L74.0562 26.6778C74.0255 26.5858 73.9775 26.5245 73.9108 26.4925C73.8242 26.4512 73.7268 26.4298 73.6202 26.4298H73.0495V28.2072H73.9522C74.1668 28.2072 74.3655 28.1578 74.5388 28.0605C74.7122 27.9618 74.8468 27.8205 74.9468 27.6298L75.5788 26.4218L75.0442 28.6165Z" fill="#0A0203"/>
<path d="M82.0096 24.0578C82.131 24.0578 82.255 24.0658 82.3803 24.0805C82.5083 24.0952 82.635 24.1205 82.7616 24.1552C82.8883 24.1912 83.011 24.2352 83.127 24.2872C83.2443 24.3392 83.3483 24.4018 83.439 24.4765V25.1018C83.3523 24.9765 83.2536 24.8565 83.1403 24.7392C83.0283 24.6232 82.9056 24.5205 82.771 24.4298C82.639 24.3418 82.4963 24.2698 82.347 24.2178C82.1976 24.1658 82.0416 24.1405 81.8843 24.1405C81.6176 24.1405 81.3843 24.1965 81.1856 24.3112C80.9843 24.4258 80.819 24.5765 80.6883 24.7605C80.5576 24.9472 80.459 25.1565 80.391 25.3925C80.3243 25.6285 80.2923 25.8632 80.2923 26.1005C80.2923 26.3565 80.327 26.6178 80.4016 26.8885C80.475 27.1592 80.583 27.4058 80.7283 27.6285C80.8736 27.8512 81.0576 28.0325 81.279 28.1752C81.499 28.3165 81.7576 28.3872 82.0536 28.3872C82.211 28.3872 82.3643 28.3618 82.5096 28.3072C82.655 28.2525 82.7896 28.1792 82.915 28.0872C83.0403 27.9952 83.155 27.8925 83.2616 27.7752C83.3683 27.6578 83.4616 27.5352 83.539 27.4072L83.6203 27.8192C83.5163 27.9072 83.4003 27.9885 83.271 28.0658C83.143 28.1432 83.007 28.2112 82.8656 28.2725C82.723 28.3325 82.5803 28.3805 82.4336 28.4165C82.2883 28.4512 82.147 28.4685 82.0096 28.4685C81.7016 28.4685 81.4123 28.4125 81.1416 28.2978C80.871 28.1818 80.635 28.0272 80.435 27.8285C80.235 27.6312 80.0776 27.3978 79.9603 27.1285C79.8443 26.8605 79.7856 26.5725 79.7856 26.2632C79.7856 25.9512 79.8443 25.6605 79.9603 25.3925C80.0776 25.1245 80.235 24.8912 80.435 24.6925C80.635 24.4952 80.871 24.3392 81.1416 24.2272C81.4123 24.1152 81.7016 24.0578 82.0096 24.0578Z" fill="#0A0203"/>
<path d="M83.0628 24.4408C83.1321 24.4968 83.1975 24.5581 83.2601 24.6234C83.2641 24.6274 83.2695 24.6328 83.2735 24.6368V24.5594C83.2108 24.5154 83.1415 24.4754 83.0628 24.4408ZM80.3228 25.0834C80.2415 25.1994 80.1721 25.3261 80.1148 25.4594C80.0068 25.7034 79.9535 25.9728 79.9535 26.2634C79.9535 26.5488 80.0068 26.8168 80.1135 27.0621C80.2201 27.3088 80.3681 27.5261 80.5521 27.7101C80.5815 27.7381 80.6095 27.7648 80.6388 27.7914C80.6228 27.7674 80.6055 27.7448 80.5908 27.7194C80.4348 27.4821 80.3175 27.2181 80.2401 26.9314C80.1641 26.6474 80.1255 26.3688 80.1255 26.1008C80.1255 25.8528 80.1615 25.5981 80.2321 25.3474C80.2575 25.2568 80.2881 25.1688 80.3228 25.0834ZM82.0095 28.6354C81.6775 28.6354 81.3641 28.5728 81.0775 28.4514C80.7828 28.3248 80.5348 28.1608 80.3175 27.9474C80.1015 27.7341 79.9308 27.4794 79.8081 27.1941C79.6841 26.9088 79.6201 26.5954 79.6201 26.2634C79.6201 25.9274 79.6841 25.6128 79.8095 25.3261C79.9308 25.0421 80.1015 24.7901 80.3161 24.5741C80.5361 24.3581 80.7921 24.1914 81.0788 24.0741C81.4828 23.9061 81.9241 23.8608 82.4001 23.9141C82.5401 23.9314 82.6761 23.9594 82.8068 23.9954C82.9375 24.0314 83.0655 24.0781 83.1961 24.1354C83.3295 24.1941 83.4428 24.2648 83.5455 24.3488L83.6068 24.3981V25.6328L83.3041 25.1968C83.2228 25.0808 83.1281 24.9674 83.0201 24.8541C82.9148 24.7461 82.8015 24.6514 82.6788 24.5688C82.5521 24.4848 82.4255 24.4221 82.2921 24.3754C81.9361 24.2488 81.5415 24.2981 81.2681 24.4568C81.0895 24.5594 80.9401 24.6941 80.8255 24.8568C80.7041 25.0274 80.6135 25.2234 80.5521 25.4381C80.4895 25.6594 80.4588 25.8821 80.4588 26.1008C80.4588 26.3394 80.4935 26.5901 80.5628 26.8461C80.6308 27.0968 80.7335 27.3301 80.8681 27.5368C81.0041 27.7434 81.1668 27.9061 81.3681 28.0341C81.5601 28.1581 81.7908 28.2208 82.0535 28.2208C82.1935 28.2208 82.3268 28.1968 82.4508 28.1501C82.5828 28.1008 82.7041 28.0341 82.8175 27.9541C82.9388 27.8634 83.0428 27.7688 83.1388 27.6634C83.2375 27.5554 83.3241 27.4394 83.3988 27.3194L83.6228 26.9568L83.8041 27.8848L83.7281 27.9474C83.6188 28.0394 83.4935 28.1274 83.3575 28.2088C83.2281 28.2874 83.0895 28.3581 82.9308 28.4261C82.7801 28.4901 82.6268 28.5408 82.4735 28.5781C82.3175 28.6154 82.1615 28.6354 82.0095 28.6354Z" fill="#0A0203"/>
<path d="M88.3623 28.4498C88.4956 28.4085 88.601 28.3418 88.6796 28.2512C88.7596 28.1578 88.7983 28.0418 88.7983 27.9005V24.6458C88.7983 24.5005 88.761 24.3805 88.6836 24.2872C88.6076 24.1938 88.501 24.1232 88.3676 24.0778H89.1556L91.6663 27.6005V24.6272C91.6663 24.4858 91.6263 24.3685 91.5476 24.2778C91.4676 24.1858 91.3623 24.1192 91.229 24.0778H92.1663C92.033 24.1192 91.929 24.1858 91.853 24.2778C91.7796 24.3685 91.741 24.4858 91.741 24.6272V28.4498L88.861 24.4085V27.9005C88.861 28.0458 88.9023 28.1632 88.9863 28.2538C89.069 28.3432 89.177 28.4085 89.3116 28.4498H88.3623Z" fill="#0A0203"/>
<path d="M88.9494 24.2441L91.5748 27.9294V27.7588L91.5321 27.6974L89.0694 24.2441H88.9494ZM91.9081 28.9708L89.0294 24.9294V27.9001C89.0294 28.0028 89.0548 28.0814 89.1094 28.1401C89.1708 28.2081 89.2548 28.2574 89.3614 28.2908L90.4001 28.6161H87.2734L88.3121 28.2908C88.4161 28.2588 88.4961 28.2094 88.5534 28.1428C88.6068 28.0801 88.6334 28.0001 88.6334 27.9001V24.6468C88.6334 24.5401 88.6068 24.4561 88.5548 24.3921C88.4974 24.3241 88.4174 24.2708 88.3134 24.2348L87.3694 23.9108H88.6961V23.8868L88.7121 23.9108H89.2414L89.2908 23.9814L91.5001 27.0801V24.6268C91.5001 24.5268 91.4748 24.4481 91.4214 24.3868C91.3628 24.3188 91.2841 24.2694 91.1801 24.2361L90.1414 23.9108H93.2641L92.2161 24.2361C92.1134 24.2694 92.0374 24.3161 91.9841 24.3828C91.9321 24.4441 91.9081 24.5241 91.9081 24.6268V28.9708Z" fill="#0A0203"/>
<path d="M99.3428 28.4056C99.6055 28.4056 99.8361 28.3443 100.036 28.2189C100.236 28.0936 100.404 27.9336 100.541 27.7349C100.68 27.5376 100.784 27.3176 100.856 27.0763C100.925 26.8336 100.96 26.6003 100.96 26.3696C100.96 26.1163 100.92 25.8563 100.835 25.5896C100.752 25.3216 100.632 25.0816 100.475 24.8656C100.315 24.6483 100.123 24.4709 99.8961 24.3336C99.6695 24.1963 99.4148 24.1269 99.1308 24.1269C98.8721 24.1269 98.6428 24.1909 98.4401 24.3149C98.2388 24.4389 98.0681 24.6003 97.9308 24.7989C97.7948 24.9963 97.6908 25.2149 97.6188 25.4549C97.5481 25.6949 97.5121 25.9283 97.5121 26.1576C97.5121 26.4069 97.5548 26.6656 97.6415 26.9336C97.7255 27.1989 97.8495 27.4403 98.0095 27.6589C98.1695 27.8776 98.3628 28.0576 98.5881 28.1976C98.8121 28.3363 99.0641 28.4056 99.3428 28.4056ZM99.2241 24.0576C99.5281 24.0576 99.8148 24.1149 100.083 24.2309C100.352 24.3456 100.587 24.5016 100.785 24.7029C100.985 24.9016 101.144 25.1363 101.259 25.4043C101.372 25.6736 101.428 25.9603 101.428 26.2643C101.428 26.5683 101.372 26.8549 101.259 27.1229C101.144 27.3909 100.985 27.6256 100.785 27.8243C100.587 28.0256 100.352 28.1816 100.083 28.2976C99.8148 28.4123 99.5281 28.4683 99.2241 28.4683C98.9201 28.4683 98.6348 28.4123 98.3655 28.2976C98.0961 28.1816 97.8628 28.0256 97.6628 27.8243C97.4628 27.6256 97.3055 27.3909 97.1908 27.1229C97.0775 26.8549 97.0188 26.5683 97.0188 26.2643C97.0188 25.9603 97.0775 25.6736 97.1908 25.4043C97.3055 25.1363 97.4628 24.9016 97.6628 24.7029C97.8628 24.5016 98.0961 24.3456 98.3655 24.2309C98.6348 24.1149 98.9201 24.0576 99.2241 24.0576Z" fill="#0A0203"/>
<path d="M100.599 24.7532C100.602 24.7585 100.606 24.7625 100.609 24.7665C100.775 24.9959 100.905 25.2545 100.995 25.5385C101.082 25.8185 101.127 26.0972 101.127 26.3692C101.127 26.6145 101.09 26.8612 101.015 27.1212C100.987 27.2225 100.951 27.3199 100.91 27.4145C100.986 27.3039 101.051 27.1839 101.105 27.0585C101.21 26.8119 101.263 26.5452 101.263 26.2639C101.263 25.9839 101.21 25.7172 101.105 25.4692C100.999 25.2225 100.853 25.0039 100.669 24.8212C100.646 24.7972 100.623 24.7759 100.599 24.7532ZM97.6179 25.0052C97.5085 25.1452 97.4165 25.2999 97.3459 25.4692C97.2392 25.7172 97.1859 25.9839 97.1859 26.2639C97.1859 26.5452 97.2392 26.8119 97.3459 27.0585C97.4525 27.3065 97.5979 27.5252 97.7805 27.7065C97.8379 27.7639 97.8965 27.8172 97.9592 27.8652C97.9299 27.8319 97.9019 27.7945 97.8752 27.7585C97.7059 27.5265 97.5725 27.2665 97.4819 26.9839C97.3925 26.7052 97.3472 26.4265 97.3472 26.1585C97.3472 25.9105 97.3832 25.6665 97.4592 25.4079C97.5005 25.2679 97.5539 25.1332 97.6179 25.0052ZM99.1299 24.2932C98.9059 24.2932 98.7032 24.3479 98.5272 24.4559C98.3485 24.5679 98.1925 24.7159 98.0685 24.8932C97.9419 25.0759 97.8459 25.2812 97.7792 25.5025C97.7125 25.7279 97.6805 25.9439 97.6805 26.1585C97.6805 26.3919 97.7205 26.6345 97.7992 26.8825C97.8805 27.1292 97.9965 27.3585 98.1432 27.5599C98.2912 27.7625 98.4699 27.9292 98.6752 28.0559C99.0619 28.2919 99.5885 28.3025 99.9485 28.0772C100.13 27.9625 100.285 27.8159 100.405 27.6399C100.534 27.4559 100.631 27.2505 100.695 27.0292C100.761 26.7999 100.794 26.5825 100.794 26.3692C100.794 26.1305 100.754 25.8865 100.678 25.6385C100.598 25.3905 100.485 25.1625 100.341 24.9625C100.194 24.7652 100.017 24.6012 99.8099 24.4772C99.6112 24.3545 99.3819 24.2932 99.1299 24.2932ZM99.2245 28.6345C98.8979 28.6345 98.5859 28.5719 98.3005 28.4505C98.0112 28.3265 97.7552 28.1545 97.5445 27.9425C97.3325 27.7305 97.1619 27.4772 97.0379 27.1879C96.9152 26.8999 96.8525 26.5892 96.8525 26.2639C96.8525 25.9399 96.9152 25.6279 97.0379 25.3385C97.1619 25.0505 97.3325 24.7959 97.5459 24.5839C97.7565 24.3719 98.0112 24.2012 98.3005 24.0772C98.8739 23.8305 99.5739 23.8305 100.15 24.0772C100.437 24.1999 100.69 24.3705 100.905 24.5839C101.119 24.7985 101.29 25.0532 101.411 25.3385C101.534 25.6279 101.597 25.9399 101.597 26.2639C101.597 26.5892 101.534 26.8999 101.411 27.1879C101.29 27.4745 101.119 27.7279 100.905 27.9439C100.687 28.1599 100.442 28.3252 100.15 28.4505C99.8632 28.5719 99.5525 28.6345 99.2245 28.6345Z" fill="#0A0203"/>
<path d="M107.289 24.0775C107.168 24.1148 107.088 24.1788 107.048 24.2721C107.008 24.3628 106.988 24.4655 106.988 24.5775V28.3815H108.113C108.364 28.3815 108.572 28.3175 108.741 28.1881C108.909 28.0588 109.053 27.8895 109.175 27.6815L109 28.4495H106.264C106.384 28.4121 106.465 28.3455 106.504 28.2508C106.544 28.1548 106.564 28.0495 106.564 27.9388V24.5775C106.564 24.4655 106.544 24.3628 106.504 24.2721C106.465 24.1788 106.384 24.1148 106.264 24.0775H107.289Z" fill="#0A0203"/>
<path d="M106.672 28.2832H106.822V24.5778C106.822 24.4565 106.842 24.3458 106.879 24.2445H106.674C106.711 24.3458 106.731 24.4578 106.731 24.5778V27.9378C106.731 28.0592 106.711 28.1752 106.672 28.2832ZM109.134 28.6165H105.171L106.215 28.2912C106.311 28.2605 106.339 28.2165 106.352 28.1858C106.382 28.1125 106.398 28.0285 106.398 27.9378V24.5778C106.398 24.4872 106.382 24.4072 106.352 24.3365C106.34 24.3098 106.311 24.2658 106.215 24.2365L105.171 23.9112H108.383L107.339 24.2365C107.242 24.2672 107.214 24.3085 107.202 24.3365C107.171 24.4072 107.155 24.4872 107.155 24.5778V28.2138H108.114C108.328 28.2138 108.5 28.1618 108.64 28.0552C108.791 27.9392 108.922 27.7858 109.032 27.5978L109.584 26.6485L109.134 28.6165Z" fill="#0A0203"/>
<path d="M116.24 28.4056C116.501 28.4056 116.733 28.3443 116.933 28.2189C117.133 28.0936 117.301 27.9336 117.439 27.7349C117.576 27.5376 117.68 27.3176 117.752 27.0763C117.823 26.8336 117.857 26.6003 117.857 26.3696C117.857 26.1163 117.816 25.8563 117.732 25.5896C117.649 25.3216 117.528 25.0816 117.371 24.8656C117.212 24.6483 117.02 24.4709 116.792 24.3336C116.565 24.1963 116.311 24.1269 116.027 24.1269C115.768 24.1269 115.539 24.1909 115.336 24.3149C115.135 24.4389 114.965 24.6003 114.828 24.7989C114.691 24.9963 114.587 25.2149 114.516 25.4549C114.444 25.6949 114.409 25.9283 114.409 26.1576C114.409 26.4069 114.452 26.6656 114.537 26.9336C114.623 27.1989 114.745 27.4403 114.905 27.6589C115.065 27.8776 115.259 28.0576 115.484 28.1976C115.709 28.3363 115.96 28.4056 116.24 28.4056ZM116.121 24.0576C116.425 24.0576 116.712 24.1149 116.98 24.2309C117.248 24.3456 117.483 24.5016 117.683 24.7029C117.883 24.9016 118.04 25.1363 118.155 25.4043C118.268 25.6736 118.325 25.9603 118.325 26.2643C118.325 26.5683 118.268 26.8549 118.155 27.1229C118.04 27.3909 117.883 27.6256 117.683 27.8243C117.483 28.0256 117.248 28.1816 116.98 28.2976C116.712 28.4123 116.425 28.4683 116.121 28.4683C115.817 28.4683 115.531 28.4123 115.263 28.2976C114.992 28.1816 114.76 28.0256 114.559 27.8243C114.36 27.6256 114.203 27.3909 114.088 27.1229C113.973 26.8549 113.916 26.5683 113.916 26.2643C113.916 25.9603 113.973 25.6736 114.088 25.4043C114.203 25.1363 114.36 24.9016 114.559 24.7029C114.76 24.5016 114.992 24.3456 115.263 24.2309C115.531 24.1149 115.817 24.0576 116.121 24.0576Z" fill="#0A0203"/>
<path d="M117.495 24.7545C117.499 24.7585 117.502 24.7625 117.506 24.7679C117.672 24.9959 117.802 25.2545 117.891 25.5399C117.979 25.8172 118.023 26.0959 118.023 26.3692C118.023 26.6159 117.987 26.8625 117.911 27.1225C117.882 27.2239 117.848 27.3212 117.806 27.4145C117.882 27.3039 117.947 27.1839 118 27.0585C118.106 26.8119 118.159 26.5452 118.159 26.2639C118.159 25.9839 118.106 25.7172 118 25.4692C117.894 25.2212 117.747 25.0025 117.566 24.8212C117.542 24.7972 117.519 24.7759 117.495 24.7545ZM114.512 25.0065C114.404 25.1465 114.312 25.3012 114.242 25.4692C114.136 25.7159 114.083 25.9825 114.083 26.2639C114.083 26.5465 114.136 26.8132 114.242 27.0585C114.347 27.3052 114.494 27.5239 114.678 27.7065C114.734 27.7625 114.792 27.8159 114.855 27.8639C114.826 27.8305 114.799 27.7945 114.772 27.7585C114.6 27.5239 114.467 27.2639 114.379 26.9839C114.288 26.7012 114.243 26.4239 114.243 26.1585C114.243 25.9132 114.28 25.6692 114.356 25.4079C114.398 25.2692 114.45 25.1345 114.512 25.0065ZM116.027 24.2932C115.803 24.2932 115.6 24.3479 115.424 24.4559C115.246 24.5679 115.09 24.7159 114.966 24.8932C114.838 25.0759 114.742 25.2812 114.676 25.5025C114.608 25.7305 114.576 25.9465 114.576 26.1585C114.576 26.3892 114.616 26.6319 114.696 26.8825C114.775 27.1265 114.891 27.3559 115.04 27.5599C115.188 27.7625 115.366 27.9279 115.572 28.0559C115.952 28.2932 116.49 28.3012 116.846 28.0772C117.027 27.9625 117.182 27.8159 117.302 27.6399C117.428 27.4572 117.526 27.2519 117.591 27.0292C117.658 26.7999 117.69 26.5839 117.69 26.3692C117.69 26.1305 117.651 25.8852 117.574 25.6399C117.495 25.3905 117.382 25.1625 117.236 24.9639C117.091 24.7652 116.912 24.6012 116.706 24.4772C116.507 24.3545 116.278 24.2932 116.027 24.2932ZM116.122 28.6345C115.794 28.6345 115.482 28.5719 115.196 28.4505C114.907 28.3252 114.652 28.1545 114.442 27.9425C114.228 27.7292 114.058 27.4759 113.934 27.1879C113.812 26.9025 113.75 26.5919 113.75 26.2639C113.75 25.9372 113.812 25.6252 113.934 25.3385C114.058 25.0519 114.228 24.7972 114.443 24.5839C114.654 24.3719 114.908 24.2012 115.196 24.0772C115.768 23.8319 116.467 23.8292 117.047 24.0772C117.332 24.1999 117.586 24.3705 117.8 24.5839C118.014 24.7959 118.184 25.0505 118.307 25.3385C118.43 25.6279 118.492 25.9399 118.492 26.2639C118.492 26.5892 118.43 26.8999 118.307 27.1879C118.184 27.4772 118.014 27.7305 117.8 27.9439C117.587 28.1559 117.334 28.3265 117.047 28.4505C116.759 28.5719 116.448 28.6345 116.122 28.6345Z" fill="#0A0203"/>
<path d="M123.111 26.2636C123.111 25.9516 123.17 25.6609 123.286 25.3929C123.403 25.1249 123.56 24.8916 123.759 24.6916C123.96 24.4956 124.195 24.3396 124.467 24.2276C124.738 24.1156 125.027 24.0582 125.335 24.0582C125.451 24.0582 125.574 24.0662 125.703 24.0796C125.832 24.0956 125.96 24.1196 126.086 24.1529C126.214 24.1849 126.335 24.2302 126.452 24.2836C126.568 24.3382 126.672 24.4022 126.764 24.4769V25.1022C126.678 24.9769 126.578 24.8556 126.466 24.7382C126.354 24.6236 126.23 24.5196 126.096 24.4302C125.963 24.3422 125.822 24.2702 125.672 24.2182C125.522 24.1662 125.367 24.1396 125.21 24.1396C124.951 24.1396 124.722 24.2022 124.523 24.3276C124.322 24.4529 124.154 24.6142 124.016 24.8116C123.879 25.0102 123.775 25.2289 123.703 25.4662C123.634 25.7062 123.598 25.9409 123.598 26.1702C123.598 26.4196 123.639 26.6769 123.726 26.9382C123.811 27.2009 123.932 27.4396 124.087 27.6542C124.246 27.8676 124.434 28.0436 124.656 28.1796C124.879 28.3142 125.131 28.3809 125.41 28.3809C125.522 28.3809 125.644 28.3622 125.778 28.3249C125.911 28.2889 126.035 28.2329 126.152 28.1596C126.268 28.0862 126.366 27.9982 126.443 27.8942C126.52 27.7916 126.559 27.6742 126.559 27.5449C126.559 27.4982 126.559 27.4502 126.562 27.4009C126.564 27.3502 126.566 27.3022 126.566 27.2569C126.566 27.1982 126.562 27.1382 126.555 27.0782C126.55 27.0182 126.535 26.9609 126.515 26.9102C126.494 26.8569 126.466 26.8102 126.427 26.7702C126.39 26.7289 126.338 26.6969 126.271 26.6769H127.24C127.139 26.7089 127.067 26.7702 127.022 26.8596C126.975 26.9502 126.952 27.0422 126.952 27.1382V28.4809C126.931 28.4489 126.908 28.4102 126.88 28.3689C126.854 28.3276 126.823 28.2889 126.79 28.2502C126.756 28.2129 126.72 28.1809 126.684 28.1569C126.646 28.1302 126.604 28.1196 126.559 28.1196C126.538 28.1196 126.518 28.1236 126.496 28.1302C126.475 28.1396 126.455 28.1476 126.434 28.1569C126.254 28.2436 126.078 28.3169 125.903 28.3782C125.728 28.4382 125.538 28.4676 125.335 28.4676C125.027 28.4676 124.738 28.4116 124.467 28.2969C124.195 28.1809 123.96 28.0262 123.759 27.8289C123.56 27.6302 123.403 27.3982 123.286 27.1276C123.17 26.8596 123.111 26.5716 123.111 26.2636Z" fill="#0A0203"/>
<path d="M126.378 24.4316C126.451 24.4916 126.519 24.5556 126.585 24.6236C126.59 24.6276 126.594 24.6329 126.599 24.6382V24.5596C126.534 24.5142 126.462 24.4716 126.382 24.4342L126.378 24.4316ZM123.714 24.9942C123.605 25.1329 123.514 25.2876 123.438 25.4596C123.333 25.7049 123.278 25.9756 123.278 26.2636C123.278 26.5462 123.333 26.8156 123.439 27.0622C123.549 27.3142 123.691 27.5262 123.878 27.7102C123.923 27.7542 123.97 27.7969 124.019 27.8382C123.998 27.8089 123.975 27.7822 123.955 27.7529C123.787 27.5222 123.658 27.2662 123.569 26.9889C123.477 26.7129 123.431 26.4369 123.431 26.1702C123.431 25.9236 123.469 25.6716 123.545 25.4182C123.589 25.2716 123.645 25.1276 123.714 24.9942ZM126.605 27.9556C126.669 27.9609 126.727 27.9836 126.779 28.0196C126.779 28.0196 126.783 28.0222 126.786 28.0236V27.1382C126.786 27.0382 126.805 26.9396 126.846 26.8436H126.667C126.669 26.8476 126.67 26.8489 126.671 26.8529C126.695 26.9089 126.714 26.9836 126.722 27.0649C126.729 27.1262 126.733 27.1916 126.733 27.2569C126.733 27.3049 126.731 27.3556 126.729 27.4089L126.726 27.5449C126.726 27.6929 126.685 27.8316 126.605 27.9556ZM127.119 29.0502L126.741 28.4596C126.718 28.4222 126.691 28.3916 126.665 28.3596C126.641 28.3342 126.618 28.3129 126.593 28.2956L126.497 28.1302L126.527 28.2982C126.33 28.3942 126.145 28.4702 125.958 28.5356C125.479 28.6982 124.882 28.6556 124.402 28.4516C124.111 28.3262 123.857 28.1569 123.643 27.9476C123.43 27.7369 123.258 27.4836 123.133 27.1942C123.009 26.9049 122.945 26.5916 122.945 26.2636C122.945 25.9302 123.009 25.6156 123.131 25.3262C123.258 25.0382 123.43 24.7862 123.643 24.5729C123.862 24.3596 124.118 24.1902 124.403 24.0729C124.802 23.9076 125.222 23.8569 125.722 23.9142C125.866 23.9316 126.001 23.9582 126.13 23.9916C126.261 24.0249 126.394 24.0716 126.522 24.1316C126.657 24.1942 126.77 24.2649 126.871 24.3489L126.933 24.3982V25.6262L126.63 25.1982C126.546 25.0809 126.451 24.9649 126.345 24.8529C126.241 24.7462 126.127 24.6502 126.005 24.5689C125.882 24.4876 125.751 24.4222 125.618 24.3756C125.27 24.2556 124.893 24.2929 124.611 24.4689C124.43 24.5809 124.277 24.7302 124.154 24.9062C124.027 25.0889 123.93 25.2929 123.865 25.5142C123.798 25.7369 123.765 25.9569 123.765 26.1702C123.765 26.4022 123.805 26.6422 123.886 26.8862C123.963 27.1289 124.077 27.3542 124.225 27.5569C124.367 27.7529 124.542 27.9142 124.743 28.0369C125.017 28.2009 125.314 28.2809 125.734 28.1649C125.85 28.1316 125.961 28.0836 126.065 28.0182C126.163 27.9569 126.243 27.8836 126.311 27.7929C126.365 27.7196 126.393 27.6369 126.393 27.5449L126.395 27.4009C126.398 27.3462 126.399 27.2996 126.399 27.2569C126.399 27.2049 126.395 27.1502 126.39 27.0969C126.386 27.0489 126.377 27.0102 126.362 26.9769C126.347 26.9382 126.329 26.9076 126.305 26.8822C126.289 26.8636 126.259 26.8476 126.222 26.8356L125.183 26.5102H128.294L127.293 26.8356C127.234 26.8529 127.195 26.8849 127.17 26.9356C127.135 27.0036 127.119 27.0702 127.119 27.1382V29.0502Z" fill="#0A0203"/>
<path d="M133.149 24.0775C133.028 24.1148 132.949 24.1788 132.908 24.2721C132.869 24.3628 132.848 24.4655 132.848 24.5775V27.9388C132.848 28.0495 132.87 28.1548 132.912 28.2508C132.953 28.3455 133.032 28.4121 133.149 28.4495H132.124C132.245 28.4121 132.325 28.3455 132.365 28.2508C132.404 28.1548 132.424 28.0495 132.424 27.9388V24.5775C132.424 24.4655 132.404 24.3628 132.365 24.2721C132.325 24.1788 132.245 24.1148 132.124 24.0775H133.149Z" fill="#0A0203"/>
<path d="M132.532 28.2832H132.745C132.704 28.1752 132.682 28.0592 132.682 27.9378V24.5778C132.682 24.4578 132.702 24.3458 132.74 24.2445H132.534C132.572 24.3432 132.592 24.4565 132.592 24.5778V27.9378C132.592 28.0605 132.57 28.1765 132.532 28.2832ZM134.212 28.6165H131.042L132.076 28.2912C132.17 28.2605 132.198 28.2165 132.212 28.1872C132.242 28.1112 132.258 28.0298 132.258 27.9378V24.5778C132.258 24.4872 132.242 24.4072 132.213 24.3392C132.205 24.3192 132.184 24.2698 132.076 24.2365L131.042 23.9112H134.256L133.2 24.2365C133.102 24.2658 133.073 24.3098 133.06 24.3378C133.032 24.4072 133.016 24.4872 133.016 24.5778V27.9378C133.016 28.0285 133.032 28.1085 133.064 28.1845C133.078 28.2152 133.108 28.2605 133.201 28.2912L134.212 28.6165Z" fill="#0A0203"/>
<path d="M140.42 26.6633L139.689 24.714L138.946 26.6633H140.42ZM137.902 28.45C137.998 28.4167 138.09 28.3527 138.177 28.2567C138.265 28.1607 138.328 28.0673 138.365 27.9753L139.877 24.022L141.369 27.9633C141.406 28.062 141.46 28.1607 141.529 28.2567C141.597 28.3527 141.685 28.4167 141.794 28.45H140.694C140.765 28.4247 140.825 28.3767 140.873 28.306C140.921 28.2353 140.945 28.162 140.945 28.0873C140.945 28.042 140.924 27.9567 140.882 27.8313C140.84 27.706 140.792 27.5727 140.736 27.4287C140.678 27.286 140.625 27.1473 140.572 27.0167C140.521 26.886 140.482 26.7913 140.457 26.7327H138.926L138.521 27.7887C138.504 27.8287 138.492 27.8727 138.481 27.9153C138.469 27.9607 138.465 28.0047 138.465 28.05C138.465 28.158 138.5 28.2447 138.566 28.306C138.636 28.3687 138.718 28.4167 138.814 28.45H137.902Z" fill="#0A0203"/>
<path d="M139.188 26.4966H140.178L139.688 25.186L139.188 26.4966ZM141.073 28.2833H141.345C141.29 28.198 141.246 28.1113 141.213 28.0233L139.876 24.49L139.828 24.6126L139.845 24.6553L140.609 26.6646C140.634 26.7193 140.668 26.8046 140.716 26.9206L140.89 27.366C140.948 27.514 140.997 27.65 141.041 27.7766C141.09 27.93 141.11 28.0233 141.11 28.0873C141.11 28.154 141.098 28.2193 141.073 28.2833ZM139.042 26.8993L138.676 27.8486C138.661 27.8846 138.652 27.9206 138.642 27.9553C138.636 27.986 138.632 28.018 138.632 28.05C138.632 28.13 138.66 28.1646 138.681 28.1846C138.733 28.2313 138.794 28.2673 138.869 28.2926L139.765 28.594L140.64 28.2926C140.662 28.2846 140.698 28.2673 140.737 28.21C140.764 28.1713 140.777 28.13 140.777 28.0873C140.777 28.0833 140.774 28.0393 140.724 27.882C140.682 27.762 140.636 27.6313 140.581 27.49L140.418 27.078C140.388 27.0033 140.365 26.9446 140.346 26.8993H139.042ZM142.926 28.6166H136.888L137.849 28.2926C137.917 28.2686 137.986 28.2193 138.054 28.1433C138.128 28.0633 138.181 27.9846 138.212 27.9126L139.878 23.5526L141.525 27.9046C141.557 27.99 141.604 28.0766 141.664 28.1593C141.713 28.226 141.77 28.2686 141.842 28.29L142.926 28.6166Z" fill="#0A0203"/>
<path d="M153.131 23.6087L153.307 23.066H153.661L153.237 23.6087H153.131ZM152.601 28.45C152.72 28.4127 152.801 28.346 152.84 28.25C152.881 28.154 152.9 28.05 152.9 27.938V24.578C152.9 24.466 152.881 24.362 152.84 24.2713C152.801 24.1793 152.72 24.1153 152.601 24.078H153.625C153.504 24.1153 153.424 24.1793 153.384 24.2713C153.344 24.362 153.325 24.466 153.325 24.578V27.938C153.325 28.05 153.345 28.154 153.387 28.25C153.429 28.346 153.508 28.4127 153.625 28.45H152.601Z" fill="#0A0203"/>
<path d="M153.318 23.7753H152.902L153.185 22.8993H154.005L153.318 23.7753ZM153.009 28.2833H153.222C153.179 28.1753 153.158 28.058 153.158 27.938V24.578C153.158 24.4566 153.178 24.346 153.215 24.2446H153.01C153.047 24.346 153.067 24.458 153.067 24.578V27.938C153.067 28.0593 153.047 28.1753 153.009 28.2833ZM154.686 28.6166H151.507L152.551 28.2913C152.646 28.2606 152.675 28.2166 152.687 28.186C152.718 28.1126 152.734 28.0273 152.734 27.938V24.578C152.734 24.4873 152.718 24.4073 152.687 24.3366C152.677 24.3086 152.647 24.266 152.551 24.2366L151.507 23.9113H154.719L153.675 24.2366C153.577 24.2673 153.55 24.3073 153.538 24.3366C153.507 24.4073 153.491 24.4873 153.491 24.578V27.938C153.491 28.0246 153.509 28.1073 153.541 28.1846C153.555 28.2166 153.583 28.2606 153.677 28.2913L154.686 28.6166Z" fill="#0A0203"/>
<path d="M158.784 28.4498C158.919 28.4085 159.024 28.3418 159.103 28.2512C159.182 28.1578 159.222 28.0418 159.222 27.9005V24.6458C159.222 24.5005 159.183 24.3805 159.106 24.2872C159.03 24.1938 158.923 24.1232 158.791 24.0778H159.578L162.09 27.6005V24.6272C162.09 24.4858 162.048 24.3685 161.971 24.2778C161.891 24.1858 161.784 24.1192 161.651 24.0778H162.588C162.455 24.1192 162.351 24.1858 162.276 24.2778C162.202 24.3685 162.163 24.4858 162.163 24.6272V28.4498L159.284 24.4085V27.9005C159.284 28.0458 159.326 28.1632 159.41 28.2538C159.492 28.3432 159.6 28.4085 159.734 28.4498H158.784Z" fill="#0A0203"/>
<path d="M159.371 24.2441L161.998 27.9294V27.7601L159.491 24.2441H159.371ZM162.331 28.9708L159.451 24.9294V27.9001C159.451 28.0028 159.477 28.0814 159.531 28.1401C159.595 28.2081 159.677 28.2574 159.785 28.2908L160.833 28.6161H157.697L158.735 28.2908C158.839 28.2588 158.918 28.2094 158.977 28.1414C159.029 28.0814 159.055 28.0014 159.055 27.9001V24.6468C159.055 24.5401 159.029 24.4561 158.977 24.3908C158.919 24.3228 158.841 24.2708 158.735 24.2348L157.791 23.9108H159.118V23.8868L159.134 23.9108H159.663L159.713 23.9814L161.922 27.0801V24.6268C161.922 24.5254 161.898 24.4468 161.845 24.3868C161.786 24.3188 161.706 24.2694 161.602 24.2361L160.554 23.9108H163.686L162.638 24.2361C162.535 24.2694 162.459 24.3161 162.406 24.3828C162.355 24.4428 162.331 24.5254 162.331 24.6268V28.9708Z" fill="#0A0203"/>
<path d="M167.598 24.0775H170.758L170.921 24.7895C170.821 24.6028 170.683 24.4508 170.513 24.3361C170.339 24.2215 170.143 24.1641 169.927 24.1641H169.383V27.9388C169.383 28.0468 169.405 28.1495 169.446 28.2468C169.487 28.3455 169.567 28.4121 169.683 28.4495H168.659C168.781 28.4121 168.859 28.3455 168.901 28.2508C168.939 28.1548 168.959 28.0495 168.959 27.9388L168.965 24.1641H168.434C168.21 24.1641 168.014 24.2215 167.847 24.3361C167.681 24.4508 167.545 24.6041 167.442 24.7961L167.598 24.0775Z" fill="#0A0203"/>
<path d="M169.067 28.2832H169.281C169.24 28.1738 169.217 28.0578 169.217 27.9378V24.2445H169.133L169.127 27.9378C169.127 28.0605 169.105 28.1765 169.067 28.2832ZM170.733 28.6165H167.577L168.611 28.2912C168.705 28.2605 168.733 28.2165 168.747 28.1872C168.777 28.1112 168.793 28.0298 168.793 27.9378L168.8 24.3312H168.435C168.243 24.3312 168.083 24.3778 167.943 24.4738C167.796 24.5752 167.68 24.7058 167.589 24.8752L167.029 25.9112L167.464 23.9112H170.891L171.361 25.9658L170.773 24.8672C170.688 24.7058 170.568 24.5752 170.42 24.4752C170.273 24.3778 170.112 24.3312 169.928 24.3312H169.551V27.9378C169.551 28.0245 169.567 28.1032 169.6 28.1818C169.615 28.2165 169.644 28.2605 169.736 28.2912L170.733 28.6165Z" fill="#0A0203"/>
<path d="M176.856 24.0775C176.735 24.1148 176.655 24.1788 176.615 24.2721C176.575 24.3628 176.555 24.4655 176.555 24.5775V27.9388C176.555 28.0495 176.576 28.1548 176.617 28.2508C176.66 28.3455 176.739 28.4121 176.856 28.4495H175.831C175.951 28.4121 176.032 28.3455 176.071 28.2508C176.111 28.1548 176.131 28.0495 176.131 27.9388V24.5775C176.131 24.4655 176.111 24.3628 176.071 24.2721C176.032 24.1788 175.951 24.1148 175.831 24.0775H176.856Z" fill="#0A0203"/>
<path d="M176.239 28.2832H176.452C176.411 28.1752 176.388 28.0578 176.388 27.9378V24.5778C176.388 24.4592 176.408 24.3472 176.447 24.2445H176.24C176.277 24.3458 176.297 24.4578 176.297 24.5778V27.9378C176.297 28.0592 176.277 28.1752 176.239 28.2832ZM177.917 28.6165H174.737L175.781 28.2912C175.877 28.2605 175.905 28.2165 175.919 28.1858C175.948 28.1125 175.964 28.0285 175.964 27.9378V24.5778C175.964 24.4872 175.948 24.4072 175.919 24.3365C175.907 24.3098 175.877 24.2658 175.781 24.2365L174.737 23.9112H177.949L176.905 24.2365C176.808 24.2672 176.78 24.3085 176.768 24.3365C176.737 24.4098 176.721 24.4898 176.721 24.5778V27.9378C176.721 28.0245 176.739 28.1072 176.771 28.1845C176.785 28.2165 176.815 28.2605 176.907 28.2912L177.917 28.6165Z" fill="#0A0203"/>
<path d="M182.857 24.0775L184.694 27.8308L186.286 24.0775H186.973C186.853 24.1148 186.773 24.1788 186.733 24.2721C186.693 24.3628 186.673 24.4655 186.673 24.5775V27.9441C186.673 28.0561 186.693 28.1601 186.733 28.2535C186.773 28.3468 186.853 28.4121 186.973 28.4495H185.949C186.07 28.4121 186.152 28.3481 186.193 28.2575C186.234 28.1641 186.256 28.0601 186.256 27.9441V24.3455L184.513 28.4428L182.533 24.3708V27.8935C182.533 28.0441 182.576 28.1615 182.661 28.2508C182.745 28.3375 182.856 28.4041 182.989 28.4495H182.014C182.148 28.4041 182.256 28.3361 182.338 28.2468C182.422 28.1575 182.464 28.0401 182.464 27.8935V24.6028C182.464 24.4655 182.42 24.3521 182.329 24.2655C182.24 24.1775 182.134 24.1148 182.014 24.0775H182.857Z" fill="#0A0203"/>
<path d="M182.657 24.2441L184.503 28.0415L184.554 27.9228L184.545 27.9041L182.754 24.2441H182.657ZM186.362 28.2828H186.567C186.527 28.1775 186.509 28.0641 186.509 27.9441V24.5775C186.509 24.4575 186.527 24.3455 186.566 24.2441H186.423V27.9441C186.423 28.0655 186.403 28.1788 186.362 28.2828ZM184.523 28.8455L182.699 25.0948V27.8935C182.699 27.9988 182.726 28.0788 182.782 28.1361C182.847 28.2028 182.935 28.2561 183.043 28.2921L183.987 28.6161H181.017L181.961 28.2921C182.069 28.2561 182.151 28.2041 182.217 28.1335C182.273 28.0748 182.297 27.9988 182.297 27.8935V24.6028C182.297 24.5081 182.271 24.4388 182.214 24.3841C182.142 24.3148 182.061 24.2668 181.965 24.2361L180.921 23.9108H182.366V23.6468L182.495 23.9108H182.962L184.685 27.4308L186.177 23.9108H186.261L186.423 23.5281V23.9108H188.069L187.023 24.2361C186.927 24.2668 186.899 24.3095 186.886 24.3375C186.857 24.4068 186.842 24.4881 186.842 24.5775V27.9441C186.842 28.0348 186.857 28.1161 186.887 28.1895C186.899 28.2161 186.927 28.2615 187.023 28.2908L188.069 28.6161H184.855L185.901 28.2908C186.011 28.2561 186.033 28.2068 186.041 28.1895C186.074 28.1161 186.09 28.0348 186.09 27.9441V25.1628L184.523 28.8455Z" fill="#0A0203"/>
<path d="M194.227 26.6633L193.496 24.714L192.753 26.6633H194.227ZM191.709 28.45C191.805 28.4167 191.896 28.3527 191.984 28.2567C192.072 28.1607 192.135 28.0673 192.171 27.9753L193.683 24.022L195.176 27.9633C195.213 28.062 195.265 28.1607 195.335 28.2567C195.404 28.3527 195.492 28.4167 195.6 28.45H194.501C194.572 28.4247 194.632 28.3767 194.68 28.306C194.727 28.2353 194.752 28.162 194.752 28.0873C194.752 28.042 194.729 27.9567 194.689 27.8313C194.647 27.706 194.597 27.5727 194.541 27.4287C194.485 27.286 194.431 27.1473 194.379 27.0167C194.327 26.886 194.289 26.7913 194.263 26.7327H192.733L192.327 27.7887C192.311 27.8287 192.297 27.8727 192.287 27.9153C192.276 27.9607 192.271 28.0047 192.271 28.05C192.271 28.158 192.307 28.2447 192.373 28.306C192.443 28.3687 192.525 28.4167 192.621 28.45H191.709Z" fill="#0A0203"/>
<path d="M192.995 26.4966H193.986L193.495 25.186L192.995 26.4966ZM194.88 28.2833H195.152C195.099 28.198 195.054 28.1113 195.02 28.0233L193.683 24.49L193.635 24.6126L193.652 24.6553L194.418 26.6673C194.443 26.7273 194.483 26.8233 194.534 26.9553L194.698 27.366C194.755 27.5153 194.804 27.6513 194.847 27.7793C194.911 27.9686 194.918 28.0433 194.918 28.0873C194.918 28.154 194.906 28.2193 194.88 28.2833ZM192.848 26.8993L192.484 27.8486C192.468 27.8846 192.459 27.9206 192.45 27.9553C192.442 27.9846 192.439 28.014 192.439 28.05C192.439 28.1313 192.467 28.1646 192.487 28.1846C192.539 28.2313 192.6 28.2673 192.675 28.2926L193.579 28.5966L194.447 28.2926C194.483 28.2793 194.515 28.2526 194.542 28.2126C194.571 28.17 194.584 28.13 194.584 28.0873C194.584 28.0833 194.582 28.038 194.531 27.8833C194.49 27.7606 194.443 27.63 194.388 27.49L194.224 27.0793C194.196 27.0086 194.174 26.9486 194.152 26.8993H192.848ZM196.746 28.6166H190.708L191.656 28.2926C191.724 28.2686 191.794 28.2193 191.862 28.1433C191.935 28.0633 191.988 27.9846 192.019 27.9126L193.686 23.5526L195.332 27.9046C195.364 27.99 195.411 28.0766 195.471 28.1593C195.519 28.226 195.578 28.2686 195.65 28.29L196.746 28.6166Z" fill="#0A0203"/>
</g>
</svg>
