<?xml version="1.0" encoding="UTF-8" standalone="no"?>
<svg
   xmlns:dc="http://purl.org/dc/elements/1.1/"
   xmlns:cc="http://creativecommons.org/ns#"
   xmlns:rdf="http://www.w3.org/1999/02/22-rdf-syntax-ns#"
   xmlns:svg="http://www.w3.org/2000/svg"
   xmlns="http://www.w3.org/2000/svg"
   viewBox="0 0 401.21332 71.080002"
   height="71.080002"
   width="401.21332"
   xml:space="preserve"
   id="svg2"
   version="1.1"><metadata
     id="metadata8"><rdf:RDF><cc:Work
         rdf:about=""><dc:format>image/svg+xml</dc:format><dc:type
           rdf:resource="http://purl.org/dc/dcmitype/StillImage" /></cc:Work></rdf:RDF></metadata><defs
     id="defs6" /><g
     transform="matrix(1.3333333,0,0,-1.3333333,0,71.08)"
     id="g10"><g
       transform="scale(0.1)"
       id="g12"><path
         id="path14"
         style="fill:none;stroke:#231f20;stroke-width:5.00029993;stroke-linecap:butt;stroke-linejoin:miter;stroke-miterlimit:22.92560005;stroke-dasharray:none;stroke-opacity:1"
         d="M 0,265.336 H 2984.04" /><path
         id="path16"
         style="fill:none;stroke:#231f20;stroke-width:10.00059986;stroke-linecap:butt;stroke-linejoin:miter;stroke-miterlimit:22.92560005;stroke-dasharray:none;stroke-opacity:1"
         d="m 296.895,371.059 c 61.015,0 110.476,-47.336 110.476,-105.727 0,-58.387 -49.461,-105.73 -110.476,-105.73 -61.02,0 -110.489,47.343 -110.489,105.73 0,58.391 49.469,105.727 110.489,105.727 z" /><path
         id="path18"
         style="fill:none;stroke:#231f20;stroke-width:20.00130081;stroke-linecap:butt;stroke-linejoin:miter;stroke-miterlimit:22.92560005;stroke-dasharray:none;stroke-opacity:1"
         d="m 296.891,420.113 c 89.324,0 161.742,-69.297 161.742,-154.781 0,-85.477 -72.418,-154.773 -161.742,-154.773 -89.328,0 -161.739,69.296 -161.739,154.773 0,85.484 72.411,154.781 161.739,154.781 z" /><path
         id="path20"
         style="fill:#f47216;fill-opacity:1;fill-rule:evenodd;stroke:none"
         d="m 266.781,530.637 h 30.11 V 265.332 h -30.11 v 265.305 0" /><path
         id="path22"
         style="fill:none;stroke:#f47216;stroke-width:5.00029993;stroke-linecap:butt;stroke-linejoin:miter;stroke-miterlimit:22.92560005;stroke-dasharray:none;stroke-opacity:1"
         d="m 266.781,530.637 h 30.11 V 265.332 h -30.11 v 265.305 z" /><path
         id="path24"
         style="fill:none;stroke:#231f20;stroke-width:5.00029993;stroke-linecap:butt;stroke-linejoin:miter;stroke-miterlimit:22.92560005;stroke-dasharray:none;stroke-opacity:1"
         d="M 296.891,265.332 V 0" /><path
         id="path26"
         style="fill:#231f20;fill-opacity:1;fill-rule:nonzero;stroke:none"
         d="m 1298.14,301.012 23.08,0.101 22.43,-0.101 c 12.06,0 23.19,1.211 33.38,3.633 10.18,2.449 19.32,7.152 27.41,14.101 8.06,6.949 14.16,15.516 18.31,25.746 4.12,10.235 6.18,20.844 6.18,31.871 0,9.227 -1.34,17.871 -4.01,25.856 -2.71,8.015 -7.26,15.176 -13.65,21.465 -6.43,6.328 -13.77,10.507 -21.96,12.507 -8.24,2.043 -19.14,3.047 -32.76,3.047 l -29.01,-0.105 -23.4,0.105 c 0,-4.597 -0.03,-8.332 -0.11,-11.234 l -2.82,-78.879 -3.07,-48.113 z m 9.11,6.394 5.48,125.539 20.41,0.102 h 25.21 c 7.19,-0.067 13.48,-0.449 18.82,-1.102 5.93,-0.695 10.87,-1.836 14.81,-3.39 3.97,-1.59 7.77,-3.977 11.37,-7.086 3.66,-3.145 6.84,-6.981 9.58,-11.512 2.49,-3.969 4.3,-8.258 5.53,-12.855 1.69,-6.325 2.53,-12.961 2.53,-19.84 0,-7.153 -0.87,-14.211 -2.65,-21.227 -1.76,-6.976 -4.47,-13.34 -8.09,-19.07 -3.64,-5.742 -8.3,-10.93 -13.98,-15.594 -5.66,-4.668 -11.48,-7.844 -17.4,-9.609 -5.93,-1.766 -12.64,-2.973 -20.15,-3.633 -7.52,-0.688 -14.85,-1.035 -21.97,-1.035 -7.18,0 -17.01,0.101 -29.5,0.312 z m 144.22,-6.394 c 1.84,0.066 3.25,0.101 4.22,0.101 0.98,0 2.43,-0.035 4.23,-0.101 0,7.152 0.14,18.183 0.43,33.113 0.18,11.063 0.69,20.914 1.45,29.551 0.47,5.566 1.44,10.23 2.85,14.101 1.12,3.321 2.82,6.434 5.1,9.371 2.23,2.934 4.55,5.254 6.93,6.95 2.35,1.656 4.91,2.968 7.62,3.832 2.71,0.863 5.78,1.312 9.18,1.312 3.46,0 7.55,-0.551 12.28,-1.691 -0.3,2.285 -0.44,4.597 -0.44,6.879 -2.96,0.652 -5.89,1 -8.77,1 -3.98,0 -7.77,-0.414 -11.38,-1.278 -3.65,-0.832 -6.83,-2.043 -9.54,-3.629 -2.71,-1.585 -5.09,-3.558 -7.15,-5.949 -2.06,-2.347 -4.26,-5.84 -6.68,-10.433 l 0.97,19.144 c -1.33,-0.066 -2.63,-0.097 -3.93,-0.097 -1.2,0 -2.5,0.031 -3.9,0.097 l 0.1,-9.121 c 0,-9.367 -0.39,-23.68 -1.15,-42.934 -0.76,-19.246 -1.59,-35.976 -2.42,-50.218 z m 74.69,91.527 c 4.73,1.832 8.63,3.18 11.74,4.008 3.11,0.863 6.9,1.594 11.42,2.246 4.51,0.66 9.35,0.969 14.52,0.969 4.44,0 8.67,-0.383 12.67,-1.106 4.05,-0.761 7.41,-2.074 10.11,-3.972 2.72,-1.871 4.6,-3.871 5.68,-6.016 1.05,-2.145 1.59,-4.355 1.59,-6.637 0,-3.179 -1.16,-6.289 -3.4,-9.363 -2.28,-3.082 -5.41,-5.465 -9.53,-7.195 -4.08,-1.727 -8.42,-3.145 -13.01,-4.321 -10.15,-2.484 -15.96,-3.941 -17.44,-4.355 -5.38,-1.484 -10.36,-3.109 -15.03,-4.84 -4.01,-1.484 -7.69,-3.312 -11.02,-5.492 -2.81,-1.727 -5.06,-3.633 -6.75,-5.668 -2.06,-2.418 -3.58,-4.977 -4.55,-7.641 -0.97,-2.664 -1.48,-5.426 -1.48,-8.258 0,-3.703 0.79,-7.261 2.42,-10.652 1.62,-3.351 4.15,-6.32 7.51,-8.879 3.4,-2.594 7.59,-4.32 12.61,-5.187 5.02,-0.864 10.47,-1.313 16.4,-1.313 3.17,0 6.53,0.141 10.11,0.449 3.54,0.313 8.2,1 13.91,2.075 0.43,2.558 0.94,5.152 1.58,7.707 -4.58,-1.418 -8.09,-2.383 -10.51,-2.903 -2.46,-0.48 -5.06,-0.898 -7.8,-1.211 -2.74,-0.312 -5.6,-0.449 -8.55,-0.449 -5.93,0 -10.99,0.656 -15.18,1.973 -4.19,1.312 -7.7,3.594 -10.44,6.844 -2.74,3.25 -4.11,7.054 -4.11,11.445 0,2.898 0.58,5.629 1.7,8.223 0.96,2.14 2.52,4.218 4.65,6.152 2.39,2.246 5.39,4.25 9,6.082 3.32,1.695 8.02,3.492 14.08,5.391 2.68,0.796 7.12,2.007 13.36,3.628 6.25,1.625 10.19,2.7 11.82,3.184 1.63,0.516 3.4,1.137 5.34,1.828 1.95,0.727 3.57,1.422 4.95,2.078 1.41,0.688 2.68,1.45 3.83,2.282 1.15,0.863 2.86,2.14 5.02,3.898 -0.43,-6.426 -0.75,-13.305 -1.02,-20.695 -0.24,-7.399 -0.57,-14.313 -0.93,-20.703 -0.39,-6.438 -1.08,-14.797 -2.09,-25.133 1.76,0.066 3.25,0.101 4.44,0.101 1.12,0 2.64,-0.035 4.44,-0.101 v 8.504 c 0,3.902 0.18,10.332 0.54,19.179 0.36,8.887 0.72,16.317 1.16,22.262 0.43,5.949 0.75,11.477 1.01,16.66 0.25,5.153 0.36,9.438 0.36,12.789 0,3.321 -0.54,6.567 -1.62,9.746 -1.13,3.149 -3.36,5.981 -6.8,8.438 -3.43,2.484 -7.83,4.219 -13.21,5.289 -5.42,1.031 -11.24,1.551 -17.52,1.551 -5.42,0 -10.8,-0.348 -16.08,-1.071 -5.31,-0.691 -11.55,-2.004 -18.74,-3.906 -0.29,-2.973 -0.65,-5.598 -1.16,-7.914 z m 101.5,-91.527 c 2.46,0.066 4.44,0.101 5.92,0.101 1.41,0 3.36,-0.035 5.81,-0.101 0.15,1.625 0.26,3.351 0.34,5.218 0.06,1.833 0.17,3.766 0.32,5.805 -2.49,-0.062 -4.44,-0.101 -5.93,-0.101 -1.41,0 -3.39,0.039 -5.92,0.101 -0.07,-1.347 -0.14,-2.832 -0.18,-4.457 -0.04,-1.625 -0.15,-3.805 -0.36,-6.566 z m 141.66,0 c 2.46,0.066 4.48,0.101 6.03,0.101 1.48,0 3.47,-0.035 5.92,-0.101 5.86,12.168 12.9,25.886 21.17,41.199 l 27.74,51.742 c 10.22,19.254 18.49,34.36 24.85,45.285 -1.77,-0.074 -3.44,-0.105 -4.99,-0.105 -1.51,0 -3.17,0.031 -4.94,0.105 -2.53,-5.394 -4.63,-9.683 -6.25,-12.859 l -5.49,-10.957 -57.47,-108.258 -42,113.34 -6.15,18.734 c -1.76,-0.074 -3.36,-0.105 -4.76,-0.105 -1.34,0 -2.92,0.031 -4.77,0.105 l 39.15,-103.593 c 2.89,-7.774 4.92,-13.239 6.03,-16.415 0.76,-2.218 1.52,-4.492 2.21,-6.781 l 3.72,-11.437 z m 97.74,128.199 c 1.77,0.141 3.54,0.207 5.38,0.207 1.84,0 3.64,-0.066 5.41,-0.207 l 0.33,10.027 c -1.77,-0.074 -3.57,-0.105 -5.42,-0.105 -1.84,0 -3.65,0.031 -5.38,0.105 l -0.32,-10.027 z m -3.83,-128.199 c 1.84,0.066 3.24,0.101 4.22,0.101 0.98,0 2.38,-0.035 4.23,-0.101 0,11.058 0.47,27.683 1.45,49.808 0.93,22.153 1.95,39.645 2.92,52.465 -1.84,-0.066 -3.29,-0.097 -4.33,-0.097 -0.98,0 -2.38,0.031 -4.23,0.097 0,-7.703 -0.51,-24.121 -1.55,-49.32 -1.01,-25.164 -1.92,-42.828 -2.71,-52.953 z m 38.94,0 c 1.83,0.066 3.25,0.101 4.22,0.101 0.97,0 2.42,-0.035 4.23,-0.101 0,7.152 0.14,18.183 0.43,33.113 0.18,11.063 0.69,20.914 1.44,29.551 0.47,5.566 1.45,10.23 2.86,14.101 1.11,3.321 2.81,6.434 5.09,9.371 2.24,2.934 4.55,5.254 6.93,6.95 2.36,1.656 4.92,2.968 7.63,3.832 2.71,0.863 5.77,1.312 9.17,1.312 3.47,0 7.55,-0.551 12.29,-1.691 -0.3,2.285 -0.44,4.597 -0.44,6.879 -2.96,0.652 -5.89,1 -8.78,1 -3.97,0 -7.77,-0.414 -11.37,-1.278 -3.65,-0.832 -6.84,-2.043 -9.54,-3.629 -2.71,-1.585 -5.1,-3.558 -7.15,-5.949 -2.06,-2.347 -4.27,-5.84 -6.69,-10.433 l 0.98,19.144 c -1.34,-0.066 -2.64,-0.097 -3.94,-0.097 -1.19,0 -2.49,0.031 -3.9,0.097 l 0.11,-9.121 c 0,-9.367 -0.4,-23.68 -1.16,-42.934 -0.75,-19.246 -1.58,-35.976 -2.41,-50.218 z m 74.4,-36.985 c 0.36,-2.562 0.62,-5.218 0.76,-7.98 7.18,-1.633 13.51,-2.734 18.92,-3.281 5.42,-0.586 11.03,-0.871 16.73,-0.871 7.76,0 14.73,0.722 20.95,2.218 5.7,1.375 10.4,3.172 14.16,5.489 3.72,2.285 6.82,5.082 9.31,8.402 2.46,3.316 4.3,7.051 5.5,11.23 1.11,3.907 1.84,8.403 2.09,13.481 l 1.22,42.445 2.35,46.387 c 0.22,3.562 0.44,6.461 0.66,8.68 l 1.08,11.644 c -13.76,2.383 -25.47,3.559 -35.1,3.559 -9.55,0 -18.39,-1.176 -26.6,-3.559 -8.15,-2.348 -15.38,-6.258 -21.63,-11.68 -6.21,-5.429 -11.05,-12.343 -14.41,-20.707 -3.4,-8.367 -5.09,-17.113 -5.09,-26.23 0,-6.676 1.11,-13.039 3.39,-19.082 2.25,-6.051 5.6,-10.992 10.01,-14.832 4.4,-3.871 9.39,-6.602 15.03,-8.227 5.59,-1.621 11.66,-2.418 18.23,-2.418 4.08,0 8.06,0.383 11.85,1.106 3.83,0.762 7.3,1.762 10.44,3.109 3.14,1.313 5.92,2.805 8.35,4.457 2.45,1.633 4.58,3.492 6.38,5.567 1.85,2.043 3.29,4.011 4.3,5.875 1.01,1.836 2.25,4.394 3.65,7.64 -0.21,-10.543 -0.57,-20.008 -1.08,-28.375 -0.22,-5.187 -0.79,-10.062 -1.74,-14.586 -0.97,-4.527 -2.38,-8.297 -4.3,-11.34 -1.62,-2.554 -3.89,-4.906 -6.85,-6.98 -3.33,-2.316 -7.34,-4.082 -12.07,-5.391 -5.17,-1.484 -10.73,-2.207 -16.72,-2.207 -5.06,0 -10.66,0.438 -16.73,1.309 -6.03,0.867 -13.72,2.586 -23.04,5.148 z m 85.25,133.075 -1.27,-34.704 c -0.47,-9.195 -1.34,-16.73 -2.53,-22.574 -0.9,-4.215 -2.42,-8.293 -4.48,-12.304 -2.09,-4.043 -4.52,-7.536 -7.26,-10.508 -2.74,-2.969 -5.6,-5.352 -8.59,-7.114 -3,-1.8 -6.22,-3.117 -9.57,-3.906 -4.42,-1.074 -9.11,-1.629 -14.2,-1.629 -7.47,0 -14.31,1.59 -20.48,4.801 -6.15,3.219 -10.7,7.988 -13.62,14.348 -2.93,6.328 -4.41,13.414 -4.41,21.258 0,8.156 1.59,16.07 4.78,23.71 3.17,7.61 7.61,13.86 13.35,18.739 5.75,4.836 12.08,8.156 19.01,9.922 6.89,1.757 14.4,2.621 22.53,2.621 3.07,0 6.65,-0.137 10.66,-0.414 4.05,-0.278 9.39,-1.004 16.08,-2.246 z m 35.39,-96.09 c 1.84,0.066 3.25,0.101 4.23,0.101 0.97,0 2.38,-0.035 4.22,-0.101 0,11.058 0.47,27.683 1.45,49.808 0.94,22.153 1.94,39.645 2.92,52.465 -1.85,-0.066 -3.28,-0.097 -4.34,-0.097 -0.96,0 -2.38,0.031 -4.22,0.097 0,-7.703 -0.5,-24.121 -1.55,-49.32 -1.01,-25.164 -1.91,-42.828 -2.71,-52.953 z m 2.42,115.136 c 0.58,0.137 1.26,0.204 2.13,0.204 0.91,0 1.62,-0.067 2.2,-0.204 1.84,3.247 4.77,8.122 8.78,14.618 4.05,6.535 6.9,11.062 8.6,13.621 -1.77,-0.071 -3.83,-0.106 -6.14,-0.106 -2.32,0 -4.38,0.035 -6.15,0.106 -2.81,-8.574 -4.83,-14.586 -6.02,-18.008 -1.2,-3.457 -2.36,-6.848 -3.4,-10.231 z m 36.51,-115.136 c 1.85,0.066 3.25,0.101 4.23,0.101 0.98,0 2.38,-0.035 4.23,-0.101 0,8.922 0.28,19.804 0.79,32.664 0.54,12.855 1.23,22.121 2.06,27.789 0.9,6.566 2.24,11.648 4.01,15.312 2.35,4.981 5.35,9.121 8.99,12.407 3.69,3.254 7.95,5.738 12.83,7.433 5.16,1.762 11.09,2.625 17.76,2.625 4.81,0 9.47,-0.515 13.99,-1.551 4.51,-1.074 8.41,-2.734 11.7,-5.082 3.28,-2.316 5.59,-5.254 6.93,-8.746 1.34,-3.527 2.02,-7.5 2.02,-11.957 0,-4.254 -0.29,-11.164 -0.87,-20.777 l -1.47,-25.926 c -0.44,-7.672 -0.98,-15.758 -1.7,-24.191 1.34,0.066 2.68,0.101 4,0.101 1.34,0 2.72,-0.035 4.13,-0.101 l 0.43,16.519 2.24,46.078 c 0.22,4.11 0.32,7.219 0.32,9.297 0,4.668 -0.68,9.051 -2.06,13.133 -1.36,4.078 -3.89,7.707 -7.58,10.82 -3.69,3.145 -8.31,5.36 -13.87,6.637 -5.56,1.281 -11.34,1.934 -17.27,1.934 -3.53,0 -7.08,-0.242 -10.69,-0.758 -3.61,-0.52 -7.11,-1.317 -10.54,-2.422 -3.44,-1.137 -6.36,-2.523 -8.78,-4.145 -2.46,-1.664 -4.55,-3.46 -6.33,-5.328 -1.76,-1.898 -3.13,-3.66 -4.18,-5.32 -1.01,-1.656 -2.31,-4.078 -3.86,-7.258 l 1.44,23.086 c -1.84,-0.066 -3.18,-0.097 -4.01,-0.097 -0.91,0 -2.28,0.031 -4.12,0.097 0,-2.347 -0.07,-6.144 -0.22,-11.336 l -0.93,-29.066 -3.62,-61.871 z m 128.8,128.199 c 1.78,0.141 3.55,0.207 5.39,0.207 1.84,0 3.64,-0.066 5.41,-0.207 l 0.33,10.027 c -1.77,-0.074 -3.57,-0.105 -5.42,-0.105 -1.84,0 -3.65,0.031 -5.38,0.105 l -0.33,-10.027 z m -3.83,-128.199 c 1.85,0.066 3.26,0.101 4.23,0.101 0.98,0 2.38,-0.035 4.23,-0.101 0,11.058 0.47,27.683 1.45,49.808 0.93,22.153 1.94,39.645 2.92,52.465 -1.84,-0.066 -3.29,-0.097 -4.33,-0.097 -0.98,0 -2.39,0.031 -4.23,0.097 0,-7.703 -0.51,-24.121 -1.55,-49.32 -1.02,-25.164 -1.92,-42.828 -2.72,-52.953 z m 45.48,91.527 c 4.73,1.832 8.63,3.18 11.74,4.008 3.11,0.863 6.89,1.594 11.42,2.246 4.51,0.66 9.34,0.969 14.52,0.969 4.43,0 8.66,-0.383 12.67,-1.106 4.05,-0.761 7.41,-2.074 10.11,-3.972 2.72,-1.871 4.59,-3.871 5.67,-6.016 1.05,-2.145 1.6,-4.355 1.6,-6.637 0,-3.179 -1.17,-6.289 -3.4,-9.363 -2.28,-3.082 -5.42,-5.465 -9.53,-7.195 -4.09,-1.727 -8.42,-3.145 -13.01,-4.321 -10.15,-2.484 -15.96,-3.941 -17.44,-4.355 -5.39,-1.484 -10.37,-3.109 -15.03,-4.84 -4.01,-1.484 -7.69,-3.312 -11.02,-5.492 -2.81,-1.727 -5.06,-3.633 -6.76,-5.668 -2.05,-2.418 -3.57,-4.977 -4.55,-7.641 -0.96,-2.664 -1.47,-5.426 -1.47,-8.258 0,-3.703 0.79,-7.261 2.42,-10.652 1.62,-3.351 4.15,-6.32 7.51,-8.879 3.39,-2.594 7.59,-4.32 12.61,-5.187 5.02,-0.864 10.47,-1.313 16.39,-1.313 3.18,0 6.54,0.141 10.11,0.449 3.55,0.313 8.21,1 13.91,2.075 0.44,2.558 0.95,5.152 1.59,7.707 -4.59,-1.418 -8.09,-2.383 -10.51,-2.903 -2.46,-0.48 -5.06,-0.898 -7.8,-1.211 -2.74,-0.312 -5.6,-0.449 -8.56,-0.449 -5.92,0 -10.98,0.656 -15.17,1.973 -4.19,1.312 -7.7,3.594 -10.44,6.844 -2.74,3.25 -4.11,7.054 -4.11,11.445 0,2.898 0.57,5.629 1.69,8.223 0.97,2.14 2.53,4.218 4.66,6.152 2.38,2.246 5.38,4.25 8.99,6.082 3.33,1.695 8.03,3.492 14.09,5.391 2.68,0.796 7.12,2.007 13.36,3.628 6.25,1.625 10.19,2.7 11.82,3.184 1.62,0.516 3.4,1.137 5.34,1.828 1.95,0.727 3.57,1.422 4.95,2.078 1.41,0.688 2.68,1.45 3.83,2.282 1.15,0.863 2.85,2.14 5.02,3.898 -0.43,-6.426 -0.76,-13.305 -1.02,-20.695 -0.24,-7.399 -0.57,-14.313 -0.93,-20.703 -0.4,-6.438 -1.09,-14.797 -2.09,-25.133 1.76,0.066 3.24,0.101 4.44,0.101 1.11,0 2.64,-0.035 4.44,-0.101 v 8.504 c 0,3.902 0.18,10.332 0.54,19.179 0.36,8.887 0.72,16.317 1.15,22.262 0.44,5.949 0.76,11.477 1.02,16.66 0.25,5.153 0.36,9.438 0.36,12.789 0,3.321 -0.54,6.567 -1.62,9.746 -1.13,3.149 -3.36,5.981 -6.8,8.438 -3.43,2.484 -7.84,4.219 -13.22,5.289 -5.41,1.031 -11.23,1.551 -17.51,1.551 -5.42,0 -10.8,-0.348 -16.08,-1.071 -5.31,-0.691 -11.56,-2.004 -18.75,-3.906 -0.28,-2.973 -0.64,-5.598 -1.15,-7.914 z m 155.78,-91.527 c 1.77,0.066 3.32,0.101 4.66,0.101 1.34,0 2.93,-0.035 4.77,-0.101 0.08,6.289 0.18,11.023 0.33,14.242 0.14,3.18 0.28,6.391 0.5,9.57 l 5.63,74.524 c 0.76,10.05 1.16,16.73 1.49,20.047 l 0.57,5.925 3.87,-2.191 46.12,-122.117 c 1.7,0.066 3.55,0.101 5.61,0.101 2.05,0 3.89,-0.035 5.59,-0.101 l 42.98,93.187 15.83,36.098 2.16,-11.699 c 1.48,-8.078 -0.11,-17.739 -0.32,-28.446 l -1.81,-89.14 c 1.77,0.066 3.43,0.101 4.98,0.101 1.45,0 3.11,-0.035 4.95,-0.101 -0.4,12.269 -0.61,29 -0.61,50.117 0,6.43 0.07,16.25 0.25,29.484 l 1.01,58.625 c -2.39,-0.074 -4.69,-0.105 -6.86,-0.105 -2.2,0 -4.48,0.031 -6.9,0.105 -2.17,-5.258 -3.9,-9.336 -5.17,-12.168 l -55.87,-118.246 -7.62,19.633 -27.82,74.414 c -4.25,11.406 -7.04,18.981 -8.38,22.711 l -4.65,13.656 c -2.45,-0.074 -4.73,-0.105 -6.87,-0.105 -2.02,0 -4.3,0.031 -6.75,0.105 l -3.29,-45.179 -6.14,-74.313 -2.24,-18.734 z m 272.16,0 c 0,4.457 0.07,9.816 0.22,16.105 l 0.44,15.278 3.89,70.89 c -1.83,-0.066 -3.21,-0.097 -4.12,-0.097 -0.94,0 -2.34,0.031 -4.22,0.097 -0.08,-10.676 -0.36,-22.394 -0.87,-35.254 -0.61,-13.34 -1.27,-22.57 -2.06,-27.683 -0.76,-5.082 -1.98,-9.368 -3.57,-12.828 -1.85,-3.903 -4.08,-7.36 -6.69,-10.332 -2.24,-2.559 -4.87,-4.704 -7.83,-6.465 -2.96,-1.762 -6.68,-3.246 -11.17,-4.422 -4.48,-1.18 -9.13,-1.766 -14.01,-1.766 -4.66,0 -9.17,0.488 -13.58,1.418 -4.41,0.938 -8.34,2.594 -11.85,4.906 -3.5,2.356 -5.92,5.293 -7.36,8.887 -1.41,3.559 -2.1,7.914 -2.1,13.067 0,4.593 0.55,16.035 1.66,34.32 1.09,18.289 1.92,30.347 2.5,36.152 -1.85,-0.066 -3.21,-0.097 -4.12,-0.097 -0.94,0 -2.31,0.031 -4.11,0.097 0,-10.262 -0.52,-23.5 -1.46,-39.746 -0.97,-16.25 -1.44,-26.41 -1.44,-30.519 0,-5.36 0.76,-10.129 2.24,-14.348 1.48,-4.215 4.22,-7.91 8.31,-11.094 4.05,-3.18 8.7,-5.39 13.94,-6.672 5.27,-1.277 10.95,-1.929 17.01,-1.929 3.51,0 7.01,0.238 10.51,0.718 3.5,0.453 6.9,1.246 10.22,2.317 3.32,1.074 6.18,2.386 8.63,3.91 2.43,1.519 4.45,3.105 6.08,4.801 1.62,1.695 2.96,3.285 3.96,4.804 1.02,1.524 2.36,4.016 3.98,7.465 l -0.87,-21.98 c 1.42,0.066 2.71,0.101 3.94,0.101 1.2,0 2.5,-0.035 3.9,-0.101 z m -33.77,124.258 c 1.7,0.066 3.51,0.105 5.41,0.105 1.82,0 3.62,-0.039 5.38,-0.105 l 0.33,10.023 c -1.76,-0.066 -3.57,-0.102 -5.42,-0.102 -1.84,0 -3.61,0.036 -5.38,0.102 l -0.32,-10.023 z m -26.66,0 c 1.7,0.066 3.51,0.105 5.42,0.105 1.81,0 3.61,-0.039 5.38,-0.105 l 0.32,10.023 c -1.76,-0.066 -3.57,-0.102 -5.42,-0.102 -1.83,0 -3.6,0.036 -5.38,0.102 l -0.32,-10.023 z m 91.1,-124.258 c 1.84,0.066 3.29,0.101 4.33,0.101 1.05,0 2.49,-0.035 4.34,-0.101 l 3.02,88.898 2.68,49.328 c -1.85,-0.074 -3.29,-0.105 -4.34,-0.105 -1.04,0 -2.49,0.031 -4.33,0.105 -0.58,-35.847 -2.45,-81.922 -5.7,-138.226 z m 40.52,0 c 1.85,0.066 3.28,0.101 4.34,0.101 1.04,0 2.49,-0.035 4.32,-0.101 l 3.04,88.898 2.68,49.328 c -1.85,-0.074 -3.29,-0.105 -4.34,-0.105 -1.04,0 -2.49,0.031 -4.33,0.105 -0.58,-35.847 -2.46,-81.922 -5.71,-138.226 z m 120.42,9.816 c -11.56,-4.183 -22.07,-6.293 -31.53,-6.293 -6.21,0 -12.1,0.969 -17.67,2.942 -5.59,1.968 -10.36,4.972 -14.33,9.015 -4.02,4.051 -6.98,9.094 -8.96,15.11 -1.99,5.98 -2.96,12.203 -2.96,18.628 0,2.211 0.18,5.532 0.54,9.922 l 83.69,0.102 c 0.14,1.488 0.22,3.043 0.22,4.668 0,8.711 -1.77,16.246 -5.35,22.566 -3.58,6.364 -8.56,10.926 -14.99,13.723 -6.39,2.805 -13.58,4.219 -21.45,4.219 -11.52,0 -21.17,-2.696 -28.9,-8.09 -7.77,-5.426 -13.37,-12.231 -16.73,-20.426 -3.38,-8.191 -5.08,-17.008 -5.08,-26.371 0,-7.152 0.96,-13.93 2.96,-20.289 1.98,-6.328 5.31,-12.066 9.97,-17.145 4.62,-5.117 10.22,-8.746 16.75,-10.957 6.54,-2.175 14.02,-3.285 22.5,-3.285 4.88,0 9.61,0.313 14.27,0.969 4.66,0.625 9.93,1.762 15.78,3.391 0.3,2.554 0.69,5.113 1.27,7.601 z m -73.97,54.891 c 0.97,4.043 1.91,7.254 2.82,9.57 0.86,2.32 2.13,4.774 3.79,7.367 1.66,2.555 3.79,4.942 6.36,7.114 2.57,2.218 5.34,4.015 8.31,5.429 2.96,1.418 6.24,2.52 9.82,3.356 3.61,0.793 7.26,1.207 11.02,1.207 3.39,0 6.64,-0.348 9.74,-1 3.08,-0.692 5.89,-1.696 8.38,-3.008 2.53,-1.316 4.7,-2.941 6.58,-4.875 1.88,-1.902 3.47,-4.18 4.8,-6.809 1.38,-2.664 2.27,-5.218 2.78,-7.707 0.47,-2.492 0.76,-6.086 0.83,-10.75 l -75.23,0.106 z m 102.55,-64.707 c 1.83,0.066 3.25,0.101 4.22,0.101 0.97,0 2.42,-0.035 4.22,-0.101 0,7.152 0.15,18.183 0.43,33.113 0.19,11.063 0.7,20.914 1.45,29.551 0.47,5.566 1.44,10.23 2.85,14.101 1.12,3.321 2.82,6.434 5.1,9.371 2.23,2.934 4.55,5.254 6.93,6.95 2.36,1.656 4.91,2.968 7.62,3.832 2.71,0.863 5.78,1.312 9.18,1.312 3.47,0 7.55,-0.551 12.28,-1.691 -0.29,2.285 -0.44,4.597 -0.44,6.879 -2.95,0.652 -5.88,1 -8.77,1 -3.98,0 -7.77,-0.414 -11.38,-1.278 -3.64,-0.832 -6.83,-2.043 -9.53,-3.629 -2.71,-1.585 -5.1,-3.558 -7.16,-5.949 -2.05,-2.347 -4.26,-5.84 -6.68,-10.433 l 0.98,19.144 c -1.34,-0.066 -2.64,-0.097 -3.94,-0.097 -1.19,0 -2.49,0.031 -3.9,0.097 l 0.11,-9.121 c 0,-9.367 -0.4,-23.68 -1.16,-42.934 -0.75,-19.246 -1.58,-35.976 -2.41,-50.218 v 0" /><path
         id="path28"
         style="fill:none;stroke:#231f20;stroke-width:0.2;stroke-linecap:butt;stroke-linejoin:miter;stroke-miterlimit:22.92560005;stroke-dasharray:none;stroke-opacity:1"
         d="m 1298.14,301.012 23.08,0.101 22.43,-0.101 c 12.06,0 23.19,1.211 33.38,3.633 10.18,2.449 19.32,7.152 27.41,14.101 8.06,6.949 14.16,15.516 18.31,25.746 4.12,10.235 6.18,20.844 6.18,31.871 0,9.227 -1.34,17.871 -4.01,25.856 -2.71,8.015 -7.26,15.176 -13.65,21.465 -6.43,6.328 -13.77,10.507 -21.96,12.507 -8.24,2.043 -19.14,3.047 -32.76,3.047 l -29.01,-0.105 -23.4,0.105 c 0,-4.597 -0.03,-8.332 -0.11,-11.234 l -2.82,-78.879 -3.07,-48.113 z m 9.11,6.394 5.48,125.539 20.41,0.102 h 25.21 c 7.19,-0.067 13.48,-0.449 18.82,-1.102 5.93,-0.695 10.87,-1.836 14.81,-3.39 3.97,-1.59 7.77,-3.977 11.37,-7.086 3.66,-3.145 6.84,-6.981 9.58,-11.512 2.49,-3.969 4.3,-8.258 5.53,-12.855 1.69,-6.325 2.53,-12.961 2.53,-19.84 0,-7.153 -0.87,-14.211 -2.65,-21.227 -1.76,-6.976 -4.47,-13.34 -8.09,-19.07 -3.64,-5.742 -8.3,-10.93 -13.98,-15.594 -5.66,-4.668 -11.48,-7.844 -17.4,-9.609 -5.93,-1.766 -12.64,-2.973 -20.15,-3.633 -7.52,-0.688 -14.85,-1.035 -21.97,-1.035 -7.18,0 -17.01,0.101 -29.5,0.312 z m 144.22,-6.394 c 1.84,0.066 3.25,0.101 4.22,0.101 0.98,0 2.43,-0.035 4.23,-0.101 0,7.152 0.14,18.183 0.43,33.113 0.18,11.063 0.69,20.914 1.45,29.551 0.47,5.566 1.44,10.23 2.85,14.101 1.12,3.321 2.82,6.434 5.1,9.371 2.23,2.934 4.55,5.254 6.93,6.95 2.35,1.656 4.91,2.968 7.62,3.832 2.71,0.863 5.78,1.312 9.18,1.312 3.46,0 7.55,-0.551 12.28,-1.691 -0.3,2.285 -0.44,4.597 -0.44,6.879 -2.96,0.652 -5.89,1 -8.77,1 -3.98,0 -7.77,-0.414 -11.38,-1.278 -3.65,-0.832 -6.83,-2.043 -9.54,-3.629 -2.71,-1.585 -5.09,-3.558 -7.15,-5.949 -2.06,-2.347 -4.26,-5.84 -6.68,-10.433 l 0.97,19.144 c -1.33,-0.066 -2.63,-0.097 -3.93,-0.097 -1.2,0 -2.5,0.031 -3.9,0.097 l 0.1,-9.121 c 0,-9.367 -0.39,-23.68 -1.15,-42.934 -0.76,-19.246 -1.59,-35.976 -2.42,-50.218 z m 74.69,91.527 c 4.73,1.832 8.63,3.18 11.74,4.008 3.11,0.863 6.9,1.594 11.42,2.246 4.51,0.66 9.35,0.969 14.52,0.969 4.44,0 8.67,-0.383 12.67,-1.106 4.05,-0.761 7.41,-2.074 10.11,-3.972 2.72,-1.871 4.6,-3.871 5.68,-6.016 1.05,-2.145 1.59,-4.355 1.59,-6.637 0,-3.179 -1.16,-6.289 -3.4,-9.363 -2.28,-3.082 -5.41,-5.465 -9.53,-7.195 -4.08,-1.727 -8.42,-3.145 -13.01,-4.321 -10.15,-2.484 -15.96,-3.941 -17.44,-4.355 -5.38,-1.484 -10.36,-3.109 -15.03,-4.84 -4.01,-1.484 -7.69,-3.312 -11.02,-5.492 -2.81,-1.727 -5.06,-3.633 -6.75,-5.668 -2.06,-2.418 -3.58,-4.977 -4.55,-7.641 -0.97,-2.664 -1.48,-5.426 -1.48,-8.258 0,-3.703 0.79,-7.261 2.42,-10.652 1.62,-3.351 4.15,-6.32 7.51,-8.879 3.4,-2.594 7.59,-4.32 12.61,-5.187 5.02,-0.864 10.47,-1.313 16.4,-1.313 3.17,0 6.53,0.141 10.11,0.449 3.54,0.313 8.2,1 13.91,2.075 0.43,2.558 0.94,5.152 1.58,7.707 -4.58,-1.418 -8.09,-2.383 -10.51,-2.903 -2.46,-0.48 -5.06,-0.898 -7.8,-1.211 -2.74,-0.312 -5.6,-0.449 -8.55,-0.449 -5.93,0 -10.99,0.656 -15.18,1.973 -4.19,1.312 -7.7,3.594 -10.44,6.844 -2.74,3.25 -4.11,7.054 -4.11,11.445 0,2.898 0.58,5.629 1.7,8.223 0.96,2.14 2.52,4.218 4.65,6.152 2.39,2.246 5.39,4.25 9,6.082 3.32,1.695 8.02,3.492 14.08,5.391 2.68,0.796 7.12,2.007 13.36,3.628 6.25,1.625 10.19,2.7 11.82,3.184 1.63,0.516 3.4,1.137 5.34,1.828 1.95,0.727 3.57,1.422 4.95,2.078 1.41,0.688 2.68,1.45 3.83,2.282 1.15,0.863 2.86,2.14 5.02,3.898 -0.43,-6.426 -0.75,-13.305 -1.02,-20.695 -0.24,-7.399 -0.57,-14.313 -0.93,-20.703 -0.39,-6.438 -1.08,-14.797 -2.09,-25.133 1.76,0.066 3.25,0.101 4.44,0.101 1.12,0 2.64,-0.035 4.44,-0.101 v 8.504 c 0,3.902 0.18,10.332 0.54,19.179 0.36,8.887 0.72,16.317 1.16,22.262 0.43,5.949 0.75,11.477 1.01,16.66 0.25,5.153 0.36,9.438 0.36,12.789 0,3.321 -0.54,6.567 -1.62,9.746 -1.13,3.149 -3.36,5.981 -6.8,8.438 -3.43,2.484 -7.83,4.219 -13.21,5.289 -5.42,1.031 -11.24,1.551 -17.52,1.551 -5.42,0 -10.8,-0.348 -16.08,-1.071 -5.31,-0.691 -11.55,-2.004 -18.74,-3.906 -0.29,-2.973 -0.65,-5.598 -1.16,-7.914 z m 101.5,-91.527 c 2.46,0.066 4.44,0.101 5.92,0.101 1.41,0 3.36,-0.035 5.81,-0.101 0.15,1.625 0.26,3.351 0.34,5.218 0.06,1.833 0.17,3.766 0.32,5.805 -2.49,-0.062 -4.44,-0.101 -5.93,-0.101 -1.41,0 -3.39,0.039 -5.92,0.101 -0.07,-1.347 -0.14,-2.832 -0.18,-4.457 -0.04,-1.625 -0.15,-3.805 -0.36,-6.566 z m 141.66,0 c 2.46,0.066 4.48,0.101 6.03,0.101 1.48,0 3.47,-0.035 5.92,-0.101 5.86,12.168 12.9,25.886 21.17,41.199 l 27.74,51.742 c 10.22,19.254 18.49,34.36 24.85,45.285 -1.77,-0.074 -3.44,-0.105 -4.99,-0.105 -1.51,0 -3.17,0.031 -4.94,0.105 -2.53,-5.394 -4.63,-9.683 -6.25,-12.859 l -5.49,-10.957 -57.47,-108.258 -42,113.34 -6.15,18.734 c -1.76,-0.074 -3.36,-0.105 -4.76,-0.105 -1.34,0 -2.92,0.031 -4.77,0.105 l 39.15,-103.593 c 2.89,-7.774 4.92,-13.239 6.03,-16.415 0.76,-2.218 1.52,-4.492 2.21,-6.781 l 3.72,-11.437 z m 97.74,128.199 c 1.77,0.141 3.54,0.207 5.38,0.207 1.84,0 3.64,-0.066 5.41,-0.207 l 0.33,10.027 c -1.77,-0.074 -3.57,-0.105 -5.42,-0.105 -1.84,0 -3.65,0.031 -5.38,0.105 l -0.32,-10.027 z m -3.83,-128.199 c 1.84,0.066 3.24,0.101 4.22,0.101 0.98,0 2.38,-0.035 4.23,-0.101 0,11.058 0.47,27.683 1.45,49.808 0.93,22.153 1.95,39.645 2.92,52.465 -1.84,-0.066 -3.29,-0.097 -4.33,-0.097 -0.98,0 -2.38,0.031 -4.23,0.097 0,-7.703 -0.51,-24.121 -1.55,-49.32 -1.01,-25.164 -1.92,-42.828 -2.71,-52.953 z m 38.94,0 c 1.83,0.066 3.25,0.101 4.22,0.101 0.97,0 2.42,-0.035 4.23,-0.101 0,7.152 0.14,18.183 0.43,33.113 0.18,11.063 0.69,20.914 1.44,29.551 0.47,5.566 1.45,10.23 2.86,14.101 1.11,3.321 2.81,6.434 5.09,9.371 2.24,2.934 4.55,5.254 6.93,6.95 2.36,1.656 4.92,2.968 7.63,3.832 2.71,0.863 5.77,1.312 9.17,1.312 3.47,0 7.55,-0.551 12.29,-1.691 -0.3,2.285 -0.44,4.597 -0.44,6.879 -2.96,0.652 -5.89,1 -8.78,1 -3.97,0 -7.77,-0.414 -11.37,-1.278 -3.65,-0.832 -6.84,-2.043 -9.54,-3.629 -2.71,-1.585 -5.1,-3.558 -7.15,-5.949 -2.06,-2.347 -4.27,-5.84 -6.69,-10.433 l 0.98,19.144 c -1.34,-0.066 -2.64,-0.097 -3.94,-0.097 -1.19,0 -2.49,0.031 -3.9,0.097 l 0.11,-9.121 c 0,-9.367 -0.4,-23.68 -1.16,-42.934 -0.75,-19.246 -1.58,-35.976 -2.41,-50.218 z m 74.4,-36.985 c 0.36,-2.562 0.62,-5.218 0.76,-7.98 7.18,-1.633 13.51,-2.734 18.92,-3.281 5.42,-0.586 11.03,-0.871 16.73,-0.871 7.76,0 14.73,0.722 20.95,2.218 5.7,1.375 10.4,3.172 14.16,5.489 3.72,2.285 6.82,5.082 9.31,8.402 2.46,3.316 4.3,7.051 5.5,11.23 1.11,3.907 1.84,8.403 2.09,13.481 l 1.22,42.445 2.35,46.387 c 0.22,3.562 0.44,6.461 0.66,8.68 l 1.08,11.644 c -13.76,2.383 -25.47,3.559 -35.1,3.559 -9.55,0 -18.39,-1.176 -26.6,-3.559 -8.15,-2.348 -15.38,-6.258 -21.63,-11.68 -6.21,-5.429 -11.05,-12.343 -14.41,-20.707 -3.4,-8.367 -5.09,-17.113 -5.09,-26.23 0,-6.676 1.11,-13.039 3.39,-19.082 2.25,-6.051 5.6,-10.992 10.01,-14.832 4.4,-3.871 9.39,-6.602 15.03,-8.227 5.59,-1.621 11.66,-2.418 18.23,-2.418 4.08,0 8.06,0.383 11.85,1.106 3.83,0.762 7.3,1.762 10.44,3.109 3.14,1.313 5.92,2.805 8.35,4.457 2.45,1.633 4.58,3.492 6.38,5.567 1.85,2.043 3.29,4.011 4.3,5.875 1.01,1.836 2.25,4.394 3.65,7.64 -0.21,-10.543 -0.57,-20.008 -1.08,-28.375 -0.22,-5.187 -0.79,-10.062 -1.74,-14.586 -0.97,-4.527 -2.38,-8.297 -4.3,-11.34 -1.62,-2.554 -3.89,-4.906 -6.85,-6.98 -3.33,-2.316 -7.34,-4.082 -12.07,-5.391 -5.17,-1.484 -10.73,-2.207 -16.72,-2.207 -5.06,0 -10.66,0.438 -16.73,1.309 -6.03,0.867 -13.72,2.586 -23.04,5.148 z m 85.25,133.075 -1.27,-34.704 c -0.47,-9.195 -1.34,-16.73 -2.53,-22.574 -0.9,-4.215 -2.42,-8.293 -4.48,-12.304 -2.09,-4.043 -4.52,-7.536 -7.26,-10.508 -2.74,-2.969 -5.6,-5.352 -8.59,-7.114 -3,-1.8 -6.22,-3.117 -9.57,-3.906 -4.42,-1.074 -9.11,-1.629 -14.2,-1.629 -7.47,0 -14.31,1.59 -20.48,4.801 -6.15,3.219 -10.7,7.988 -13.62,14.348 -2.93,6.328 -4.41,13.414 -4.41,21.258 0,8.156 1.59,16.07 4.78,23.71 3.17,7.61 7.61,13.86 13.35,18.739 5.75,4.836 12.08,8.156 19.01,9.922 6.89,1.757 14.4,2.621 22.53,2.621 3.07,0 6.65,-0.137 10.66,-0.414 4.05,-0.278 9.39,-1.004 16.08,-2.246 z m 35.39,-96.09 c 1.84,0.066 3.25,0.101 4.23,0.101 0.97,0 2.38,-0.035 4.22,-0.101 0,11.058 0.47,27.683 1.45,49.808 0.94,22.153 1.94,39.645 2.92,52.465 -1.85,-0.066 -3.28,-0.097 -4.34,-0.097 -0.96,0 -2.38,0.031 -4.22,0.097 0,-7.703 -0.5,-24.121 -1.55,-49.32 -1.01,-25.164 -1.91,-42.828 -2.71,-52.953 z m 2.42,115.136 c 0.58,0.137 1.26,0.204 2.13,0.204 0.91,0 1.62,-0.067 2.2,-0.204 1.84,3.247 4.77,8.122 8.78,14.618 4.05,6.535 6.9,11.062 8.6,13.621 -1.77,-0.071 -3.83,-0.106 -6.14,-0.106 -2.32,0 -4.38,0.035 -6.15,0.106 -2.81,-8.574 -4.83,-14.586 -6.02,-18.008 -1.2,-3.457 -2.36,-6.848 -3.4,-10.231 z m 36.51,-115.136 c 1.85,0.066 3.25,0.101 4.23,0.101 0.98,0 2.38,-0.035 4.23,-0.101 0,8.922 0.28,19.804 0.79,32.664 0.54,12.855 1.23,22.121 2.06,27.789 0.9,6.566 2.24,11.648 4.01,15.312 2.35,4.981 5.35,9.121 8.99,12.407 3.69,3.254 7.95,5.738 12.83,7.433 5.16,1.762 11.09,2.625 17.76,2.625 4.81,0 9.47,-0.515 13.99,-1.551 4.51,-1.074 8.41,-2.734 11.7,-5.082 3.28,-2.316 5.59,-5.254 6.93,-8.746 1.34,-3.527 2.02,-7.5 2.02,-11.957 0,-4.254 -0.29,-11.164 -0.87,-20.777 l -1.47,-25.926 c -0.44,-7.672 -0.98,-15.758 -1.7,-24.191 1.34,0.066 2.68,0.101 4,0.101 1.34,0 2.72,-0.035 4.13,-0.101 l 0.43,16.519 2.24,46.078 c 0.22,4.11 0.32,7.219 0.32,9.297 0,4.668 -0.68,9.051 -2.06,13.133 -1.36,4.078 -3.89,7.707 -7.58,10.82 -3.69,3.145 -8.31,5.36 -13.87,6.637 -5.56,1.281 -11.34,1.934 -17.27,1.934 -3.53,0 -7.08,-0.242 -10.69,-0.758 -3.61,-0.52 -7.11,-1.317 -10.54,-2.422 -3.44,-1.137 -6.36,-2.523 -8.78,-4.145 -2.46,-1.664 -4.55,-3.46 -6.33,-5.328 -1.76,-1.898 -3.13,-3.66 -4.18,-5.32 -1.01,-1.656 -2.31,-4.078 -3.86,-7.258 l 1.44,23.086 c -1.84,-0.066 -3.18,-0.097 -4.01,-0.097 -0.91,0 -2.28,0.031 -4.12,0.097 0,-2.347 -0.07,-6.144 -0.22,-11.336 l -0.93,-29.066 -3.62,-61.871 z m 128.8,128.199 c 1.78,0.141 3.55,0.207 5.39,0.207 1.84,0 3.64,-0.066 5.41,-0.207 l 0.33,10.027 c -1.77,-0.074 -3.57,-0.105 -5.42,-0.105 -1.84,0 -3.65,0.031 -5.38,0.105 l -0.33,-10.027 z m -3.83,-128.199 c 1.85,0.066 3.26,0.101 4.23,0.101 0.98,0 2.38,-0.035 4.23,-0.101 0,11.058 0.47,27.683 1.45,49.808 0.93,22.153 1.94,39.645 2.92,52.465 -1.84,-0.066 -3.29,-0.097 -4.33,-0.097 -0.98,0 -2.39,0.031 -4.23,0.097 0,-7.703 -0.51,-24.121 -1.55,-49.32 -1.02,-25.164 -1.92,-42.828 -2.72,-52.953 z m 45.48,91.527 c 4.73,1.832 8.63,3.18 11.74,4.008 3.11,0.863 6.89,1.594 11.42,2.246 4.51,0.66 9.34,0.969 14.52,0.969 4.43,0 8.66,-0.383 12.67,-1.106 4.05,-0.761 7.41,-2.074 10.11,-3.972 2.72,-1.871 4.59,-3.871 5.67,-6.016 1.05,-2.145 1.6,-4.355 1.6,-6.637 0,-3.179 -1.17,-6.289 -3.4,-9.363 -2.28,-3.082 -5.42,-5.465 -9.53,-7.195 -4.09,-1.727 -8.42,-3.145 -13.01,-4.321 -10.15,-2.484 -15.96,-3.941 -17.44,-4.355 -5.39,-1.484 -10.37,-3.109 -15.03,-4.84 -4.01,-1.484 -7.69,-3.312 -11.02,-5.492 -2.81,-1.727 -5.06,-3.633 -6.76,-5.668 -2.05,-2.418 -3.57,-4.977 -4.55,-7.641 -0.96,-2.664 -1.47,-5.426 -1.47,-8.258 0,-3.703 0.79,-7.261 2.42,-10.652 1.62,-3.351 4.15,-6.32 7.51,-8.879 3.39,-2.594 7.59,-4.32 12.61,-5.187 5.02,-0.864 10.47,-1.313 16.39,-1.313 3.18,0 6.54,0.141 10.11,0.449 3.55,0.313 8.21,1 13.91,2.075 0.44,2.558 0.95,5.152 1.59,7.707 -4.59,-1.418 -8.09,-2.383 -10.51,-2.903 -2.46,-0.48 -5.06,-0.898 -7.8,-1.211 -2.74,-0.312 -5.6,-0.449 -8.56,-0.449 -5.92,0 -10.98,0.656 -15.17,1.973 -4.19,1.312 -7.7,3.594 -10.44,6.844 -2.74,3.25 -4.11,7.054 -4.11,11.445 0,2.898 0.57,5.629 1.69,8.223 0.97,2.14 2.53,4.218 4.66,6.152 2.38,2.246 5.38,4.25 8.99,6.082 3.33,1.695 8.03,3.492 14.09,5.391 2.68,0.796 7.12,2.007 13.36,3.628 6.25,1.625 10.19,2.7 11.82,3.184 1.62,0.516 3.4,1.137 5.34,1.828 1.95,0.727 3.57,1.422 4.95,2.078 1.41,0.688 2.68,1.45 3.83,2.282 1.15,0.863 2.85,2.14 5.02,3.898 -0.43,-6.426 -0.76,-13.305 -1.02,-20.695 -0.24,-7.399 -0.57,-14.313 -0.93,-20.703 -0.4,-6.438 -1.09,-14.797 -2.09,-25.133 1.76,0.066 3.24,0.101 4.44,0.101 1.11,0 2.64,-0.035 4.44,-0.101 v 8.504 c 0,3.902 0.18,10.332 0.54,19.179 0.36,8.887 0.72,16.317 1.15,22.262 0.44,5.949 0.76,11.477 1.02,16.66 0.25,5.153 0.36,9.438 0.36,12.789 0,3.321 -0.54,6.567 -1.62,9.746 -1.13,3.149 -3.36,5.981 -6.8,8.438 -3.43,2.484 -7.84,4.219 -13.22,5.289 -5.41,1.031 -11.23,1.551 -17.51,1.551 -5.42,0 -10.8,-0.348 -16.08,-1.071 -5.31,-0.691 -11.56,-2.004 -18.75,-3.906 -0.28,-2.973 -0.64,-5.598 -1.15,-7.914 z m 155.78,-91.527 c 1.77,0.066 3.32,0.101 4.66,0.101 1.34,0 2.93,-0.035 4.77,-0.101 0.08,6.289 0.18,11.023 0.33,14.242 0.14,3.18 0.28,6.391 0.5,9.57 l 5.63,74.524 c 0.76,10.05 1.16,16.73 1.49,20.047 l 0.57,5.925 3.87,-2.191 46.12,-122.117 c 1.7,0.066 3.55,0.101 5.61,0.101 2.05,0 3.89,-0.035 5.59,-0.101 l 42.98,93.187 15.83,36.098 2.16,-11.699 c 1.48,-8.078 -0.11,-17.739 -0.32,-28.446 l -1.81,-89.14 c 1.77,0.066 3.43,0.101 4.98,0.101 1.45,0 3.11,-0.035 4.95,-0.101 -0.4,12.269 -0.61,29 -0.61,50.117 0,6.43 0.07,16.25 0.25,29.484 l 1.01,58.625 c -2.39,-0.074 -4.69,-0.105 -6.86,-0.105 -2.2,0 -4.48,0.031 -6.9,0.105 -2.17,-5.258 -3.9,-9.336 -5.17,-12.168 l -55.87,-118.246 -7.62,19.633 -27.82,74.414 c -4.25,11.406 -7.04,18.981 -8.38,22.711 l -4.65,13.656 c -2.45,-0.074 -4.73,-0.105 -6.87,-0.105 -2.02,0 -4.3,0.031 -6.75,0.105 l -3.29,-45.179 -6.14,-74.313 -2.24,-18.734 z m 272.16,0 c 0,4.457 0.07,9.816 0.22,16.105 l 0.44,15.278 3.89,70.89 c -1.83,-0.066 -3.21,-0.097 -4.12,-0.097 -0.94,0 -2.34,0.031 -4.22,0.097 -0.08,-10.676 -0.36,-22.394 -0.87,-35.254 -0.61,-13.34 -1.27,-22.57 -2.06,-27.683 -0.76,-5.082 -1.98,-9.368 -3.57,-12.828 -1.85,-3.903 -4.08,-7.36 -6.69,-10.332 -2.24,-2.559 -4.87,-4.704 -7.83,-6.465 -2.96,-1.762 -6.68,-3.246 -11.17,-4.422 -4.48,-1.18 -9.13,-1.766 -14.01,-1.766 -4.66,0 -9.17,0.488 -13.58,1.418 -4.41,0.938 -8.34,2.594 -11.85,4.906 -3.5,2.356 -5.92,5.293 -7.36,8.887 -1.41,3.559 -2.1,7.914 -2.1,13.067 0,4.593 0.55,16.035 1.66,34.32 1.09,18.289 1.92,30.347 2.5,36.152 -1.85,-0.066 -3.21,-0.097 -4.12,-0.097 -0.94,0 -2.31,0.031 -4.11,0.097 0,-10.262 -0.52,-23.5 -1.46,-39.746 -0.97,-16.25 -1.44,-26.41 -1.44,-30.519 0,-5.36 0.76,-10.129 2.24,-14.348 1.48,-4.215 4.22,-7.91 8.31,-11.094 4.05,-3.18 8.7,-5.39 13.94,-6.672 5.27,-1.277 10.95,-1.929 17.01,-1.929 3.51,0 7.01,0.238 10.51,0.718 3.5,0.453 6.9,1.246 10.22,2.317 3.32,1.074 6.18,2.386 8.63,3.91 2.43,1.519 4.45,3.105 6.08,4.801 1.62,1.695 2.96,3.285 3.96,4.804 1.02,1.524 2.36,4.016 3.98,7.465 l -0.87,-21.98 c 1.42,0.066 2.71,0.101 3.94,0.101 1.2,0 2.5,-0.035 3.9,-0.101 z m -33.77,124.258 c 1.7,0.066 3.51,0.105 5.41,0.105 1.82,0 3.62,-0.039 5.38,-0.105 l 0.33,10.023 c -1.76,-0.066 -3.57,-0.102 -5.42,-0.102 -1.84,0 -3.61,0.036 -5.38,0.102 l -0.32,-10.023 z m -26.66,0 c 1.7,0.066 3.51,0.105 5.42,0.105 1.81,0 3.61,-0.039 5.38,-0.105 l 0.32,10.023 c -1.76,-0.066 -3.57,-0.102 -5.42,-0.102 -1.83,0 -3.6,0.036 -5.38,0.102 l -0.32,-10.023 z m 91.1,-124.258 c 1.84,0.066 3.29,0.101 4.33,0.101 1.05,0 2.49,-0.035 4.34,-0.101 l 3.02,88.898 2.68,49.328 c -1.85,-0.074 -3.29,-0.105 -4.34,-0.105 -1.04,0 -2.49,0.031 -4.33,0.105 -0.58,-35.847 -2.45,-81.922 -5.7,-138.226 z m 40.52,0 c 1.85,0.066 3.28,0.101 4.34,0.101 1.04,0 2.49,-0.035 4.32,-0.101 l 3.04,88.898 2.68,49.328 c -1.85,-0.074 -3.29,-0.105 -4.34,-0.105 -1.04,0 -2.49,0.031 -4.33,0.105 -0.58,-35.847 -2.46,-81.922 -5.71,-138.226 z m 120.42,9.816 c -11.56,-4.183 -22.07,-6.293 -31.53,-6.293 -6.21,0 -12.1,0.969 -17.67,2.942 -5.59,1.968 -10.36,4.972 -14.33,9.015 -4.02,4.051 -6.98,9.094 -8.96,15.11 -1.99,5.98 -2.96,12.203 -2.96,18.628 0,2.211 0.18,5.532 0.54,9.922 l 83.69,0.102 c 0.14,1.488 0.22,3.043 0.22,4.668 0,8.711 -1.77,16.246 -5.35,22.566 -3.58,6.364 -8.56,10.926 -14.99,13.723 -6.39,2.805 -13.58,4.219 -21.45,4.219 -11.52,0 -21.17,-2.696 -28.9,-8.09 -7.77,-5.426 -13.37,-12.231 -16.73,-20.426 -3.38,-8.191 -5.08,-17.008 -5.08,-26.371 0,-7.152 0.96,-13.93 2.96,-20.289 1.98,-6.328 5.31,-12.066 9.97,-17.145 4.62,-5.117 10.22,-8.746 16.75,-10.957 6.54,-2.175 14.02,-3.285 22.5,-3.285 4.88,0 9.61,0.313 14.27,0.969 4.66,0.625 9.93,1.762 15.78,3.391 0.3,2.554 0.69,5.113 1.27,7.601 z m -73.97,54.891 c 0.97,4.043 1.91,7.254 2.82,9.57 0.86,2.32 2.13,4.774 3.79,7.367 1.66,2.555 3.79,4.942 6.36,7.114 2.57,2.218 5.34,4.015 8.31,5.429 2.96,1.418 6.24,2.52 9.82,3.356 3.61,0.793 7.26,1.207 11.02,1.207 3.39,0 6.64,-0.348 9.74,-1 3.08,-0.692 5.89,-1.696 8.38,-3.008 2.53,-1.316 4.7,-2.941 6.58,-4.875 1.88,-1.902 3.47,-4.18 4.8,-6.809 1.38,-2.664 2.27,-5.218 2.78,-7.707 0.47,-2.492 0.76,-6.086 0.83,-10.75 l -75.23,0.106 z m 102.55,-64.707 c 1.83,0.066 3.25,0.101 4.22,0.101 0.97,0 2.42,-0.035 4.22,-0.101 0,7.152 0.15,18.183 0.43,33.113 0.19,11.063 0.7,20.914 1.45,29.551 0.47,5.566 1.44,10.23 2.85,14.101 1.12,3.321 2.82,6.434 5.1,9.371 2.23,2.934 4.55,5.254 6.93,6.95 2.36,1.656 4.91,2.968 7.62,3.832 2.71,0.863 5.78,1.312 9.18,1.312 3.47,0 7.55,-0.551 12.28,-1.691 -0.29,2.285 -0.44,4.597 -0.44,6.879 -2.95,0.652 -5.88,1 -8.77,1 -3.98,0 -7.77,-0.414 -11.38,-1.278 -3.64,-0.832 -6.83,-2.043 -9.53,-3.629 -2.71,-1.585 -5.1,-3.558 -7.16,-5.949 -2.05,-2.347 -4.26,-5.84 -6.68,-10.433 l 0.98,19.144 c -1.34,-0.066 -2.64,-0.097 -3.94,-0.097 -1.19,0 -2.49,0.031 -3.9,0.097 l 0.11,-9.121 c 0,-9.367 -0.4,-23.68 -1.16,-42.934 -0.75,-19.246 -1.58,-35.976 -2.41,-50.218 z" /><g
         transform="scale(10)"
         id="g30"><text
           id="text34"
           style="font-variant:normal;font-weight:normal;font-size:10.13070011px;font-family:ErasITCbyBT;-inkscape-font-specification:ErasITCbyBT-Book;writing-mode:lr-tb;fill:#231f20;fill-opacity:1;fill-rule:nonzero;stroke:none"
           transform="matrix(1,0,0,-1,127.573,13.9578)"><tspan
             id="tspan32"
             y="0"
             x="0 6.9501972 9.6806688 15.240739 17.095718 22.655777 28.186041 30.040531 35.07666 37.69873 40.319824 42.941891 49.194817 54.328606 59.760246 68.480934 73.912575 79.047356 83.50486 86.125954 91.384743 96.64257 99.264641 104.52343 109.78126 115.04005 117.66112 120.28318 122.90427 128.03905 136.01367 141.44434 144.06641 149.3252 154.58302 159.84181 165.09964">Urologia . CREMERS 24 804 . RQE 16942</tspan></text>
</g></g></g></svg>