<svg width="402" height="72" viewBox="0 0 402 72" fill="none" xmlns="http://www.w3.org/2000/svg">
<g clip-path="url(#clip0_161_15)">
<path d="M0 35.7019H397.872" stroke="white" stroke-width="0.666707" stroke-miterlimit="22.9256"/>
<path d="M39.5861 21.6055C47.7214 21.6055 54.3162 27.917 54.3162 35.7025C54.3162 43.4874 47.7214 49.7998 39.5861 49.7998C31.4501 49.7998 24.8542 43.4874 24.8542 35.7025C24.8542 27.917 31.4501 21.6055 39.5861 21.6055Z" stroke="white" stroke-width="1.33341" stroke-miterlimit="22.9256"/>
<path d="M39.5855 15.065C51.4953 15.065 61.1511 24.3046 61.1511 35.7025C61.1511 47.0994 51.4953 56.3389 39.5855 56.3389C27.6751 56.3389 18.0203 47.0994 18.0203 35.7025C18.0203 24.3046 27.6751 15.065 39.5855 15.065Z" stroke="white" stroke-width="2.66684" stroke-miterlimit="22.9256"/>
<path fill-rule="evenodd" clip-rule="evenodd" d="M35.5708 0.328392H39.5855V35.7024H35.5708V0.328392Z" fill="#F47216"/>
<path d="M35.5708 0.328392H39.5855V35.7024H35.5708V0.328392Z" stroke="#F47216" stroke-width="0.666707" stroke-miterlimit="22.9256"/>
<path d="M39.5854 35.7025V71.0801" stroke="white" stroke-width="0.666707" stroke-miterlimit="22.9256"/>
<path d="M173.085 30.9452L176.163 30.9317L179.153 30.9452C180.761 30.9452 182.245 30.7837 183.604 30.4608C184.961 30.1343 186.18 29.5072 187.259 28.5807C188.333 27.6541 189.147 26.5119 189.7 25.1479C190.249 23.7832 190.524 22.3687 190.524 20.8984C190.524 19.6681 190.345 18.5156 189.989 17.4509C189.628 16.3823 189.021 15.4275 188.169 14.5889C187.312 13.7452 186.333 13.188 185.241 12.9213C184.143 12.6489 182.689 12.5151 180.873 12.5151L177.005 12.5291L173.885 12.5151C173.885 13.128 173.881 13.626 173.871 14.0129L173.495 24.5301L173.085 30.9452ZM174.3 30.0927L175.031 13.3541L177.752 13.3405H181.113C182.072 13.3495 182.911 13.4004 183.623 13.4875C184.413 13.5801 185.072 13.7323 185.597 13.9395C186.127 14.1515 186.633 14.4697 187.113 14.8843C187.601 15.3036 188.025 15.8151 188.391 16.4192C188.723 16.9484 188.964 17.5203 189.128 18.1332C189.353 18.9765 189.465 19.8613 189.465 20.7785C189.465 21.7323 189.349 22.6733 189.112 23.6088C188.877 24.5389 188.516 25.3875 188.033 26.1515C187.548 26.9171 186.927 27.6088 186.169 28.2307C185.415 28.8531 184.639 29.2765 183.849 29.5119C183.059 29.7473 182.164 29.9083 181.163 29.9963C180.16 30.088 179.183 30.1343 178.233 30.1343C177.276 30.1343 175.965 30.1208 174.3 30.0927ZM193.529 30.9452C193.775 30.9364 193.963 30.9317 194.092 30.9317C194.223 30.9317 194.416 30.9364 194.656 30.9452C194.656 29.9916 194.675 28.5208 194.713 26.5301C194.737 25.0551 194.805 23.7416 194.907 22.59C194.969 21.8479 195.099 21.226 195.287 20.7099C195.436 20.2671 195.663 19.852 195.967 19.4604C196.264 19.0692 196.573 18.7599 196.891 18.5337C197.204 18.3129 197.545 18.138 197.907 18.0228C198.268 17.9077 198.677 17.8479 199.131 17.8479C199.592 17.8479 200.137 17.9213 200.768 18.0733C200.728 17.7687 200.709 17.4604 200.709 17.1561C200.315 17.0692 199.924 17.0228 199.54 17.0228C199.009 17.0228 198.504 17.078 198.023 17.1932C197.536 17.3041 197.112 17.4656 196.751 17.6771C196.389 17.8884 196.072 18.1515 195.797 18.4703C195.523 18.7832 195.229 19.2489 194.907 19.8613L195.036 17.3088C194.859 17.3176 194.685 17.3217 194.512 17.3217C194.352 17.3217 194.179 17.3176 193.992 17.3088L194.005 18.5249C194.005 19.7739 193.953 21.6823 193.852 24.2495C193.751 26.8156 193.64 29.0463 193.529 30.9452ZM203.488 18.7416C204.119 18.4973 204.639 18.3176 205.053 18.2072C205.468 18.0921 205.973 17.9947 206.576 17.9077C207.177 17.8197 207.823 17.7785 208.512 17.7785C209.104 17.7785 209.668 17.8296 210.201 17.926C210.741 18.0275 211.189 18.2025 211.549 18.4556C211.912 18.7051 212.163 18.9717 212.307 19.2577C212.447 19.5437 212.519 19.8384 212.519 20.1427C212.519 20.5665 212.364 20.9812 212.065 21.3911C211.761 21.802 211.344 22.1197 210.795 22.3504C210.251 22.5807 209.672 22.7697 209.06 22.9265C207.707 23.2577 206.932 23.452 206.735 23.5072C206.017 23.7051 205.353 23.9217 204.731 24.1525C204.196 24.3504 203.705 24.5941 203.261 24.8848C202.887 25.1151 202.587 25.3692 202.361 25.6405C202.087 25.9629 201.884 26.3041 201.755 26.6593C201.625 27.0145 201.557 27.3828 201.557 27.7604C201.557 28.2541 201.663 28.7285 201.88 29.1807C202.096 29.6275 202.433 30.0233 202.881 30.3645C203.335 30.7104 203.893 30.9405 204.563 31.0561C205.232 31.1713 205.959 31.2312 206.749 31.2312C207.172 31.2312 207.62 31.2124 208.097 31.1713C208.569 31.1296 209.191 31.038 209.952 30.8947C210.009 30.5536 210.077 30.2077 210.163 29.8671C209.552 30.0561 209.084 30.1848 208.761 30.2541C208.433 30.3181 208.087 30.3739 207.721 30.4156C207.356 30.4572 206.975 30.4755 206.581 30.4755C205.791 30.4755 205.116 30.388 204.557 30.2124C203.999 30.0375 203.531 29.7332 203.165 29.2999C202.8 28.8665 202.617 28.3593 202.617 27.7739C202.617 27.3875 202.695 27.0233 202.844 26.6775C202.972 26.3921 203.18 26.1151 203.464 25.8572C203.783 25.5577 204.183 25.2905 204.664 25.0463C205.107 24.8203 205.733 24.5807 206.541 24.3275C206.899 24.2213 207.491 24.0599 208.323 23.8437C209.156 23.6271 209.681 23.4837 209.899 23.4192C210.116 23.3504 210.352 23.2676 210.611 23.1755C210.871 23.0785 211.087 22.9859 211.271 22.8984C211.459 22.8067 211.628 22.7051 211.781 22.5941C211.935 22.4791 212.163 22.3088 212.451 22.0744C212.393 22.9312 212.351 23.8484 212.315 24.8337C212.283 25.8203 212.239 26.7421 212.191 27.5941C212.139 28.4525 212.047 29.5671 211.912 30.9452C212.147 30.9364 212.345 30.9317 212.504 30.9317C212.653 30.9317 212.856 30.9364 213.096 30.9452V29.8113C213.096 29.2911 213.12 28.4337 213.168 27.2541C213.216 26.0692 213.264 25.0785 213.323 24.2859C213.38 23.4927 213.423 22.7556 213.457 22.0645C213.491 21.3775 213.505 20.8061 213.505 20.3593C213.505 19.9165 213.433 19.4837 213.289 19.0599C213.139 18.64 212.841 18.2624 212.383 17.9348C211.925 17.6036 211.339 17.3723 210.621 17.2296C209.899 17.0921 209.123 17.0228 208.285 17.0228C207.563 17.0228 206.845 17.0692 206.141 17.1656C205.433 17.2577 204.601 17.4328 203.643 17.6864C203.604 18.0828 203.556 18.4328 203.488 18.7416ZM217.021 30.9452C217.349 30.9364 217.613 30.9317 217.811 30.9317C217.999 30.9317 218.259 30.9364 218.585 30.9452C218.605 30.7285 218.62 30.4984 218.631 30.2495C218.639 30.0051 218.653 29.7473 218.673 29.4755C218.341 29.4837 218.081 29.4889 217.883 29.4889C217.695 29.4889 217.431 29.4837 217.093 29.4755C217.084 29.6551 217.075 29.8531 217.069 30.0697C217.064 30.2864 217.049 30.5771 217.021 30.9452ZM235.909 30.9452C236.237 30.9364 236.507 30.9317 236.713 30.9317C236.911 30.9317 237.176 30.9364 237.503 30.9452C238.284 29.3228 239.223 27.4937 240.325 25.452L244.024 18.5531C245.387 15.9859 246.489 13.9717 247.337 12.5151C247.101 12.5249 246.879 12.5291 246.672 12.5291C246.471 12.5291 246.249 12.5249 246.013 12.5151C245.676 13.2343 245.396 13.8061 245.18 14.2296L244.448 15.6905L236.785 30.1249L231.185 15.0129L230.365 12.5151C230.131 12.5249 229.917 12.5291 229.731 12.5291C229.552 12.5291 229.341 12.5249 229.095 12.5151L234.315 26.3275C234.7 27.364 234.971 28.0927 235.119 28.5161C235.22 28.8119 235.321 29.1151 235.413 29.4203L235.909 30.9452ZM248.941 13.852C249.177 13.8332 249.413 13.8244 249.659 13.8244C249.904 13.8244 250.144 13.8332 250.38 13.852L250.424 12.5151C250.188 12.5249 249.948 12.5291 249.701 12.5291C249.456 12.5291 249.215 12.5249 248.984 12.5151L248.941 13.852ZM248.431 30.9452C248.676 30.9364 248.863 30.9317 248.993 30.9317C249.124 30.9317 249.311 30.9364 249.557 30.9452C249.557 29.4708 249.62 27.2541 249.751 24.3041C249.875 21.3504 250.011 19.0181 250.14 17.3088C249.895 17.3176 249.701 17.3217 249.563 17.3217C249.432 17.3217 249.245 17.3176 248.999 17.3088C248.999 18.3359 248.931 20.5249 248.792 23.8848C248.657 27.24 248.536 29.5952 248.431 30.9452ZM253.623 30.9452C253.867 30.9364 254.056 30.9317 254.185 30.9317C254.315 30.9317 254.508 30.9364 254.749 30.9452C254.749 29.9916 254.768 28.5208 254.807 26.5301C254.831 25.0551 254.899 23.7416 254.999 22.59C255.061 21.8479 255.192 21.226 255.38 20.7099C255.528 20.2671 255.755 19.852 256.059 19.4604C256.357 19.0692 256.665 18.7599 256.983 18.5337C257.297 18.3129 257.639 18.138 258 18.0228C258.361 17.9077 258.769 17.8479 259.223 17.8479C259.685 17.8479 260.229 17.9213 260.861 18.0733C260.821 17.7687 260.803 17.4604 260.803 17.1561C260.408 17.0692 260.017 17.0228 259.632 17.0228C259.103 17.0228 258.596 17.078 258.116 17.1932C257.629 17.3041 257.204 17.4656 256.844 17.6771C256.483 17.8884 256.164 18.1515 255.891 18.4703C255.616 18.7832 255.321 19.2489 254.999 19.8613L255.129 17.3088C254.951 17.3176 254.777 17.3217 254.604 17.3217C254.445 17.3217 254.272 17.3176 254.084 17.3088L254.099 18.5249C254.099 19.7739 254.045 21.6823 253.944 24.2495C253.844 26.8156 253.733 29.0463 253.623 30.9452ZM263.543 35.8765C263.591 36.2181 263.625 36.5723 263.644 36.9405C264.601 37.1583 265.445 37.3051 266.167 37.378C266.889 37.4561 267.637 37.4941 268.397 37.4941C269.432 37.4941 270.361 37.3979 271.191 37.1984C271.951 37.0151 272.577 36.7755 273.079 36.4665C273.575 36.1619 273.988 35.7889 274.32 35.3463C274.648 34.9041 274.893 34.4061 275.053 33.8489C275.201 33.328 275.299 32.7285 275.332 32.0515L275.495 26.3921L275.808 20.2072C275.837 19.7323 275.867 19.3457 275.896 19.0499L276.04 17.4973C274.205 17.1796 272.644 17.0228 271.36 17.0228C270.087 17.0228 268.908 17.1796 267.813 17.4973C266.727 17.8104 265.763 18.3317 264.929 19.0547C264.101 19.7785 263.456 20.7004 263.008 21.8156C262.555 22.9312 262.329 24.0973 262.329 25.3129C262.329 26.2031 262.477 27.0515 262.781 27.8572C263.081 28.664 263.528 29.3228 264.116 29.8348C264.703 30.3509 265.368 30.7151 266.12 30.9317C266.865 31.1479 267.675 31.2541 268.551 31.2541C269.095 31.2541 269.625 31.2031 270.131 31.1067C270.641 31.0051 271.104 30.8717 271.523 30.6921C271.941 30.5171 272.312 30.3181 272.636 30.0979C272.963 29.8801 273.247 29.6323 273.487 29.3556C273.733 29.0832 273.925 28.8208 274.06 28.5723C274.195 28.3275 274.36 27.9864 274.547 27.5536C274.519 28.9593 274.471 30.2213 274.403 31.3369C274.373 32.0285 274.297 32.6785 274.171 33.2817C274.041 33.8853 273.853 34.388 273.597 34.7937C273.381 35.1343 273.079 35.4479 272.684 35.7244C272.24 36.0332 271.705 36.2687 271.075 36.4432C270.385 36.6411 269.644 36.7375 268.845 36.7375C268.171 36.7375 267.424 36.6791 266.615 36.5629C265.811 36.4473 264.785 36.2181 263.543 35.8765ZM274.909 18.1332L274.74 22.7604C274.677 23.9864 274.561 24.9911 274.403 25.7703C274.283 26.3323 274.08 26.876 273.805 27.4108C273.527 27.9499 273.203 28.4156 272.837 28.8119C272.472 29.2077 272.091 29.5255 271.692 29.7604C271.292 30.0004 270.863 30.176 270.416 30.2812C269.827 30.4244 269.201 30.4984 268.523 30.4984C267.527 30.4984 266.615 30.2864 265.792 29.8583C264.972 29.4291 264.365 28.7932 263.976 27.9452C263.585 27.1015 263.388 26.1567 263.388 25.1108C263.388 24.0233 263.6 22.9681 264.025 21.9495C264.448 20.9348 265.04 20.1015 265.805 19.4509C266.572 18.8061 267.416 18.3635 268.34 18.128C269.259 17.8937 270.26 17.7785 271.344 17.7785C271.753 17.7785 272.231 17.7968 272.765 17.8337C273.305 17.8708 274.017 17.9676 274.909 18.1332ZM279.628 30.9452C279.873 30.9364 280.061 30.9317 280.192 30.9317C280.321 30.9317 280.509 30.9364 280.755 30.9452C280.755 29.4708 280.817 27.2541 280.948 24.3041C281.073 21.3504 281.207 19.0181 281.337 17.3088C281.091 17.3176 280.9 17.3217 280.759 17.3217C280.631 17.3217 280.441 17.3176 280.196 17.3088C280.196 18.3359 280.129 20.5249 279.989 23.8848C279.855 27.24 279.735 29.5952 279.628 30.9452ZM279.951 15.5937C280.028 15.5755 280.119 15.5665 280.235 15.5665C280.356 15.5665 280.451 15.5755 280.528 15.5937C280.773 15.1608 281.164 14.5108 281.699 13.6447C282.239 12.7733 282.619 12.1697 282.845 11.8285C282.609 11.838 282.335 11.8427 282.027 11.8427C281.717 11.8427 281.443 11.838 281.207 11.8285C280.832 12.9717 280.563 13.7733 280.404 14.2296C280.244 14.6905 280.089 15.1427 279.951 15.5937ZM284.819 30.9452C285.065 30.9364 285.252 30.9317 285.383 30.9317C285.513 30.9317 285.7 30.9364 285.947 30.9452C285.947 29.7556 285.984 28.3047 286.052 26.59C286.124 24.876 286.216 23.6405 286.327 22.8848C286.447 22.0093 286.625 21.3317 286.861 20.8432C287.175 20.1791 287.575 19.6271 288.06 19.1889C288.552 18.7551 289.12 18.4239 289.771 18.1979C290.459 17.9629 291.249 17.8479 292.139 17.8479C292.78 17.8479 293.401 17.9165 294.004 18.0547C294.605 18.1979 295.125 18.4192 295.564 18.7323C296.001 19.0411 296.309 19.4328 296.488 19.8984C296.667 20.3687 296.757 20.8984 296.757 21.4927C296.757 22.0599 296.719 22.9812 296.641 24.2629L296.445 27.7197C296.387 28.7427 296.315 29.8208 296.219 30.9452C296.397 30.9364 296.576 30.9317 296.752 30.9317C296.931 30.9317 297.115 30.9364 297.303 30.9452L297.36 28.7427L297.659 22.5989C297.688 22.0509 297.701 21.6364 297.701 21.3593C297.701 20.7369 297.611 20.1525 297.427 19.6083C297.245 19.0645 296.908 18.5807 296.416 18.1656C295.924 17.7463 295.308 17.4509 294.567 17.2807C293.825 17.1099 293.055 17.0228 292.264 17.0228C291.793 17.0228 291.32 17.0551 290.839 17.1239C290.357 17.1932 289.891 17.2995 289.433 17.4468C288.975 17.5984 288.585 17.7832 288.263 17.9995C287.935 18.2213 287.656 18.4608 287.419 18.7099C287.184 18.9629 287.001 19.1979 286.861 19.4192C286.727 19.64 286.553 19.9629 286.347 20.3869L286.539 17.3088C286.293 17.3176 286.115 17.3217 286.004 17.3217C285.883 17.3217 285.7 17.3176 285.455 17.3088C285.455 17.6217 285.445 18.128 285.425 18.8203L285.301 22.6957L284.819 30.9452ZM301.992 13.852C302.229 13.8332 302.465 13.8244 302.711 13.8244C302.956 13.8244 303.196 13.8332 303.432 13.852L303.476 12.5151C303.24 12.5249 303 12.5291 302.753 12.5291C302.508 12.5291 302.267 12.5249 302.036 12.5151L301.992 13.852ZM301.481 30.9452C301.728 30.9364 301.916 30.9317 302.045 30.9317C302.176 30.9317 302.363 30.9364 302.609 30.9452C302.609 29.4708 302.672 27.2541 302.803 24.3041C302.927 21.3504 303.061 19.0181 303.192 17.3088C302.947 17.3176 302.753 17.3217 302.615 17.3217C302.484 17.3217 302.296 17.3176 302.051 17.3088C302.051 18.3359 301.983 20.5249 301.844 23.8848C301.708 27.24 301.588 29.5952 301.481 30.9452ZM307.545 18.7416C308.176 18.4973 308.696 18.3176 309.111 18.2072C309.525 18.0921 310.029 17.9947 310.633 17.9077C311.235 17.8197 311.879 17.7785 312.569 17.7785C313.16 17.7785 313.724 17.8296 314.259 17.926C314.799 18.0275 315.247 18.2025 315.607 18.4556C315.969 18.7051 316.219 18.9717 316.363 19.2577C316.503 19.5437 316.576 19.8384 316.576 20.1427C316.576 20.5665 316.42 20.9812 316.123 21.3911C315.819 21.802 315.4 22.1197 314.852 22.3504C314.307 22.5807 313.729 22.7697 313.117 22.9265C311.764 23.2577 310.989 23.452 310.792 23.5072C310.073 23.7051 309.409 23.9217 308.788 24.1525C308.253 24.3504 307.763 24.5941 307.319 24.8848C306.944 25.1151 306.644 25.3692 306.417 25.6405C306.144 25.9629 305.941 26.3041 305.811 26.6593C305.683 27.0145 305.615 27.3828 305.615 27.7604C305.615 28.2541 305.72 28.7285 305.937 29.1807C306.153 29.6275 306.491 30.0233 306.939 30.3645C307.391 30.7104 307.951 30.9405 308.62 31.0561C309.289 31.1713 310.016 31.2312 310.805 31.2312C311.229 31.2312 311.677 31.2124 312.153 31.1713C312.627 31.1296 313.248 31.038 314.008 30.8947C314.067 30.5536 314.135 30.2077 314.22 29.8671C313.608 30.0561 313.141 30.1848 312.819 30.2541C312.491 30.3181 312.144 30.3739 311.779 30.4156C311.413 30.4572 311.032 30.4755 310.637 30.4755C309.848 30.4755 309.173 30.388 308.615 30.2124C308.056 30.0375 307.588 29.7332 307.223 29.2999C306.857 28.8665 306.675 28.3593 306.675 27.7739C306.675 27.3875 306.751 27.0233 306.9 26.6775C307.029 26.3921 307.237 26.1151 307.521 25.8572C307.839 25.5577 308.239 25.2905 308.72 25.0463C309.164 24.8203 309.791 24.5807 310.599 24.3275C310.956 24.2213 311.548 24.0599 312.38 23.8437C313.213 23.6271 313.739 23.4837 313.956 23.4192C314.172 23.3504 314.409 23.2676 314.668 23.1755C314.928 23.0785 315.144 22.9859 315.328 22.8984C315.516 22.8067 315.685 22.7051 315.839 22.5941C315.992 22.4791 316.219 22.3088 316.508 22.0744C316.451 22.9312 316.407 23.8484 316.372 24.8337C316.34 25.8203 316.296 26.7421 316.248 27.5941C316.195 28.4525 316.103 29.5671 315.969 30.9452C316.204 30.9364 316.401 30.9317 316.561 30.9317C316.709 30.9317 316.913 30.9364 317.153 30.9452V29.8113C317.153 29.2911 317.177 28.4337 317.225 27.2541C317.273 26.0692 317.321 25.0785 317.379 24.2859C317.437 23.4927 317.48 22.7556 317.515 22.0645C317.548 21.3775 317.563 20.8061 317.563 20.3593C317.563 19.9165 317.491 19.4837 317.347 19.0599C317.196 18.64 316.899 18.2624 316.44 17.9348C315.983 17.6036 315.395 17.3723 314.677 17.2296C313.956 17.0921 313.18 17.0228 312.343 17.0228C311.62 17.0228 310.903 17.0692 310.199 17.1656C309.491 17.2577 308.657 17.4328 307.699 17.6864C307.661 18.0828 307.613 18.4328 307.545 18.7416ZM328.316 30.9452C328.552 30.9364 328.759 30.9317 328.937 30.9317C329.116 30.9317 329.328 30.9364 329.573 30.9452C329.584 30.1067 329.597 29.4755 329.617 29.0463C329.636 28.6223 329.655 28.1941 329.684 27.7703L330.435 17.8337C330.536 16.4937 330.589 15.6031 330.633 15.1608L330.709 14.3708L331.225 14.6629L337.375 30.9452C337.601 30.9364 337.848 30.9317 338.123 30.9317C338.396 30.9317 338.641 30.9364 338.868 30.9452L344.599 18.5203L346.709 13.7072L346.997 15.2671C347.195 16.3441 346.983 17.6323 346.955 19.0599L346.713 30.9452C346.949 30.9364 347.171 30.9317 347.377 30.9317C347.571 30.9317 347.792 30.9364 348.037 30.9452C347.984 29.3093 347.956 27.0785 347.956 24.2629C347.956 23.4056 347.965 22.0963 347.989 20.3317L348.124 12.5151C347.805 12.5249 347.499 12.5291 347.209 12.5291C346.916 12.5291 346.612 12.5249 346.289 12.5151C346 13.2161 345.769 13.7599 345.6 14.1375L338.151 29.9036L337.135 27.2859L333.425 17.364C332.859 15.8432 332.487 14.8332 332.308 14.3359L331.688 12.5151C331.361 12.5249 331.057 12.5291 330.772 12.5291C330.503 12.5291 330.199 12.5249 329.872 12.5151L329.433 18.5389L328.615 28.4473L328.316 30.9452ZM364.604 30.9452C364.604 30.3509 364.613 29.6364 364.633 28.7979L364.692 26.7608L365.211 17.3088C364.967 17.3176 364.783 17.3217 364.661 17.3217C364.536 17.3217 364.349 17.3176 364.099 17.3088C364.088 18.7323 364.051 20.2947 363.983 22.0093C363.901 23.788 363.813 25.0187 363.708 25.7004C363.607 26.378 363.444 26.9495 363.232 27.4108C362.985 27.9312 362.688 28.3921 362.34 28.7884C362.041 29.1296 361.691 29.4156 361.296 29.6504C360.901 29.8853 360.405 30.0832 359.807 30.24C359.209 30.3973 358.589 30.4755 357.939 30.4755C357.317 30.4755 356.716 30.4104 356.128 30.2864C355.54 30.1613 355.016 29.9405 354.548 29.6323C354.081 29.3181 353.759 28.9265 353.567 28.4473C353.379 27.9728 353.287 27.3921 353.287 26.7051C353.287 26.0927 353.36 24.5671 353.508 22.1291C353.653 19.6905 353.764 18.0828 353.841 17.3088C353.595 17.3176 353.413 17.3217 353.292 17.3217C353.167 17.3217 352.984 17.3176 352.744 17.3088C352.744 18.6771 352.675 20.4421 352.549 22.6083C352.42 24.7749 352.357 26.1296 352.357 26.6775C352.357 27.3921 352.459 28.028 352.656 28.5905C352.853 29.1525 353.219 29.6452 353.764 30.0697C354.304 30.4937 354.924 30.7884 355.623 30.9593C356.325 31.1296 357.083 31.2165 357.891 31.2165C358.359 31.2165 358.825 31.1848 359.292 31.1208C359.759 31.0604 360.212 30.9547 360.655 30.8119C361.097 30.6687 361.479 30.4937 361.805 30.2905C362.129 30.088 362.399 29.8765 362.616 29.6504C362.832 29.4244 363.011 29.2124 363.144 29.0099C363.28 28.8067 363.459 28.4744 363.675 28.0145L363.559 30.9452C363.748 30.9364 363.92 30.9317 364.084 30.9317C364.244 30.9317 364.417 30.9364 364.604 30.9452ZM360.101 14.3775C360.328 14.3687 360.569 14.3635 360.823 14.3635C361.065 14.3635 361.305 14.3687 361.54 14.3775L361.584 13.0411C361.349 13.0499 361.108 13.0547 360.861 13.0547C360.616 13.0547 360.38 13.0499 360.144 13.0411L360.101 14.3775ZM356.547 14.3775C356.773 14.3687 357.015 14.3635 357.269 14.3635C357.511 14.3635 357.751 14.3687 357.987 14.3775L358.029 13.0411C357.795 13.0499 357.553 13.0547 357.307 13.0547C357.063 13.0547 356.827 13.0499 356.589 13.0411L356.547 14.3775ZM368.693 30.9452C368.939 30.9364 369.132 30.9317 369.271 30.9317C369.411 30.9317 369.603 30.9364 369.849 30.9452L370.252 19.0921L370.609 12.5151C370.363 12.5249 370.171 12.5291 370.031 12.5291C369.892 12.5291 369.699 12.5249 369.453 12.5151C369.376 17.2947 369.127 23.438 368.693 30.9452ZM374.096 30.9452C374.343 30.9364 374.533 30.9317 374.675 30.9317C374.813 30.9317 375.007 30.9364 375.251 30.9452L375.656 19.0921L376.013 12.5151C375.767 12.5249 375.575 12.5291 375.435 12.5291C375.296 12.5291 375.103 12.5249 374.857 12.5151C374.78 17.2947 374.529 23.438 374.096 30.9452ZM390.152 29.6364C388.611 30.1941 387.209 30.4755 385.948 30.4755C385.12 30.4755 384.335 30.3463 383.592 30.0832C382.847 29.8208 382.211 29.4203 381.681 28.8812C381.145 28.3411 380.751 27.6687 380.487 26.8665C380.221 26.0692 380.092 25.2395 380.092 24.3828C380.092 24.088 380.116 23.6452 380.164 23.0599L391.323 23.0463C391.341 22.8479 391.352 22.6405 391.352 22.4239C391.352 21.2624 391.116 20.2577 390.639 19.4151C390.161 18.5665 389.497 17.9583 388.64 17.5853C387.788 17.2113 386.829 17.0228 385.78 17.0228C384.244 17.0228 382.957 17.3823 381.927 18.1015C380.891 18.8249 380.144 19.7323 379.696 20.8249C379.245 21.9171 379.019 23.0927 379.019 24.3411C379.019 25.2947 379.147 26.1984 379.413 27.0463C379.677 27.89 380.121 28.6551 380.743 29.3323C381.359 30.0145 382.105 30.4984 382.976 30.7932C383.848 31.0832 384.845 31.2312 385.976 31.2312C386.627 31.2312 387.257 31.1895 387.879 31.102C388.5 31.0187 389.203 30.8671 389.983 30.6499C390.023 30.3093 390.075 29.9681 390.152 29.6364ZM380.289 22.3176C380.419 21.7785 380.544 21.3504 380.665 21.0416C380.78 20.7323 380.949 20.4051 381.171 20.0593C381.392 19.7187 381.676 19.4004 382.019 19.1108C382.361 18.8151 382.731 18.5755 383.127 18.3869C383.521 18.1979 383.959 18.0509 384.436 17.9395C384.917 17.8337 385.404 17.7785 385.905 17.7785C386.357 17.7785 386.791 17.8249 387.204 17.9119C387.615 18.0041 387.989 18.138 388.321 18.3129C388.659 18.4884 388.948 18.7051 389.199 18.9629C389.449 19.2165 389.661 19.5203 389.839 19.8708C390.023 20.226 390.141 20.5665 390.209 20.8984C390.272 21.2307 390.311 21.7099 390.32 22.3317L380.289 22.3176ZM393.963 30.9452C394.207 30.9364 394.396 30.9317 394.525 30.9317C394.655 30.9317 394.848 30.9364 395.088 30.9452C395.088 29.9916 395.108 28.5208 395.145 26.5301C395.171 25.0551 395.239 23.7416 395.339 22.59C395.401 21.8479 395.531 21.226 395.719 20.7099C395.868 20.2671 396.095 19.852 396.399 19.4604C396.696 19.0692 397.005 18.7599 397.323 18.5337C397.637 18.3129 397.977 18.138 398.339 18.0228C398.7 17.9077 399.109 17.8479 399.563 17.8479C400.025 17.8479 400.569 17.9213 401.2 18.0733C401.161 17.7687 401.141 17.4604 401.141 17.1561C400.748 17.0692 400.357 17.0228 399.972 17.0228C399.441 17.0228 398.936 17.078 398.455 17.1932C397.969 17.3041 397.544 17.4656 397.184 17.6771C396.823 17.8884 396.504 18.1515 396.229 18.4703C395.956 18.7832 395.661 19.2489 395.339 19.8613L395.469 17.3088C395.291 17.3176 395.117 17.3217 394.944 17.3217C394.785 17.3217 394.612 17.3176 394.424 17.3088L394.439 18.5249C394.439 19.7739 394.385 21.6823 394.284 24.2495C394.184 26.8156 394.073 29.0463 393.963 30.9452Z" fill="white"/>
<path d="M142.085 30.9452L145.163 30.9317L148.153 30.9452C149.761 30.9452 151.245 30.7837 152.604 30.4608C153.961 30.1343 155.18 29.5072 156.259 28.5807C157.333 27.6541 158.147 26.5119 158.7 25.1479C159.249 23.7832 159.524 22.3687 159.524 20.8984C159.524 19.6681 159.345 18.5156 158.989 17.4509C158.628 16.3823 158.021 15.4275 157.169 14.5889C156.312 13.7452 155.333 13.188 154.241 12.9213C153.143 12.6489 151.689 12.5151 149.873 12.5151L146.005 12.5291L142.885 12.5151C142.885 13.128 142.881 13.626 142.871 14.0129L142.495 24.5301L142.085 30.9452ZM143.3 30.0927L144.031 13.3541L146.752 13.3405H150.113C151.072 13.3495 151.911 13.4004 152.623 13.4875C153.413 13.5801 154.072 13.7323 154.597 13.9395C155.127 14.1515 155.633 14.4697 156.113 14.8843C156.601 15.3036 157.025 15.8151 157.391 16.4192C157.723 16.9484 157.964 17.5203 158.128 18.1332C158.353 18.9765 158.465 19.8613 158.465 20.7785C158.465 21.7323 158.349 22.6733 158.112 23.6088C157.877 24.5389 157.516 25.3875 157.033 26.1515C156.548 26.9171 155.927 27.6088 155.169 28.2307C154.415 28.8531 153.639 29.2765 152.849 29.5119C152.059 29.7473 151.164 29.9083 150.163 29.9963C149.16 30.088 148.183 30.1343 147.233 30.1343C146.276 30.1343 144.965 30.1208 143.3 30.0927ZM162.529 30.9452C162.775 30.9364 162.963 30.9317 163.092 30.9317C163.223 30.9317 163.416 30.9364 163.656 30.9452C163.656 29.9916 163.675 28.5208 163.713 26.5301C163.737 25.0551 163.805 23.7416 163.907 22.59C163.969 21.8479 164.099 21.226 164.287 20.7099C164.436 20.2671 164.663 19.852 164.967 19.4604C165.264 19.0692 165.573 18.7599 165.891 18.5337C166.204 18.3129 166.545 18.138 166.907 18.0228C167.268 17.9077 167.677 17.8479 168.131 17.8479C168.592 17.8479 169.137 17.9213 169.768 18.0733C169.728 17.7687 169.709 17.4604 169.709 17.1561C169.315 17.0692 168.924 17.0228 168.54 17.0228C168.009 17.0228 167.504 17.078 167.023 17.1932C166.536 17.3041 166.112 17.4656 165.751 17.6771C165.389 17.8884 165.072 18.1515 164.797 18.4703C164.523 18.7832 164.229 19.2489 163.907 19.8613L164.036 17.3088C163.859 17.3176 163.685 17.3217 163.512 17.3217C163.352 17.3217 163.179 17.3176 162.992 17.3088L163.005 18.5249C163.005 19.7739 162.953 21.6823 162.852 24.2495C162.751 26.8156 162.64 29.0463 162.529 30.9452ZM172.488 18.7416C173.119 18.4973 173.639 18.3176 174.053 18.2072C174.468 18.0921 174.973 17.9947 175.576 17.9077C176.177 17.8197 176.823 17.7785 177.512 17.7785C178.104 17.7785 178.668 17.8296 179.201 17.926C179.741 18.0275 180.189 18.2025 180.549 18.4556C180.912 18.7051 181.163 18.9717 181.307 19.2577C181.447 19.5437 181.519 19.8384 181.519 20.1427C181.519 20.5665 181.364 20.9812 181.065 21.3911C180.761 21.802 180.344 22.1197 179.795 22.3504C179.251 22.5807 178.672 22.7697 178.06 22.9265C176.707 23.2577 175.932 23.452 175.735 23.5072C175.017 23.7051 174.353 23.9217 173.731 24.1525C173.196 24.3504 172.705 24.5941 172.261 24.8848C171.887 25.1151 171.587 25.3692 171.361 25.6405C171.087 25.9629 170.884 26.3041 170.755 26.6593C170.625 27.0145 170.557 27.3828 170.557 27.7604C170.557 28.2541 170.663 28.7285 170.88 29.1807C171.096 29.6275 171.433 30.0233 171.881 30.3645C172.335 30.7104 172.893 30.9405 173.563 31.0561C174.232 31.1713 174.959 31.2312 175.749 31.2312C176.172 31.2312 176.62 31.2124 177.097 31.1713C177.569 31.1296 178.191 31.038 178.952 30.8947C179.009 30.5536 179.077 30.2077 179.163 29.8671C178.552 30.0561 178.084 30.1848 177.761 30.2541C177.433 30.3181 177.087 30.3739 176.721 30.4156C176.356 30.4572 175.975 30.4755 175.581 30.4755C174.791 30.4755 174.116 30.388 173.557 30.2124C172.999 30.0375 172.531 29.7332 172.165 29.2999C171.8 28.8665 171.617 28.3593 171.617 27.7739C171.617 27.3875 171.695 27.0233 171.844 26.6775C171.972 26.3921 172.18 26.1151 172.464 25.8572C172.783 25.5577 173.183 25.2905 173.664 25.0463C174.107 24.8203 174.733 24.5807 175.541 24.3275C175.899 24.2213 176.491 24.0599 177.323 23.8437C178.156 23.6271 178.681 23.4837 178.899 23.4192C179.116 23.3504 179.352 23.2676 179.611 23.1755C179.871 23.0785 180.087 22.9859 180.271 22.8984C180.459 22.8067 180.628 22.7051 180.781 22.5941C180.935 22.4791 181.163 22.3088 181.451 22.0744C181.393 22.9312 181.351 23.8484 181.315 24.8337C181.283 25.8203 181.239 26.7421 181.191 27.5941C181.139 28.4525 181.047 29.5671 180.912 30.9452C181.147 30.9364 181.345 30.9317 181.504 30.9317C181.653 30.9317 181.856 30.9364 182.096 30.9452V29.8113C182.096 29.2911 182.12 28.4337 182.168 27.2541C182.216 26.0692 182.264 25.0785 182.323 24.2859C182.38 23.4927 182.423 22.7556 182.457 22.0645C182.491 21.3775 182.505 20.8061 182.505 20.3593C182.505 19.9165 182.433 19.4837 182.289 19.0599C182.139 18.64 181.841 18.2624 181.383 17.9348C180.925 17.6036 180.339 17.3723 179.621 17.2296C178.899 17.0921 178.123 17.0228 177.285 17.0228C176.563 17.0228 175.845 17.0692 175.141 17.1656C174.433 17.2577 173.601 17.4328 172.643 17.6864C172.604 18.0828 172.556 18.4328 172.488 18.7416ZM186.021 30.9452C186.349 30.9364 186.613 30.9317 186.811 30.9317C186.999 30.9317 187.259 30.9364 187.585 30.9452C187.605 30.7285 187.62 30.4984 187.631 30.2495C187.639 30.0051 187.653 29.7473 187.673 29.4755C187.341 29.4837 187.081 29.4889 186.883 29.4889C186.695 29.4889 186.431 29.4837 186.093 29.4755C186.084 29.6551 186.075 29.8531 186.069 30.0697C186.064 30.2864 186.049 30.5771 186.021 30.9452ZM204.909 30.9452C205.237 30.9364 205.507 30.9317 205.713 30.9317C205.911 30.9317 206.176 30.9364 206.503 30.9452C207.284 29.3228 208.223 27.4937 209.325 25.452L213.024 18.5531C214.387 15.9859 215.489 13.9717 216.337 12.5151C216.101 12.5249 215.879 12.5291 215.672 12.5291C215.471 12.5291 215.249 12.5249 215.013 12.5151C214.676 13.2343 214.396 13.8061 214.18 14.2296L213.448 15.6905L205.785 30.1249L200.185 15.0129L199.365 12.5151C199.131 12.5249 198.917 12.5291 198.731 12.5291C198.552 12.5291 198.341 12.5249 198.095 12.5151L203.315 26.3275C203.7 27.364 203.971 28.0927 204.119 28.5161C204.22 28.8119 204.321 29.1151 204.413 29.4203L204.909 30.9452ZM217.941 13.852C218.177 13.8332 218.413 13.8244 218.659 13.8244C218.904 13.8244 219.144 13.8332 219.38 13.852L219.424 12.5151C219.188 12.5249 218.948 12.5291 218.701 12.5291C218.456 12.5291 218.215 12.5249 217.984 12.5151L217.941 13.852ZM217.431 30.9452C217.676 30.9364 217.863 30.9317 217.993 30.9317C218.124 30.9317 218.311 30.9364 218.557 30.9452C218.557 29.4708 218.62 27.2541 218.751 24.3041C218.875 21.3504 219.011 19.0181 219.14 17.3088C218.895 17.3176 218.701 17.3217 218.563 17.3217C218.432 17.3217 218.245 17.3176 217.999 17.3088C217.999 18.3359 217.931 20.5249 217.792 23.8848C217.657 27.24 217.536 29.5952 217.431 30.9452ZM222.623 30.9452C222.867 30.9364 223.056 30.9317 223.185 30.9317C223.315 30.9317 223.508 30.9364 223.749 30.9452C223.749 29.9916 223.768 28.5208 223.807 26.5301C223.831 25.0551 223.899 23.7416 223.999 22.59C224.061 21.8479 224.192 21.226 224.38 20.7099C224.528 20.2671 224.755 19.852 225.059 19.4604C225.357 19.0692 225.665 18.7599 225.983 18.5337C226.297 18.3129 226.639 18.138 227 18.0228C227.361 17.9077 227.769 17.8479 228.223 17.8479C228.685 17.8479 229.229 17.9213 229.861 18.0733C229.821 17.7687 229.803 17.4604 229.803 17.1561C229.408 17.0692 229.017 17.0228 228.632 17.0228C228.103 17.0228 227.596 17.078 227.116 17.1932C226.629 17.3041 226.204 17.4656 225.844 17.6771C225.483 17.8884 225.164 18.1515 224.891 18.4703C224.616 18.7832 224.321 19.2489 223.999 19.8613L224.129 17.3088C223.951 17.3176 223.777 17.3217 223.604 17.3217C223.445 17.3217 223.272 17.3176 223.084 17.3088L223.099 18.5249C223.099 19.7739 223.045 21.6823 222.944 24.2495C222.844 26.8156 222.733 29.0463 222.623 30.9452ZM232.543 35.8765C232.591 36.2181 232.625 36.5723 232.644 36.9405C233.601 37.1583 234.445 37.3051 235.167 37.378C235.889 37.4561 236.637 37.4941 237.397 37.4941C238.432 37.4941 239.361 37.3979 240.191 37.1984C240.951 37.0151 241.577 36.7755 242.079 36.4665C242.575 36.1619 242.988 35.7889 243.32 35.3463C243.648 34.9041 243.893 34.4061 244.053 33.8489C244.201 33.328 244.299 32.7285 244.332 32.0515L244.495 26.3921L244.808 20.2072C244.837 19.7323 244.867 19.3457 244.896 19.0499L245.04 17.4973C243.205 17.1796 241.644 17.0228 240.36 17.0228C239.087 17.0228 237.908 17.1796 236.813 17.4973C235.727 17.8104 234.763 18.3317 233.929 19.0547C233.101 19.7785 232.456 20.7004 232.008 21.8156C231.555 22.9312 231.329 24.0973 231.329 25.3129C231.329 26.2031 231.477 27.0515 231.781 27.8572C232.081 28.664 232.528 29.3228 233.116 29.8348C233.703 30.3509 234.368 30.7151 235.12 30.9317C235.865 31.1479 236.675 31.2541 237.551 31.2541C238.095 31.2541 238.625 31.2031 239.131 31.1067C239.641 31.0051 240.104 30.8717 240.523 30.6921C240.941 30.5171 241.312 30.3181 241.636 30.0979C241.963 29.8801 242.247 29.6323 242.487 29.3556C242.733 29.0832 242.925 28.8208 243.06 28.5723C243.195 28.3275 243.36 27.9864 243.547 27.5536C243.519 28.9593 243.471 30.2213 243.403 31.3369C243.373 32.0285 243.297 32.6785 243.171 33.2817C243.041 33.8853 242.853 34.388 242.597 34.7937C242.381 35.1343 242.079 35.4479 241.684 35.7244C241.24 36.0332 240.705 36.2687 240.075 36.4432C239.385 36.6411 238.644 36.7375 237.845 36.7375C237.171 36.7375 236.424 36.6791 235.615 36.5629C234.811 36.4473 233.785 36.2181 232.543 35.8765ZM243.909 18.1332L243.74 22.7604C243.677 23.9864 243.561 24.9911 243.403 25.7703C243.283 26.3323 243.08 26.876 242.805 27.4108C242.527 27.9499 242.203 28.4156 241.837 28.8119C241.472 29.2077 241.091 29.5255 240.692 29.7604C240.292 30.0004 239.863 30.176 239.416 30.2812C238.827 30.4244 238.201 30.4984 237.523 30.4984C236.527 30.4984 235.615 30.2864 234.792 29.8583C233.972 29.4291 233.365 28.7932 232.976 27.9452C232.585 27.1015 232.388 26.1567 232.388 25.1108C232.388 24.0233 232.6 22.9681 233.025 21.9495C233.448 20.9348 234.04 20.1015 234.805 19.4509C235.572 18.8061 236.416 18.3635 237.34 18.128C238.259 17.8937 239.26 17.7785 240.344 17.7785C240.753 17.7785 241.231 17.7968 241.765 17.8337C242.305 17.8708 243.017 17.9676 243.909 18.1332ZM248.628 30.9452C248.873 30.9364 249.061 30.9317 249.192 30.9317C249.321 30.9317 249.509 30.9364 249.755 30.9452C249.755 29.4708 249.817 27.2541 249.948 24.3041C250.073 21.3504 250.207 19.0181 250.337 17.3088C250.091 17.3176 249.9 17.3217 249.759 17.3217C249.631 17.3217 249.441 17.3176 249.196 17.3088C249.196 18.3359 249.129 20.5249 248.989 23.8848C248.855 27.24 248.735 29.5952 248.628 30.9452ZM248.951 15.5937C249.028 15.5755 249.119 15.5665 249.235 15.5665C249.356 15.5665 249.451 15.5755 249.528 15.5937C249.773 15.1608 250.164 14.5108 250.699 13.6447C251.239 12.7733 251.619 12.1697 251.845 11.8285C251.609 11.838 251.335 11.8427 251.027 11.8427C250.717 11.8427 250.443 11.838 250.207 11.8285C249.832 12.9717 249.563 13.7733 249.404 14.2296C249.244 14.6905 249.089 15.1427 248.951 15.5937ZM253.819 30.9452C254.065 30.9364 254.252 30.9317 254.383 30.9317C254.513 30.9317 254.7 30.9364 254.947 30.9452C254.947 29.7556 254.984 28.3047 255.052 26.59C255.124 24.876 255.216 23.6405 255.327 22.8848C255.447 22.0093 255.625 21.3317 255.861 20.8432C256.175 20.1791 256.575 19.6271 257.06 19.1889C257.552 18.7551 258.12 18.4239 258.771 18.1979C259.459 17.9629 260.249 17.8479 261.139 17.8479C261.78 17.8479 262.401 17.9165 263.004 18.0547C263.605 18.1979 264.125 18.4192 264.564 18.7323C265.001 19.0411 265.309 19.4328 265.488 19.8984C265.667 20.3687 265.757 20.8984 265.757 21.4927C265.757 22.0599 265.719 22.9812 265.641 24.2629L265.445 27.7197C265.387 28.7427 265.315 29.8208 265.219 30.9452C265.397 30.9364 265.576 30.9317 265.752 30.9317C265.931 30.9317 266.115 30.9364 266.303 30.9452L266.36 28.7427L266.659 22.5989C266.688 22.0509 266.701 21.6364 266.701 21.3593C266.701 20.7369 266.611 20.1525 266.427 19.6083C266.245 19.0645 265.908 18.5807 265.416 18.1656C264.924 17.7463 264.308 17.4509 263.567 17.2807C262.825 17.1099 262.055 17.0228 261.264 17.0228C260.793 17.0228 260.32 17.0551 259.839 17.1239C259.357 17.1932 258.891 17.2995 258.433 17.4468C257.975 17.5984 257.585 17.7832 257.263 17.9995C256.935 18.2213 256.656 18.4608 256.419 18.7099C256.184 18.9629 256.001 19.1979 255.861 19.4192C255.727 19.64 255.553 19.9629 255.347 20.3869L255.539 17.3088C255.293 17.3176 255.115 17.3217 255.004 17.3217C254.883 17.3217 254.7 17.3176 254.455 17.3088C254.455 17.6217 254.445 18.128 254.425 18.8203L254.301 22.6957L253.819 30.9452ZM270.992 13.852C271.229 13.8332 271.465 13.8244 271.711 13.8244C271.956 13.8244 272.196 13.8332 272.432 13.852L272.476 12.5151C272.24 12.5249 272 12.5291 271.753 12.5291C271.508 12.5291 271.267 12.5249 271.036 12.5151L270.992 13.852ZM270.481 30.9452C270.728 30.9364 270.916 30.9317 271.045 30.9317C271.176 30.9317 271.363 30.9364 271.609 30.9452C271.609 29.4708 271.672 27.2541 271.803 24.3041C271.927 21.3504 272.061 19.0181 272.192 17.3088C271.947 17.3176 271.753 17.3217 271.615 17.3217C271.484 17.3217 271.296 17.3176 271.051 17.3088C271.051 18.3359 270.983 20.5249 270.844 23.8848C270.708 27.24 270.588 29.5952 270.481 30.9452ZM276.545 18.7416C277.176 18.4973 277.696 18.3176 278.111 18.2072C278.525 18.0921 279.029 17.9947 279.633 17.9077C280.235 17.8197 280.879 17.7785 281.569 17.7785C282.16 17.7785 282.724 17.8296 283.259 17.926C283.799 18.0275 284.247 18.2025 284.607 18.4556C284.969 18.7051 285.219 18.9717 285.363 19.2577C285.503 19.5437 285.576 19.8384 285.576 20.1427C285.576 20.5665 285.42 20.9812 285.123 21.3911C284.819 21.802 284.4 22.1197 283.852 22.3504C283.307 22.5807 282.729 22.7697 282.117 22.9265C280.764 23.2577 279.989 23.452 279.792 23.5072C279.073 23.7051 278.409 23.9217 277.788 24.1525C277.253 24.3504 276.763 24.5941 276.319 24.8848C275.944 25.1151 275.644 25.3692 275.417 25.6405C275.144 25.9629 274.941 26.3041 274.811 26.6593C274.683 27.0145 274.615 27.3828 274.615 27.7604C274.615 28.2541 274.72 28.7285 274.937 29.1807C275.153 29.6275 275.491 30.0233 275.939 30.3645C276.391 30.7104 276.951 30.9405 277.62 31.0561C278.289 31.1713 279.016 31.2312 279.805 31.2312C280.229 31.2312 280.677 31.2124 281.153 31.1713C281.627 31.1296 282.248 31.038 283.008 30.8947C283.067 30.5536 283.135 30.2077 283.22 29.8671C282.608 30.0561 282.141 30.1848 281.819 30.2541C281.491 30.3181 281.144 30.3739 280.779 30.4156C280.413 30.4572 280.032 30.4755 279.637 30.4755C278.848 30.4755 278.173 30.388 277.615 30.2124C277.056 30.0375 276.588 29.7332 276.223 29.2999C275.857 28.8665 275.675 28.3593 275.675 27.7739C275.675 27.3875 275.751 27.0233 275.9 26.6775C276.029 26.3921 276.237 26.1151 276.521 25.8572C276.839 25.5577 277.239 25.2905 277.72 25.0463C278.164 24.8203 278.791 24.5807 279.599 24.3275C279.956 24.2213 280.548 24.0599 281.38 23.8437C282.213 23.6271 282.739 23.4837 282.956 23.4192C283.172 23.3504 283.409 23.2676 283.668 23.1755C283.928 23.0785 284.144 22.9859 284.328 22.8984C284.516 22.8067 284.685 22.7051 284.839 22.5941C284.992 22.4791 285.219 22.3088 285.508 22.0744C285.451 22.9312 285.407 23.8484 285.372 24.8337C285.34 25.8203 285.296 26.7421 285.248 27.5941C285.195 28.4525 285.103 29.5671 284.969 30.9452C285.204 30.9364 285.401 30.9317 285.561 30.9317C285.709 30.9317 285.913 30.9364 286.153 30.9452V29.8113C286.153 29.2911 286.177 28.4337 286.225 27.2541C286.273 26.0692 286.321 25.0785 286.379 24.2859C286.437 23.4927 286.48 22.7556 286.515 22.0645C286.548 21.3775 286.563 20.8061 286.563 20.3593C286.563 19.9165 286.491 19.4837 286.347 19.0599C286.196 18.64 285.899 18.2624 285.44 17.9348C284.983 17.6036 284.395 17.3723 283.677 17.2296C282.956 17.0921 282.18 17.0228 281.343 17.0228C280.62 17.0228 279.903 17.0692 279.199 17.1656C278.491 17.2577 277.657 17.4328 276.699 17.6864C276.661 18.0828 276.613 18.4328 276.545 18.7416ZM297.316 30.9452C297.552 30.9364 297.759 30.9317 297.937 30.9317C298.116 30.9317 298.328 30.9364 298.573 30.9452C298.584 30.1067 298.597 29.4755 298.617 29.0463C298.636 28.6223 298.655 28.1941 298.684 27.7703L299.435 17.8337C299.536 16.4937 299.589 15.6031 299.633 15.1608L299.709 14.3708L300.225 14.6629L306.375 30.9452C306.601 30.9364 306.848 30.9317 307.123 30.9317C307.396 30.9317 307.641 30.9364 307.868 30.9452L313.599 18.5203L315.709 13.7072L315.997 15.2671C316.195 16.3441 315.983 17.6323 315.955 19.0599L315.713 30.9452C315.949 30.9364 316.171 30.9317 316.377 30.9317C316.571 30.9317 316.792 30.9364 317.037 30.9452C316.984 29.3093 316.956 27.0785 316.956 24.2629C316.956 23.4056 316.965 22.0963 316.989 20.3317L317.124 12.5151C316.805 12.5249 316.499 12.5291 316.209 12.5291C315.916 12.5291 315.612 12.5249 315.289 12.5151C315 13.2161 314.769 13.7599 314.6 14.1375L307.151 29.9036L306.135 27.2859L302.425 17.364C301.859 15.8432 301.487 14.8332 301.308 14.3359L300.688 12.5151C300.361 12.5249 300.057 12.5291 299.772 12.5291C299.503 12.5291 299.199 12.5249 298.872 12.5151L298.433 18.5389L297.615 28.4473L297.316 30.9452ZM333.604 30.9452C333.604 30.3509 333.613 29.6364 333.633 28.7979L333.692 26.7608L334.211 17.3088C333.967 17.3176 333.783 17.3217 333.661 17.3217C333.536 17.3217 333.349 17.3176 333.099 17.3088C333.088 18.7323 333.051 20.2947 332.983 22.0093C332.901 23.788 332.813 25.0187 332.708 25.7004C332.607 26.378 332.444 26.9495 332.232 27.4108C331.985 27.9312 331.688 28.3921 331.34 28.7884C331.041 29.1296 330.691 29.4156 330.296 29.6504C329.901 29.8853 329.405 30.0832 328.807 30.24C328.209 30.3973 327.589 30.4755 326.939 30.4755C326.317 30.4755 325.716 30.4104 325.128 30.2864C324.54 30.1613 324.016 29.9405 323.548 29.6323C323.081 29.3181 322.759 28.9265 322.567 28.4473C322.379 27.9728 322.287 27.3921 322.287 26.7051C322.287 26.0927 322.36 24.5671 322.508 22.1291C322.653 19.6905 322.764 18.0828 322.841 17.3088C322.595 17.3176 322.413 17.3217 322.292 17.3217C322.167 17.3217 321.984 17.3176 321.744 17.3088C321.744 18.6771 321.675 20.4421 321.549 22.6083C321.42 24.7749 321.357 26.1296 321.357 26.6775C321.357 27.3921 321.459 28.028 321.656 28.5905C321.853 29.1525 322.219 29.6452 322.764 30.0697C323.304 30.4937 323.924 30.7884 324.623 30.9593C325.325 31.1296 326.083 31.2165 326.891 31.2165C327.359 31.2165 327.825 31.1848 328.292 31.1208C328.759 31.0604 329.212 30.9547 329.655 30.8119C330.097 30.6687 330.479 30.4937 330.805 30.2905C331.129 30.088 331.399 29.8765 331.616 29.6504C331.832 29.4244 332.011 29.2124 332.144 29.0099C332.28 28.8067 332.459 28.4744 332.675 28.0145L332.559 30.9452C332.748 30.9364 332.92 30.9317 333.084 30.9317C333.244 30.9317 333.417 30.9364 333.604 30.9452ZM329.101 14.3775C329.328 14.3687 329.569 14.3635 329.823 14.3635C330.065 14.3635 330.305 14.3687 330.54 14.3775L330.584 13.0411C330.349 13.0499 330.108 13.0547 329.861 13.0547C329.616 13.0547 329.38 13.0499 329.144 13.0411L329.101 14.3775ZM325.547 14.3775C325.773 14.3687 326.015 14.3635 326.269 14.3635C326.511 14.3635 326.751 14.3687 326.987 14.3775L327.029 13.0411C326.795 13.0499 326.553 13.0547 326.307 13.0547C326.063 13.0547 325.827 13.0499 325.589 13.0411L325.547 14.3775ZM337.693 30.9452C337.939 30.9364 338.132 30.9317 338.271 30.9317C338.411 30.9317 338.603 30.9364 338.849 30.9452L339.252 19.0921L339.609 12.5151C339.363 12.5249 339.171 12.5291 339.031 12.5291C338.892 12.5291 338.699 12.5249 338.453 12.5151C338.376 17.2947 338.127 23.438 337.693 30.9452ZM343.096 30.9452C343.343 30.9364 343.533 30.9317 343.675 30.9317C343.813 30.9317 344.007 30.9364 344.251 30.9452L344.656 19.0921L345.013 12.5151C344.767 12.5249 344.575 12.5291 344.435 12.5291C344.296 12.5291 344.103 12.5249 343.857 12.5151C343.78 17.2947 343.529 23.438 343.096 30.9452ZM359.152 29.6364C357.611 30.1941 356.209 30.4755 354.948 30.4755C354.12 30.4755 353.335 30.3463 352.592 30.0832C351.847 29.8208 351.211 29.4203 350.681 28.8812C350.145 28.3411 349.751 27.6687 349.487 26.8665C349.221 26.0692 349.092 25.2395 349.092 24.3828C349.092 24.088 349.116 23.6452 349.164 23.0599L360.323 23.0463C360.341 22.8479 360.352 22.6405 360.352 22.4239C360.352 21.2624 360.116 20.2577 359.639 19.4151C359.161 18.5665 358.497 17.9583 357.64 17.5853C356.788 17.2113 355.829 17.0228 354.78 17.0228C353.244 17.0228 351.957 17.3823 350.927 18.1015C349.891 18.8249 349.144 19.7323 348.696 20.8249C348.245 21.9171 348.019 23.0927 348.019 24.3411C348.019 25.2947 348.147 26.1984 348.413 27.0463C348.677 27.89 349.121 28.6551 349.743 29.3323C350.359 30.0145 351.105 30.4984 351.976 30.7932C352.848 31.0832 353.845 31.2312 354.976 31.2312C355.627 31.2312 356.257 31.1895 356.879 31.102C357.5 31.0187 358.203 30.8671 358.983 30.6499C359.023 30.3093 359.075 29.9681 359.152 29.6364ZM349.289 22.3176C349.419 21.7785 349.544 21.3504 349.665 21.0416C349.78 20.7323 349.949 20.4051 350.171 20.0593C350.392 19.7187 350.676 19.4004 351.019 19.1108C351.361 18.8151 351.731 18.5755 352.127 18.3869C352.521 18.1979 352.959 18.0509 353.436 17.9395C353.917 17.8337 354.404 17.7785 354.905 17.7785C355.357 17.7785 355.791 17.8249 356.204 17.9119C356.615 18.0041 356.989 18.138 357.321 18.3129C357.659 18.4884 357.948 18.7051 358.199 18.9629C358.449 19.2165 358.661 19.5203 358.839 19.8708C359.023 20.226 359.141 20.5665 359.209 20.8984C359.272 21.2307 359.311 21.7099 359.32 22.3317L349.289 22.3176ZM362.963 30.9452C363.207 30.9364 363.396 30.9317 363.525 30.9317C363.655 30.9317 363.848 30.9364 364.088 30.9452C364.088 29.9916 364.108 28.5208 364.145 26.5301C364.171 25.0551 364.239 23.7416 364.339 22.59C364.401 21.8479 364.531 21.226 364.719 20.7099C364.868 20.2671 365.095 19.852 365.399 19.4604C365.696 19.0692 366.005 18.7599 366.323 18.5337C366.637 18.3129 366.977 18.138 367.339 18.0228C367.7 17.9077 368.109 17.8479 368.563 17.8479C369.025 17.8479 369.569 17.9213 370.2 18.0733C370.161 17.7687 370.141 17.4604 370.141 17.1561C369.748 17.0692 369.357 17.0228 368.972 17.0228C368.441 17.0228 367.936 17.078 367.455 17.1932C366.969 17.3041 366.544 17.4656 366.184 17.6771C365.823 17.8884 365.504 18.1515 365.229 18.4703C364.956 18.7832 364.661 19.2489 364.339 19.8613L364.469 17.3088C364.291 17.3176 364.117 17.3217 363.944 17.3217C363.785 17.3217 363.612 17.3176 363.424 17.3088L363.439 18.5249C363.439 19.7739 363.385 21.6823 363.284 24.2495C363.184 26.8156 363.073 29.0463 362.963 30.9452Z" stroke="white" stroke-width="0.0266667" stroke-miterlimit="22.9256"/>
<path d="M146.734 42.1384H147.923V48.6428C147.923 49.3144 147.765 49.914 147.449 50.4416C147.135 50.966 146.692 51.3802 146.12 51.6839C145.547 51.9845 144.876 52.1348 144.105 52.1348C143.335 52.1348 142.663 51.9845 142.091 51.6839C141.518 51.3802 141.074 50.966 140.757 50.4416C140.444 49.914 140.287 49.3144 140.287 48.6428V42.1384H141.477V48.5469C141.477 49.0266 141.582 49.4535 141.793 49.8276C142.004 50.1986 142.305 50.4912 142.695 50.7054C143.088 50.9165 143.558 51.022 144.105 51.022C144.652 51.022 145.122 50.9165 145.515 50.7054C145.909 50.4912 146.209 50.1986 146.417 49.8276C146.628 49.4535 146.734 49.0266 146.734 48.5469V42.1384ZM150.145 51.9622V44.5944H151.239V45.7072H151.316C151.45 45.3427 151.693 45.0469 152.045 44.8198C152.397 44.5928 152.793 44.4793 153.235 44.4793C153.318 44.4793 153.422 44.4809 153.546 44.4841C153.671 44.4872 153.765 44.492 153.829 44.4984V45.6497C153.791 45.6401 153.703 45.6257 153.566 45.6065C153.431 45.5841 153.289 45.5729 153.139 45.5729C152.78 45.5729 152.461 45.6481 152.179 45.7984C151.901 45.9455 151.68 46.1501 151.517 46.4123C151.357 46.6714 151.278 46.9672 151.278 47.2997V51.9622H150.145ZM157.94 52.1157C157.275 52.1157 156.691 51.9574 156.189 51.6408C155.691 51.3242 155.3 50.8813 155.019 50.3121C154.741 49.7429 154.602 49.0777 154.602 48.3166C154.602 47.5492 154.741 46.8792 155.019 46.3068C155.3 45.7344 155.691 45.2899 156.189 44.9733C156.691 44.6567 157.275 44.4984 157.94 44.4984C158.605 44.4984 159.187 44.6567 159.686 44.9733C160.188 45.2899 160.578 45.7344 160.857 46.3068C161.138 46.8792 161.279 47.5492 161.279 48.3166C161.279 49.0777 161.138 49.7429 160.857 50.3121C160.578 50.8813 160.188 51.3242 159.686 51.6408C159.187 51.9574 158.605 52.1157 157.94 52.1157ZM157.94 51.0987C158.445 51.0987 158.861 50.9692 159.187 50.7102C159.514 50.4512 159.755 50.1106 159.912 49.6885C160.068 49.2664 160.147 48.8091 160.147 48.3166C160.147 47.8242 160.068 47.3653 159.912 46.94C159.755 46.5147 159.514 46.1709 159.187 45.9087C158.861 45.6465 158.445 45.5153 157.94 45.5153C157.435 45.5153 157.019 45.6465 156.693 45.9087C156.367 46.1709 156.125 46.5147 155.969 46.94C155.812 47.3653 155.734 47.8242 155.734 48.3166C155.734 48.8091 155.812 49.2664 155.969 49.6885C156.125 50.1106 156.367 50.4512 156.693 50.7102C157.019 50.9692 157.435 51.0987 157.94 51.0987ZM164.139 42.1384V51.9622H163.007V42.1384H164.139ZM169.205 52.1157C168.54 52.1157 167.957 51.9574 167.454 51.6408C166.956 51.3242 166.566 50.8813 166.284 50.3121C166.006 49.7429 165.867 49.0777 165.867 48.3166C165.867 47.5492 166.006 46.8792 166.284 46.3068C166.566 45.7344 166.956 45.2899 167.454 44.9733C167.957 44.6567 168.54 44.4984 169.205 44.4984C169.87 44.4984 170.452 44.6567 170.951 44.9733C171.453 45.2899 171.844 45.7344 172.122 46.3068C172.403 46.8792 172.544 47.5492 172.544 48.3166C172.544 49.0777 172.403 49.7429 172.122 50.3121C171.844 50.8813 171.453 51.3242 170.951 51.6408C170.452 51.9574 169.87 52.1157 169.205 52.1157ZM169.205 51.0987C169.711 51.0987 170.126 50.9692 170.452 50.7102C170.779 50.4512 171.02 50.1106 171.177 49.6885C171.333 49.2664 171.412 48.8091 171.412 48.3166C171.412 47.8242 171.333 47.3653 171.177 46.94C171.02 46.5147 170.779 46.1709 170.452 45.9087C170.126 45.6465 169.711 45.5153 169.205 45.5153C168.7 45.5153 168.284 45.6465 167.958 45.9087C167.632 46.1709 167.391 46.5147 167.234 46.94C167.077 47.3653 166.999 47.8242 166.999 48.3166C166.999 48.8091 167.077 49.2664 167.234 49.6885C167.391 50.1106 167.632 50.4512 167.958 50.7102C168.284 50.9692 168.7 51.0987 169.205 51.0987ZM177.246 54.8786C176.699 54.8786 176.229 54.8082 175.836 54.6675C175.442 54.53 175.114 54.3477 174.852 54.1207C174.593 53.8968 174.387 53.657 174.233 53.4012L175.135 52.768C175.238 52.9023 175.367 53.0558 175.524 53.2285C175.68 53.4044 175.895 53.5563 176.167 53.6842C176.442 53.8153 176.801 53.8809 177.246 53.8809C177.841 53.8809 178.331 53.7369 178.718 53.4491C179.105 53.1613 179.299 52.7104 179.299 52.0965V50.5999H179.203C179.12 50.7342 179.001 50.9005 178.848 51.0987C178.698 51.2938 178.48 51.4681 178.196 51.6216C177.914 51.7719 177.534 51.847 177.054 51.847C176.459 51.847 175.925 51.7063 175.452 51.4249C174.982 51.1435 174.609 50.7342 174.334 50.197C174.062 49.6597 173.926 49.0074 173.926 48.2399C173.926 47.4852 174.059 46.8281 174.325 46.2684C174.59 45.7056 174.959 45.2707 175.433 44.9637C175.906 44.6535 176.453 44.4984 177.073 44.4984C177.553 44.4984 177.933 44.5784 178.215 44.7383C178.499 44.895 178.717 45.0741 178.867 45.2755C179.021 45.4738 179.139 45.6369 179.222 45.7648H179.337V44.5944H180.431V52.1732C180.431 52.8064 180.287 53.3212 179.999 53.7178C179.715 54.1175 179.331 54.4101 178.848 54.5956C178.368 54.7842 177.834 54.8786 177.246 54.8786ZM177.207 50.8301C177.662 50.8301 178.045 50.7262 178.359 50.5183C178.672 50.3105 178.91 50.0115 179.073 49.6214C179.236 49.2312 179.318 48.7643 179.318 48.2207C179.318 47.6899 179.238 47.2214 179.078 46.8153C178.918 46.4091 178.682 46.091 178.368 45.8607C178.055 45.6305 177.668 45.5153 177.207 45.5153C176.728 45.5153 176.328 45.6369 176.008 45.8799C175.692 46.1229 175.453 46.4491 175.294 46.8584C175.137 47.2678 175.059 47.7218 175.059 48.2207C175.059 48.7324 175.138 49.1848 175.298 49.5782C175.461 49.9683 175.701 50.2753 176.018 50.4992C176.338 50.7198 176.734 50.8301 177.207 50.8301ZM182.503 51.9622V44.5944H183.635V51.9622H182.503ZM183.079 43.3664C182.858 43.3664 182.668 43.2913 182.508 43.141C182.351 42.9907 182.273 42.81 182.273 42.5989C182.273 42.3879 182.351 42.2072 182.508 42.0569C182.668 41.9066 182.858 41.8315 183.079 41.8315C183.299 41.8315 183.488 41.9066 183.645 42.0569C183.805 42.2072 183.885 42.3879 183.885 42.5989C183.885 42.81 183.805 42.9907 183.645 43.141C183.488 43.2913 183.299 43.3664 183.079 43.3664ZM187.877 52.1348C187.41 52.1348 186.986 52.0469 186.605 51.871C186.225 51.6919 185.923 51.4345 185.699 51.0987C185.475 50.7598 185.363 50.3505 185.363 49.8708C185.363 49.4487 185.446 49.1065 185.613 48.8443C185.779 48.5789 186.001 48.371 186.279 48.2207C186.557 48.0704 186.864 47.9585 187.2 47.8849C187.539 47.8082 187.88 47.7474 188.222 47.7027C188.67 47.6451 189.033 47.6019 189.311 47.5731C189.592 47.5412 189.797 47.4884 189.925 47.4149C190.056 47.3413 190.121 47.2134 190.121 47.0311V46.9927C190.121 46.5195 189.992 46.1517 189.733 45.8895C189.477 45.6273 189.089 45.4962 188.567 45.4962C188.027 45.4962 187.603 45.6145 187.296 45.8511C186.989 46.0878 186.773 46.3404 186.649 46.609L185.574 46.2253C185.766 45.7776 186.022 45.429 186.342 45.1796C186.665 44.927 187.016 44.7511 187.397 44.6519C187.781 44.5496 188.158 44.4984 188.529 44.4984C188.766 44.4984 189.037 44.5272 189.344 44.5848C189.655 44.6391 189.954 44.7527 190.241 44.9254C190.532 45.098 190.774 45.3587 190.966 45.7072C191.158 46.0558 191.253 46.5227 191.253 47.1079V51.9622H190.121V50.9644H190.064C189.987 51.1243 189.859 51.2954 189.68 51.4777C189.501 51.66 189.263 51.8151 188.965 51.943C188.668 52.0709 188.305 52.1348 187.877 52.1348ZM188.049 51.1179C188.497 51.1179 188.874 51.03 189.181 50.8541C189.491 50.6782 189.725 50.4512 189.882 50.173C190.042 49.8948 190.121 49.6022 190.121 49.2952V48.2591C190.073 48.3166 189.968 48.3694 189.805 48.4174C189.645 48.4621 189.46 48.5021 189.248 48.5373C189.041 48.5693 188.838 48.598 188.639 48.6236C188.444 48.646 188.286 48.6652 188.164 48.6812C187.87 48.7196 187.595 48.7819 187.339 48.8683C187.087 48.9514 186.882 49.0777 186.725 49.2472C186.572 49.4135 186.495 49.6405 186.495 49.9283C186.495 50.3217 186.641 50.6191 186.932 50.8205C187.226 51.0188 187.598 51.1179 188.049 51.1179ZM197.944 52.0389C197.707 52.0389 197.504 51.9542 197.335 51.7847C197.165 51.6152 197.08 51.4121 197.08 51.1755C197.08 50.9389 197.165 50.7358 197.335 50.5663C197.504 50.3968 197.707 50.3121 197.944 50.3121C198.18 50.3121 198.383 50.3968 198.553 50.5663C198.722 50.7358 198.807 50.9389 198.807 51.1755C198.807 51.3322 198.767 51.4761 198.687 51.6072C198.61 51.7383 198.507 51.8438 198.375 51.9238C198.248 52.0005 198.104 52.0389 197.944 52.0389ZM212.696 45.2084H211.506C211.436 44.8662 211.313 44.5656 211.137 44.3066C210.964 44.0475 210.753 43.8301 210.504 43.6542C210.258 43.4751 209.984 43.3408 209.684 43.2513C209.383 43.1618 209.07 43.117 208.744 43.117C208.149 43.117 207.61 43.2673 207.127 43.5679C206.647 43.8685 206.265 44.3114 205.981 44.8966C205.699 45.4818 205.559 46.1997 205.559 47.0503C205.559 47.9009 205.699 48.6188 205.981 49.204C206.265 49.7892 206.647 50.2321 207.127 50.5327C207.61 50.8333 208.149 50.9836 208.744 50.9836C209.07 50.9836 209.383 50.9389 209.684 50.8493C209.984 50.7598 210.258 50.6271 210.504 50.4512C210.753 50.2721 210.964 50.0531 211.137 49.794C211.313 49.5318 211.436 49.2312 211.506 48.8922H212.696C212.607 49.3943 212.443 49.8436 212.207 50.2401C211.97 50.6367 211.676 50.974 211.324 51.2522C210.972 51.5273 210.578 51.7367 210.139 51.8806C209.705 52.0245 209.239 52.0965 208.744 52.0965C207.906 52.0965 207.161 51.8918 206.508 51.4825C205.856 51.0732 205.343 50.4912 204.969 49.7365C204.594 48.9818 204.407 48.0864 204.407 47.0503C204.407 46.0142 204.594 45.1188 204.969 44.3641C205.343 43.6094 205.856 43.0274 206.508 42.6181C207.161 42.2088 207.906 42.0041 208.744 42.0041C209.239 42.0041 209.705 42.0761 210.139 42.22C210.578 42.3639 210.972 42.575 211.324 42.8532C211.676 43.1282 211.97 43.4639 212.207 43.8605C212.443 44.2538 212.607 44.7031 212.696 45.2084ZM214.618 51.9622V42.1384H217.938C218.705 42.1384 219.335 42.2696 219.828 42.5318C220.32 42.7908 220.685 43.1474 220.921 43.6015C221.158 44.0555 221.276 44.572 221.276 45.1508C221.276 45.7296 221.158 46.2429 220.921 46.6905C220.685 47.1382 220.322 47.49 219.832 47.7458C219.343 47.9985 218.718 48.1248 217.957 48.1248H215.271V47.0503H217.919C218.443 47.0503 218.865 46.9736 219.185 46.8201C219.508 46.6666 219.741 46.4491 219.885 46.1677C220.032 45.8831 220.106 45.5441 220.106 45.1508C220.106 44.7575 220.032 44.4137 219.885 44.1195C219.738 43.8253 219.503 43.5983 219.18 43.4384C218.857 43.2753 218.43 43.1937 217.899 43.1937H215.808V51.9622H214.618ZM219.242 47.5492L221.66 51.9622H220.279L217.899 47.5492H219.242ZM223.258 51.9622V42.1384H229.187V43.1937H224.448V46.5131H228.88V47.5684H224.448V50.9069H229.264V51.9622H223.258ZM231.331 42.1384H232.751L236.09 50.2929H236.205L239.543 42.1384H240.963V51.9622H239.85V44.4984H239.754L236.685 51.9622H235.61L232.54 44.4984H232.444V51.9622H231.331V42.1384ZM243.348 51.9622V42.1384H249.277V43.1937H244.538V46.5131H248.97V47.5684H244.538V50.9069H249.354V51.9622H243.348ZM251.421 51.9622V42.1384H254.741C255.508 42.1384 256.138 42.2696 256.631 42.5318C257.123 42.7908 257.488 43.1474 257.724 43.6015C257.961 44.0555 258.079 44.572 258.079 45.1508C258.079 45.7296 257.961 46.2429 257.724 46.6905C257.488 47.1382 257.125 47.49 256.635 47.7458C256.146 47.9985 255.521 48.1248 254.76 48.1248H252.074V47.0503H254.721C255.246 47.0503 255.668 46.9736 255.988 46.8201C256.311 46.6666 256.544 46.4491 256.688 46.1677C256.835 45.8831 256.909 45.5441 256.909 45.1508C256.909 44.7575 256.835 44.4137 256.688 44.1195C256.541 43.8253 256.306 43.5983 255.983 43.4384C255.66 43.2753 255.233 43.1937 254.702 43.1937H252.611V51.9622H251.421ZM256.045 47.5492L258.463 51.9622H257.081L254.702 47.5492H256.045ZM265.434 44.5944C265.376 44.1083 265.143 43.731 264.733 43.4623C264.324 43.1937 263.822 43.0594 263.227 43.0594C262.792 43.0594 262.412 43.1298 262.086 43.2705C261.763 43.4112 261.51 43.6047 261.328 43.8509C261.149 44.0971 261.059 44.3769 261.059 44.6903C261.059 44.9525 261.121 45.178 261.246 45.3667C261.374 45.5521 261.537 45.7072 261.735 45.8319C261.934 45.9535 262.142 46.0542 262.359 46.1341C262.577 46.2109 262.776 46.2732 262.959 46.3212L263.956 46.5898C264.212 46.657 264.497 46.7497 264.81 46.868C265.127 46.9863 265.429 47.1478 265.717 47.3525C266.008 47.554 266.248 47.813 266.436 48.1296C266.625 48.4462 266.719 48.8347 266.719 49.2952C266.719 49.826 266.58 50.3057 266.302 50.7342C266.027 51.1627 265.624 51.5033 265.093 51.7559C264.566 52.0085 263.924 52.1348 263.17 52.1348C262.466 52.1348 261.857 52.0213 261.342 51.7943C260.83 51.5672 260.428 51.2506 260.133 50.8445C259.842 50.4384 259.678 49.9667 259.639 49.4295H260.867C260.899 49.8004 261.024 50.1074 261.241 50.3505C261.462 50.5903 261.74 50.7694 262.076 50.8877C262.415 51.0028 262.78 51.0604 263.17 51.0604C263.624 51.0604 264.032 50.9868 264.393 50.8397C264.754 50.6894 265.04 50.4816 265.251 50.2161C265.463 49.9475 265.568 49.6341 265.568 49.276C265.568 48.9498 265.477 48.6844 265.295 48.4797C265.112 48.2751 264.873 48.1088 264.575 47.9809C264.278 47.853 263.956 47.741 263.611 47.6451L262.402 47.2997C261.635 47.0791 261.027 46.7641 260.579 46.3548C260.132 45.9455 259.908 45.4098 259.908 44.7479C259.908 44.1978 260.057 43.7182 260.354 43.3089C260.655 42.8963 261.058 42.5766 261.563 42.3495C262.071 42.1193 262.639 42.0041 263.266 42.0041C263.899 42.0041 264.462 42.1177 264.954 42.3447C265.447 42.5686 265.837 42.8755 266.124 43.2657C266.415 43.6558 266.569 44.0987 266.585 44.5944H265.434ZM272.301 51.9622V51.0987L275.544 47.5492C275.925 47.1334 276.238 46.7721 276.484 46.4651C276.73 46.1549 276.913 45.8639 277.031 45.5921C277.153 45.3171 277.213 45.0293 277.213 44.7287C277.213 44.3833 277.13 44.0843 276.964 43.8317C276.801 43.5791 276.577 43.384 276.292 43.2465C276.008 43.109 275.688 43.0402 275.333 43.0402C274.956 43.0402 274.626 43.1186 274.345 43.2753C274.067 43.4288 273.851 43.6446 273.697 43.9228C273.547 44.201 273.472 44.5272 273.472 44.9014H272.34C272.34 44.3258 272.473 43.8205 272.738 43.3856C273.003 42.9507 273.365 42.6117 273.822 42.3687C274.283 42.1257 274.799 42.0041 275.371 42.0041C275.947 42.0041 276.457 42.1257 276.902 42.3687C277.346 42.6117 277.695 42.9395 277.947 43.352C278.2 43.7645 278.326 44.2234 278.326 44.7287C278.326 45.09 278.261 45.4434 278.13 45.7888C278.002 46.1309 277.778 46.5131 277.458 46.9352C277.141 47.3541 276.702 47.8657 276.139 48.4701L273.932 50.8301V50.9069H278.499V51.9622H272.301ZM280.039 49.9475V48.969L284.356 42.1384H285.066V43.6542H284.586L281.324 48.8155V48.8922H287.138V49.9475H280.039ZM284.663 51.9622V49.6501V49.1944V42.1384H285.795V51.9622H284.663ZM295.881 52.0965C295.222 52.0965 294.64 51.9797 294.135 51.7463C293.633 51.5097 293.241 51.1851 292.96 50.7726C292.678 50.3569 292.539 49.8836 292.542 49.3527C292.539 48.937 292.621 48.5533 292.787 48.2015C292.953 47.8466 293.18 47.5508 293.468 47.3141C293.759 47.0743 294.084 46.9224 294.442 46.8584V46.8009C293.972 46.6794 293.598 46.4155 293.32 46.0094C293.041 45.6001 292.904 45.1348 292.907 44.6136C292.904 44.1147 293.03 43.6686 293.286 43.2753C293.542 42.8819 293.894 42.5718 294.341 42.3447C294.792 42.1177 295.305 42.0041 295.881 42.0041C296.45 42.0041 296.959 42.1177 297.406 42.3447C297.854 42.5718 298.206 42.8819 298.462 43.2753C298.721 43.6686 298.852 44.1147 298.855 44.6136C298.852 45.1348 298.709 45.6001 298.428 46.0094C298.15 46.4155 297.781 46.6794 297.32 46.8009V46.8584C297.675 46.9224 297.995 47.0743 298.279 47.3141C298.564 47.5508 298.791 47.8466 298.961 48.2015C299.13 48.5533 299.216 48.937 299.22 49.3527C299.216 49.8836 299.072 50.3569 298.788 50.7726C298.506 51.1851 298.115 51.5097 297.613 51.7463C297.114 51.9797 296.537 52.0965 295.881 52.0965ZM295.881 51.0412C296.326 51.0412 296.709 50.9692 297.032 50.8253C297.355 50.6814 297.605 50.4784 297.781 50.2161C297.956 49.9539 298.046 49.6469 298.049 49.2952C298.046 48.9242 297.95 48.5965 297.761 48.3118C297.573 48.0272 297.315 47.8034 296.989 47.6403C296.666 47.4772 296.297 47.3957 295.881 47.3957C295.462 47.3957 295.088 47.4772 294.759 47.6403C294.432 47.8034 294.175 48.0272 293.986 48.3118C293.801 48.5965 293.71 48.9242 293.713 49.2952C293.71 49.6469 293.794 49.9539 293.967 50.2161C294.143 50.4784 294.394 50.6814 294.72 50.8253C295.046 50.9692 295.433 51.0412 295.881 51.0412ZM295.881 46.3788C296.233 46.3788 296.545 46.3084 296.816 46.1677C297.091 46.027 297.307 45.8303 297.464 45.5777C297.621 45.3251 297.701 45.0293 297.704 44.6903C297.701 44.3577 297.622 44.0683 297.469 43.8221C297.315 43.5727 297.103 43.3808 296.831 43.2465C296.559 43.109 296.242 43.0402 295.881 43.0402C295.513 43.0402 295.192 43.109 294.917 43.2465C294.642 43.3808 294.429 43.5727 294.279 43.8221C294.129 44.0683 294.055 44.3577 294.058 44.6903C294.055 45.0293 294.13 45.3251 294.284 45.5777C294.44 45.8303 294.656 46.027 294.931 46.1677C295.206 46.3084 295.523 46.3788 295.881 46.3788ZM304.262 52.0965C303.539 52.0965 302.924 51.8998 302.415 51.5065C301.907 51.1099 301.518 50.5359 301.25 49.7844C300.981 49.0298 300.847 48.1184 300.847 47.0503C300.847 45.9886 300.981 45.082 301.25 44.3306C301.522 43.5759 301.912 43.0003 302.42 42.6037C302.932 42.204 303.546 42.0041 304.262 42.0041C304.978 42.0041 305.591 42.204 306.099 42.6037C306.611 43.0003 307.001 43.5759 307.27 44.3306C307.541 45.082 307.677 45.9886 307.677 47.0503C307.677 48.1184 307.543 49.0298 307.274 49.7844C307.006 50.5359 306.617 51.1099 306.109 51.5065C305.6 51.8998 304.985 52.0965 304.262 52.0965ZM304.262 51.0412C304.978 51.0412 305.535 50.6958 305.931 50.0051C306.328 49.3144 306.526 48.3294 306.526 47.0503C306.526 46.1997 306.435 45.4754 306.253 44.8774C306.074 44.2794 305.815 43.8237 305.476 43.5103C305.14 43.1969 304.735 43.0402 304.262 43.0402C303.552 43.0402 302.997 43.3904 302.598 44.0907C302.198 44.7878 301.998 45.7744 301.998 47.0503C301.998 47.9009 302.088 48.6236 302.267 49.2184C302.446 49.8132 302.703 50.2657 303.039 50.5759C303.378 50.8861 303.786 51.0412 304.262 51.0412ZM309.27 49.9475V48.969L313.587 42.1384H314.297V43.6542H313.817L310.555 48.8155V48.8922H316.369V49.9475H309.27ZM313.894 51.9622V49.6501V49.1944V42.1384H315.026V51.9622H313.894ZM322.81 52.0389C322.573 52.0389 322.37 51.9542 322.201 51.7847C322.031 51.6152 321.946 51.4121 321.946 51.1755C321.946 50.9389 322.031 50.7358 322.201 50.5663C322.37 50.3968 322.573 50.3121 322.81 50.3121C323.047 50.3121 323.25 50.3968 323.419 50.5663C323.589 50.7358 323.673 50.9389 323.673 51.1755C323.673 51.3322 323.633 51.4761 323.553 51.6072C323.477 51.7383 323.373 51.8438 323.242 51.9238C323.114 52.0005 322.97 52.0389 322.81 52.0389ZM329.657 51.9622V42.1384H332.977C333.744 42.1384 334.374 42.2696 334.866 42.5318C335.359 42.7908 335.723 43.1474 335.96 43.6015C336.197 44.0555 336.315 44.572 336.315 45.1508C336.315 45.7296 336.197 46.2429 335.96 46.6905C335.723 47.1382 335.361 47.49 334.871 47.7458C334.382 47.9985 333.757 48.1248 332.996 48.1248H330.31V47.0503H332.957C333.482 47.0503 333.904 46.9736 334.224 46.8201C334.547 46.6666 334.78 46.4491 334.924 46.1677C335.071 45.8831 335.145 45.5441 335.145 45.1508C335.145 44.7575 335.071 44.4137 334.924 44.1195C334.777 43.8253 334.542 43.5983 334.219 43.4384C333.896 43.2753 333.469 43.1937 332.938 43.1937H330.847V51.9622H329.657ZM334.281 47.5492L336.699 51.9622H335.317L332.938 47.5492H334.281ZM341.866 48.8922H343.171L344.264 50.3313L344.552 50.715L346.183 52.8831H344.878L343.804 51.4441L343.535 51.0796L341.866 48.8922ZM346.586 47.0503C346.586 48.0864 346.399 48.9818 346.025 49.7365C345.651 50.4912 345.137 51.0732 344.485 51.4825C343.833 51.8918 343.088 52.0965 342.25 52.0965C341.412 52.0965 340.667 51.8918 340.015 51.4825C339.362 51.0732 338.849 50.4912 338.475 49.7365C338.101 48.9818 337.914 48.0864 337.914 47.0503C337.914 46.0142 338.101 45.1188 338.475 44.3641C338.849 43.6094 339.362 43.0274 340.015 42.6181C340.667 42.2088 341.412 42.0041 342.25 42.0041C343.088 42.0041 343.833 42.2088 344.485 42.6181C345.137 43.0274 345.651 43.6094 346.025 44.3641C346.399 45.1188 346.586 46.0142 346.586 47.0503ZM345.435 47.0503C345.435 46.1997 345.293 45.4818 345.008 44.8966C344.727 44.3114 344.344 43.8685 343.862 43.5679C343.382 43.2673 342.845 43.117 342.25 43.117C341.655 43.117 341.116 43.2673 340.633 43.5679C340.154 43.8685 339.772 44.3114 339.487 44.8966C339.205 45.4818 339.065 46.1997 339.065 47.0503C339.065 47.9009 339.205 48.6188 339.487 49.204C339.772 49.7892 340.154 50.2321 340.633 50.5327C341.116 50.8333 341.655 50.9836 342.25 50.9836C342.845 50.9836 343.382 50.8333 343.862 50.5327C344.344 50.2321 344.727 49.7892 345.008 49.204C345.293 48.6188 345.435 47.9009 345.435 47.0503ZM348.586 51.9622V42.1384H354.515V43.1937H349.776V46.5131H354.208V47.5684H349.776V50.9069H354.592V51.9622H348.586ZM363.739 42.1384V51.9622H362.55V43.3856H362.492L360.094 44.9781V43.7693L362.55 42.1384H363.739ZM369.826 52.0965C369.423 52.0901 369.02 52.0133 368.617 51.8662C368.215 51.7191 367.847 51.4713 367.514 51.1227C367.182 50.771 366.915 50.2961 366.713 49.6981C366.512 49.0969 366.411 48.3422 366.411 47.434C366.411 46.5642 366.493 45.7936 366.656 45.122C366.819 44.4473 367.055 43.8797 367.366 43.4192C367.676 42.9555 368.05 42.6037 368.488 42.3639C368.929 42.1241 369.427 42.0041 369.98 42.0041C370.53 42.0041 371.019 42.1145 371.448 42.3351C371.879 42.5526 372.231 42.8564 372.503 43.2465C372.775 43.6366 372.951 44.0859 373.03 44.5944H371.86C371.751 44.1531 371.54 43.7869 371.227 43.4959C370.914 43.2049 370.498 43.0594 369.98 43.0594C369.219 43.0594 368.619 43.3904 368.181 44.0523C367.746 44.7143 367.527 45.6433 367.524 46.8392H367.601C367.78 46.5674 367.992 46.3356 368.239 46.1437C368.488 45.9487 368.763 45.7984 369.064 45.6928C369.364 45.5873 369.682 45.5345 370.018 45.5345C370.581 45.5345 371.096 45.6752 371.563 45.9566C372.03 46.2349 372.404 46.6202 372.685 47.1127C372.967 47.6019 373.107 48.1631 373.107 48.7963C373.107 49.4039 372.971 49.9603 372.699 50.4656C372.428 50.9676 372.046 51.3674 371.553 51.6648C371.064 51.959 370.488 52.1029 369.826 52.0965ZM369.826 51.0412C370.229 51.0412 370.591 50.9405 370.91 50.739C371.233 50.5375 371.488 50.2673 371.673 49.9283C371.862 49.5894 371.956 49.212 371.956 48.7963C371.956 48.3902 371.865 48.0208 371.683 47.6883C371.504 47.3525 371.256 47.0855 370.939 46.8872C370.626 46.689 370.268 46.5898 369.865 46.5898C369.561 46.5898 369.278 46.6506 369.016 46.7721C368.753 46.8904 368.523 47.0535 368.325 47.2614C368.13 47.4692 367.976 47.7075 367.864 47.9761C367.752 48.2415 367.696 48.5213 367.696 48.8155C367.696 49.2056 367.788 49.5702 367.97 49.9092C368.155 50.2481 368.408 50.5215 368.728 50.7294C369.051 50.9373 369.417 51.0412 369.826 51.0412ZM378.121 42.0041C378.524 42.0073 378.927 42.0841 379.33 42.2344C379.733 42.3847 380.1 42.6341 380.433 42.9827C380.766 43.328 381.033 43.7997 381.234 44.3977C381.436 44.9957 381.536 45.7456 381.536 46.6474C381.536 47.5204 381.453 48.2959 381.287 48.9738C381.124 49.6485 380.887 50.2177 380.577 50.6814C380.27 51.1451 379.896 51.4969 379.454 51.7367C379.016 51.9765 378.521 52.0965 377.968 52.0965C377.417 52.0965 376.927 51.9877 376.495 51.7703C376.066 51.5496 375.715 51.2442 375.44 50.8541C375.168 50.4608 374.994 50.0051 374.917 49.487H376.087C376.193 49.9379 376.402 50.3105 376.716 50.6047C377.032 50.8957 377.449 51.0412 377.968 51.0412C378.725 51.0412 379.323 50.7102 379.761 50.0483C380.203 49.3863 380.423 48.4509 380.423 47.2422H380.347C380.168 47.5108 379.955 47.7426 379.709 47.9377C379.462 48.1328 379.189 48.2831 378.888 48.3886C378.588 48.4941 378.268 48.5469 377.929 48.5469C377.366 48.5469 376.85 48.4078 376.38 48.1296C375.913 47.8482 375.539 47.4628 375.257 46.9736C374.979 46.4811 374.84 45.9183 374.84 45.2851C374.84 44.6839 374.974 44.1339 375.243 43.635C375.515 43.133 375.895 42.7332 376.385 42.4358C376.877 42.1384 377.456 41.9945 378.121 42.0041ZM378.121 43.0594C377.718 43.0594 377.355 43.1602 377.032 43.3616C376.712 43.5599 376.458 43.8285 376.269 44.1675C376.084 44.5032 375.991 44.8758 375.991 45.2851C375.991 45.6944 376.081 46.067 376.26 46.4027C376.442 46.7353 376.69 47.0007 377.003 47.199C377.32 47.3941 377.68 47.4916 378.083 47.4916C378.386 47.4916 378.669 47.4324 378.932 47.3141C379.194 47.1926 379.423 47.0279 379.618 46.8201C379.816 46.609 379.971 46.3708 380.083 46.1053C380.195 45.8367 380.251 45.5569 380.251 45.2659C380.251 44.8822 380.158 44.5224 379.973 44.1867C379.79 43.8509 379.538 43.5791 379.215 43.3712C378.895 43.1634 378.53 43.0594 378.121 43.0594ZM383.192 49.9475V48.969L387.509 42.1384H388.219V43.6542H387.74L384.478 48.8155V48.8922H390.291V49.9475H383.192ZM387.816 51.9622V49.6501V49.1944V42.1384H388.948V51.9622H387.816ZM392.089 51.9622V51.0987L395.332 47.5492C395.712 47.1334 396.026 46.7721 396.272 46.4651C396.518 46.1549 396.7 45.8639 396.819 45.5921C396.94 45.3171 397.001 45.0293 397.001 44.7287C397.001 44.3833 396.918 44.0843 396.752 43.8317C396.588 43.5791 396.365 43.384 396.08 43.2465C395.795 43.109 395.476 43.0402 395.121 43.0402C394.743 43.0402 394.414 43.1186 394.132 43.2753C393.854 43.4288 393.638 43.6446 393.485 43.9228C393.335 44.201 393.259 44.5272 393.259 44.9014H392.127C392.127 44.3258 392.26 43.8205 392.526 43.3856C392.791 42.9507 393.152 42.6117 393.61 42.3687C394.07 42.1257 394.587 42.0041 395.159 42.0041C395.735 42.0041 396.245 42.1257 396.689 42.3687C397.134 42.6117 397.482 42.9395 397.735 43.352C397.987 43.7645 398.114 44.2234 398.114 44.7287C398.114 45.09 398.048 45.4434 397.917 45.7888C397.789 46.1309 397.565 46.5131 397.246 46.9352C396.929 47.3541 396.489 47.8657 395.926 48.4701L393.72 50.8301V50.9069H398.286V51.9622H392.089Z" fill="white"/>
</g>
<defs>
<clipPath id="clip0_161_15">
<rect width="401.213" height="71.08" fill="white"/>
</clipPath>
</defs>
</svg>
