<svg width="402" height="72" viewBox="0 0 402 72" fill="none" xmlns="http://www.w3.org/2000/svg">
<g clip-path="url(#clip0_170_29)">
<path d="M0 35.7019H397.872" stroke="#231F20" stroke-width="0.666707" stroke-miterlimit="22.9256"/>
<path d="M39.5861 21.6055C47.7214 21.6055 54.3162 27.9169 54.3162 35.7024C54.3162 43.4873 47.7214 49.7997 39.5861 49.7997C31.4501 49.7997 24.8542 43.4873 24.8542 35.7024C24.8542 27.9169 31.4501 21.6055 39.5861 21.6055Z" stroke="#231F20" stroke-width="1.33341" stroke-miterlimit="22.9256"/>
<path d="M39.5855 15.0649C51.4953 15.0649 61.1511 24.3045 61.1511 35.7024C61.1511 47.0993 51.4953 56.3388 39.5855 56.3388C27.6751 56.3388 18.0203 47.0993 18.0203 35.7024C18.0203 24.3045 27.6751 15.0649 39.5855 15.0649Z" stroke="#231F20" stroke-width="2.66684" stroke-miterlimit="22.9256"/>
<path fill-rule="evenodd" clip-rule="evenodd" d="M35.5708 0.328392H39.5855V35.7024H35.5708V0.328392Z" fill="#F47216"/>
<path d="M35.5708 0.328392H39.5855V35.7024H35.5708V0.328392Z" stroke="#F47216" stroke-width="0.666707" stroke-miterlimit="22.9256"/>
<path d="M39.5854 35.7024V71.08" stroke="#231F20" stroke-width="0.666707" stroke-miterlimit="22.9256"/>
<path d="M173.085 30.9451L176.163 30.9316L179.153 30.9451C180.761 30.9451 182.245 30.7836 183.604 30.4607C184.961 30.1342 186.18 29.5071 187.259 28.5806C188.333 27.654 189.147 26.5118 189.7 25.1478C190.249 23.7831 190.524 22.3686 190.524 20.8983C190.524 19.668 190.345 18.5155 189.989 17.4508C189.628 16.3822 189.021 15.4274 188.169 14.5888C187.312 13.7451 186.333 13.1879 185.241 12.9212C184.143 12.6488 182.689 12.515 180.873 12.515L177.005 12.529L173.885 12.515C173.885 13.1279 173.881 13.6259 173.871 14.0128L173.495 24.53L173.085 30.9451ZM174.3 30.0926L175.031 13.354L177.752 13.3404H181.113C182.072 13.3494 182.911 13.4003 183.623 13.4874C184.413 13.58 185.072 13.7322 185.597 13.9394C186.127 14.1514 186.633 14.4696 187.113 14.8842C187.601 15.3035 188.025 15.815 188.391 16.4191C188.723 16.9483 188.964 17.5202 189.128 18.1331C189.353 18.9764 189.465 19.8612 189.465 20.7784C189.465 21.7322 189.349 22.6732 189.112 23.6087C188.877 24.5388 188.516 25.3874 188.033 26.1514C187.548 26.917 186.927 27.6087 186.169 28.2306C185.415 28.853 184.639 29.2764 183.849 29.5118C183.059 29.7472 182.164 29.9082 181.163 29.9962C180.16 30.0879 179.183 30.1342 178.233 30.1342C177.276 30.1342 175.965 30.1207 174.3 30.0926ZM193.529 30.9451C193.775 30.9363 193.963 30.9316 194.092 30.9316C194.223 30.9316 194.416 30.9363 194.656 30.9451C194.656 29.9915 194.675 28.5207 194.713 26.53C194.737 25.055 194.805 23.7415 194.907 22.5899C194.969 21.8478 195.099 21.2259 195.287 20.7098C195.436 20.267 195.663 19.8519 195.967 19.4603C196.264 19.0691 196.573 18.7598 196.891 18.5336C197.204 18.3128 197.545 18.1379 197.907 18.0227C198.268 17.9076 198.677 17.8478 199.131 17.8478C199.592 17.8478 200.137 17.9212 200.768 18.0732C200.728 17.7686 200.709 17.4603 200.709 17.156C200.315 17.0691 199.924 17.0227 199.54 17.0227C199.009 17.0227 198.504 17.0779 198.023 17.1931C197.536 17.304 197.112 17.4655 196.751 17.677C196.389 17.8883 196.072 18.1514 195.797 18.4702C195.523 18.7831 195.229 19.2488 194.907 19.8612L195.036 17.3087C194.859 17.3175 194.685 17.3216 194.512 17.3216C194.352 17.3216 194.179 17.3175 193.992 17.3087L194.005 18.5248C194.005 19.7738 193.953 21.6822 193.852 24.2494C193.751 26.8155 193.64 29.0462 193.529 30.9451ZM203.488 18.7415C204.119 18.4972 204.639 18.3175 205.053 18.2071C205.468 18.092 205.973 17.9946 206.576 17.9076C207.177 17.8196 207.823 17.7784 208.512 17.7784C209.104 17.7784 209.668 17.8295 210.201 17.9259C210.741 18.0274 211.189 18.2024 211.549 18.4555C211.912 18.705 212.163 18.9716 212.307 19.2576C212.447 19.5436 212.519 19.8383 212.519 20.1426C212.519 20.5664 212.364 20.9811 212.065 21.391C211.761 21.8019 211.344 22.1196 210.795 22.3503C210.251 22.5806 209.672 22.7696 209.06 22.9264C207.707 23.2576 206.932 23.4519 206.735 23.5071C206.017 23.705 205.353 23.9216 204.731 24.1524C204.196 24.3503 203.705 24.594 203.261 24.8847C202.887 25.115 202.587 25.3691 202.361 25.6404C202.087 25.9628 201.884 26.304 201.755 26.6592C201.625 27.0144 201.557 27.3827 201.557 27.7603C201.557 28.254 201.663 28.7284 201.88 29.1806C202.096 29.6274 202.433 30.0232 202.881 30.3644C203.335 30.7103 203.893 30.9404 204.563 31.056C205.232 31.1712 205.959 31.2311 206.749 31.2311C207.172 31.2311 207.62 31.2123 208.097 31.1712C208.569 31.1295 209.191 31.0379 209.952 30.8946C210.009 30.5535 210.077 30.2076 210.163 29.867C209.552 30.056 209.084 30.1847 208.761 30.254C208.433 30.318 208.087 30.3738 207.721 30.4155C207.356 30.4571 206.975 30.4754 206.581 30.4754C205.791 30.4754 205.116 30.3879 204.557 30.2123C203.999 30.0374 203.531 29.7331 203.165 29.2998C202.8 28.8664 202.617 28.3592 202.617 27.7738C202.617 27.3874 202.695 27.0232 202.844 26.6774C202.972 26.392 203.18 26.115 203.464 25.8571C203.783 25.5576 204.183 25.2904 204.664 25.0462C205.107 24.8202 205.733 24.5806 206.541 24.3274C206.899 24.2212 207.491 24.0598 208.323 23.8436C209.156 23.627 209.681 23.4836 209.899 23.4191C210.116 23.3503 210.352 23.2675 210.611 23.1754C210.871 23.0784 211.087 22.9858 211.271 22.8983C211.459 22.8066 211.628 22.705 211.781 22.594C211.935 22.479 212.163 22.3087 212.451 22.0743C212.393 22.9311 212.351 23.8483 212.315 24.8336C212.283 25.8202 212.239 26.742 212.191 27.594C212.139 28.4524 212.047 29.567 211.912 30.9451C212.147 30.9363 212.345 30.9316 212.504 30.9316C212.653 30.9316 212.856 30.9363 213.096 30.9451V29.8112C213.096 29.291 213.12 28.4336 213.168 27.254C213.216 26.0691 213.264 25.0784 213.323 24.2858C213.38 23.4926 213.423 22.7555 213.457 22.0644C213.491 21.3774 213.505 20.806 213.505 20.3592C213.505 19.9164 213.433 19.4836 213.289 19.0598C213.139 18.6399 212.841 18.2623 212.383 17.9347C211.925 17.6035 211.339 17.3722 210.621 17.2295C209.899 17.092 209.123 17.0227 208.285 17.0227C207.563 17.0227 206.845 17.0691 206.141 17.1655C205.433 17.2576 204.601 17.4327 203.643 17.6863C203.604 18.0827 203.556 18.4327 203.488 18.7415ZM217.021 30.9451C217.349 30.9363 217.613 30.9316 217.811 30.9316C217.999 30.9316 218.259 30.9363 218.585 30.9451C218.605 30.7284 218.62 30.4983 218.631 30.2494C218.639 30.005 218.653 29.7472 218.673 29.4754C218.341 29.4836 218.081 29.4888 217.883 29.4888C217.695 29.4888 217.431 29.4836 217.093 29.4754C217.084 29.655 217.075 29.853 217.069 30.0696C217.064 30.2863 217.049 30.577 217.021 30.9451ZM235.909 30.9451C236.237 30.9363 236.507 30.9316 236.713 30.9316C236.911 30.9316 237.176 30.9363 237.503 30.9451C238.284 29.3227 239.223 27.4936 240.325 25.4519L244.024 18.553C245.387 15.9858 246.489 13.9716 247.337 12.515C247.101 12.5248 246.879 12.529 246.672 12.529C246.471 12.529 246.249 12.5248 246.013 12.515C245.676 13.2342 245.396 13.806 245.18 14.2295L244.448 15.6904L236.785 30.1248L231.185 15.0128L230.365 12.515C230.131 12.5248 229.917 12.529 229.731 12.529C229.552 12.529 229.341 12.5248 229.095 12.515L234.315 26.3274C234.7 27.3639 234.971 28.0926 235.119 28.516C235.22 28.8118 235.321 29.115 235.413 29.4202L235.909 30.9451ZM248.941 13.8519C249.177 13.8331 249.413 13.8243 249.659 13.8243C249.904 13.8243 250.144 13.8331 250.38 13.8519L250.424 12.515C250.188 12.5248 249.948 12.529 249.701 12.529C249.456 12.529 249.215 12.5248 248.984 12.515L248.941 13.8519ZM248.431 30.9451C248.676 30.9363 248.863 30.9316 248.993 30.9316C249.124 30.9316 249.311 30.9363 249.557 30.9451C249.557 29.4707 249.62 27.254 249.751 24.304C249.875 21.3503 250.011 19.018 250.14 17.3087C249.895 17.3175 249.701 17.3216 249.563 17.3216C249.432 17.3216 249.245 17.3175 248.999 17.3087C248.999 18.3358 248.931 20.5248 248.792 23.8847C248.657 27.2399 248.536 29.5951 248.431 30.9451ZM253.623 30.9451C253.867 30.9363 254.056 30.9316 254.185 30.9316C254.315 30.9316 254.508 30.9363 254.749 30.9451C254.749 29.9915 254.768 28.5207 254.807 26.53C254.831 25.055 254.899 23.7415 254.999 22.5899C255.061 21.8478 255.192 21.2259 255.38 20.7098C255.528 20.267 255.755 19.8519 256.059 19.4603C256.357 19.0691 256.665 18.7598 256.983 18.5336C257.297 18.3128 257.639 18.1379 258 18.0227C258.361 17.9076 258.769 17.8478 259.223 17.8478C259.685 17.8478 260.229 17.9212 260.861 18.0732C260.821 17.7686 260.803 17.4603 260.803 17.156C260.408 17.0691 260.017 17.0227 259.632 17.0227C259.103 17.0227 258.596 17.0779 258.116 17.1931C257.629 17.304 257.204 17.4655 256.844 17.677C256.483 17.8883 256.164 18.1514 255.891 18.4702C255.616 18.7831 255.321 19.2488 254.999 19.8612L255.129 17.3087C254.951 17.3175 254.777 17.3216 254.604 17.3216C254.445 17.3216 254.272 17.3175 254.084 17.3087L254.099 18.5248C254.099 19.7738 254.045 21.6822 253.944 24.2494C253.844 26.8155 253.733 29.0462 253.623 30.9451ZM263.543 35.8764C263.591 36.218 263.625 36.5722 263.644 36.9404C264.601 37.1582 265.445 37.305 266.167 37.3779C266.889 37.456 267.637 37.494 268.397 37.494C269.432 37.494 270.361 37.3978 271.191 37.1983C271.951 37.015 272.577 36.7754 273.079 36.4664C273.575 36.1618 273.988 35.7888 274.32 35.3462C274.648 34.904 274.893 34.406 275.053 33.8488C275.201 33.3279 275.299 32.7284 275.332 32.0514L275.495 26.392L275.808 20.2071C275.837 19.7322 275.867 19.3456 275.896 19.0498L276.04 17.4972C274.205 17.1795 272.644 17.0227 271.36 17.0227C270.087 17.0227 268.908 17.1795 267.813 17.4972C266.727 17.8103 265.763 18.3316 264.929 19.0546C264.101 19.7784 263.456 20.7003 263.008 21.8155C262.555 22.9311 262.329 24.0972 262.329 25.3128C262.329 26.203 262.477 27.0514 262.781 27.8571C263.081 28.6639 263.528 29.3227 264.116 29.8347C264.703 30.3508 265.368 30.715 266.12 30.9316C266.865 31.1478 267.675 31.254 268.551 31.254C269.095 31.254 269.625 31.203 270.131 31.1066C270.641 31.005 271.104 30.8716 271.523 30.692C271.941 30.517 272.312 30.318 272.636 30.0978C272.963 29.88 273.247 29.6322 273.487 29.3555C273.733 29.0831 273.925 28.8207 274.06 28.5722C274.195 28.3274 274.36 27.9863 274.547 27.5535C274.519 28.9592 274.471 30.2212 274.403 31.3368C274.373 32.0284 274.297 32.6784 274.171 33.2816C274.041 33.8852 273.853 34.3879 273.597 34.7936C273.381 35.1342 273.079 35.4478 272.684 35.7243C272.24 36.0331 271.705 36.2686 271.075 36.4431C270.385 36.641 269.644 36.7374 268.845 36.7374C268.171 36.7374 267.424 36.679 266.615 36.5628C265.811 36.4472 264.785 36.218 263.543 35.8764ZM274.909 18.1331L274.74 22.7603C274.677 23.9863 274.561 24.991 274.403 25.7702C274.283 26.3322 274.08 26.8759 273.805 27.4107C273.527 27.9498 273.203 28.4155 272.837 28.8118C272.472 29.2076 272.091 29.5254 271.692 29.7603C271.292 30.0003 270.863 30.1759 270.416 30.2811C269.827 30.4243 269.201 30.4983 268.523 30.4983C267.527 30.4983 266.615 30.2863 265.792 29.8582C264.972 29.429 264.365 28.7931 263.976 27.9451C263.585 27.1014 263.388 26.1566 263.388 25.1107C263.388 24.0232 263.6 22.968 264.025 21.9494C264.448 20.9347 265.04 20.1014 265.805 19.4508C266.572 18.806 267.416 18.3634 268.34 18.1279C269.259 17.8936 270.26 17.7784 271.344 17.7784C271.753 17.7784 272.231 17.7967 272.765 17.8336C273.305 17.8707 274.017 17.9675 274.909 18.1331ZM279.628 30.9451C279.873 30.9363 280.061 30.9316 280.192 30.9316C280.321 30.9316 280.509 30.9363 280.755 30.9451C280.755 29.4707 280.817 27.254 280.948 24.304C281.073 21.3503 281.207 19.018 281.337 17.3087C281.091 17.3175 280.9 17.3216 280.759 17.3216C280.631 17.3216 280.441 17.3175 280.196 17.3087C280.196 18.3358 280.129 20.5248 279.989 23.8847C279.855 27.2399 279.735 29.5951 279.628 30.9451ZM279.951 15.5936C280.028 15.5754 280.119 15.5664 280.235 15.5664C280.356 15.5664 280.451 15.5754 280.528 15.5936C280.773 15.1607 281.164 14.5107 281.699 13.6446C282.239 12.7732 282.619 12.1696 282.845 11.8284C282.609 11.8379 282.335 11.8426 282.027 11.8426C281.717 11.8426 281.443 11.8379 281.207 11.8284C280.832 12.9716 280.563 13.7732 280.404 14.2295C280.244 14.6904 280.089 15.1426 279.951 15.5936ZM284.819 30.9451C285.065 30.9363 285.252 30.9316 285.383 30.9316C285.513 30.9316 285.7 30.9363 285.947 30.9451C285.947 29.7555 285.984 28.3046 286.052 26.5899C286.124 24.8759 286.216 23.6404 286.327 22.8847C286.447 22.0092 286.625 21.3316 286.861 20.8431C287.175 20.179 287.575 19.627 288.06 19.1888C288.552 18.755 289.12 18.4238 289.771 18.1978C290.459 17.9628 291.249 17.8478 292.139 17.8478C292.78 17.8478 293.401 17.9164 294.004 18.0546C294.605 18.1978 295.125 18.4191 295.564 18.7322C296.001 19.041 296.309 19.4327 296.488 19.8983C296.667 20.3686 296.757 20.8983 296.757 21.4926C296.757 22.0598 296.719 22.9811 296.641 24.2628L296.445 27.7196C296.387 28.7426 296.315 29.8207 296.219 30.9451C296.397 30.9363 296.576 30.9316 296.752 30.9316C296.931 30.9316 297.115 30.9363 297.303 30.9451L297.36 28.7426L297.659 22.5988C297.688 22.0508 297.701 21.6363 297.701 21.3592C297.701 20.7368 297.611 20.1524 297.427 19.6082C297.245 19.0644 296.908 18.5806 296.416 18.1655C295.924 17.7462 295.308 17.4508 294.567 17.2806C293.825 17.1098 293.055 17.0227 292.264 17.0227C291.793 17.0227 291.32 17.055 290.839 17.1238C290.357 17.1931 289.891 17.2994 289.433 17.4467C288.975 17.5983 288.585 17.7831 288.263 17.9994C287.935 18.2212 287.656 18.4607 287.419 18.7098C287.184 18.9628 287.001 19.1978 286.861 19.4191C286.727 19.6399 286.553 19.9628 286.347 20.3868L286.539 17.3087C286.293 17.3175 286.115 17.3216 286.004 17.3216C285.883 17.3216 285.7 17.3175 285.455 17.3087C285.455 17.6216 285.445 18.1279 285.425 18.8202L285.301 22.6956L284.819 30.9451ZM301.992 13.8519C302.229 13.8331 302.465 13.8243 302.711 13.8243C302.956 13.8243 303.196 13.8331 303.432 13.8519L303.476 12.515C303.24 12.5248 303 12.529 302.753 12.529C302.508 12.529 302.267 12.5248 302.036 12.515L301.992 13.8519ZM301.481 30.9451C301.728 30.9363 301.916 30.9316 302.045 30.9316C302.176 30.9316 302.363 30.9363 302.609 30.9451C302.609 29.4707 302.672 27.254 302.803 24.304C302.927 21.3503 303.061 19.018 303.192 17.3087C302.947 17.3175 302.753 17.3216 302.615 17.3216C302.484 17.3216 302.296 17.3175 302.051 17.3087C302.051 18.3358 301.983 20.5248 301.844 23.8847C301.708 27.2399 301.588 29.5951 301.481 30.9451ZM307.545 18.7415C308.176 18.4972 308.696 18.3175 309.111 18.2071C309.525 18.092 310.029 17.9946 310.633 17.9076C311.235 17.8196 311.879 17.7784 312.569 17.7784C313.16 17.7784 313.724 17.8295 314.259 17.9259C314.799 18.0274 315.247 18.2024 315.607 18.4555C315.969 18.705 316.219 18.9716 316.363 19.2576C316.503 19.5436 316.576 19.8383 316.576 20.1426C316.576 20.5664 316.42 20.9811 316.123 21.391C315.819 21.8019 315.4 22.1196 314.852 22.3503C314.307 22.5806 313.729 22.7696 313.117 22.9264C311.764 23.2576 310.989 23.4519 310.792 23.5071C310.073 23.705 309.409 23.9216 308.788 24.1524C308.253 24.3503 307.763 24.594 307.319 24.8847C306.944 25.115 306.644 25.3691 306.417 25.6404C306.144 25.9628 305.941 26.304 305.811 26.6592C305.683 27.0144 305.615 27.3827 305.615 27.7603C305.615 28.254 305.72 28.7284 305.937 29.1806C306.153 29.6274 306.491 30.0232 306.939 30.3644C307.391 30.7103 307.951 30.9404 308.62 31.056C309.289 31.1712 310.016 31.2311 310.805 31.2311C311.229 31.2311 311.677 31.2123 312.153 31.1712C312.627 31.1295 313.248 31.0379 314.008 30.8946C314.067 30.5535 314.135 30.2076 314.22 29.867C313.608 30.056 313.141 30.1847 312.819 30.254C312.491 30.318 312.144 30.3738 311.779 30.4155C311.413 30.4571 311.032 30.4754 310.637 30.4754C309.848 30.4754 309.173 30.3879 308.615 30.2123C308.056 30.0374 307.588 29.7331 307.223 29.2998C306.857 28.8664 306.675 28.3592 306.675 27.7738C306.675 27.3874 306.751 27.0232 306.9 26.6774C307.029 26.392 307.237 26.115 307.521 25.8571C307.839 25.5576 308.239 25.2904 308.72 25.0462C309.164 24.8202 309.791 24.5806 310.599 24.3274C310.956 24.2212 311.548 24.0598 312.38 23.8436C313.213 23.627 313.739 23.4836 313.956 23.4191C314.172 23.3503 314.409 23.2675 314.668 23.1754C314.928 23.0784 315.144 22.9858 315.328 22.8983C315.516 22.8066 315.685 22.705 315.839 22.594C315.992 22.479 316.219 22.3087 316.508 22.0743C316.451 22.9311 316.407 23.8483 316.372 24.8336C316.34 25.8202 316.296 26.742 316.248 27.594C316.195 28.4524 316.103 29.567 315.969 30.9451C316.204 30.9363 316.401 30.9316 316.561 30.9316C316.709 30.9316 316.913 30.9363 317.153 30.9451V29.8112C317.153 29.291 317.177 28.4336 317.225 27.254C317.273 26.0691 317.321 25.0784 317.379 24.2858C317.437 23.4926 317.48 22.7555 317.515 22.0644C317.548 21.3774 317.563 20.806 317.563 20.3592C317.563 19.9164 317.491 19.4836 317.347 19.0598C317.196 18.6399 316.899 18.2623 316.44 17.9347C315.983 17.6035 315.395 17.3722 314.677 17.2295C313.956 17.092 313.18 17.0227 312.343 17.0227C311.62 17.0227 310.903 17.0691 310.199 17.1655C309.491 17.2576 308.657 17.4327 307.699 17.6863C307.661 18.0827 307.613 18.4327 307.545 18.7415ZM328.316 30.9451C328.552 30.9363 328.759 30.9316 328.937 30.9316C329.116 30.9316 329.328 30.9363 329.573 30.9451C329.584 30.1066 329.597 29.4754 329.617 29.0462C329.636 28.6222 329.655 28.194 329.684 27.7702L330.435 17.8336C330.536 16.4936 330.589 15.603 330.633 15.1607L330.709 14.3707L331.225 14.6628L337.375 30.9451C337.601 30.9363 337.848 30.9316 338.123 30.9316C338.396 30.9316 338.641 30.9363 338.868 30.9451L344.599 18.5202L346.709 13.7071L346.997 15.267C347.195 16.344 346.983 17.6322 346.955 19.0598L346.713 30.9451C346.949 30.9363 347.171 30.9316 347.377 30.9316C347.571 30.9316 347.792 30.9363 348.037 30.9451C347.984 29.3092 347.956 27.0784 347.956 24.2628C347.956 23.4055 347.965 22.0962 347.989 20.3316L348.124 12.515C347.805 12.5248 347.499 12.529 347.209 12.529C346.916 12.529 346.612 12.5248 346.289 12.515C346 13.216 345.769 13.7598 345.6 14.1374L338.151 29.9035L337.135 27.2858L333.425 17.3639C332.859 15.8431 332.487 14.8331 332.308 14.3358L331.688 12.515C331.361 12.5248 331.057 12.529 330.772 12.529C330.503 12.529 330.199 12.5248 329.872 12.515L329.433 18.5388L328.615 28.4472L328.316 30.9451ZM364.604 30.9451C364.604 30.3508 364.613 29.6363 364.633 28.7978L364.692 26.7607L365.211 17.3087C364.967 17.3175 364.783 17.3216 364.661 17.3216C364.536 17.3216 364.349 17.3175 364.099 17.3087C364.088 18.7322 364.051 20.2946 363.983 22.0092C363.901 23.7879 363.813 25.0186 363.708 25.7003C363.607 26.3779 363.444 26.9494 363.232 27.4107C362.985 27.9311 362.688 28.392 362.34 28.7883C362.041 29.1295 361.691 29.4155 361.296 29.6503C360.901 29.8852 360.405 30.0831 359.807 30.2399C359.209 30.3972 358.589 30.4754 357.939 30.4754C357.317 30.4754 356.716 30.4103 356.128 30.2863C355.54 30.1612 355.016 29.9404 354.548 29.6322C354.081 29.318 353.759 28.9264 353.567 28.4472C353.379 27.9727 353.287 27.392 353.287 26.705C353.287 26.0926 353.36 24.567 353.508 22.129C353.653 19.6904 353.764 18.0827 353.841 17.3087C353.595 17.3175 353.413 17.3216 353.292 17.3216C353.167 17.3216 352.984 17.3175 352.744 17.3087C352.744 18.677 352.675 20.442 352.549 22.6082C352.42 24.7748 352.357 26.1295 352.357 26.6774C352.357 27.392 352.459 28.0279 352.656 28.5904C352.853 29.1524 353.219 29.6451 353.764 30.0696C354.304 30.4936 354.924 30.7883 355.623 30.9592C356.325 31.1295 357.083 31.2164 357.891 31.2164C358.359 31.2164 358.825 31.1847 359.292 31.1207C359.759 31.0603 360.212 30.9546 360.655 30.8118C361.097 30.6686 361.479 30.4936 361.805 30.2904C362.129 30.0879 362.399 29.8764 362.616 29.6503C362.832 29.4243 363.011 29.2123 363.144 29.0098C363.28 28.8066 363.459 28.4743 363.675 28.0144L363.559 30.9451C363.748 30.9363 363.92 30.9316 364.084 30.9316C364.244 30.9316 364.417 30.9363 364.604 30.9451ZM360.101 14.3774C360.328 14.3686 360.569 14.3634 360.823 14.3634C361.065 14.3634 361.305 14.3686 361.54 14.3774L361.584 13.041C361.349 13.0498 361.108 13.0546 360.861 13.0546C360.616 13.0546 360.38 13.0498 360.144 13.041L360.101 14.3774ZM356.547 14.3774C356.773 14.3686 357.015 14.3634 357.269 14.3634C357.511 14.3634 357.751 14.3686 357.987 14.3774L358.029 13.041C357.795 13.0498 357.553 13.0546 357.307 13.0546C357.063 13.0546 356.827 13.0498 356.589 13.041L356.547 14.3774ZM368.693 30.9451C368.939 30.9363 369.132 30.9316 369.271 30.9316C369.411 30.9316 369.603 30.9363 369.849 30.9451L370.252 19.092L370.609 12.515C370.363 12.5248 370.171 12.529 370.031 12.529C369.892 12.529 369.699 12.5248 369.453 12.515C369.376 17.2946 369.127 23.4379 368.693 30.9451ZM374.096 30.9451C374.343 30.9363 374.533 30.9316 374.675 30.9316C374.813 30.9316 375.007 30.9363 375.251 30.9451L375.656 19.092L376.013 12.515C375.767 12.5248 375.575 12.529 375.435 12.529C375.296 12.529 375.103 12.5248 374.857 12.515C374.78 17.2946 374.529 23.4379 374.096 30.9451ZM390.152 29.6363C388.611 30.194 387.209 30.4754 385.948 30.4754C385.12 30.4754 384.335 30.3462 383.592 30.0831C382.847 29.8207 382.211 29.4202 381.681 28.8811C381.145 28.341 380.751 27.6686 380.487 26.8664C380.221 26.0691 380.092 25.2394 380.092 24.3827C380.092 24.0879 380.116 23.6451 380.164 23.0598L391.323 23.0462C391.341 22.8478 391.352 22.6404 391.352 22.4238C391.352 21.2623 391.116 20.2576 390.639 19.415C390.161 18.5664 389.497 17.9582 388.64 17.5852C387.788 17.2112 386.829 17.0227 385.78 17.0227C384.244 17.0227 382.957 17.3822 381.927 18.1014C380.891 18.8248 380.144 19.7322 379.696 20.8248C379.245 21.917 379.019 23.0926 379.019 24.341C379.019 25.2946 379.147 26.1983 379.413 27.0462C379.677 27.8899 380.121 28.655 380.743 29.3322C381.359 30.0144 382.105 30.4983 382.976 30.7931C383.848 31.0831 384.845 31.2311 385.976 31.2311C386.627 31.2311 387.257 31.1894 387.879 31.1019C388.5 31.0186 389.203 30.867 389.983 30.6498C390.023 30.3092 390.075 29.968 390.152 29.6363ZM380.289 22.3175C380.419 21.7784 380.544 21.3503 380.665 21.0415C380.78 20.7322 380.949 20.405 381.171 20.0592C381.392 19.7186 381.676 19.4003 382.019 19.1107C382.361 18.815 382.731 18.5754 383.127 18.3868C383.521 18.1978 383.959 18.0508 384.436 17.9394C384.917 17.8336 385.404 17.7784 385.905 17.7784C386.357 17.7784 386.791 17.8248 387.204 17.9118C387.615 18.004 387.989 18.1379 388.321 18.3128C388.659 18.4883 388.948 18.705 389.199 18.9628C389.449 19.2164 389.661 19.5202 389.839 19.8707C390.023 20.2259 390.141 20.5664 390.209 20.8983C390.272 21.2306 390.311 21.7098 390.32 22.3316L380.289 22.3175ZM393.963 30.9451C394.207 30.9363 394.396 30.9316 394.525 30.9316C394.655 30.9316 394.848 30.9363 395.088 30.9451C395.088 29.9915 395.108 28.5207 395.145 26.53C395.171 25.055 395.239 23.7415 395.339 22.5899C395.401 21.8478 395.531 21.2259 395.719 20.7098C395.868 20.267 396.095 19.8519 396.399 19.4603C396.696 19.0691 397.005 18.7598 397.323 18.5336C397.637 18.3128 397.977 18.1379 398.339 18.0227C398.7 17.9076 399.109 17.8478 399.563 17.8478C400.025 17.8478 400.569 17.9212 401.2 18.0732C401.161 17.7686 401.141 17.4603 401.141 17.156C400.748 17.0691 400.357 17.0227 399.972 17.0227C399.441 17.0227 398.936 17.0779 398.455 17.1931C397.969 17.304 397.544 17.4655 397.184 17.677C396.823 17.8883 396.504 18.1514 396.229 18.4702C395.956 18.7831 395.661 19.2488 395.339 19.8612L395.469 17.3087C395.291 17.3175 395.117 17.3216 394.944 17.3216C394.785 17.3216 394.612 17.3175 394.424 17.3087L394.439 18.5248C394.439 19.7738 394.385 21.6822 394.284 24.2494C394.184 26.8155 394.073 29.0462 393.963 30.9451Z" fill="#231F20"/>
<path d="M173.085 30.9451L176.163 30.9316L179.153 30.9451C180.761 30.9451 182.245 30.7836 183.604 30.4607C184.961 30.1342 186.18 29.5071 187.259 28.5806C188.333 27.654 189.147 26.5118 189.7 25.1478C190.249 23.7831 190.524 22.3686 190.524 20.8983C190.524 19.668 190.345 18.5155 189.989 17.4508C189.628 16.3822 189.021 15.4274 188.169 14.5888C187.312 13.7451 186.333 13.1879 185.241 12.9212C184.143 12.6488 182.689 12.515 180.873 12.515L177.005 12.529L173.885 12.515C173.885 13.1279 173.881 13.6259 173.871 14.0128L173.495 24.53L173.085 30.9451ZM174.3 30.0926L175.031 13.354L177.752 13.3404H181.113C182.072 13.3494 182.911 13.4003 183.623 13.4874C184.413 13.58 185.072 13.7322 185.597 13.9394C186.127 14.1514 186.633 14.4696 187.113 14.8842C187.601 15.3035 188.025 15.815 188.391 16.4191C188.723 16.9483 188.964 17.5202 189.128 18.1331C189.353 18.9764 189.465 19.8612 189.465 20.7784C189.465 21.7322 189.349 22.6732 189.112 23.6087C188.877 24.5388 188.516 25.3874 188.033 26.1514C187.548 26.917 186.927 27.6087 186.169 28.2306C185.415 28.853 184.639 29.2764 183.849 29.5118C183.059 29.7472 182.164 29.9082 181.163 29.9962C180.16 30.0879 179.183 30.1342 178.233 30.1342C177.276 30.1342 175.965 30.1207 174.3 30.0926ZM193.529 30.9451C193.775 30.9363 193.963 30.9316 194.092 30.9316C194.223 30.9316 194.416 30.9363 194.656 30.9451C194.656 29.9915 194.675 28.5207 194.713 26.53C194.737 25.055 194.805 23.7415 194.907 22.5899C194.969 21.8478 195.099 21.2259 195.287 20.7098C195.436 20.267 195.663 19.8519 195.967 19.4603C196.264 19.0691 196.573 18.7598 196.891 18.5336C197.204 18.3128 197.545 18.1379 197.907 18.0227C198.268 17.9076 198.677 17.8478 199.131 17.8478C199.592 17.8478 200.137 17.9212 200.768 18.0732C200.728 17.7686 200.709 17.4603 200.709 17.156C200.315 17.0691 199.924 17.0227 199.54 17.0227C199.009 17.0227 198.504 17.0779 198.023 17.1931C197.536 17.304 197.112 17.4655 196.751 17.677C196.389 17.8883 196.072 18.1514 195.797 18.4702C195.523 18.7831 195.229 19.2488 194.907 19.8612L195.036 17.3087C194.859 17.3175 194.685 17.3216 194.512 17.3216C194.352 17.3216 194.179 17.3175 193.992 17.3087L194.005 18.5248C194.005 19.7738 193.953 21.6822 193.852 24.2494C193.751 26.8155 193.64 29.0462 193.529 30.9451ZM203.488 18.7415C204.119 18.4972 204.639 18.3175 205.053 18.2071C205.468 18.092 205.973 17.9946 206.576 17.9076C207.177 17.8196 207.823 17.7784 208.512 17.7784C209.104 17.7784 209.668 17.8295 210.201 17.9259C210.741 18.0274 211.189 18.2024 211.549 18.4555C211.912 18.705 212.163 18.9716 212.307 19.2576C212.447 19.5436 212.519 19.8383 212.519 20.1426C212.519 20.5664 212.364 20.9811 212.065 21.391C211.761 21.8019 211.344 22.1196 210.795 22.3503C210.251 22.5806 209.672 22.7696 209.06 22.9264C207.707 23.2576 206.932 23.4519 206.735 23.5071C206.017 23.705 205.353 23.9216 204.731 24.1524C204.196 24.3503 203.705 24.594 203.261 24.8847C202.887 25.115 202.587 25.3691 202.361 25.6404C202.087 25.9628 201.884 26.304 201.755 26.6592C201.625 27.0144 201.557 27.3827 201.557 27.7603C201.557 28.254 201.663 28.7284 201.88 29.1806C202.096 29.6274 202.433 30.0232 202.881 30.3644C203.335 30.7103 203.893 30.9404 204.563 31.056C205.232 31.1712 205.959 31.2311 206.749 31.2311C207.172 31.2311 207.62 31.2123 208.097 31.1712C208.569 31.1295 209.191 31.0379 209.952 30.8946C210.009 30.5535 210.077 30.2076 210.163 29.867C209.552 30.056 209.084 30.1847 208.761 30.254C208.433 30.318 208.087 30.3738 207.721 30.4155C207.356 30.4571 206.975 30.4754 206.581 30.4754C205.791 30.4754 205.116 30.3879 204.557 30.2123C203.999 30.0374 203.531 29.7331 203.165 29.2998C202.8 28.8664 202.617 28.3592 202.617 27.7738C202.617 27.3874 202.695 27.0232 202.844 26.6774C202.972 26.392 203.18 26.115 203.464 25.8571C203.783 25.5576 204.183 25.2904 204.664 25.0462C205.107 24.8202 205.733 24.5806 206.541 24.3274C206.899 24.2212 207.491 24.0598 208.323 23.8436C209.156 23.627 209.681 23.4836 209.899 23.4191C210.116 23.3503 210.352 23.2675 210.611 23.1754C210.871 23.0784 211.087 22.9858 211.271 22.8983C211.459 22.8066 211.628 22.705 211.781 22.594C211.935 22.479 212.163 22.3087 212.451 22.0743C212.393 22.9311 212.351 23.8483 212.315 24.8336C212.283 25.8202 212.239 26.742 212.191 27.594C212.139 28.4524 212.047 29.567 211.912 30.9451C212.147 30.9363 212.345 30.9316 212.504 30.9316C212.653 30.9316 212.856 30.9363 213.096 30.9451V29.8112C213.096 29.291 213.12 28.4336 213.168 27.254C213.216 26.0691 213.264 25.0784 213.323 24.2858C213.38 23.4926 213.423 22.7555 213.457 22.0644C213.491 21.3774 213.505 20.806 213.505 20.3592C213.505 19.9164 213.433 19.4836 213.289 19.0598C213.139 18.6399 212.841 18.2623 212.383 17.9347C211.925 17.6035 211.339 17.3722 210.621 17.2295C209.899 17.092 209.123 17.0227 208.285 17.0227C207.563 17.0227 206.845 17.0691 206.141 17.1655C205.433 17.2576 204.601 17.4327 203.643 17.6863C203.604 18.0827 203.556 18.4327 203.488 18.7415ZM217.021 30.9451C217.349 30.9363 217.613 30.9316 217.811 30.9316C217.999 30.9316 218.259 30.9363 218.585 30.9451C218.605 30.7284 218.62 30.4983 218.631 30.2494C218.639 30.005 218.653 29.7472 218.673 29.4754C218.341 29.4836 218.081 29.4888 217.883 29.4888C217.695 29.4888 217.431 29.4836 217.093 29.4754C217.084 29.655 217.075 29.853 217.069 30.0696C217.064 30.2863 217.049 30.577 217.021 30.9451ZM235.909 30.9451C236.237 30.9363 236.507 30.9316 236.713 30.9316C236.911 30.9316 237.176 30.9363 237.503 30.9451C238.284 29.3227 239.223 27.4936 240.325 25.4519L244.024 18.553C245.387 15.9858 246.489 13.9716 247.337 12.515C247.101 12.5248 246.879 12.529 246.672 12.529C246.471 12.529 246.249 12.5248 246.013 12.515C245.676 13.2342 245.396 13.806 245.18 14.2295L244.448 15.6904L236.785 30.1248L231.185 15.0128L230.365 12.515C230.131 12.5248 229.917 12.529 229.731 12.529C229.552 12.529 229.341 12.5248 229.095 12.515L234.315 26.3274C234.7 27.3639 234.971 28.0926 235.119 28.516C235.22 28.8118 235.321 29.115 235.413 29.4202L235.909 30.9451ZM248.941 13.8519C249.177 13.8331 249.413 13.8243 249.659 13.8243C249.904 13.8243 250.144 13.8331 250.38 13.8519L250.424 12.515C250.188 12.5248 249.948 12.529 249.701 12.529C249.456 12.529 249.215 12.5248 248.984 12.515L248.941 13.8519ZM248.431 30.9451C248.676 30.9363 248.863 30.9316 248.993 30.9316C249.124 30.9316 249.311 30.9363 249.557 30.9451C249.557 29.4707 249.62 27.254 249.751 24.304C249.875 21.3503 250.011 19.018 250.14 17.3087C249.895 17.3175 249.701 17.3216 249.563 17.3216C249.432 17.3216 249.245 17.3175 248.999 17.3087C248.999 18.3358 248.931 20.5248 248.792 23.8847C248.657 27.2399 248.536 29.5951 248.431 30.9451ZM253.623 30.9451C253.867 30.9363 254.056 30.9316 254.185 30.9316C254.315 30.9316 254.508 30.9363 254.749 30.9451C254.749 29.9915 254.768 28.5207 254.807 26.53C254.831 25.055 254.899 23.7415 254.999 22.5899C255.061 21.8478 255.192 21.2259 255.38 20.7098C255.528 20.267 255.755 19.8519 256.059 19.4603C256.357 19.0691 256.665 18.7598 256.983 18.5336C257.297 18.3128 257.639 18.1379 258 18.0227C258.361 17.9076 258.769 17.8478 259.223 17.8478C259.685 17.8478 260.229 17.9212 260.861 18.0732C260.821 17.7686 260.803 17.4603 260.803 17.156C260.408 17.0691 260.017 17.0227 259.632 17.0227C259.103 17.0227 258.596 17.0779 258.116 17.1931C257.629 17.304 257.204 17.4655 256.844 17.677C256.483 17.8883 256.164 18.1514 255.891 18.4702C255.616 18.7831 255.321 19.2488 254.999 19.8612L255.129 17.3087C254.951 17.3175 254.777 17.3216 254.604 17.3216C254.445 17.3216 254.272 17.3175 254.084 17.3087L254.099 18.5248C254.099 19.7738 254.045 21.6822 253.944 24.2494C253.844 26.8155 253.733 29.0462 253.623 30.9451ZM263.543 35.8764C263.591 36.218 263.625 36.5722 263.644 36.9404C264.601 37.1582 265.445 37.305 266.167 37.3779C266.889 37.456 267.637 37.494 268.397 37.494C269.432 37.494 270.361 37.3978 271.191 37.1983C271.951 37.015 272.577 36.7754 273.079 36.4664C273.575 36.1618 273.988 35.7888 274.32 35.3462C274.648 34.904 274.893 34.406 275.053 33.8488C275.201 33.3279 275.299 32.7284 275.332 32.0514L275.495 26.392L275.808 20.2071C275.837 19.7322 275.867 19.3456 275.896 19.0498L276.04 17.4972C274.205 17.1795 272.644 17.0227 271.36 17.0227C270.087 17.0227 268.908 17.1795 267.813 17.4972C266.727 17.8103 265.763 18.3316 264.929 19.0546C264.101 19.7784 263.456 20.7003 263.008 21.8155C262.555 22.9311 262.329 24.0972 262.329 25.3128C262.329 26.203 262.477 27.0514 262.781 27.8571C263.081 28.6639 263.528 29.3227 264.116 29.8347C264.703 30.3508 265.368 30.715 266.12 30.9316C266.865 31.1478 267.675 31.254 268.551 31.254C269.095 31.254 269.625 31.203 270.131 31.1066C270.641 31.005 271.104 30.8716 271.523 30.692C271.941 30.517 272.312 30.318 272.636 30.0978C272.963 29.88 273.247 29.6322 273.487 29.3555C273.733 29.0831 273.925 28.8207 274.06 28.5722C274.195 28.3274 274.36 27.9863 274.547 27.5535C274.519 28.9592 274.471 30.2212 274.403 31.3368C274.373 32.0284 274.297 32.6784 274.171 33.2816C274.041 33.8852 273.853 34.3879 273.597 34.7936C273.381 35.1342 273.079 35.4478 272.684 35.7243C272.24 36.0331 271.705 36.2686 271.075 36.4431C270.385 36.641 269.644 36.7374 268.845 36.7374C268.171 36.7374 267.424 36.679 266.615 36.5628C265.811 36.4472 264.785 36.218 263.543 35.8764ZM274.909 18.1331L274.74 22.7603C274.677 23.9863 274.561 24.991 274.403 25.7702C274.283 26.3322 274.08 26.8759 273.805 27.4107C273.527 27.9498 273.203 28.4155 272.837 28.8118C272.472 29.2076 272.091 29.5254 271.692 29.7603C271.292 30.0003 270.863 30.1759 270.416 30.2811C269.827 30.4243 269.201 30.4983 268.523 30.4983C267.527 30.4983 266.615 30.2863 265.792 29.8582C264.972 29.429 264.365 28.7931 263.976 27.9451C263.585 27.1014 263.388 26.1566 263.388 25.1107C263.388 24.0232 263.6 22.968 264.025 21.9494C264.448 20.9347 265.04 20.1014 265.805 19.4508C266.572 18.806 267.416 18.3634 268.34 18.1279C269.259 17.8936 270.26 17.7784 271.344 17.7784C271.753 17.7784 272.231 17.7967 272.765 17.8336C273.305 17.8707 274.017 17.9675 274.909 18.1331ZM279.628 30.9451C279.873 30.9363 280.061 30.9316 280.192 30.9316C280.321 30.9316 280.509 30.9363 280.755 30.9451C280.755 29.4707 280.817 27.254 280.948 24.304C281.073 21.3503 281.207 19.018 281.337 17.3087C281.091 17.3175 280.9 17.3216 280.759 17.3216C280.631 17.3216 280.441 17.3175 280.196 17.3087C280.196 18.3358 280.129 20.5248 279.989 23.8847C279.855 27.2399 279.735 29.5951 279.628 30.9451ZM279.951 15.5936C280.028 15.5754 280.119 15.5664 280.235 15.5664C280.356 15.5664 280.451 15.5754 280.528 15.5936C280.773 15.1607 281.164 14.5107 281.699 13.6446C282.239 12.7732 282.619 12.1696 282.845 11.8284C282.609 11.8379 282.335 11.8426 282.027 11.8426C281.717 11.8426 281.443 11.8379 281.207 11.8284C280.832 12.9716 280.563 13.7732 280.404 14.2295C280.244 14.6904 280.089 15.1426 279.951 15.5936ZM284.819 30.9451C285.065 30.9363 285.252 30.9316 285.383 30.9316C285.513 30.9316 285.7 30.9363 285.947 30.9451C285.947 29.7555 285.984 28.3046 286.052 26.5899C286.124 24.8759 286.216 23.6404 286.327 22.8847C286.447 22.0092 286.625 21.3316 286.861 20.8431C287.175 20.179 287.575 19.627 288.06 19.1888C288.552 18.755 289.12 18.4238 289.771 18.1978C290.459 17.9628 291.249 17.8478 292.139 17.8478C292.78 17.8478 293.401 17.9164 294.004 18.0546C294.605 18.1978 295.125 18.4191 295.564 18.7322C296.001 19.041 296.309 19.4327 296.488 19.8983C296.667 20.3686 296.757 20.8983 296.757 21.4926C296.757 22.0598 296.719 22.9811 296.641 24.2628L296.445 27.7196C296.387 28.7426 296.315 29.8207 296.219 30.9451C296.397 30.9363 296.576 30.9316 296.752 30.9316C296.931 30.9316 297.115 30.9363 297.303 30.9451L297.36 28.7426L297.659 22.5988C297.688 22.0508 297.701 21.6363 297.701 21.3592C297.701 20.7368 297.611 20.1524 297.427 19.6082C297.245 19.0644 296.908 18.5806 296.416 18.1655C295.924 17.7462 295.308 17.4508 294.567 17.2806C293.825 17.1098 293.055 17.0227 292.264 17.0227C291.793 17.0227 291.32 17.055 290.839 17.1238C290.357 17.1931 289.891 17.2994 289.433 17.4467C288.975 17.5983 288.585 17.7831 288.263 17.9994C287.935 18.2212 287.656 18.4607 287.419 18.7098C287.184 18.9628 287.001 19.1978 286.861 19.4191C286.727 19.6399 286.553 19.9628 286.347 20.3868L286.539 17.3087C286.293 17.3175 286.115 17.3216 286.004 17.3216C285.883 17.3216 285.7 17.3175 285.455 17.3087C285.455 17.6216 285.445 18.1279 285.425 18.8202L285.301 22.6956L284.819 30.9451ZM301.992 13.8519C302.229 13.8331 302.465 13.8243 302.711 13.8243C302.956 13.8243 303.196 13.8331 303.432 13.8519L303.476 12.515C303.24 12.5248 303 12.529 302.753 12.529C302.508 12.529 302.267 12.5248 302.036 12.515L301.992 13.8519ZM301.481 30.9451C301.728 30.9363 301.916 30.9316 302.045 30.9316C302.176 30.9316 302.363 30.9363 302.609 30.9451C302.609 29.4707 302.672 27.254 302.803 24.304C302.927 21.3503 303.061 19.018 303.192 17.3087C302.947 17.3175 302.753 17.3216 302.615 17.3216C302.484 17.3216 302.296 17.3175 302.051 17.3087C302.051 18.3358 301.983 20.5248 301.844 23.8847C301.708 27.2399 301.588 29.5951 301.481 30.9451ZM307.545 18.7415C308.176 18.4972 308.696 18.3175 309.111 18.2071C309.525 18.092 310.029 17.9946 310.633 17.9076C311.235 17.8196 311.879 17.7784 312.569 17.7784C313.16 17.7784 313.724 17.8295 314.259 17.9259C314.799 18.0274 315.247 18.2024 315.607 18.4555C315.969 18.705 316.219 18.9716 316.363 19.2576C316.503 19.5436 316.576 19.8383 316.576 20.1426C316.576 20.5664 316.42 20.9811 316.123 21.391C315.819 21.8019 315.4 22.1196 314.852 22.3503C314.307 22.5806 313.729 22.7696 313.117 22.9264C311.764 23.2576 310.989 23.4519 310.792 23.5071C310.073 23.705 309.409 23.9216 308.788 24.1524C308.253 24.3503 307.763 24.594 307.319 24.8847C306.944 25.115 306.644 25.3691 306.417 25.6404C306.144 25.9628 305.941 26.304 305.811 26.6592C305.683 27.0144 305.615 27.3827 305.615 27.7603C305.615 28.254 305.72 28.7284 305.937 29.1806C306.153 29.6274 306.491 30.0232 306.939 30.3644C307.391 30.7103 307.951 30.9404 308.62 31.056C309.289 31.1712 310.016 31.2311 310.805 31.2311C311.229 31.2311 311.677 31.2123 312.153 31.1712C312.627 31.1295 313.248 31.0379 314.008 30.8946C314.067 30.5535 314.135 30.2076 314.22 29.867C313.608 30.056 313.141 30.1847 312.819 30.254C312.491 30.318 312.144 30.3738 311.779 30.4155C311.413 30.4571 311.032 30.4754 310.637 30.4754C309.848 30.4754 309.173 30.3879 308.615 30.2123C308.056 30.0374 307.588 29.7331 307.223 29.2998C306.857 28.8664 306.675 28.3592 306.675 27.7738C306.675 27.3874 306.751 27.0232 306.9 26.6774C307.029 26.392 307.237 26.115 307.521 25.8571C307.839 25.5576 308.239 25.2904 308.72 25.0462C309.164 24.8202 309.791 24.5806 310.599 24.3274C310.956 24.2212 311.548 24.0598 312.38 23.8436C313.213 23.627 313.739 23.4836 313.956 23.4191C314.172 23.3503 314.409 23.2675 314.668 23.1754C314.928 23.0784 315.144 22.9858 315.328 22.8983C315.516 22.8066 315.685 22.705 315.839 22.594C315.992 22.479 316.219 22.3087 316.508 22.0743C316.451 22.9311 316.407 23.8483 316.372 24.8336C316.34 25.8202 316.296 26.742 316.248 27.594C316.195 28.4524 316.103 29.567 315.969 30.9451C316.204 30.9363 316.401 30.9316 316.561 30.9316C316.709 30.9316 316.913 30.9363 317.153 30.9451V29.8112C317.153 29.291 317.177 28.4336 317.225 27.254C317.273 26.0691 317.321 25.0784 317.379 24.2858C317.437 23.4926 317.48 22.7555 317.515 22.0644C317.548 21.3774 317.563 20.806 317.563 20.3592C317.563 19.9164 317.491 19.4836 317.347 19.0598C317.196 18.6399 316.899 18.2623 316.44 17.9347C315.983 17.6035 315.395 17.3722 314.677 17.2295C313.956 17.092 313.18 17.0227 312.343 17.0227C311.62 17.0227 310.903 17.0691 310.199 17.1655C309.491 17.2576 308.657 17.4327 307.699 17.6863C307.661 18.0827 307.613 18.4327 307.545 18.7415ZM328.316 30.9451C328.552 30.9363 328.759 30.9316 328.937 30.9316C329.116 30.9316 329.328 30.9363 329.573 30.9451C329.584 30.1066 329.597 29.4754 329.617 29.0462C329.636 28.6222 329.655 28.194 329.684 27.7702L330.435 17.8336C330.536 16.4936 330.589 15.603 330.633 15.1607L330.709 14.3707L331.225 14.6628L337.375 30.9451C337.601 30.9363 337.848 30.9316 338.123 30.9316C338.396 30.9316 338.641 30.9363 338.868 30.9451L344.599 18.5202L346.709 13.7071L346.997 15.267C347.195 16.344 346.983 17.6322 346.955 19.0598L346.713 30.9451C346.949 30.9363 347.171 30.9316 347.377 30.9316C347.571 30.9316 347.792 30.9363 348.037 30.9451C347.984 29.3092 347.956 27.0784 347.956 24.2628C347.956 23.4055 347.965 22.0962 347.989 20.3316L348.124 12.515C347.805 12.5248 347.499 12.529 347.209 12.529C346.916 12.529 346.612 12.5248 346.289 12.515C346 13.216 345.769 13.7598 345.6 14.1374L338.151 29.9035L337.135 27.2858L333.425 17.3639C332.859 15.8431 332.487 14.8331 332.308 14.3358L331.688 12.515C331.361 12.5248 331.057 12.529 330.772 12.529C330.503 12.529 330.199 12.5248 329.872 12.515L329.433 18.5388L328.615 28.4472L328.316 30.9451ZM364.604 30.9451C364.604 30.3508 364.613 29.6363 364.633 28.7978L364.692 26.7607L365.211 17.3087C364.967 17.3175 364.783 17.3216 364.661 17.3216C364.536 17.3216 364.349 17.3175 364.099 17.3087C364.088 18.7322 364.051 20.2946 363.983 22.0092C363.901 23.7879 363.813 25.0186 363.708 25.7003C363.607 26.3779 363.444 26.9494 363.232 27.4107C362.985 27.9311 362.688 28.392 362.34 28.7883C362.041 29.1295 361.691 29.4155 361.296 29.6503C360.901 29.8852 360.405 30.0831 359.807 30.2399C359.209 30.3972 358.589 30.4754 357.939 30.4754C357.317 30.4754 356.716 30.4103 356.128 30.2863C355.54 30.1612 355.016 29.9404 354.548 29.6322C354.081 29.318 353.759 28.9264 353.567 28.4472C353.379 27.9727 353.287 27.392 353.287 26.705C353.287 26.0926 353.36 24.567 353.508 22.129C353.653 19.6904 353.764 18.0827 353.841 17.3087C353.595 17.3175 353.413 17.3216 353.292 17.3216C353.167 17.3216 352.984 17.3175 352.744 17.3087C352.744 18.677 352.675 20.442 352.549 22.6082C352.42 24.7748 352.357 26.1295 352.357 26.6774C352.357 27.392 352.459 28.0279 352.656 28.5904C352.853 29.1524 353.219 29.6451 353.764 30.0696C354.304 30.4936 354.924 30.7883 355.623 30.9592C356.325 31.1295 357.083 31.2164 357.891 31.2164C358.359 31.2164 358.825 31.1847 359.292 31.1207C359.759 31.0603 360.212 30.9546 360.655 30.8118C361.097 30.6686 361.479 30.4936 361.805 30.2904C362.129 30.0879 362.399 29.8764 362.616 29.6503C362.832 29.4243 363.011 29.2123 363.144 29.0098C363.28 28.8066 363.459 28.4743 363.675 28.0144L363.559 30.9451C363.748 30.9363 363.92 30.9316 364.084 30.9316C364.244 30.9316 364.417 30.9363 364.604 30.9451ZM360.101 14.3774C360.328 14.3686 360.569 14.3634 360.823 14.3634C361.065 14.3634 361.305 14.3686 361.54 14.3774L361.584 13.041C361.349 13.0498 361.108 13.0546 360.861 13.0546C360.616 13.0546 360.38 13.0498 360.144 13.041L360.101 14.3774ZM356.547 14.3774C356.773 14.3686 357.015 14.3634 357.269 14.3634C357.511 14.3634 357.751 14.3686 357.987 14.3774L358.029 13.041C357.795 13.0498 357.553 13.0546 357.307 13.0546C357.063 13.0546 356.827 13.0498 356.589 13.041L356.547 14.3774ZM368.693 30.9451C368.939 30.9363 369.132 30.9316 369.271 30.9316C369.411 30.9316 369.603 30.9363 369.849 30.9451L370.252 19.092L370.609 12.515C370.363 12.5248 370.171 12.529 370.031 12.529C369.892 12.529 369.699 12.5248 369.453 12.515C369.376 17.2946 369.127 23.4379 368.693 30.9451ZM374.096 30.9451C374.343 30.9363 374.533 30.9316 374.675 30.9316C374.813 30.9316 375.007 30.9363 375.251 30.9451L375.656 19.092L376.013 12.515C375.767 12.5248 375.575 12.529 375.435 12.529C375.296 12.529 375.103 12.5248 374.857 12.515C374.78 17.2946 374.529 23.4379 374.096 30.9451ZM390.152 29.6363C388.611 30.194 387.209 30.4754 385.948 30.4754C385.12 30.4754 384.335 30.3462 383.592 30.0831C382.847 29.8207 382.211 29.4202 381.681 28.8811C381.145 28.341 380.751 27.6686 380.487 26.8664C380.221 26.0691 380.092 25.2394 380.092 24.3827C380.092 24.0879 380.116 23.6451 380.164 23.0598L391.323 23.0462C391.341 22.8478 391.352 22.6404 391.352 22.4238C391.352 21.2623 391.116 20.2576 390.639 19.415C390.161 18.5664 389.497 17.9582 388.64 17.5852C387.788 17.2112 386.829 17.0227 385.78 17.0227C384.244 17.0227 382.957 17.3822 381.927 18.1014C380.891 18.8248 380.144 19.7322 379.696 20.8248C379.245 21.917 379.019 23.0926 379.019 24.341C379.019 25.2946 379.147 26.1983 379.413 27.0462C379.677 27.8899 380.121 28.655 380.743 29.3322C381.359 30.0144 382.105 30.4983 382.976 30.7931C383.848 31.0831 384.845 31.2311 385.976 31.2311C386.627 31.2311 387.257 31.1894 387.879 31.1019C388.5 31.0186 389.203 30.867 389.983 30.6498C390.023 30.3092 390.075 29.968 390.152 29.6363ZM380.289 22.3175C380.419 21.7784 380.544 21.3503 380.665 21.0415C380.78 20.7322 380.949 20.405 381.171 20.0592C381.392 19.7186 381.676 19.4003 382.019 19.1107C382.361 18.815 382.731 18.5754 383.127 18.3868C383.521 18.1978 383.959 18.0508 384.436 17.9394C384.917 17.8336 385.404 17.7784 385.905 17.7784C386.357 17.7784 386.791 17.8248 387.204 17.9118C387.615 18.004 387.989 18.1379 388.321 18.3128C388.659 18.4883 388.948 18.705 389.199 18.9628C389.449 19.2164 389.661 19.5202 389.839 19.8707C390.023 20.2259 390.141 20.5664 390.209 20.8983C390.272 21.2306 390.311 21.7098 390.32 22.3316L380.289 22.3175ZM393.963 30.9451C394.207 30.9363 394.396 30.9316 394.525 30.9316C394.655 30.9316 394.848 30.9363 395.088 30.9451C395.088 29.9915 395.108 28.5207 395.145 26.53C395.171 25.055 395.239 23.7415 395.339 22.5899C395.401 21.8478 395.531 21.2259 395.719 20.7098C395.868 20.267 396.095 19.8519 396.399 19.4603C396.696 19.0691 397.005 18.7598 397.323 18.5336C397.637 18.3128 397.977 18.1379 398.339 18.0227C398.7 17.9076 399.109 17.8478 399.563 17.8478C400.025 17.8478 400.569 17.9212 401.2 18.0732C401.161 17.7686 401.141 17.4603 401.141 17.156C400.748 17.0691 400.357 17.0227 399.972 17.0227C399.441 17.0227 398.936 17.0779 398.455 17.1931C397.969 17.304 397.544 17.4655 397.184 17.677C396.823 17.8883 396.504 18.1514 396.229 18.4702C395.956 18.7831 395.661 19.2488 395.339 19.8612L395.469 17.3087C395.291 17.3175 395.117 17.3216 394.944 17.3216C394.785 17.3216 394.612 17.3175 394.424 17.3087L394.439 18.5248C394.439 19.7738 394.385 21.6822 394.284 24.2494C394.184 26.8155 394.073 29.0462 393.963 30.9451Z" stroke="#231F20" stroke-width="0.0266667" stroke-miterlimit="22.9256"/>
<path d="M179.671 41.4182H180.71V47.1003C180.71 47.6869 180.572 48.2107 180.295 48.6717C180.022 49.1298 179.635 49.4916 179.135 49.757C178.635 50.0196 178.048 50.1509 177.375 50.1509C176.701 50.1509 176.115 50.0196 175.615 49.757C175.115 49.4916 174.726 49.1298 174.45 48.6717C174.176 48.2107 174.039 47.6869 174.039 47.1003V41.4182H175.078V47.0165C175.078 47.4355 175.171 47.8085 175.355 48.1353C175.539 48.4594 175.802 48.715 176.143 48.9021C176.486 49.0865 176.897 49.1787 177.375 49.1787C177.852 49.1787 178.263 49.0865 178.607 48.9021C178.95 48.715 179.213 48.4594 179.394 48.1353C179.579 47.8085 179.671 47.4355 179.671 47.0165V41.4182ZM182.651 50V43.5636H183.607V44.5358H183.674C183.791 44.2173 184.003 43.9589 184.311 43.7606C184.618 43.5622 184.964 43.4631 185.35 43.4631C185.423 43.4631 185.513 43.4645 185.622 43.4673C185.731 43.4701 185.814 43.4742 185.87 43.4798V44.4855C185.836 44.4771 185.759 44.4646 185.639 44.4478C185.522 44.4282 185.397 44.4185 185.266 44.4185C184.953 44.4185 184.674 44.4841 184.428 44.6154C184.185 44.7439 183.992 44.9227 183.85 45.1518C183.71 45.3781 183.64 45.6365 183.64 45.927V50H182.651ZM189.461 50.1341C188.88 50.1341 188.37 49.9958 187.931 49.7192C187.495 49.4427 187.155 49.0558 186.909 48.5585C186.666 48.0613 186.544 47.4802 186.544 46.8153C186.544 46.1449 186.666 45.5596 186.909 45.0596C187.155 44.5595 187.495 44.1712 187.931 43.8947C188.37 43.6181 188.88 43.4798 189.461 43.4798C190.042 43.4798 190.55 43.6181 190.986 43.8947C191.425 44.1712 191.765 44.5595 192.008 45.0596C192.254 45.5596 192.377 46.1449 192.377 46.8153C192.377 47.4802 192.254 48.0613 192.008 48.5585C191.765 49.0558 191.425 49.4427 190.986 49.7192C190.55 49.9958 190.042 50.1341 189.461 50.1341ZM189.461 49.2457C189.902 49.2457 190.265 49.1326 190.55 48.9063C190.835 48.68 191.046 48.3825 191.183 48.0138C191.32 47.645 191.388 47.2455 191.388 46.8153C191.388 46.3851 191.32 45.9843 191.183 45.6127C191.046 45.2412 190.835 44.9409 190.55 44.7118C190.265 44.4827 189.902 44.3682 189.461 44.3682C189.019 44.3682 188.656 44.4827 188.371 44.7118C188.086 44.9409 187.875 45.2412 187.738 45.6127C187.602 45.9843 187.533 46.3851 187.533 46.8153C187.533 47.2455 187.602 47.645 187.738 48.0138C187.875 48.3825 188.086 48.68 188.371 48.9063C188.656 49.1326 189.019 49.2457 189.461 49.2457ZM194.876 41.4182V50H193.887V41.4182H194.876ZM199.302 50.1341C198.721 50.1341 198.211 49.9958 197.772 49.7192C197.336 49.4427 196.996 49.0558 196.75 48.5585C196.507 48.0613 196.385 47.4802 196.385 46.8153C196.385 46.1449 196.507 45.5596 196.75 45.0596C196.996 44.5595 197.336 44.1712 197.772 43.8947C198.211 43.6181 198.721 43.4798 199.302 43.4798C199.883 43.4798 200.391 43.6181 200.827 43.8947C201.266 44.1712 201.606 44.5595 201.849 45.0596C202.095 45.5596 202.218 46.1449 202.218 46.8153C202.218 47.4802 202.095 48.0613 201.849 48.5585C201.606 49.0558 201.266 49.4427 200.827 49.7192C200.391 49.9958 199.883 50.1341 199.302 50.1341ZM199.302 49.2457C199.743 49.2457 200.106 49.1326 200.391 48.9063C200.676 48.68 200.887 48.3825 201.024 48.0138C201.161 47.645 201.229 47.2455 201.229 46.8153C201.229 46.3851 201.161 45.9843 201.024 45.6127C200.887 45.2412 200.676 44.9409 200.391 44.7118C200.106 44.4827 199.743 44.3682 199.302 44.3682C198.86 44.3682 198.497 44.4827 198.212 44.7118C197.927 44.9409 197.716 45.2412 197.579 45.6127C197.443 45.9843 197.374 46.3851 197.374 46.8153C197.374 47.2455 197.443 47.645 197.579 48.0138C197.716 48.3825 197.927 48.68 198.212 48.9063C198.497 49.1326 198.86 49.2457 199.302 49.2457ZM206.326 52.5477C205.848 52.5477 205.437 52.4863 205.094 52.3634C204.75 52.2432 204.464 52.084 204.235 51.8857C204.009 51.6901 203.828 51.4806 203.694 51.2571L204.482 50.704C204.571 50.8213 204.685 50.9554 204.821 51.1063C204.958 51.2599 205.146 51.3926 205.383 51.5043C205.623 51.6189 205.937 51.6761 206.326 51.6761C206.845 51.6761 207.274 51.5504 207.612 51.299C207.95 51.0476 208.119 50.6537 208.119 50.1173V48.8099H208.035C207.963 48.9273 207.859 49.0725 207.725 49.2457C207.594 49.4161 207.404 49.5684 207.155 49.7025C206.91 49.8338 206.577 49.8994 206.158 49.8994C205.639 49.8994 205.172 49.7765 204.759 49.5307C204.348 49.2848 204.022 48.9273 203.782 48.458C203.545 47.9886 203.426 47.4187 203.426 46.7483C203.426 46.089 203.542 45.5149 203.774 45.0261C204.006 44.5344 204.328 44.1545 204.742 43.8863C205.155 43.6153 205.633 43.4798 206.175 43.4798C206.594 43.4798 206.926 43.5497 207.172 43.6893C207.421 43.8262 207.611 43.9827 207.742 44.1587C207.876 44.3319 207.98 44.4743 208.052 44.5861H208.153V43.5636H209.108V50.1844C209.108 50.7375 208.982 51.1873 208.731 51.5337C208.482 51.8829 208.147 52.1385 207.725 52.3005C207.306 52.4653 206.84 52.5477 206.326 52.5477ZM206.292 49.0111C206.689 49.0111 207.024 48.9203 207.298 48.7387C207.572 48.5571 207.78 48.2959 207.922 47.9551C208.065 47.6143 208.136 47.2064 208.136 46.7315C208.136 46.2678 208.066 45.8585 207.926 45.5038C207.787 45.149 207.58 44.871 207.306 44.6699C207.033 44.4687 206.695 44.3682 206.292 44.3682C205.873 44.3682 205.524 44.4743 205.245 44.6866C204.968 44.899 204.76 45.1839 204.62 45.5415C204.483 45.8991 204.415 46.2957 204.415 46.7315C204.415 47.1785 204.485 47.5738 204.625 47.9174C204.767 48.2582 204.976 48.5264 205.253 48.7219C205.532 48.9147 205.879 49.0111 206.292 49.0111ZM210.918 50V43.5636H211.907V50H210.918ZM211.421 42.4909C211.228 42.4909 211.062 42.4253 210.923 42.294C210.786 42.1627 210.717 42.0048 210.717 41.8205C210.717 41.6361 210.786 41.4782 210.923 41.3469C211.062 41.2156 211.228 41.15 211.421 41.15C211.614 41.15 211.779 41.2156 211.916 41.3469C212.055 41.4782 212.125 41.6361 212.125 41.8205C212.125 42.0048 212.055 42.1627 211.916 42.294C211.779 42.4253 211.614 42.4909 211.421 42.4909ZM215.613 50.1509C215.205 50.1509 214.835 50.074 214.502 49.9204C214.17 49.7639 213.906 49.5391 213.71 49.2457C213.515 48.9496 213.417 48.592 213.417 48.173C213.417 47.8043 213.49 47.5054 213.635 47.2763C213.78 47.0444 213.974 46.8628 214.217 46.7315C214.46 46.6002 214.728 46.5025 215.022 46.4382C215.318 46.3712 215.615 46.3181 215.914 46.279C216.305 46.2287 216.622 46.191 216.866 46.1658C217.111 46.1379 217.29 46.0918 217.402 46.0276C217.516 45.9633 217.574 45.8516 217.574 45.6923V45.6588C217.574 45.2454 217.461 44.9241 217.234 44.695C217.011 44.466 216.671 44.3514 216.216 44.3514C215.744 44.3514 215.374 44.4548 215.106 44.6615C214.837 44.8682 214.649 45.0889 214.54 45.3236L213.601 44.9884C213.769 44.5973 213.992 44.2928 214.272 44.0749C214.554 43.8542 214.861 43.7005 215.194 43.6139C215.529 43.5245 215.858 43.4798 216.183 43.4798C216.389 43.4798 216.627 43.505 216.895 43.5553C217.166 43.6027 217.427 43.7019 217.678 43.8528C217.933 44.0036 218.144 44.2313 218.311 44.5358C218.479 44.8403 218.563 45.2482 218.563 45.7594V50H217.574V49.1284H217.523C217.456 49.2681 217.345 49.4175 217.188 49.5768C217.032 49.736 216.824 49.8715 216.564 49.9832C216.304 50.095 215.987 50.1509 215.613 50.1509ZM215.763 49.2625C216.155 49.2625 216.484 49.1857 216.752 49.032C217.023 48.8784 217.227 48.68 217.364 48.437C217.504 48.194 217.574 47.9384 217.574 47.6702V46.7651C217.532 46.8153 217.44 46.8614 217.297 46.9033C217.157 46.9424 216.995 46.9774 216.811 47.0081C216.629 47.036 216.452 47.0612 216.279 47.0835C216.108 47.1031 215.97 47.1198 215.864 47.1338C215.607 47.1673 215.367 47.2218 215.143 47.2972C214.923 47.3699 214.744 47.4802 214.607 47.6283C214.473 47.7735 214.406 47.9719 214.406 48.2233C214.406 48.5669 214.533 48.8267 214.787 49.0027C215.044 49.1759 215.37 49.2625 215.763 49.2625ZM224.407 50.067C224.2 50.067 224.023 49.993 223.875 49.845C223.727 49.6969 223.653 49.5195 223.653 49.3128C223.653 49.1061 223.727 48.9287 223.875 48.7806C224.023 48.6326 224.2 48.5585 224.407 48.5585C224.614 48.5585 224.791 48.6326 224.939 48.7806C225.087 48.9287 225.161 49.1061 225.161 49.3128C225.161 49.4497 225.126 49.5754 225.057 49.6899C224.99 49.8045 224.899 49.8966 224.784 49.9665C224.672 50.0335 224.547 50.067 224.407 50.067ZM237.294 44.1H236.255C236.194 43.8011 236.086 43.5385 235.933 43.3122C235.782 43.0859 235.597 42.896 235.38 42.7423C235.164 42.5859 234.926 42.4686 234.663 42.3903C234.4 42.3121 234.127 42.273 233.842 42.273C233.322 42.273 232.851 42.4043 232.43 42.6669C232.01 42.9295 231.677 43.3164 231.428 43.8276C231.182 44.3388 231.059 44.966 231.059 45.7091C231.059 46.4522 231.182 47.0793 231.428 47.5906C231.677 48.1018 232.01 48.4887 232.43 48.7513C232.851 49.0139 233.322 49.1452 233.842 49.1452C234.127 49.1452 234.4 49.1061 234.663 49.0278C234.926 48.9496 235.164 48.8337 235.38 48.68C235.597 48.5236 235.782 48.3322 235.933 48.106C236.086 47.8769 236.194 47.6143 236.255 47.3182H237.294C237.216 47.7568 237.074 48.1493 236.867 48.4957C236.66 48.8421 236.403 49.1368 236.096 49.3798C235.789 49.6201 235.444 49.8031 235.061 49.9288C234.681 50.0545 234.275 50.1173 233.842 50.1173C233.11 50.1173 232.459 49.9385 231.889 49.581C231.319 49.2234 230.871 48.715 230.544 48.0557C230.217 47.3964 230.054 46.6142 230.054 45.7091C230.054 44.804 230.217 44.0218 230.544 43.3625C230.871 42.7032 231.319 42.1948 231.889 41.8372C232.459 41.4796 233.11 41.3009 233.842 41.3009C234.275 41.3009 234.681 41.3637 235.061 41.4894C235.444 41.6151 235.789 41.7995 236.096 42.0425C236.403 42.2828 236.66 42.5761 236.867 42.9225C237.074 43.2661 237.216 43.6586 237.294 44.1ZM238.974 50V41.4182H241.873C242.544 41.4182 243.094 41.5327 243.524 41.7618C243.955 41.9881 244.273 42.2995 244.48 42.6962C244.687 43.0929 244.79 43.5441 244.79 44.0497C244.79 44.5554 244.687 45.0037 244.48 45.3948C244.273 45.7859 243.956 46.0932 243.529 46.3167C243.101 46.5374 242.555 46.6477 241.89 46.6477H239.544V45.7091H241.857C242.315 45.7091 242.684 45.642 242.963 45.508C243.245 45.3739 243.449 45.1839 243.575 44.9381C243.703 44.6894 243.768 44.3933 243.768 44.0497C243.768 43.7061 243.703 43.4058 243.575 43.1488C243.446 42.8918 243.241 42.6934 242.959 42.5538C242.677 42.4113 242.304 42.3401 241.84 42.3401H240.013V50H238.974ZM243.013 46.1449L245.125 50H243.918L241.84 46.1449H243.013ZM246.522 50V41.4182H251.701V42.3401H247.561V45.2398H251.433V46.1616H247.561V49.0781H251.768V50H246.522ZM253.574 41.4182H254.814L257.731 48.5418H257.831L260.748 41.4182H261.988V50H261.016V43.4798H260.932L258.25 50H257.312L254.63 43.4798H254.546V50H253.574V41.4182ZM264.072 50V41.4182H269.251V42.3401H265.111V45.2398H268.983V46.1616H265.111V49.0781H269.318V50H264.072ZM271.124 50V41.4182H274.024C274.694 41.4182 275.245 41.5327 275.675 41.7618C276.105 41.9881 276.424 42.2995 276.63 42.6962C276.837 43.0929 276.94 43.5441 276.94 44.0497C276.94 44.5554 276.837 45.0037 276.63 45.3948C276.424 45.7859 276.106 46.0932 275.679 46.3167C275.252 46.5374 274.706 46.6477 274.041 46.6477H271.694V45.7091H274.007C274.465 45.7091 274.834 45.642 275.113 45.508C275.396 45.3739 275.599 45.1839 275.725 44.9381C275.854 44.6894 275.918 44.3933 275.918 44.0497C275.918 43.7061 275.854 43.4058 275.725 43.1488C275.597 42.8918 275.391 42.6934 275.109 42.5538C274.827 42.4113 274.454 42.3401 273.99 42.3401H272.163V50H271.124ZM275.164 46.1449L277.276 50H276.069L273.99 46.1449H275.164ZM283.365 43.5636C283.315 43.139 283.111 42.8094 282.753 42.5747C282.396 42.3401 281.957 42.2227 281.438 42.2227C281.058 42.2227 280.725 42.2842 280.44 42.4071C280.158 42.53 279.938 42.699 279.778 42.9141C279.622 43.1292 279.544 43.3737 279.544 43.6474C279.544 43.8765 279.598 44.0735 279.707 44.2383C279.819 44.4003 279.961 44.5358 280.134 44.6447C280.308 44.7509 280.489 44.8389 280.679 44.9087C280.869 44.9758 281.044 45.0303 281.203 45.0722L282.075 45.3068C282.298 45.3655 282.547 45.4465 282.82 45.5499C283.097 45.6532 283.361 45.7943 283.612 45.9731C283.867 46.1491 284.076 46.3754 284.241 46.6519C284.406 46.9285 284.488 47.2679 284.488 47.6702C284.488 48.1339 284.367 48.5529 284.124 48.9273C283.883 49.3016 283.531 49.5991 283.068 49.8198C282.607 50.0405 282.047 50.1509 281.387 50.1509C280.773 50.1509 280.241 50.0517 279.791 49.8533C279.344 49.655 278.992 49.3784 278.735 49.0237C278.481 48.6689 278.337 48.2568 278.303 47.7875H279.376C279.404 48.1116 279.513 48.3797 279.703 48.592C279.896 48.8016 280.139 48.958 280.432 49.0614C280.728 49.1619 281.047 49.2122 281.387 49.2122C281.784 49.2122 282.14 49.148 282.456 49.0195C282.772 48.8882 283.022 48.7066 283.206 48.4747C283.39 48.2401 283.483 47.9663 283.483 47.6534C283.483 47.3685 283.403 47.1366 283.244 46.9578C283.084 46.779 282.875 46.6338 282.615 46.522C282.355 46.4103 282.075 46.3125 281.773 46.2287L280.717 45.927C280.046 45.7342 279.516 45.4591 279.125 45.1015C278.733 44.7439 278.538 44.276 278.538 43.6977C278.538 43.2172 278.668 42.7982 278.928 42.4406C279.19 42.0803 279.542 41.8009 279.984 41.6026C280.428 41.4014 280.924 41.3009 281.471 41.3009C282.024 41.3009 282.516 41.4 282.946 41.5984C283.376 41.7939 283.717 42.0621 283.969 42.4029C284.223 42.7437 284.357 43.1306 284.371 43.5636H283.365ZM289.365 50V49.2457L292.197 46.1449C292.53 45.7817 292.804 45.4661 293.019 45.1979C293.234 44.9269 293.393 44.6727 293.496 44.4352C293.603 44.195 293.656 43.9436 293.656 43.681C293.656 43.3793 293.583 43.1181 293.438 42.8974C293.295 42.6767 293.1 42.5063 292.851 42.3862C292.602 42.266 292.323 42.206 292.013 42.206C291.683 42.206 291.396 42.2744 291.15 42.4113C290.907 42.5454 290.718 42.7339 290.584 42.977C290.453 43.22 290.387 43.505 290.387 43.8318H289.398C289.398 43.329 289.514 42.8876 289.746 42.5077C289.978 42.1277 290.294 41.8316 290.693 41.6193C291.095 41.407 291.546 41.3009 292.047 41.3009C292.549 41.3009 292.995 41.407 293.383 41.6193C293.772 41.8316 294.076 42.118 294.297 42.4783C294.517 42.8387 294.628 43.2396 294.628 43.681C294.628 43.9966 294.571 44.3053 294.456 44.607C294.344 44.9059 294.149 45.2398 293.869 45.6085C293.593 45.9745 293.209 46.4214 292.717 46.9494L290.789 49.0111V49.0781H294.779V50H289.365ZM296.124 48.2401V47.3852L299.895 41.4182H300.515V42.7423H300.096L297.247 47.2511V47.3182H302.325V48.2401H296.124ZM300.163 50V47.9803V47.5822V41.4182H301.152V50H300.163ZM309.963 50.1173C309.388 50.1173 308.879 50.0154 308.438 49.8114C308 49.6047 307.657 49.3212 307.411 48.9608C307.166 48.5976 307.044 48.1842 307.047 47.7205C307.044 47.3573 307.115 47.0221 307.261 46.7148C307.406 46.4047 307.604 46.1463 307.856 45.9396C308.11 45.73 308.393 45.5973 308.706 45.5415V45.4912C308.296 45.385 307.969 45.1546 307.726 44.7998C307.483 44.4422 307.363 44.0357 307.365 43.5804C307.363 43.1446 307.473 42.7549 307.696 42.4113C307.92 42.0677 308.227 41.7967 308.618 41.5984C309.012 41.4 309.461 41.3009 309.963 41.3009C310.461 41.3009 310.905 41.4 311.296 41.5984C311.687 41.7967 311.994 42.0677 312.218 42.4113C312.444 42.7549 312.559 43.1446 312.561 43.5804C312.559 44.0357 312.434 44.4422 312.188 44.7998C311.945 45.1546 311.623 45.385 311.22 45.4912V45.5415C311.531 45.5973 311.81 45.73 312.059 45.9396C312.307 46.1463 312.506 46.4047 312.654 46.7148C312.802 47.0221 312.877 47.3573 312.88 47.7205C312.877 48.1842 312.751 48.5976 312.503 48.9608C312.257 49.3212 311.915 49.6047 311.476 49.8114C311.04 50.0154 310.536 50.1173 309.963 50.1173ZM309.963 49.1955C310.352 49.1955 310.687 49.1326 310.969 49.0069C311.251 48.8812 311.469 48.7038 311.623 48.4747C311.776 48.2456 311.855 47.9775 311.857 47.6702C311.855 47.3461 311.771 47.0598 311.606 46.8112C311.441 46.5625 311.216 46.367 310.931 46.2245C310.649 46.082 310.327 46.0108 309.963 46.0108C309.597 46.0108 309.271 46.082 308.983 46.2245C308.698 46.367 308.473 46.5625 308.308 46.8112C308.146 47.0598 308.067 47.3461 308.069 47.6702C308.067 47.9775 308.141 48.2456 308.291 48.4747C308.445 48.7038 308.664 48.8812 308.949 49.0069C309.234 49.1326 309.572 49.1955 309.963 49.1955ZM309.963 45.1224C310.271 45.1224 310.543 45.061 310.781 44.9381C311.021 44.8152 311.209 44.6433 311.346 44.4227C311.483 44.202 311.553 43.9436 311.556 43.6474C311.553 43.3569 311.484 43.1041 311.35 42.889C311.216 42.6711 311.031 42.5035 310.793 42.3862C310.556 42.266 310.279 42.206 309.963 42.206C309.642 42.206 309.361 42.266 309.121 42.3862C308.881 42.5035 308.695 42.6711 308.564 42.889C308.433 43.1041 308.368 43.3569 308.371 43.6474C308.368 43.9436 308.434 44.202 308.568 44.4227C308.705 44.6433 308.893 44.8152 309.134 44.9381C309.374 45.061 309.651 45.1224 309.963 45.1224ZM317.285 50.1173C316.654 50.1173 316.116 49.9455 315.672 49.6019C315.228 49.2555 314.888 48.7541 314.653 48.0976C314.419 47.4383 314.301 46.6421 314.301 45.7091C314.301 44.7816 314.419 43.9897 314.653 43.3332C314.891 42.6739 315.232 42.171 315.676 41.8246C316.123 41.4754 316.659 41.3009 317.285 41.3009C317.911 41.3009 318.446 41.4754 318.89 41.8246C319.337 42.171 319.678 42.6739 319.912 43.3332C320.15 43.9897 320.268 44.7816 320.268 45.7091C320.268 46.6421 320.151 47.4383 319.916 48.0976C319.682 48.7541 319.342 49.2555 318.898 49.6019C318.454 49.9455 317.916 50.1173 317.285 50.1173ZM317.285 49.1955C317.911 49.1955 318.397 48.8937 318.743 48.2903C319.09 47.6869 319.263 46.8265 319.263 45.7091C319.263 44.966 319.183 44.3333 319.024 43.8109C318.868 43.2885 318.641 42.8904 318.345 42.6166C318.052 42.3429 317.698 42.206 317.285 42.206C316.665 42.206 316.18 42.5119 315.831 43.1237C315.482 43.7326 315.307 44.5945 315.307 45.7091C315.307 46.4522 315.385 47.0835 315.542 47.6031C315.698 48.1227 315.923 48.518 316.216 48.789C316.513 49.06 316.869 49.1955 317.285 49.1955ZM321.66 48.2401V47.3852L325.431 41.4182H326.051V42.7423H325.632L322.783 47.2511V47.3182H327.861V48.2401H321.66ZM325.699 50V47.9803V47.5822V41.4182H326.688V50H325.699ZM333.488 50.067C333.281 50.067 333.104 49.993 332.956 49.845C332.808 49.6969 332.734 49.5195 332.734 49.3128C332.734 49.1061 332.808 48.9287 332.956 48.7806C333.104 48.6326 333.281 48.5585 333.488 48.5585C333.695 48.5585 333.872 48.6326 334.02 48.7806C334.168 48.9287 334.242 49.1061 334.242 49.3128C334.242 49.4497 334.207 49.5754 334.137 49.6899C334.07 49.8045 333.98 49.8966 333.865 49.9665C333.753 50.0335 333.628 50.067 333.488 50.067ZM339.47 50V41.4182H342.369C343.04 41.4182 343.59 41.5327 344.02 41.7618C344.451 41.9881 344.769 42.2995 344.976 42.6962C345.183 43.0929 345.286 43.5441 345.286 44.0497C345.286 44.5554 345.183 45.0037 344.976 45.3948C344.769 45.7859 344.452 46.0932 344.025 46.3167C343.597 46.5374 343.051 46.6477 342.386 46.6477H340.04V45.7091H342.353C342.811 45.7091 343.18 45.642 343.459 45.508C343.741 45.3739 343.945 45.1839 344.071 44.9381C344.199 44.6894 344.263 44.3933 344.263 44.0497C344.263 43.7061 344.199 43.4058 344.071 43.1488C343.942 42.8918 343.737 42.6934 343.455 42.5538C343.173 42.4113 342.8 42.3401 342.336 42.3401H340.509V50H339.47ZM343.509 46.1449L345.621 50H344.414L342.336 46.1449H343.509ZM350.135 47.3182H351.275L352.23 48.5753L352.482 48.9105L353.906 50.8045H352.767L351.828 49.5474L351.593 49.229L350.135 47.3182ZM354.258 45.7091C354.258 46.6142 354.095 47.3964 353.768 48.0557C353.441 48.715 352.993 49.2234 352.423 49.581C351.853 49.9385 351.202 50.1173 350.47 50.1173C349.738 50.1173 349.088 49.9385 348.518 49.581C347.948 49.2234 347.499 48.715 347.173 48.0557C346.846 47.3964 346.682 46.6142 346.682 45.7091C346.682 44.804 346.846 44.0218 347.173 43.3625C347.499 42.7032 347.948 42.1948 348.518 41.8372C349.088 41.4796 349.738 41.3009 350.47 41.3009C351.202 41.3009 351.853 41.4796 352.423 41.8372C352.993 42.1948 353.441 42.7032 353.768 43.3625C354.095 44.0218 354.258 44.804 354.258 45.7091ZM353.253 45.7091C353.253 44.966 353.128 44.3388 352.88 43.8276C352.634 43.3164 352.3 42.9295 351.878 42.6669C351.459 42.4043 350.99 42.273 350.47 42.273C349.951 42.273 349.48 42.4043 349.058 42.6669C348.639 42.9295 348.305 43.3164 348.057 43.8276C347.811 44.3388 347.688 44.966 347.688 45.7091C347.688 46.4522 347.811 47.0793 348.057 47.5906C348.305 48.1018 348.639 48.4887 349.058 48.7513C349.48 49.0139 349.951 49.1452 350.47 49.1452C350.99 49.1452 351.459 49.0139 351.878 48.7513C352.3 48.4887 352.634 48.1018 352.88 47.5906C353.128 47.0793 353.253 46.4522 353.253 45.7091ZM356.006 50V41.4182H361.185V42.3401H357.045V45.2398H360.917V46.1616H357.045V49.0781H361.252V50H356.006ZM369.243 41.4182V50H368.204V42.5077H368.154L366.058 43.8989V42.8429L368.204 41.4182H369.243ZM374.561 50.1173C374.209 50.1117 373.857 50.0447 373.505 49.9162C373.153 49.7877 372.831 49.5712 372.541 49.2667C372.25 48.9594 372.017 48.5446 371.841 48.0222C371.665 47.497 371.577 46.8377 371.577 46.0443C371.577 45.2845 371.648 44.6112 371.791 44.0246C371.933 43.4351 372.14 42.9393 372.411 42.537C372.682 42.1319 373.009 41.8246 373.392 41.6151C373.777 41.4056 374.211 41.3009 374.695 41.3009C375.175 41.3009 375.603 41.3972 375.977 41.59C376.354 41.7799 376.661 42.0453 376.899 42.3862C377.136 42.727 377.29 43.1195 377.36 43.5636H376.337C376.242 43.1781 376.058 42.8583 375.784 42.604C375.51 42.3498 375.147 42.2227 374.695 42.2227C374.03 42.2227 373.506 42.5119 373.123 43.0901C372.743 43.6684 372.552 44.4799 372.549 45.5247H372.616C372.773 45.2873 372.959 45.0847 373.174 44.9171C373.392 44.7467 373.632 44.6154 373.894 44.5232C374.157 44.431 374.435 44.3849 374.728 44.3849C375.22 44.3849 375.67 44.5079 376.078 44.7537C376.485 44.9967 376.812 45.3334 377.058 45.7636C377.304 46.191 377.427 46.6812 377.427 47.2344C377.427 47.7652 377.308 48.2512 377.071 48.6926C376.833 49.1312 376.499 49.4804 376.069 49.7402C375.642 49.9972 375.139 50.1229 374.561 50.1173ZM374.561 49.1955C374.913 49.1955 375.228 49.1075 375.508 48.9315C375.79 48.7555 376.012 48.5194 376.174 48.2233C376.339 47.9272 376.421 47.5975 376.421 47.2344C376.421 46.8796 376.342 46.5569 376.182 46.2664C376.026 45.9731 375.809 45.7398 375.533 45.5666C375.259 45.3934 374.946 45.3068 374.594 45.3068C374.329 45.3068 374.082 45.3599 373.852 45.4661C373.623 45.5694 373.422 45.7119 373.249 45.8935C373.079 46.075 372.945 46.2832 372.847 46.5178C372.749 46.7497 372.7 46.9941 372.7 47.2511C372.7 47.592 372.78 47.9104 372.939 48.2065C373.101 48.5027 373.322 48.7415 373.601 48.9231C373.883 49.1047 374.203 49.1955 374.561 49.1955ZM381.807 41.3009C382.159 41.3036 382.511 41.3707 382.863 41.502C383.215 41.6333 383.536 41.8512 383.827 42.1557C384.117 42.4574 384.35 42.8694 384.526 43.3918C384.702 43.9142 384.79 44.5693 384.79 45.3571C384.79 46.1197 384.718 46.7972 384.572 47.3894C384.43 47.9789 384.223 48.4761 383.952 48.8812C383.684 49.2862 383.357 49.5935 382.972 49.8031C382.589 50.0126 382.156 50.1173 381.673 50.1173C381.192 50.1173 380.763 50.0223 380.386 49.8324C380.012 49.6396 379.705 49.3728 379.464 49.032C379.227 48.6884 379.075 48.2903 379.008 47.8378H380.03C380.122 48.2317 380.305 48.5571 380.579 48.8141C380.856 49.0683 381.22 49.1955 381.673 49.1955C382.335 49.1955 382.857 48.9063 383.24 48.3281C383.625 47.7498 383.818 46.9327 383.818 45.8767H383.751C383.595 46.1114 383.409 46.3139 383.194 46.4843C382.979 46.6547 382.74 46.786 382.477 46.8782C382.215 46.9704 381.935 47.0165 381.639 47.0165C381.147 47.0165 380.696 46.895 380.286 46.6519C379.878 46.4061 379.551 46.0695 379.305 45.642C379.062 45.2118 378.941 44.7202 378.941 44.167C378.941 43.6419 379.058 43.1614 379.293 42.7256C379.53 42.287 379.862 41.9378 380.29 41.678C380.72 41.4182 381.226 41.2925 381.807 41.3009ZM381.807 42.2227C381.455 42.2227 381.138 42.3107 380.856 42.4867C380.576 42.6599 380.354 42.8946 380.189 43.1907C380.027 43.484 379.946 43.8095 379.946 44.167C379.946 44.5246 380.024 44.8501 380.181 45.1434C380.34 45.4339 380.557 45.6658 380.83 45.839C381.107 46.0094 381.421 46.0946 381.773 46.0946C382.039 46.0946 382.286 46.0429 382.515 45.9396C382.744 45.8334 382.944 45.6895 383.114 45.508C383.287 45.3236 383.423 45.1155 383.521 44.8836C383.618 44.6489 383.667 44.4045 383.667 44.1503C383.667 43.8151 383.586 43.5008 383.424 43.2075C383.265 42.9141 383.044 42.6767 382.762 42.4951C382.483 42.3135 382.164 42.2227 381.807 42.2227ZM386.237 48.2401V47.3852L390.008 41.4182H390.628V42.7423H390.209L387.36 47.2511V47.3182H392.439V48.2401H386.237ZM390.277 50V47.9803V47.5822V41.4182H391.265V50H390.277ZM394.009 50V49.2457L396.842 46.1449C397.174 45.7817 397.448 45.4661 397.663 45.1979C397.878 44.9269 398.037 44.6727 398.141 44.4352C398.247 44.195 398.3 43.9436 398.3 43.681C398.3 43.3793 398.227 43.1181 398.082 42.8974C397.94 42.6767 397.744 42.5063 397.495 42.3862C397.247 42.266 396.967 42.206 396.657 42.206C396.328 42.206 396.04 42.2744 395.794 42.4113C395.551 42.5454 395.363 42.7339 395.228 42.977C395.097 43.22 395.032 43.505 395.032 43.8318H394.043C394.043 43.329 394.159 42.8876 394.39 42.5077C394.622 42.1277 394.938 41.8316 395.337 41.6193C395.74 41.407 396.191 41.3009 396.691 41.3009C397.194 41.3009 397.639 41.407 398.028 41.6193C398.416 41.8316 398.72 42.118 398.941 42.4783C399.162 42.8387 399.272 43.2396 399.272 43.681C399.272 43.9966 399.215 44.3053 399.1 44.607C398.989 44.9059 398.793 45.2398 398.514 45.6085C398.237 45.9745 397.853 46.4214 397.361 46.9494L395.434 49.0111V49.0781H399.423V50H394.009Z" fill="#231F20"/>
</g>
<defs>
<clipPath id="clip0_170_29">
<rect width="401.213" height="71.08" fill="white"/>
</clipPath>
</defs>
</svg>
